<svg width="24" height="24" viewBox="0 0 24 24" fill="none" xmlns="http://www.w3.org/2000/svg">
<path d="M18.0742 1.54346C18.462 1.5027 18.9349 1.77519 19.8799 2.3208L21.6201 3.32568C22.5651 3.87128 23.0377 4.14432 23.1963 4.50049C23.3346 4.81116 23.3346 5.16639 23.1963 5.47705C23.0376 5.83307 22.5647 6.10551 21.6201 6.65088L19.8799 7.65576C18.9348 8.20142 18.462 8.47484 18.0742 8.43408C17.736 8.3985 17.4284 8.22091 17.2285 7.9458C17.0135 7.64981 17.0018 7.15083 17.001 6.18896H9C8.03385 6.18896 7.66614 6.19159 7.37402 6.22998C5.22008 6.51351 3.52481 8.20888 3.24121 10.3628C3.2028 10.6549 3.2002 11.0225 3.2002 11.9888C3.2002 12.9552 3.20278 13.3226 3.24121 13.6147C3.52472 15.7686 5.21927 17.4638 7.37305 17.7476C7.66523 17.786 8.03337 17.7886 9 17.7886H15.5C15.9827 17.7886 16.1667 17.7884 16.3135 17.7788C18.7171 17.6213 20.6325 15.7059 20.79 13.3022C20.7996 13.1554 20.7998 12.9715 20.7998 12.4888V11.978C20.8 11.3154 21.3374 10.7778 22 10.7778C22.6626 10.7779 23.2 11.3155 23.2002 11.978V12.4888C23.2002 12.9338 23.2006 13.2145 23.1846 13.4595C22.9483 17.065 20.0762 19.937 16.4707 20.1733C16.2257 20.1894 15.945 20.189 15.5 20.189L9 20.188C8.10974 20.188 7.54789 20.1906 7.06055 20.1265C3.82965 19.7011 1.28667 17.1591 0.861328 13.9282C0.797187 13.4408 0.799804 12.8791 0.799805 11.9888C0.799804 11.0984 0.797197 10.5367 0.861328 10.0493C1.2867 6.8184 3.82961 4.27539 7.06055 3.8501C7.54791 3.78599 8.1097 3.78857 9 3.78857H17.001C17.0018 2.82673 17.0137 2.3278 17.2285 2.03174C17.4284 1.75664 17.7361 1.57905 18.0742 1.54346Z" fill="#F3F6F8"/>
</svg>
