<svg width="24" height="24" viewBox="0 0 24 24" fill="none" xmlns="http://www.w3.org/2000/svg">
<g clip-path="url(#clip0_24452_69121)">
<path d="M8.50684 1.02783C10.965 -0.391401 14.1089 0.450651 15.5283 2.90869L14.4893 3.50928L13.4492 4.10889C12.6925 2.7989 11.0173 2.34962 9.70703 3.10596L9.22168 3.38623C8.7949 3.63263 8.65734 3.71418 8.55762 3.78564C7.47212 4.56375 7.08753 6.00071 7.63867 7.21729C7.6893 7.32893 7.76776 7.46811 8.01367 7.89404L8.53516 8.79736C8.96761 8.78869 9.45391 8.78857 10 8.78857H14C14.9154 8.78857 15.6624 8.7881 16.2705 8.82959C16.8893 8.87183 17.4522 8.9622 17.9902 9.18506C19.264 9.71284 20.276 10.7248 20.8037 11.9985C21.0266 12.5366 21.1169 13.0995 21.1592 13.7183C21.2007 14.3264 21.2002 15.0733 21.2002 15.9888C21.2002 16.9042 21.2007 17.6511 21.1592 18.2593C21.1169 18.8781 21.0266 19.4409 20.8037 19.979C20.276 21.2528 19.264 22.2647 17.9902 22.7925C17.4522 23.0153 16.8893 23.1057 16.2705 23.1479C15.6624 23.1894 14.9154 23.189 14 23.189H10C9.08463 23.189 8.3376 23.1894 7.72949 23.1479C7.11071 23.1057 6.54778 23.0153 6.00977 22.7925C4.73598 22.2647 3.72406 21.2528 3.19629 19.979C2.97342 19.4409 2.88306 18.8781 2.84082 18.2593C2.79933 17.6511 2.7998 16.9042 2.7998 15.9888C2.7998 15.0733 2.79933 14.3264 2.84082 13.7183C2.88305 13.0994 2.97341 12.5366 3.19629 11.9985C3.72167 10.7305 4.7265 9.72162 5.99219 9.19189L5.93555 9.09424C5.71772 8.71696 5.56369 8.45369 5.45215 8.20752C4.42841 5.94789 5.1437 3.27944 7.16016 1.83447C7.37979 1.67711 7.64436 1.52584 8.02148 1.30811L8.50684 1.02783ZM10 11.189C9.05182 11.189 8.40006 11.1895 7.89258 11.2241C7.68729 11.2381 7.52068 11.2586 7.38184 11.2817L7.24414 11.3618L7.2168 11.314C7.10177 11.3402 7.00894 11.3686 6.92871 11.4019C6.24264 11.686 5.69727 12.2314 5.41309 12.9175C5.33157 13.1144 5.26924 13.3851 5.23535 13.8813C5.20073 14.3889 5.2002 15.0405 5.2002 15.9888C5.2002 16.937 5.20073 17.5887 5.23535 18.0962C5.26924 18.5924 5.33158 18.8632 5.41309 19.0601C5.69728 19.7461 6.24267 20.2915 6.92871 20.5757C7.12557 20.6572 7.39649 20.7195 7.89258 20.7534C8.40006 20.788 9.05182 20.7886 10 20.7886H14C14.9482 20.7886 15.5999 20.788 16.1074 20.7534C16.6035 20.7195 16.8744 20.6572 17.0713 20.5757C17.7573 20.2915 18.3028 19.7461 18.5869 19.0601C18.6684 18.8632 18.7308 18.5924 18.7646 18.0962C18.7993 17.5887 18.7998 16.937 18.7998 15.9888C18.7998 15.0405 18.7993 14.3888 18.7646 13.8813C18.7308 13.3852 18.6684 13.1143 18.5869 12.9175C18.3028 12.2315 17.7573 11.6861 17.0713 11.4019C16.8744 11.3204 16.6035 11.258 16.1074 11.2241C15.5999 11.1895 14.9482 11.189 14 11.189H10ZM12 13.7886C12.6626 13.7887 13.2001 14.3261 13.2002 14.9888V16.9888C13.2002 17.6515 12.6627 18.1889 12 18.189C11.3373 18.189 10.7998 17.6515 10.7998 16.9888V14.9888C10.7999 14.3261 11.3373 13.7886 12 13.7886Z" fill="#F3F6F8"/>
</g>
<defs>
<clipPath id="clip0_24452_69121">
<rect width="24" height="24" fill="white"/>
</clipPath>
</defs>
</svg>
