<svg width="24" height="24" viewBox="0 0 24 24" fill="none" xmlns="http://www.w3.org/2000/svg">
<path d="M16.1416 0.978516C16.6048 0.978544 17.0543 1.13941 17.4121 1.43359L21.9053 5.12793C22.5982 5.69778 23 6.54813 23 7.44531V18.9785C23 21.1876 21.2091 22.9784 19 22.9785H9C6.79086 22.9785 5 21.1877 5 18.9785V18.5H7V18.9785C7 20.0831 7.89543 20.9785 9 20.9785H19C20.1045 20.9784 21 20.083 21 18.9785V9H16C14.8954 9 14 8.10457 14 7V2.97852H9C7.89543 2.97852 7 3.87395 7 4.97852V9.5H5V4.97852C5 2.76938 6.79086 0.978516 9 0.978516H16.1416ZM10 10.5C10 10.0881 10.4702 9.85268 10.7998 10.0996L15.4668 13.5996C15.7335 13.7996 15.7335 14.2004 15.4668 14.4004L10.7998 17.9004C10.4702 18.1473 10 17.9119 10 17.5V15.1787H2C1.33726 15.1787 0.799805 14.6413 0.799805 13.9785C0.799805 13.3158 1.33726 12.7783 2 12.7783H10V10.5ZM16 7H20.8945C20.8325 6.87542 20.7449 6.76339 20.6348 6.67285L16.1416 2.97852H16V7Z" fill="#F3F6F8"/>
</svg>
