<svg width="59" height="14" viewBox="0 0 59 14" fill="none" xmlns="http://www.w3.org/2000/svg">
<g clip-path="url(#clip0_23984_17558)">
<path d="M18.4233 2.04934C18.2069 1.24273 17.5694 0.607397 16.7598 0.391816C15.2924 2.47955e-05 9.40825 2.47955e-05 9.40825 2.47955e-05C9.40825 2.47955e-05 3.52419 2.47955e-05 2.05674 0.391816C1.24721 0.607397 0.60957 1.24273 0.39321 2.04934C0 3.51147 0 6.56197 0 6.56197C0 6.56197 0 9.61259 0.39321 11.0747C0.60957 11.8812 1.24721 12.5166 2.05674 12.7321C3.52419 13.124 9.40825 13.124 9.40825 13.124C9.40825 13.124 15.2924 13.124 16.7598 12.7321C17.5694 12.5166 18.2069 11.8812 18.4233 11.0747C18.8166 9.61259 18.8166 6.56197 18.8166 6.56197C18.8166 6.56197 18.8166 3.51147 18.4233 2.04934Z" fill="#ED1D24"/>
<path d="M7.52686 9.375L12.4154 6.56275L7.52686 3.75042V9.375Z" fill="white"/>
<path d="M29.3982 10.6533C29.5012 10.3853 29.5529 9.94736 29.5529 9.33957V6.77858C29.5529 6.18869 29.5012 5.75753 29.3982 5.48482C29.295 5.21226 29.1133 5.07585 28.8533 5.07585C28.602 5.07585 28.4247 5.21226 28.3217 5.48482C28.2185 5.75753 28.167 6.18869 28.167 6.77858V9.33957C28.167 9.94736 28.2162 10.3853 28.315 10.6533C28.4135 10.9215 28.5929 11.0555 28.8533 11.0555C29.1133 11.0555 29.295 10.9215 29.3982 10.6533ZM27.3126 11.9405C26.9401 11.6905 26.6754 11.3015 26.5186 10.774C26.3616 10.2468 26.2832 9.54507 26.2832 8.66909V7.47582C26.2832 6.59096 26.3727 5.88029 26.5522 5.34404C26.7316 4.80776 27.0118 4.41681 27.3933 4.17092C27.7745 3.9252 28.2746 3.80222 28.8937 3.80222C29.5036 3.80222 29.9925 3.92744 30.3603 4.1776C30.728 4.42785 30.9972 4.81904 31.1678 5.35074C31.338 5.88263 31.4233 6.59096 31.4233 7.47582V8.66909C31.4233 9.54507 31.3403 10.2491 31.1744 10.7808C31.0084 11.3126 30.7392 11.7015 30.367 11.9472C29.9946 12.1929 29.4902 12.3159 28.8533 12.3159C28.1982 12.3159 27.6846 12.1906 27.3126 11.9405Z" fill="white"/>
<path d="M56.1278 5.22796C56.0338 5.34418 55.9707 5.53413 55.9395 5.79771C55.9079 6.06144 55.8925 6.46136 55.8925 6.99765V7.5876H57.2514V6.99765C57.2514 6.47041 57.2334 6.07042 57.1976 5.79771C57.1617 5.52515 57.0968 5.33309 57.0026 5.22126C56.9083 5.1095 56.7625 5.05362 56.5652 5.05362C56.3677 5.05362 56.222 5.11184 56.1278 5.22796ZM55.8925 8.68706V9.10272C55.8925 9.63022 55.9079 10.0257 55.9395 10.2892C55.9707 10.553 56.0356 10.7452 56.1346 10.8659C56.2333 10.9864 56.3855 11.0469 56.5922 11.0469C56.87 11.0469 57.0608 10.9396 57.164 10.725C57.267 10.5105 57.3231 10.153 57.3321 9.65233L58.9334 9.74625C58.9424 9.81799 58.9469 9.91626 58.9469 10.0412C58.9469 10.8011 58.7384 11.3687 58.3212 11.7441C57.9042 12.1193 57.3141 12.3071 56.5517 12.3071C55.6368 12.3071 54.9953 12.0212 54.6275 11.449C54.2595 10.8772 54.0757 9.99222 54.0757 8.79436V7.35967C54.0757 6.12619 54.2663 5.22585 54.6477 4.65803C55.0289 4.0905 55.6816 3.8067 56.6056 3.8067C57.2424 3.8067 57.7314 3.92292 58.0723 4.15526C58.413 4.38783 58.6531 4.74984 58.7922 5.24128C58.9313 5.73295 59.0008 6.41236 59.0008 7.27925V8.68706H55.8925Z" fill="white"/>
<path d="M22.7909 8.5336L20.6782 0.931451H22.5217L23.2618 4.37723C23.4503 5.22657 23.5892 5.95054 23.6789 6.54922H23.7328C23.7955 6.12024 23.9346 5.40079 24.1499 4.39067L24.9169 0.931451H26.7604L24.6209 8.5336V12.1807H22.7909V8.5336Z" fill="white"/>
<path d="M37.4189 3.96318V12.182H35.9655L35.804 11.1764H35.7637C35.3689 11.9361 34.7768 12.3159 33.9875 12.3159C33.4402 12.3159 33.0366 12.1374 32.7764 11.7797C32.5162 11.4224 32.3862 10.8635 32.3862 10.1038V3.96318H34.2432V9.99649C34.2432 10.3632 34.2836 10.6245 34.3643 10.7808C34.445 10.9374 34.5796 11.0155 34.7679 11.0155C34.9295 11.0155 35.0842 10.9665 35.2321 10.8679C35.3802 10.7696 35.49 10.6447 35.5619 10.4927V3.96318H37.4189Z" fill="white"/>
<path d="M46.9438 3.96318V12.182H45.4904L45.3289 11.1764H45.2888C44.8937 11.9361 44.3017 12.3159 43.5124 12.3159C42.9651 12.3159 42.5615 12.1374 42.3013 11.7797C42.0411 11.4224 41.9111 10.8635 41.9111 10.1038V3.96318H43.7681V9.99649C43.7681 10.3632 43.8084 10.6245 43.8891 10.7808C43.9699 10.9374 44.1045 11.0155 44.2928 11.0155C44.4544 11.0155 44.6091 10.9665 44.757 10.8679C44.9051 10.7696 45.0149 10.6447 45.0868 10.4927V3.96318H46.9438Z" fill="white"/>
<path d="M42.4649 2.41999H40.6214V12.1807H38.8049V2.41999H36.9614V0.9317H42.4649V2.41999Z" fill="white"/>
<path d="M51.3877 8.62816C51.3877 9.22707 51.3628 9.69638 51.3135 10.0359C51.2643 10.3758 51.1812 10.6171 51.0646 10.7599C50.948 10.903 50.7908 10.9744 50.5938 10.9744C50.441 10.9744 50.2998 10.9388 50.1698 10.8671C50.0396 10.7957 49.9344 10.6885 49.8535 10.5453V5.87956C49.9163 5.65626 50.0239 5.47293 50.1765 5.32989C50.3291 5.18707 50.4948 5.11539 50.6743 5.11539C50.8628 5.11539 51.0084 5.18919 51.1117 5.33657C51.2147 5.48403 51.2866 5.7321 51.327 6.08078C51.3674 6.42929 51.3877 6.92537 51.3877 7.5689V8.62816ZM53.0898 5.27569C52.9775 4.75742 52.7958 4.38204 52.5447 4.14947C52.2935 3.91725 51.9481 3.80096 51.5087 3.80096C51.1678 3.80096 50.8493 3.89711 50.5533 4.08917C50.2573 4.28142 50.0284 4.53396 49.867 4.84676H49.8534L49.8535 0.516071H48.064V12.1805H49.5978L49.7863 11.403H49.8266C49.97 11.68 50.1853 11.8991 50.4725 12.06C50.7595 12.2208 51.0781 12.3013 51.428 12.3013C52.0557 12.3013 52.5178 12.0129 52.8139 11.4365C53.1099 10.8599 53.258 9.95953 53.258 8.73486V7.43434C53.258 6.51381 53.2018 5.79426 53.0898 5.27569Z" fill="white"/>
</g>
<defs>
<clipPath id="clip0_23984_17558">
<rect width="59" height="13.124" fill="white"/>
</clipPath>
</defs>
</svg>
