<svg width="24" height="24" viewBox="0 0 24 24" fill="none" xmlns="http://www.w3.org/2000/svg">
<path d="M22 17.9888H2V15.9888H22V17.9888ZM4.55664 8.48291L6.58301 7.64893L7 8.89307L4.85059 9.47998L6.27734 11.2056L5.15625 11.9751L3.95801 10.0591L2.75879 11.9097L1.63867 11.1733L3.11719 9.40186L1 8.81494L1.42383 7.5835L3.49512 8.43701L3.33887 6.14404H4.72656L4.55664 8.48291ZM12.5566 8.48291L14.583 7.64893L15 8.89307L12.8506 9.47998L14.2773 11.2056L13.1562 11.9751L11.958 10.0591L10.7588 11.9097L9.63867 11.1733L11.1172 9.40186L9 8.81494L9.42383 7.5835L11.4951 8.43701L11.3389 6.14404H12.7266L12.5566 8.48291ZM20.5566 8.48291L22.583 7.64893L23 8.89307L20.8506 9.47998L22.2773 11.2056L21.1562 11.9751L19.958 10.0591L18.7588 11.9097L17.6387 11.1733L19.1172 9.40186L17 8.81494L17.4238 7.5835L19.4951 8.43701L19.3389 6.14404H20.7266L20.5566 8.48291Z" fill="#F3F6F8"/>
</svg>
