<svg width="24" height="24" viewBox="0 0 24 24" fill="none" xmlns="http://www.w3.org/2000/svg">
<g clip-path="url(#clip0_24452_69131)">
<path d="M12.0005 0.799805C18.186 0.79991 23.2007 5.81448 23.2007 12C23.2006 18.1854 18.1859 23.2001 12.0005 23.2002C5.81498 23.2002 0.800425 18.1855 0.800293 12C0.800293 5.81441 5.8149 0.799805 12.0005 0.799805ZM12.0005 3.2002C7.14038 3.2002 3.20068 7.13989 3.20068 12C3.20082 16.86 7.14046 20.7998 12.0005 20.7998C16.8604 20.7997 20.8002 16.8599 20.8003 12C20.8003 7.13996 16.8605 3.2003 12.0005 3.2002ZM12.0005 15.5C12.8287 15.5003 13.5005 16.1717 13.5005 17C13.5004 17.8282 12.8286 18.4997 12.0005 18.5C11.1721 18.5 10.5006 17.8283 10.5005 17C10.5005 16.1716 11.1721 15.5 12.0005 15.5ZM11.9995 5.28809C12.6619 5.28781 13.1999 5.8249 13.2007 6.4873V12.9883C13.2007 13.6507 12.6638 14.1879 12.0015 14.1885C11.3387 14.1885 10.8013 13.651 10.8013 12.9883V6.98926L10.8003 6.48926C10.7999 5.82672 11.3369 5.28873 11.9995 5.28809Z" fill="#F3F6F8"/>
</g>
<defs>
<clipPath id="clip0_24452_69131">
<rect width="24" height="24" fill="white"/>
</clipPath>
</defs>
</svg>
