<svg width="24" height="24" viewBox="0 0 24 24" fill="none" xmlns="http://www.w3.org/2000/svg">
<path fill-rule="evenodd" clip-rule="evenodd" d="M12 22C17.5228 22 22 17.5228 22 12C22 6.47715 17.5228 2 12 2C6.47715 2 2 6.47715 2 12C2 17.5228 6.47715 22 12 22Z" fill="url(#paint0_linear_24452_69294)"/>
<g clip-path="url(#clip0_24452_69294)">
<g clip-path="url(#clip1_24452_69294)">
<path d="M12 6C15.3804 6 18 8.4762 18 11.82C18 15.1638 15.3804 17.64 12 17.64C11.4133 17.6415 10.829 17.564 10.263 17.4096C10.1567 17.3804 10.0435 17.3886 9.9426 17.433L8.7522 17.9586C8.68028 17.9904 8.60165 18.004 8.52322 17.9983C8.4448 17.9926 8.36898 17.9677 8.30244 17.9258C8.2359 17.8839 8.18066 17.8263 8.1416 17.758C8.10253 17.6898 8.08083 17.613 8.0784 17.5344L8.0454 16.4664C8.04324 16.4015 8.02786 16.3376 8.00022 16.2788C7.97257 16.22 7.93323 16.1675 7.8846 16.1244C6.717 15.081 6 13.5702 6 11.82C6 8.4762 8.6202 6 12 6ZM8.397 13.5222C8.2278 13.7904 8.5578 14.0928 8.8104 13.9008L10.7034 12.4644C10.7659 12.4172 10.842 12.3917 10.9203 12.3917C10.9986 12.3917 11.0747 12.4172 11.1372 12.4644L12.5394 13.5144C12.6389 13.589 12.7527 13.6422 12.8737 13.6706C12.9948 13.699 13.1204 13.7021 13.2427 13.6795C13.365 13.657 13.4812 13.6093 13.5842 13.5396C13.6871 13.4699 13.7745 13.3796 13.8408 13.2744L15.603 10.4784C15.7722 10.2096 15.4422 9.9072 15.1896 10.0986L13.2966 11.5362C13.2341 11.5834 13.158 11.6089 13.0797 11.6089C13.0014 11.6089 12.9253 11.5834 12.8628 11.5362L11.4606 10.4862C11.3611 10.4116 11.2473 10.3584 11.1263 10.33C11.0052 10.3016 10.8796 10.2985 10.7573 10.3211C10.635 10.3436 10.5188 10.3913 10.4158 10.461C10.3129 10.5307 10.2255 10.621 10.1592 10.7262L8.397 13.5222Z" fill="white"/>
</g>
</g>
<defs>
<linearGradient id="paint0_linear_24452_69294" x1="17" y1="2" x2="8" y2="22" gradientUnits="userSpaceOnUse">
<stop stop-color="#FF567C"/>
<stop offset="0.550767" stop-color="#A735F5"/>
<stop offset="1" stop-color="#128DFF"/>
</linearGradient>
<clipPath id="clip0_24452_69294">
<rect width="16" height="16" fill="white" transform="translate(4 4)"/>
</clipPath>
<clipPath id="clip1_24452_69294">
<rect width="16" height="16" fill="white" transform="translate(4 4)"/>
</clipPath>
</defs>
</svg>
