<svg width="24" height="24" viewBox="0 0 24 24" fill="none" xmlns="http://www.w3.org/2000/svg">
<path d="M11.9995 3.77734C16.1843 3.77734 18.9894 5.74118 20.7163 7.67871C21.5739 8.64098 22.1709 9.60026 22.5542 10.3193C22.7464 10.68 22.8869 10.9838 22.981 11.2021C23.0279 11.3113 23.0636 11.3993 23.0884 11.4629C23.1008 11.4947 23.1096 11.5209 23.1167 11.54L23.1284 11.5713C23.1288 11.5724 23.13 11.5743 23.1304 11.5752V11.5762C23.1244 11.5789 23.0442 11.6078 21.9995 11.9775C23.0546 12.3509 23.1258 12.3767 23.1304 12.3789V12.3799C23.1299 12.3809 23.1288 12.3828 23.1284 12.3838L23.1167 12.415C23.1096 12.4341 23.1007 12.4606 23.0884 12.4922C23.0636 12.5557 23.0279 12.644 22.981 12.7529C22.8869 12.9712 22.7463 13.2753 22.5542 13.6357C22.1709 14.3548 21.5738 15.3142 20.7163 16.2764C18.9894 18.2138 16.1841 20.1777 11.9995 20.1777C7.81494 20.1776 5.00957 18.2139 3.28271 16.2764C2.42516 15.3141 1.82807 14.3548 1.44482 13.6357C1.25261 13.2751 1.11208 12.9712 1.01807 12.7529C0.971082 12.6438 0.935417 12.5557 0.910645 12.4922C0.898251 12.4604 0.889427 12.4342 0.882324 12.415L0.870605 12.3838C0.870202 12.3827 0.868992 12.3808 0.868652 12.3799V12.3789C0.869618 12.3779 0.905628 12.3646 1.99951 11.9775C0.905508 11.5904 0.869619 11.5771 0.868652 11.5762V11.5752C0.868949 11.5744 0.870112 11.5724 0.870605 11.5713L0.882324 11.54C0.889405 11.521 0.898313 11.4946 0.910645 11.4629C0.935392 11.3994 0.971149 11.3111 1.01807 11.2021C1.11205 10.9839 1.2527 10.6798 1.44482 10.3193C1.82805 9.60034 2.42526 8.64088 3.28271 7.67871C5.00957 5.74121 7.81494 3.77749 11.9995 3.77734ZM11.9995 6.17773C8.66196 6.17788 6.46703 7.71411 5.07471 9.27637C4.37285 10.064 3.87923 10.8549 3.56299 11.4482C3.45425 11.6523 3.36802 11.8321 3.30127 11.9775C3.36805 12.123 3.45417 12.3027 3.56299 12.5068C3.87926 13.1002 4.37275 13.891 5.07471 14.6787C6.46703 16.241 8.66196 17.7772 11.9995 17.7773C15.3371 17.7773 17.5319 16.2409 18.9243 14.6787C19.6262 13.8912 20.1197 13.1002 20.436 12.5068C20.5447 12.303 20.63 12.1229 20.6968 11.9775C20.63 11.8321 20.5448 11.6522 20.436 11.4482C20.1197 10.8548 19.6263 10.0641 18.9243 9.27637C17.5319 7.71408 15.3372 6.17773 11.9995 6.17773ZM11.9995 7.77734C14.3191 7.77734 16.1997 9.65794 16.1997 11.9775C16.1996 14.297 14.319 16.1777 11.9995 16.1777C9.68019 16.1775 7.79942 14.2969 7.79932 11.9775C7.79932 9.6581 9.68013 7.77759 11.9995 7.77734ZM11.9995 10.1777C11.0056 10.178 10.1997 10.9836 10.1997 11.9775C10.1998 12.9714 11.0057 13.7771 11.9995 13.7773C12.9936 13.7773 13.7992 12.9716 13.7993 11.9775C13.7993 10.9834 12.9936 10.1777 11.9995 10.1777ZM1.99951 11.9775L0.868652 12.3779L0.727051 11.9775L0.868652 11.5771L1.99951 11.9775ZM23.272 11.9775L23.1304 12.3779L21.9995 11.9775L23.1304 11.5771L23.272 11.9775Z" fill="#F3F6F8"/>
</svg>
