<svg width="24" height="24" viewBox="0 0 24 24" fill="none" xmlns="http://www.w3.org/2000/svg">
<g clip-path="url(#clip0_24452_69257)">
<path d="M0.799652 12C0.799652 5.81441 5.81452 0.799539 12.0001 0.799539C18.1856 0.799682 23.2006 5.8145 23.2006 12C23.2006 18.1855 18.1856 23.2003 12.0001 23.2005C5.81452 23.2005 0.799652 18.1856 0.799652 12ZM12.0001 3.19984C7.14001 3.19984 3.19995 7.13989 3.19995 12C3.19995 16.8601 7.14001 20.8002 12.0001 20.8002C16.8601 20.8 20.8003 16.86 20.8003 12C20.8003 7.13998 16.8601 3.19998 12.0001 3.19984ZM8.47839 8.4548C8.947 7.98654 9.70719 7.98642 10.1757 8.4548L12.0457 10.3248L13.9157 8.4548C14.3843 7.98651 15.1445 7.9863 15.613 8.4548C16.0812 8.92334 16.0812 9.68358 15.613 10.1521L13.743 12.0221L15.6137 13.8928C16.0816 14.3613 16.0818 15.1216 15.6137 15.5901C15.1453 16.0585 14.385 16.0581 13.9163 15.5901L12.0457 13.7194L10.175 15.5901C9.7065 16.0585 8.94633 16.0584 8.4777 15.5901C8.00912 15.1215 8.00915 14.3614 8.4777 13.8928L10.3484 12.0221L8.47839 10.1521C8.00991 9.6835 8.00983 8.92338 8.47839 8.4548Z" fill="#F3F6F8"/>
</g>
<defs>
<clipPath id="clip0_24452_69257">
<rect width="24" height="24" fill="white"/>
</clipPath>
</defs>
</svg>
