<svg width="24" height="24" viewBox="0 0 24 24" fill="none" xmlns="http://www.w3.org/2000/svg">
<circle cx="12" cy="12" r="10" fill="#FFCD22"/>
<path d="M15.6137 8.05555C13.9035 7.94545 10.0944 7.9459 8.38651 8.05555C6.53724 8.17459 6.31943 9.22806 6.30566 12.0009C6.31943 14.7689 6.53534 15.8268 8.38651 15.9463C10.0948 16.0559 13.9035 16.0564 15.6137 15.9463C17.463 15.8273 17.6808 14.7738 17.6946 12.0009C17.6808 9.23298 17.4649 8.17503 15.6137 8.05555Z" fill="#FAFAFA"/>
<path d="M12.6582 9.39697C12.7836 9.39707 12.8857 9.49905 12.8857 9.62451V12.5874H13.6592C13.8445 12.5877 13.9368 12.8117 13.8057 12.9429L12.1816 14.5669C12.1003 14.6483 11.9681 14.6483 11.8867 14.5669L10.2627 12.9429C10.1315 12.8116 10.2246 12.5874 10.4102 12.5874H11.1836V11.5259H12.8848V11.1001H11.1836V10.4614H12.8848V10.0356H11.1836V9.62451C11.1836 9.49915 11.2849 9.39723 11.4102 9.39697H12.6582Z" fill="#FF4210"/>
</svg>
