<svg width="24" height="24" viewBox="0 0 24 24" fill="none" xmlns="http://www.w3.org/2000/svg">
<path d="M11.7783 1.94385C12.8367 1.99643 13.8189 2.51274 14.4619 3.35498C14.9209 3.95636 15.0673 4.69921 15.1338 5.42529C15.2015 6.16501 15.2002 7.11803 15.2002 8.27686V15.6772C15.2002 16.8361 15.2015 17.7891 15.1338 18.5288C15.0673 19.2549 14.9209 19.9977 14.4619 20.5991C13.8189 21.4415 12.8368 21.9577 11.7783 22.0103C11.0228 22.0477 10.3283 21.7476 9.69238 21.3911C9.04444 21.0278 8.25962 20.4871 7.30469 19.8306L6.10156 19.0034C5.92152 18.8796 5.88426 18.8552 5.85156 18.8364C5.69878 18.7489 5.52804 18.6955 5.35254 18.6812C5.3149 18.6781 5.27089 18.6772 5.05176 18.6772C4.50849 18.6772 4.04607 18.6837 3.6377 18.5952C2.25825 18.2962 1.18075 17.2188 0.881836 15.8394C0.793425 15.431 0.799802 14.9685 0.799805 14.4253V9.52881C0.799799 8.98565 0.793366 8.52306 0.881836 8.11475C1.18085 6.73538 2.25829 5.65779 3.6377 5.35889C4.04607 5.2704 4.50849 5.27685 5.05176 5.27686C5.271 5.27686 5.31489 5.27603 5.35254 5.27295C5.52812 5.25855 5.69872 5.20528 5.85156 5.11768C5.88425 5.09891 5.92149 5.07448 6.10156 4.95068L7.30469 4.12354C8.25968 3.46698 9.04442 2.92628 9.69238 2.56299C10.3283 2.20648 11.0228 1.90644 11.7783 1.94385ZM11.6592 4.34131C11.6041 4.33871 11.4058 4.35426 10.8662 4.65674C10.3369 4.9535 9.65844 5.41744 8.66406 6.10107L7.46094 6.9292C7.31152 7.03192 7.18249 7.12183 7.04492 7.20068C6.58644 7.46347 6.07552 7.62135 5.54883 7.66455C5.39072 7.67751 5.23319 7.67725 5.05176 7.67725C4.38341 7.67725 4.23943 7.68424 4.14551 7.70459C3.68612 7.80431 3.32737 8.16321 3.22754 8.62256C3.20719 8.71647 3.2002 8.86068 3.2002 9.52881V14.4253C3.2002 15.0929 3.20724 15.2376 3.22754 15.3315C3.32727 15.791 3.68608 16.1497 4.14551 16.2495C4.23943 16.2699 4.38341 16.2769 5.05176 16.2769C5.23317 16.2769 5.39074 16.2766 5.54883 16.2896C6.07544 16.3327 6.58649 16.4907 7.04492 16.7534C7.18245 16.8322 7.31158 16.9222 7.46094 17.0249L8.66406 17.853C9.65836 18.5366 10.3369 19.0006 10.8662 19.2974C11.4059 19.5999 11.6041 19.6154 11.6592 19.6128C12.0119 19.5953 12.3394 19.4237 12.5537 19.1431C12.5869 19.0994 12.6867 18.9269 12.7432 18.3101C12.7985 17.7058 12.7998 16.8837 12.7998 15.6772V8.27686C12.7998 7.07035 12.7985 6.24827 12.7432 5.64404C12.6866 5.02662 12.5868 4.85438 12.5537 4.81104C12.3394 4.53058 12.0118 4.35882 11.6592 4.34131ZM20.543 5.86768C21.1556 5.61546 21.8569 5.90755 22.1094 6.52002C22.816 8.23599 23.2001 10.071 23.2002 11.9771C23.2002 13.8831 22.816 15.7181 22.1094 17.4341C21.857 18.0468 21.1557 18.3388 20.543 18.0864C19.9304 17.834 19.6383 17.1327 19.8906 16.52C20.483 15.0813 20.7998 13.5562 20.7998 11.9771C20.7998 10.398 20.4831 8.87278 19.8906 7.43408C19.6385 6.82139 19.9304 6.12005 20.543 5.86768ZM17.1982 8.0249C17.7247 7.85822 18.2864 8.14978 18.4531 8.67627C18.7856 9.72619 18.9648 10.8436 18.9648 12.0005C18.9648 13.1574 18.7856 14.2748 18.4531 15.3247C18.2862 15.8509 17.7245 16.1426 17.1982 15.9761C16.6719 15.8094 16.3805 15.2476 16.5469 14.7212C16.8183 13.8643 16.9648 12.9502 16.9648 12.0005C16.9648 11.0508 16.8182 10.1367 16.5469 9.27979C16.3802 8.75334 16.6718 8.19169 17.1982 8.0249Z" fill="#F3F6F8"/>
</svg>
