<svg width="24" height="24" viewBox="0 0 24 24" fill="none" xmlns="http://www.w3.org/2000/svg">
<path d="M22 4.77734C22.6626 4.77745 23.2002 5.31487 23.2002 5.97754C23.2001 6.64012 22.6626 7.17762 22 7.17773H21.1201L20.4863 15.874C20.4115 16.9007 20.351 17.7412 20.2471 18.4209C20.1409 19.1149 19.9775 19.7383 19.6455 20.3154C19.1237 21.2223 18.3397 21.9506 17.3975 22.4053C16.7977 22.6945 16.1628 22.8137 15.4629 22.8691C14.7776 22.9233 13.9352 22.9219 12.9062 22.9219H11.0938C10.0649 22.9219 9.22239 22.9233 8.53711 22.8691C7.83726 22.8137 7.2022 22.6944 6.60254 22.4053C5.6605 21.9506 4.87624 21.222 4.35449 20.3154C4.02266 19.7385 3.85904 19.1147 3.75293 18.4209C3.64904 17.7412 3.58845 16.9006 3.51367 15.874L2.87988 7.17773H2C1.33733 7.17773 0.79991 6.64019 0.799805 5.97754C0.799805 5.3148 1.33726 4.77735 2 4.77734H22ZM5.90723 15.7002C5.98474 16.7643 6.03882 17.4936 6.125 18.0576C6.20896 18.6067 6.31189 18.9031 6.43555 19.1182C6.71649 19.6063 7.13831 19.9994 7.64551 20.2441C7.86894 20.3518 8.17219 20.4327 8.72559 20.4766C9.29438 20.5216 10.0266 20.5225 11.0938 20.5225H12.9062C13.9734 20.5225 14.7056 20.5216 15.2744 20.4766C15.828 20.4327 16.131 20.3519 16.3545 20.2441C16.8619 19.9993 17.2835 19.6065 17.5645 19.1182C17.6882 18.903 17.791 18.607 17.875 18.0576C17.9612 17.4936 18.0153 16.7645 18.0928 15.7002L18.71 7.23242H5.29102L5.90723 15.7002ZM10 9.77734C10.6627 9.77734 11.2002 10.3148 11.2002 10.9775V15.9775C11.2001 16.6402 10.6627 17.1777 10 17.1777C9.33734 17.1777 8.79994 16.6402 8.7998 15.9775V10.9775C8.7998 10.3148 9.33726 9.77735 10 9.77734ZM14 9.77734C14.6627 9.77734 15.2002 10.3148 15.2002 10.9775V15.9775C15.2001 16.6402 14.6627 17.1777 14 17.1777C13.3373 17.1777 12.7999 16.6402 12.7998 15.9775V10.9775C12.7998 10.3148 13.3373 9.77735 14 9.77734ZM15 1.77734C15.6627 1.77734 16.2002 2.3148 16.2002 2.97754C16.2001 3.64019 15.6627 4.17773 15 4.17773H9C8.33733 4.17773 7.79991 3.64019 7.7998 2.97754C7.7998 2.3148 8.33726 1.77735 9 1.77734H15Z" fill="#F3F6F8"/>
</svg>
