<svg width="24" height="24" viewBox="0 0 24 24" fill="none" xmlns="http://www.w3.org/2000/svg">
<path fill-rule="evenodd" clip-rule="evenodd" d="M12 22C17.5228 22 22 17.5228 22 12C22 6.47715 17.5228 2 12 2C6.47715 2 2 6.47715 2 12C2 17.5228 6.47715 22 12 22Z" fill="#52CE5F"/>
<g clip-path="url(#clip0_24452_69291)">
<path d="M6.16885 17.8332L6.95751 14.9352C6.43784 14.0443 6.16482 13.0312 6.16651 11.9998C6.16651 8.77809 8.7781 6.1665 11.9998 6.1665C15.2216 6.1665 17.8332 8.77809 17.8332 11.9998C17.8332 15.2216 15.2216 17.8332 11.9998 17.8332C10.969 17.8348 9.95623 17.562 9.06568 17.0428L6.16885 17.8332ZM9.89459 9.26284C9.81926 9.26751 9.74565 9.28736 9.67818 9.32117C9.6149 9.357 9.55713 9.4018 9.50668 9.45417C9.43668 9.52009 9.39701 9.57725 9.35443 9.63267C9.13883 9.91325 9.02287 10.2577 9.02484 10.6115C9.02601 10.8973 9.10068 11.1756 9.21734 11.4358C9.45593 11.9619 9.84851 12.519 10.3671 13.0353C10.4919 13.1595 10.6138 13.2843 10.7451 13.4004C11.3887 13.9671 12.1557 14.3758 12.9851 14.5939L13.317 14.6447C13.4249 14.6505 13.5328 14.6423 13.6413 14.6371C13.8112 14.6283 13.9771 14.5823 14.1273 14.5023C14.2241 14.451 14.2696 14.4253 14.3507 14.374C14.3507 14.374 14.3758 14.3577 14.4236 14.3215C14.5023 14.2632 14.5508 14.2218 14.6161 14.1535C14.6645 14.1033 14.7065 14.0444 14.7386 13.9773C14.7841 13.8823 14.8296 13.7008 14.8483 13.5498C14.8623 13.4343 14.8582 13.3713 14.8564 13.3322C14.8541 13.2698 14.8022 13.205 14.7456 13.1776L14.4061 13.0253C14.4061 13.0253 13.8986 12.8043 13.5888 12.6631C13.5562 12.6489 13.5212 12.6407 13.4856 12.6392C13.4457 12.6351 13.4054 12.6396 13.3673 12.6523C13.3293 12.6651 13.2944 12.6859 13.2651 12.7133V12.7121C13.2622 12.7121 13.2231 12.7453 12.8013 13.2563C12.7771 13.2889 12.7438 13.3134 12.7056 13.327C12.6673 13.3405 12.6259 13.3423 12.5867 13.3322C12.5487 13.322 12.5114 13.3091 12.4753 13.2937C12.4029 13.2633 12.3778 13.2517 12.3283 13.2301L12.3253 13.2289C11.9916 13.0832 11.6826 12.8864 11.4095 12.6456C11.336 12.5814 11.2678 12.5114 11.1978 12.4438C10.9683 12.224 10.7683 11.9753 10.6028 11.7041L10.5683 11.6487C10.5436 11.6114 10.5236 11.5713 10.5088 11.5291C10.4867 11.4433 10.5444 11.3745 10.5444 11.3745C10.5444 11.3745 10.6862 11.2193 10.7521 11.1353C10.807 11.0655 10.8582 10.9929 10.9055 10.9178C10.9743 10.8069 10.9959 10.6932 10.9598 10.6051C10.7964 10.2061 10.6273 9.80884 10.4534 9.4145C10.419 9.33634 10.3169 9.28034 10.2242 9.26925C10.1927 9.26575 10.1612 9.26225 10.1297 9.25992C10.0513 9.25603 9.97284 9.25681 9.89459 9.26225V9.26284Z" fill="white"/>
</g>
<defs>
<clipPath id="clip0_24452_69291">
<rect width="14" height="14" fill="white" transform="translate(5 5)"/>
</clipPath>
</defs>
</svg>
