<svg width="24" height="24" viewBox="0 0 24 24" fill="none" xmlns="http://www.w3.org/2000/svg">
<g clip-path="url(#clip0_24452_69258)">
<path d="M12 0.799805C18.1855 0.79991 23.2002 5.81448 23.2002 12C23.2001 18.1854 18.1854 23.2001 12 23.2002C5.81448 23.2002 0.79991 18.1855 0.799805 12C0.799805 5.81441 5.81441 0.799805 12 0.799805ZM12 3.2002C7.13989 3.2002 3.2002 7.13989 3.2002 12C3.2003 16.86 7.13996 20.7998 12 20.7998C16.86 20.7997 20.7997 16.86 20.7998 12C20.7998 7.13996 16.86 3.2003 12 3.2002ZM12.0459 5.97754C12.7083 5.97788 13.246 6.51529 13.2461 7.17773V13.0342L14.1514 12.1289C14.62 11.6603 15.38 11.6603 15.8486 12.1289C16.3171 12.5976 16.3172 13.3576 15.8486 13.8262L12 17.6748L8.15137 13.8262C7.68274 13.3575 7.68274 12.5975 8.15137 12.1289C8.62 11.6603 9.38 11.6603 9.84863 12.1289L10.8457 13.126V7.17773C10.8458 6.51508 11.3832 5.97754 12.0459 5.97754Z" fill="#F3F6F8"/>
</g>
<defs>
<clipPath id="clip0_24452_69258">
<rect width="24" height="24" fill="white"/>
</clipPath>
</defs>
</svg>
