<svg width="24" height="24" viewBox="0 0 24 24" fill="none" xmlns="http://www.w3.org/2000/svg">
<path d="M6.7998 2.78857C7.33988 2.78857 7.81731 2.78769 8.21094 2.81982C8.61865 2.85314 9.04186 2.92766 9.45312 3.13721C10.0551 3.44398 10.5448 3.93367 10.8516 4.53564C11.0611 4.94687 11.1356 5.37017 11.1689 5.77783C11.2011 6.17143 11.2002 6.64898 11.2002 7.18896V16.7886C11.2002 17.3286 11.2011 17.8061 11.1689 18.1997C11.1356 18.6074 11.0611 19.0307 10.8516 19.4419C10.5448 20.0438 10.0551 20.5336 9.45312 20.8403C9.04188 21.0499 8.61862 21.1244 8.21094 21.1577C7.81731 21.1898 7.33987 21.189 6.7998 21.189H5.2002C4.66013 21.189 4.18269 21.1898 3.78906 21.1577C3.38137 21.1244 2.95812 21.0499 2.54688 20.8403C1.94492 20.5336 1.45522 20.0438 1.14844 19.4419C0.938916 19.0307 0.864374 18.6074 0.831055 18.1997C0.798924 17.8061 0.799804 17.3286 0.799805 16.7886V7.18896C0.799805 6.64898 0.798936 6.17143 0.831055 5.77783C0.864362 5.37017 0.938943 4.94687 1.14844 4.53564C1.4552 3.93367 1.94491 3.44398 2.54688 3.13721C2.95814 2.92766 3.38135 2.85314 3.78906 2.81982C4.18269 2.78769 4.66012 2.78857 5.2002 2.78857H6.7998ZM19 12.7886C19.4494 12.7886 19.8466 12.7886 20.1758 12.811C20.5157 12.8342 20.8703 12.886 21.2246 13.0327C22.0085 13.3575 22.6313 13.9802 22.9561 14.7642C23.1028 15.1185 23.1545 15.473 23.1777 15.813C23.2002 16.1422 23.2002 16.5394 23.2002 16.9888C23.2002 17.4382 23.2002 17.8354 23.1777 18.1646C23.1545 18.5045 23.1028 18.8591 22.9561 19.2134C22.6313 19.9973 22.0085 20.62 21.2246 20.9448C20.8703 21.0916 20.5157 21.1433 20.1758 21.1665C19.8466 21.189 19.4494 21.189 19 21.189H17C16.5506 21.189 16.1534 21.1889 15.8242 21.1665C15.4842 21.1433 15.1297 21.0916 14.7754 20.9448C13.9914 20.62 13.3687 19.9974 13.0439 19.2134C12.8972 18.859 12.8455 18.5046 12.8223 18.1646C12.7998 17.8354 12.7998 17.4382 12.7998 16.9888C12.7998 16.5394 12.7998 16.1422 12.8223 15.813C12.8455 15.473 12.8972 15.1185 13.0439 14.7642C13.3687 13.9803 13.9915 13.3575 14.7754 13.0327C15.1297 12.886 15.4843 12.8342 15.8242 12.811C16.1534 12.7886 16.5507 12.7886 17 12.7886H19ZM5.2002 5.18896C4.6205 5.18896 4.25765 5.19009 3.98438 5.2124C3.72509 5.23359 3.65327 5.26745 3.63672 5.27588C3.48625 5.35258 3.36379 5.47501 3.28711 5.62549C3.27855 5.64233 3.24475 5.71464 3.22363 5.97314C3.20134 6.2464 3.2002 6.6094 3.2002 7.18896V16.7886C3.2002 17.3682 3.20132 17.7311 3.22363 18.0044C3.24482 18.2635 3.27868 18.3355 3.28711 18.3521C3.36381 18.5025 3.48627 18.625 3.63672 18.7017C3.65341 18.7102 3.72548 18.744 3.98438 18.7651C4.25765 18.7874 4.62051 18.7886 5.2002 18.7886H6.7998C7.37949 18.7886 7.74235 18.7874 8.01562 18.7651C8.27451 18.744 8.34658 18.7102 8.36328 18.7017C8.51373 18.625 8.63619 18.5025 8.71289 18.3521C8.72132 18.3355 8.75518 18.2635 8.77637 18.0044C8.79868 17.7311 8.7998 17.3682 8.7998 16.7886V7.18896C8.7998 6.6094 8.79866 6.2464 8.77637 5.97314C8.75525 5.71464 8.72145 5.64232 8.71289 5.62549C8.63621 5.47501 8.51375 5.35258 8.36328 5.27588C8.34673 5.26745 8.27491 5.23359 8.01562 5.2124C7.74235 5.19009 7.3795 5.18896 6.7998 5.18896H5.2002ZM17 15.189C16.5178 15.189 16.2159 15.189 15.9873 15.2046C15.773 15.2192 15.7089 15.2436 15.6943 15.2495C15.4984 15.3307 15.342 15.4872 15.2607 15.6831C15.2549 15.6973 15.2305 15.7609 15.2158 15.9761C15.2002 16.2047 15.2002 16.5065 15.2002 16.9888C15.2002 17.4711 15.2002 17.7729 15.2158 18.0015C15.2305 18.2167 15.2549 18.2802 15.2607 18.2944C15.3419 18.4905 15.4983 18.6468 15.6943 18.728C15.7087 18.7339 15.7726 18.7583 15.9873 18.7729C16.2159 18.7885 16.5178 18.7886 17 18.7886H19C19.4822 18.7886 19.7841 18.7885 20.0127 18.7729C20.2279 18.7583 20.2915 18.7338 20.3057 18.728C20.5016 18.6468 20.6581 18.4904 20.7393 18.2944C20.7452 18.28 20.7695 18.216 20.7842 18.0015C20.7998 17.7729 20.7998 17.471 20.7998 16.9888C20.7998 16.5065 20.7998 16.2047 20.7842 15.9761C20.7695 15.7608 20.7451 15.6973 20.7393 15.6831C20.6581 15.4871 20.5016 15.3307 20.3057 15.2495C20.2915 15.2437 20.2279 15.2193 20.0127 15.2046C19.7841 15.189 19.4822 15.189 19 15.189H17ZM19 2.78857C19.4494 2.78857 19.8466 2.78859 20.1758 2.81104C20.5157 2.83424 20.8703 2.88596 21.2246 3.03271C22.0085 3.3575 22.6313 3.98024 22.9561 4.76416C23.1028 5.11849 23.1545 5.473 23.1777 5.81299C23.2002 6.14216 23.2002 6.53937 23.2002 6.98877C23.2002 7.43816 23.2002 7.83538 23.1777 8.16455C23.1545 8.50451 23.1028 8.85907 22.9561 9.21338C22.6313 9.99728 22.0085 10.62 21.2246 10.9448C20.8703 11.0916 20.5157 11.1433 20.1758 11.1665C19.8466 11.189 19.4494 11.189 19 11.189H17C16.5506 11.189 16.1534 11.1889 15.8242 11.1665C15.4842 11.1433 15.1297 11.0916 14.7754 10.9448C13.9914 10.62 13.3687 9.99735 13.0439 9.21338C12.8972 8.85903 12.8455 8.50456 12.8223 8.16455C12.7998 7.83537 12.7998 7.43817 12.7998 6.98877C12.7998 6.53937 12.7998 6.14216 12.8223 5.81299C12.8455 5.47301 12.8972 5.11848 13.0439 4.76416C13.3687 3.98026 13.9915 3.35747 14.7754 3.03271C15.1297 2.886 15.4843 2.83423 15.8242 2.81104C16.1534 2.7886 16.5507 2.78857 17 2.78857H19ZM17 5.18896C16.5178 5.18896 16.2159 5.18901 15.9873 5.20459C15.773 5.21922 15.7089 5.24355 15.6943 5.24951C15.4984 5.33069 15.342 5.48716 15.2607 5.68311C15.2549 5.69725 15.2305 5.76085 15.2158 5.97607C15.2002 6.20465 15.2002 6.50647 15.2002 6.98877C15.2002 7.47107 15.2002 7.77288 15.2158 8.00146C15.2305 8.21668 15.2549 8.28024 15.2607 8.29443C15.3419 8.49046 15.4983 8.64683 15.6943 8.72803C15.7087 8.73394 15.7726 8.7583 15.9873 8.77295C16.2159 8.78853 16.5178 8.78857 17 8.78857H19C19.4822 8.78857 19.7841 8.78854 20.0127 8.77295C20.2279 8.75825 20.2915 8.73384 20.3057 8.72803C20.5016 8.64681 20.6581 8.49039 20.7393 8.29443C20.7452 8.27998 20.7695 8.21601 20.7842 8.00146C20.7998 7.77289 20.7998 7.47105 20.7998 6.98877C20.7998 6.50647 20.7998 6.20465 20.7842 5.97607C20.7695 5.76083 20.7451 5.69725 20.7393 5.68311C20.6581 5.48713 20.5016 5.33072 20.3057 5.24951C20.2915 5.2437 20.2279 5.21928 20.0127 5.20459C19.7841 5.189 19.4822 5.18896 19 5.18896H17Z" fill="#F3F6F8"/>
</svg>
