<svg width="24" height="24" viewBox="0 0 24 24" fill="none" xmlns="http://www.w3.org/2000/svg">
<path d="M3.37354 3.35059C3.84217 2.88204 4.6022 2.88199 5.0708 3.35059L20.6265 18.9062C21.0951 19.3749 21.0951 20.1359 20.6265 20.6045C20.1578 21.0727 19.3977 21.0729 18.9292 20.6045L3.37354 5.04785C2.90491 4.57922 2.90491 3.81922 3.37354 3.35059ZM5.47803 8.85059C5.33706 8.99182 5.20199 9.13354 5.07471 9.27637C4.3729 10.0639 3.87921 10.8549 3.56299 11.4482C3.45429 11.6522 3.368 11.8322 3.30127 11.9775C3.36804 12.123 3.45421 12.3027 3.56299 12.5068C3.87926 13.1002 4.37281 13.8911 5.07471 14.6787C6.46704 16.2409 8.66204 17.7772 11.9995 17.7773C12.7843 17.7773 13.5056 17.6903 14.1685 17.54L16.0972 19.4697C14.9103 19.9075 13.5496 20.1777 11.9995 20.1777C7.81502 20.1776 5.00958 18.2138 3.28271 16.2764C2.42522 15.3142 1.82808 14.3548 1.44482 13.6357C1.25266 13.2752 1.11208 12.9712 1.01807 12.7529C0.971124 12.6439 0.935414 12.5557 0.910645 12.4922C0.898288 12.4605 0.889417 12.4342 0.882324 12.415L0.870605 12.3838C0.870225 12.3827 0.869061 12.3809 0.868652 12.3799V12.3789C0.869618 12.3779 0.905688 12.3646 1.99951 11.9775C0.923799 11.5969 0.871032 11.5776 0.868652 11.5762V11.5752C0.868936 11.5744 0.870079 11.5724 0.870605 11.5713L0.882324 11.54C0.889392 11.521 0.898348 11.4945 0.910645 11.4629C0.935379 11.3994 0.971184 11.311 1.01807 11.2021C1.11204 10.9839 1.25274 10.6798 1.44482 10.3193C1.82803 9.60037 2.42532 8.64085 3.28271 7.67871C3.43951 7.50279 3.60693 7.32819 3.78174 7.15332L5.47803 8.85059ZM11.9995 3.77734C16.1843 3.77734 18.9894 5.74118 20.7163 7.67871C21.5739 8.64094 22.1709 9.60029 22.5542 10.3193C22.7464 10.6799 22.887 10.9839 22.981 11.2021C23.0279 11.3112 23.0636 11.3994 23.0884 11.4629C23.1007 11.4946 23.1096 11.5209 23.1167 11.54L23.1284 11.5713C23.1289 11.5724 23.1301 11.5743 23.1304 11.5752V11.5762C23.1239 11.5791 23.0402 11.6093 21.9995 11.9775C23.0545 12.3509 23.1258 12.3767 23.1304 12.3789V12.3799C23.1299 12.3809 23.1288 12.3828 23.1284 12.3838L23.1167 12.415C23.1096 12.4341 23.1007 12.4606 23.0884 12.4922C23.0636 12.5557 23.0278 12.6441 22.981 12.7529C22.8869 12.9712 22.7463 13.2754 22.5542 13.6357C22.1709 14.3548 21.5737 15.3143 20.7163 16.2764C20.5597 16.4521 20.3919 16.6261 20.2173 16.8008L18.52 15.1035C18.661 14.9623 18.797 14.8215 18.9243 14.6787C19.6261 13.8912 20.1197 13.1002 20.436 12.5068C20.5446 12.3031 20.63 12.1229 20.6968 11.9775C20.63 11.8321 20.5447 11.6522 20.436 11.4482C20.1198 10.8549 19.6263 10.064 18.9243 9.27637C17.5319 7.71408 15.3372 6.17773 11.9995 6.17773C11.2148 6.17777 10.4933 6.26286 9.83057 6.41309L7.90186 4.48438C9.08867 4.04663 10.4495 3.7774 11.9995 3.77734ZM12.7388 16.1113C12.4987 16.154 12.2518 16.1777 11.9995 16.1777C9.68026 16.1775 7.79953 14.2968 7.79932 11.9775C7.79932 11.725 7.82202 11.4776 7.86475 11.2373L12.7388 16.1113ZM11.9995 7.77734C14.3191 7.77734 16.1997 9.65794 16.1997 11.9775C16.1997 12.2295 16.1758 12.4761 16.1333 12.7158L11.2603 7.84277C11.5003 7.80012 11.7473 7.77737 11.9995 7.77734ZM1.99951 11.9775L0.868652 12.3779L0.727051 11.9775L0.868652 11.5771L1.99951 11.9775ZM23.272 11.9775L23.1304 12.3779L21.9995 11.9775L23.1304 11.5771L23.272 11.9775Z" fill="#F3F6F8"/>
</svg>
