<svg width="24" height="24" viewBox="0 0 24 24" fill="none" xmlns="http://www.w3.org/2000/svg">
<g clip-path="url(#clip0_24452_69108)">
<path d="M7.15234 21.4492C7.30694 21.4492 7.44574 21.4869 7.56836 21.5615C7.69622 21.6362 7.79745 21.7374 7.87207 21.8652C7.95207 21.9879 7.99219 22.1241 7.99219 22.2734C7.99217 22.4227 7.95205 22.5615 7.87207 22.6895C7.79745 22.8173 7.69622 22.9185 7.56836 22.9932C7.44574 23.0678 7.30694 23.1054 7.15234 23.1055C6.99768 23.1055 6.85306 23.0678 6.71973 22.9932C6.59193 22.9185 6.4906 22.8173 6.41602 22.6895C6.34136 22.5615 6.30373 22.4227 6.30371 22.2734C6.30371 22.1241 6.34135 21.9879 6.41602 21.8652C6.4906 21.7374 6.59193 21.6362 6.71973 21.5615C6.85306 21.4869 6.99768 21.4492 7.15234 21.4492ZM16.1885 18.8096H14.3877C14.377 18.9107 14.3646 19.0172 14.3486 19.1289C14.3326 19.2355 14.3193 19.3426 14.3086 19.4492C14.7616 19.4439 15.1479 19.5084 15.4678 19.6416C15.7931 19.7749 16.0412 19.9721 16.2119 20.2334C16.3879 20.4947 16.4765 20.8198 16.4766 21.209C16.4766 21.6248 16.3778 21.9693 16.1807 22.2412C15.9833 22.5079 15.7134 22.7085 15.3721 22.8418C15.0361 22.9697 14.6491 23.0307 14.2119 23.0254C13.78 23.02 13.3237 22.9482 12.8438 22.8096V21.4736C13.2862 21.6122 13.6758 21.7024 14.0117 21.7451C14.3531 21.7825 14.6205 21.7616 14.8125 21.6816C15.0044 21.6016 15.1006 21.457 15.1006 21.249C15.1005 21.0412 15.0009 20.8864 14.8037 20.7852C14.6118 20.684 14.3508 20.6279 14.0205 20.6172C13.6899 20.6012 13.3189 20.6279 12.9082 20.6973C12.9562 20.1746 13.0038 19.6466 13.0518 19.1133C13.0998 18.58 13.1483 18.0544 13.1963 17.5371H16.1885V18.8096ZM5.54297 22.9775H4.14258V19.041C3.98798 19.073 3.83083 19.1082 3.6709 19.1455C3.51635 19.1775 3.36158 19.2092 3.20703 19.2412V17.9453C3.59092 17.86 3.98045 17.7772 4.375 17.6973C4.76956 17.612 5.15907 17.5267 5.54297 17.4414V22.9775ZM10.1299 17.4492C10.5671 17.4492 10.9407 17.5211 11.25 17.665C11.5645 17.8036 11.8044 17.9986 11.9697 18.249C12.1404 18.4996 12.2265 18.7905 12.2266 19.1211C12.2266 19.4518 12.1379 19.7643 11.9619 20.0576C11.7859 20.3455 11.5168 20.6657 11.1543 21.0176C11.037 21.1296 10.9191 21.244 10.8018 21.3613C10.6845 21.4785 10.5674 21.5932 10.4502 21.7051H12.1865V22.9775H8.61035V21.7051C8.82361 21.5025 9.03674 21.2968 9.25 21.0889C9.46328 20.8756 9.67734 20.6684 9.89062 20.4658C10.1359 20.2259 10.3222 20.0336 10.4502 19.8896C10.578 19.7405 10.6658 19.6149 10.7139 19.5137C10.7672 19.4124 10.7939 19.3187 10.7939 19.2334C10.7939 19.0574 10.6929 18.9321 10.4902 18.8574C10.2876 18.7774 10.0261 18.7532 9.70605 18.7852C9.38615 18.8172 9.04516 18.9059 8.68262 19.0498V17.7129C9.21562 17.537 9.6981 17.4493 10.1299 17.4492ZM18.5049 19.3291C18.6062 19.4891 18.7048 19.6496 18.8008 19.8096C18.9021 19.6496 19.0032 19.4891 19.1045 19.3291C19.2057 19.164 19.307 19.0016 19.4082 18.8418H20.8643C20.6564 19.1669 20.4431 19.4947 20.2246 19.8252C20.0113 20.1558 19.8008 20.4867 19.5928 20.8174C19.8114 21.1747 20.0329 21.5348 20.2568 21.8975C20.4808 22.2601 20.6998 22.6203 20.9131 22.9775H19.4404C19.3338 22.7962 19.2243 22.6149 19.1123 22.4336C19.0056 22.2469 18.8996 22.0622 18.793 21.8809C18.6863 22.0622 18.5744 22.2469 18.457 22.4336C18.345 22.6149 18.2356 22.7962 18.1289 22.9775H16.6729C16.8915 22.6309 17.1129 22.2782 17.3369 21.9209C17.5608 21.5584 17.7824 21.2039 18.001 20.8574C17.793 20.5268 17.5815 20.1909 17.3682 19.8496C17.1549 19.5083 16.9443 19.1724 16.7363 18.8418H18.209C18.3049 19.0016 18.4037 19.164 18.5049 19.3291ZM12 0.799805C13.1941 0.799825 14.3475 0.987233 15.4297 1.33496C16.0602 1.53794 16.4077 2.21398 16.2051 2.84473C16.0023 3.47545 15.3261 3.82249 14.6953 3.62012C13.8475 3.34771 12.9419 3.20022 12 3.2002C7.13989 3.2002 3.2002 7.13989 3.2002 12C3.20022 12.929 3.34408 13.8225 3.60938 14.6602C3.80919 15.2918 3.4587 15.9659 2.82715 16.166C2.19545 16.3661 1.52152 16.0164 1.32129 15.3848C0.982647 14.3155 0.799825 13.1778 0.799805 12C0.799805 5.81441 5.81441 0.799805 12 0.799805ZM21.1729 7.83398C21.8046 7.63399 22.4786 7.98354 22.6787 8.61523C23.0173 9.68454 23.2002 10.8223 23.2002 12C23.2002 13.1778 23.0174 14.3155 22.6787 15.3848C22.4785 16.0163 21.8045 16.3659 21.1729 16.166C20.5412 15.9659 20.1907 15.2919 20.3906 14.6602C20.6559 13.8225 20.7998 12.929 20.7998 12C20.7998 11.071 20.6559 10.1775 20.3906 9.33984C20.1906 8.7081 20.5411 8.0341 21.1729 7.83398ZM20.3008 3.24414C20.3008 3.24414 14.1095 11.7683 13.4062 12.4717C12.7034 13.1745 11.6112 13.2221 10.9668 12.5781C10.3224 11.9338 10.3693 10.8406 11.0723 10.1377C11.7757 9.43443 20.3008 3.24414 20.3008 3.24414Z" fill="#F3F6F8"/>
</g>
<defs>
<clipPath id="clip0_24452_69108">
<rect width="24" height="24" fill="white"/>
</clipPath>
</defs>
</svg>
