<svg width="24" height="24" viewBox="0 0 24 24" fill="none" xmlns="http://www.w3.org/2000/svg">
<g clip-path="url(#clip0_24452_69241)">
<path d="M12 0.799805C18.1855 0.79991 23.2002 5.81448 23.2002 12C23.2001 18.1854 18.1854 23.2001 12 23.2002C5.81448 23.2002 0.79991 18.1855 0.799805 12C0.799805 5.81441 5.81441 0.799805 12 0.799805ZM12 3.2002C7.13989 3.2002 3.2002 7.13989 3.2002 12C3.2003 16.86 7.13996 20.7998 12 20.7998C16.86 20.7997 20.7997 16.86 20.7998 12C20.7998 7.13996 16.86 3.2003 12 3.2002ZM12.0459 6.97754C12.7083 6.9779 13.246 7.5153 13.2461 8.17773V10.8223H15.8906C16.553 10.8226 17.0908 11.36 17.0908 12.0225C17.0907 12.6849 16.553 13.2223 15.8906 13.2227H13.2461V15.8682C13.2457 16.5304 12.7081 17.068 12.0459 17.0684C11.3834 17.0684 10.8461 16.5306 10.8457 15.8682V13.2227H8.2002C7.53755 13.2226 7.00011 12.6851 7 12.0225C7.00002 11.3598 7.5375 10.8223 8.2002 10.8223H10.8457V8.17773C10.8458 7.51508 11.3832 6.97754 12.0459 6.97754Z" fill="#F3F6F8"/>
</g>
<defs>
<clipPath id="clip0_24452_69241">
<rect width="24" height="24" fill="white"/>
</clipPath>
</defs>
</svg>
