<svg width="24" height="24" viewBox="0 0 24 24" fill="none" xmlns="http://www.w3.org/2000/svg">
<path d="M13 2.5C17.0755 2.5 20.3885 5.75077 20.4941 9.80078C22.241 10.809 23.4289 12.6711 23.4932 14.8174C23.3987 13.2457 22.0954 12.0001 20.5 12C19.8448 12.0001 19.2395 12.2119 18.7461 12.5684C17.69 11.8217 16.1762 11.7543 15.0518 12.7188L14.8701 12.8877L12.8789 14.8789C11.7075 16.0504 11.7075 17.9496 12.8789 19.1211C13.206 19.4481 13.5911 19.6808 14 19.8252V21H7L6.66504 20.9912C3.23086 20.8169 0.5 17.9775 0.5 14.5C0.5 11.3426 2.75136 8.7112 5.73633 8.12305C6.56955 4.88918 9.50597 2.5 13 2.5Z" fill="#F3F6F8"/>
<path d="M16.2842 14.3018C16.9172 13.6687 17.9997 14.1166 18 15.0117V21C18 21.5523 17.5523 22 17 22C16.4477 22 16 21.5523 16 21V17.4141L15.707 17.707C15.3165 18.0976 14.6835 18.0976 14.293 17.707C13.9024 17.3165 13.9024 16.6835 14.293 16.293L16.2842 14.3018ZM20.5 14C21.0523 14 21.5 14.4477 21.5 15V18.5859L21.793 18.293C22.1835 17.9024 22.8165 17.9024 23.207 18.293C23.5976 18.6835 23.5976 19.3165 23.207 19.707L21.2158 21.6982C20.5828 22.3313 19.5003 21.8834 19.5 20.9883V15C19.5 14.4477 19.9477 14 20.5 14Z" fill="#F3F6F8"/>
</svg>
