<svg width="27" height="25" viewBox="0 0 27 25" fill="none" xmlns="http://www.w3.org/2000/svg">
<path d="M21 19.7793C21.6627 19.7794 22.2002 20.3168 22.2002 20.9795C22.2001 21.6421 21.6626 22.1796 21 22.1797H3C2.33732 22.1797 1.79991 21.6421 1.7998 20.9795C1.7998 20.3167 2.33726 19.7793 3 19.7793H21ZM10.0889 11.7764C10.5092 12.647 11.0425 13.4523 11.667 14.1768H3C2.33726 14.1768 1.7998 13.6393 1.7998 12.9766C1.79998 12.314 2.33737 11.7764 3 11.7764H10.0889ZM9.47949 3.7793C9.24474 4.54706 9.09532 5.35068 9.03418 6.17969H3C2.33732 6.17969 1.79991 5.64214 1.7998 4.97949C1.7998 4.31675 2.33726 3.7793 3 3.7793H9.47949Z" fill="#F3F6F8" fill-opacity="0.6"/>
<path fill-rule="evenodd" clip-rule="evenodd" d="M22.9167 5.5146L26.4167 3.49387L22.9167 1.47314V2.69407H17.9502L17.8892 2.69406C17.3692 2.69402 16.931 2.69398 16.5713 2.72336C16.1883 2.75465 15.824 2.82272 15.4785 2.99875C14.9518 3.26718 14.5233 3.69563 14.2549 4.22239C14.0789 4.56787 14.0108 4.93218 13.9795 5.31516C13.9501 5.67482 13.9502 6.11308 13.9502 6.63311L13.9502 6.69407V7.29367L13.9502 7.35483C13.9502 7.87478 13.9501 8.31296 13.9795 8.67258C14.0108 9.05533 14.0791 9.41908 14.2549 9.76438C14.5233 10.2911 14.9519 10.7195 15.4785 10.988C15.824 11.164 16.1883 11.2321 16.5713 11.2634C16.9416 11.2937 17.3951 11.2937 17.9355 11.2937H17.9502H22.0498L22.1096 11.2937C22.6302 11.2937 23.0688 11.2938 23.4287 11.2644C23.8117 11.2331 24.176 11.165 24.5215 10.989C25.0482 10.7206 25.4767 10.2921 25.7451 9.76535C25.9212 9.41986 25.9892 9.05556 26.0205 8.67258C26.0499 8.31296 26.0499 7.87482 26.0498 7.35487V7.35486L26.0498 7.29367V6.98899H24.4502V7.29367C24.4502 7.86694 24.4498 8.24932 24.4258 8.5427C24.4026 8.82646 24.3613 8.95649 24.3193 9.03879C24.2043 9.26453 24.0207 9.44817 23.7949 9.56321C23.7126 9.60514 23.5826 9.64645 23.2988 9.66965C23.0055 9.69361 22.6231 9.69408 22.0498 9.69407H17.9502C17.377 9.69405 16.9945 9.69265 16.7012 9.66867C16.4175 9.64546 16.2874 9.60513 16.2051 9.56321C15.9794 9.44819 15.7957 9.26448 15.6807 9.03879C15.6387 8.95645 15.5974 8.82575 15.5742 8.54172C15.5503 8.24841 15.5498 7.86664 15.5498 7.29367V6.69407C15.5498 6.12081 15.5503 5.73841 15.5742 5.44504C15.5974 5.16125 15.6387 5.03125 15.6807 4.94895C15.7957 4.7232 15.9793 4.53957 16.2051 4.42453C16.2874 4.3826 16.4174 4.3413 16.7012 4.31809C16.9945 4.29412 17.3769 4.29367 17.9502 4.29367H22.9167V5.5146ZM20.875 4.95876V7.00042V9.04209H20.2667H19.6514V7.5905V6.13891C19.5162 6.16251 19.3787 6.18808 19.2389 6.21562L18.8333 6.28643V5.80847V5.3305C19.169 5.26756 19.5092 5.20659 19.8542 5.14758C20.1991 5.08464 20.5394 5.0217 20.875 4.95876Z" fill="#F3F6F8"/>
</svg>
