<svg width="24" height="24" viewBox="0 0 24 24" fill="none" xmlns="http://www.w3.org/2000/svg">
<path d="M21 17.7769C21.6625 17.777 22.2 18.3146 22.2002 18.9771C22.2002 19.6397 21.6627 20.1771 21 20.1772H3C2.33726 20.1772 1.7998 19.6398 1.7998 18.9771C1.80003 18.3145 2.33739 17.7769 3 17.7769H21ZM7.07129 1.86377C7.45797 1.82213 7.93005 2.09151 8.87305 2.63037L10.083 3.32178C11.0388 3.86796 11.5168 4.14105 11.6768 4.49854C11.8162 4.81034 11.8162 5.1672 11.6768 5.479C11.5167 5.83638 11.0387 6.10966 10.083 6.65576L8.87305 7.34717C7.93008 7.88601 7.45797 8.15539 7.07129 8.11377C6.73391 8.07725 6.42761 7.89931 6.22852 7.62451C6.05534 7.38542 6.01299 7.01513 6.00293 6.37549C5.9772 6.38462 5.9521 6.39217 5.92871 6.40186C5.24265 6.68603 4.69728 7.23143 4.41309 7.91748C4.33158 8.11434 4.26924 8.38515 4.23535 8.88135C4.20073 9.38884 4.2002 10.0405 4.2002 10.9888V11.9888C4.2002 12.6515 3.66274 13.189 3 13.189C2.33726 13.189 1.7998 12.6515 1.7998 11.9888V10.9888C1.7998 10.0733 1.79933 9.32639 1.84082 8.71826C1.88306 8.09944 1.97342 7.53659 2.19629 6.99854C2.72405 5.72474 3.73596 4.71281 5.00977 4.18506C5.32955 4.0526 5.65812 3.9672 6.00195 3.91064C6.00514 3.07701 6.02912 2.62727 6.22852 2.35205C6.42762 2.07745 6.73406 1.90028 7.07129 1.86377ZM20.999 10.7778C21.6616 10.7773 22.1994 11.3136 22.2002 11.9761C22.2008 12.6388 21.6637 13.1776 21.001 13.1782L9.00098 13.189C8.3383 13.1895 7.80042 12.6524 7.7998 11.9897C7.7993 11.3271 8.33635 10.7892 8.99902 10.7886L20.999 10.7778ZM21 3.77686C21.6625 3.77696 22.2 4.31456 22.2002 4.97705C22.2002 5.63973 21.6627 6.17714 21 6.17725H15C14.3373 6.17725 13.7998 5.63979 13.7998 4.97705C13.8 4.3145 14.3374 3.77686 15 3.77686H21Z" fill="#F3F6F8"/>
</svg>
