<svg width="24" height="24" viewBox="0 0 24 24" fill="none" xmlns="http://www.w3.org/2000/svg">
<path d="M22.501 1.5C23.0529 1.50046 23.501 1.948 23.501 2.5C23.501 3.052 23.0529 3.49954 22.501 3.5H20.501V20.5H22.501C23.0529 20.5005 23.501 20.948 23.501 21.5C23.501 22.052 23.0529 22.4995 22.501 22.5H16.501C15.9487 22.5 15.501 22.0523 15.501 21.5C15.501 20.9477 15.9487 20.5 16.501 20.5H18.501V3.5H16.501C15.9487 3.5 15.501 3.05228 15.501 2.5C15.501 1.94772 15.9487 1.5 16.501 1.5H22.501ZM14.5 9.46094H13.0557L12.917 8.08789C12.8642 7.65669 12.7261 7.32958 12.502 7.10742C12.2777 6.8852 11.868 6.77441 11.2744 6.77441H9.81055V17.1475C9.81058 17.5002 9.85691 17.7682 9.94922 17.9512C10.0547 18.1209 10.193 18.2384 10.3643 18.3037C10.5357 18.356 10.7274 18.3828 10.9385 18.3828H11.6709V19.5H4.34961V18.3828H5.08105C5.30524 18.3828 5.50335 18.356 5.6748 18.3037C5.84617 18.2384 5.97798 18.1144 6.07031 17.9316C6.16265 17.7486 6.20898 17.4734 6.20898 17.1074V6.77441H4.74512C4.15182 6.77441 3.74288 6.88544 3.51855 7.10742C3.29436 7.32959 3.15533 7.65667 3.10254 8.08789L2.94434 9.46094H1.5L1.59863 5.5H14.4014L14.5 9.46094Z" fill="#F3F6F8"/>
</svg>
