<svg width="24" height="24" viewBox="0 0 24 24" fill="none" xmlns="http://www.w3.org/2000/svg">
<path d="M18 1C20.2091 1 22 2.79086 22 5V15C22 17.2091 20.2091 19 18 19H17.8994C17.4361 21.2822 15.4189 23 13 23H7C4.23858 23 2 20.7614 2 18V10C2 7.58101 3.71772 5.56285 6 5.09961V5C6 2.79086 7.79086 1 10 1H18ZM6 7.17383C4.83532 7.58594 4 8.69415 4 10V18C4 19.6569 5.34315 21 7 21H13C14.3059 21 15.4141 20.1647 15.8262 19H10C7.79086 19 6 17.2091 6 15V7.17383ZM10 3C8.89543 3 8 3.89543 8 5V15C8 16.1046 8.89543 17 10 17H18C19.1046 17 20 16.1046 20 15V5C20 3.89543 19.1046 3 18 3H10ZM15.0059 10.0273C15.5581 10.0312 16.0033 10.4829 16 11.0352C15.9965 11.5872 15.5462 12.0311 14.9941 12.0273L10.9941 12C10.4419 11.9962 9.99679 11.5454 10 10.9932C10.0033 10.4409 10.4536 9.9962 11.0059 10L15.0059 10.0273ZM17.0029 6.02246C17.5552 6.02453 18.0018 6.47409 18 7.02637C17.9982 7.57847 17.5492 8.02436 16.9971 8.02246L10.9971 8C10.4448 7.99793 9.99824 7.54838 10 6.99609C10.0018 6.44397 10.4508 5.99807 11.0029 6L17.0029 6.02246Z" fill="#F3F6F8"/>
</svg>
