<svg width="24" height="24" viewBox="0 0 24 24" fill="none" xmlns="http://www.w3.org/2000/svg">
<g clip-path="url(#clip0_24452_69251)">
<path d="M20.4373 9.26427C20.5705 9.08112 20.7753 8.96283 21.0006 8.93908C21.259 8.91214 21.5745 9.09391 22.2042 9.45748L22.865 9.83827C23.4945 10.2017 23.809 10.3841 23.9148 10.6214C24.007 10.8284 24.007 11.065 23.9149 11.272C23.8299 11.463 23.6086 11.6171 23.1977 11.8598C23.2285 11.9251 23.2598 11.9874 23.2861 12.05C24.4153 14.7411 23.5806 17.8558 21.2572 19.6219C20.9251 19.8742 20.5075 20.1134 19.8051 20.5189L18.9391 21.0189C18.5565 21.2396 18.0675 21.1086 17.8465 20.7261C17.6257 20.3435 17.7568 19.8545 18.1393 19.6336L19.0053 19.1336C19.7497 18.7038 20.0574 18.5243 20.2887 18.3486C22.0314 17.0241 22.6577 14.6869 21.8107 12.6684C21.8098 12.6664 21.8081 12.6645 21.8073 12.6625C21.4287 12.8736 21.198 12.9752 21.0005 12.9546C20.7752 12.9308 20.5704 12.8126 20.4372 12.6292C20.2845 12.4189 20.2847 12.0552 20.2847 11.328L20.2844 10.5659C20.2844 9.83856 20.2846 9.47455 20.4373 9.26427ZM9.70996 4.43393C10.1776 4.16395 10.5908 3.92439 10.9477 3.75543C11.3173 3.58047 11.7213 3.43335 12.1821 3.4092C12.8568 3.37393 13.5258 3.55314 14.0924 3.92106C14.4795 4.17245 14.7557 4.50173 14.9884 4.83814C15.213 5.16296 15.451 5.57688 15.721 6.04459L19.0208 11.76C19.2908 12.2277 19.5303 12.6408 19.6993 12.9977C19.8743 13.3674 20.0214 13.7713 20.0455 14.2322C20.0809 14.9068 19.9015 15.5758 19.5337 16.1425C19.2823 16.5295 18.953 16.8058 18.6166 17.0384C18.2918 17.263 17.8778 17.5011 17.4102 17.7711L14.2928 19.5709C13.8252 19.8408 13.412 20.0804 13.0551 20.2494C12.6854 20.4243 12.2815 20.5714 11.8206 20.5956C11.1459 20.6309 10.477 20.4517 9.91034 20.0837C9.52323 19.8323 9.24709 19.5031 9.01438 19.1667C8.78974 18.8418 8.55179 18.4279 8.28175 17.9602L4.98195 12.2448C4.71191 11.7771 4.47243 11.364 4.30344 11.0071C4.12844 10.6373 3.98137 10.2336 3.95721 9.77263C3.92192 9.09793 4.10114 8.42896 4.46908 7.86232C4.72045 7.47532 5.04978 7.19903 5.38615 6.96637C5.71094 6.74177 6.12499 6.50371 6.5926 6.23374L9.70996 4.43393ZM7.7928 8.31254C7.29093 8.60229 6.97708 8.78482 6.75159 8.94075C6.53857 9.08808 6.49263 9.1536 6.48224 9.16955C6.39028 9.31118 6.34548 9.47848 6.35428 9.64712C6.35525 9.66567 6.36185 9.74481 6.47313 9.97994C6.59045 10.2278 6.7709 10.5426 7.06075 11.0446L10.3606 16.76C10.6504 17.2621 10.8328 17.5757 10.9888 17.8012C11.1367 18.0152 11.202 18.0605 11.2176 18.0706C11.3592 18.1625 11.5265 18.2074 11.6951 18.1985C11.7141 18.1975 11.7938 18.1905 12.028 18.0797C12.2757 17.9624 12.5907 17.7818 13.0926 17.4921L16.21 15.6923C16.7118 15.4025 17.0257 15.22 17.2512 15.0641C17.4649 14.9162 17.5104 14.8508 17.5205 14.8353C17.6124 14.6936 17.6573 14.5263 17.6485 14.3577C17.6475 14.3389 17.6407 14.2594 17.5296 14.0249C17.4123 13.777 17.2318 13.4622 16.942 12.9602L13.6422 7.24478C13.3524 6.74276 13.17 6.42908 13.014 6.20357C12.8663 5.99005 12.8009 5.94447 12.7852 5.93423C12.6436 5.84228 12.4762 5.79749 12.3076 5.80627C12.2891 5.80724 12.2098 5.81393 11.9748 5.92512C11.727 6.04242 11.412 6.22297 10.9102 6.51273L7.7928 8.31254ZM5.07151 2.97803C5.45404 2.75737 5.94315 2.88837 6.16406 3.27078C6.38492 3.65332 6.25373 4.14234 5.87131 4.36333L5.00528 4.86333C4.26075 5.29319 3.95321 5.47258 3.72191 5.64827C1.97895 6.97279 1.35282 9.30991 2.1999 11.3285C2.20074 11.3305 2.20246 11.3324 2.20332 11.3344C2.58205 11.1232 2.81258 11.0215 3.01007 11.0423C3.23539 11.0661 3.44025 11.1843 3.57343 11.3677C3.72607 11.578 3.72591 11.9417 3.72591 12.6689L3.72616 13.431C3.72616 14.1584 3.72595 14.5223 3.57327 14.7326C3.44008 14.9159 3.23535 15.034 3.01002 15.0578C2.75152 15.085 2.43637 14.9032 1.80635 14.5394L1.1456 14.1586C0.51594 13.7951 0.201572 13.6128 0.0957989 13.3755C0.00359127 13.1684 0.00347433 12.932 0.095688 12.7249C0.180789 12.5339 0.40184 12.3799 0.81294 12.1371C0.782046 12.0718 0.75079 12.0095 0.724516 11.9469C-0.404708 9.25561 0.429735 6.14104 2.75338 4.37503C3.08551 4.12268 3.50296 3.88363 4.20548 3.47803L5.07151 2.97803Z" fill="#F3F6F8"/>
</g>
<defs>
<clipPath id="clip0_24452_69251">
<rect width="24" height="24" fill="white"/>
</clipPath>
</defs>
</svg>
