<svg width="24" height="24" viewBox="0 0 24 24" fill="none" xmlns="http://www.w3.org/2000/svg">
<path fill-rule="evenodd" clip-rule="evenodd" d="M12 22C17.5228 22 22 17.5228 22 12C22 6.47715 17.5228 2 12 2C6.47715 2 2 6.47715 2 12C2 17.5228 6.47715 22 12 22Z" fill="#F51C09"/>
<path d="M8.53906 7.99365C10.175 7.88229 13.8237 7.88184 15.4619 7.99365C17.235 8.11506 17.4419 9.18924 17.4551 12.0005C17.4419 14.8167 17.2331 15.8864 15.4619 16.0073C13.8237 16.1191 10.1754 16.1187 8.53906 16.0073C6.76594 15.886 6.55908 14.8117 6.5459 12.0005C6.55908 9.18419 6.76775 8.11458 8.53906 7.99365ZM10.8652 13.3638L13.5918 12.0005L10.8652 10.6372V13.3638Z" fill="white"/>
</svg>
