<svg width="518" height="24" viewBox="0 0 518 24" fill="none" xmlns="http://www.w3.org/2000/svg">
<path d="M14 6C16.2091 6 18 7.79086 18 10V14C18 16.14 16.3194 17.8879 14.2061 17.9951L14 18H4L3.79395 17.9951C1.7488 17.8913 0.108652 16.2512 0.00488281 14.2061L0 14V10C0 7.79086 1.79086 6 4 6H14ZM4 6.59961C2.12223 6.59961 0.599609 8.12223 0.599609 10V14C0.599609 15.8778 2.12223 17.4004 4 17.4004H14C15.8778 17.4004 17.4004 15.8778 17.4004 14V10C17.4004 8.12223 15.8778 6.59961 14 6.59961H4ZM4.85156 9.30176L6.49609 13.6885L8.13672 9.30176H9.41406V14.9893H8.43359V13.0986L8.5293 10.5625L6.83984 14.9893H6.14453L4.45801 10.5654L4.55469 13.0986V14.9893H3.57812V9.30176H4.85156ZM12.5781 13.791L14.0234 9.30176H15.1055L13.0664 14.9893H12.0977L10.0664 9.30176H11.1445L12.5781 13.791Z" fill="#F3F6F8" fill-opacity="0.6"/>
<path d="M86 6C89.3137 6 92 8.68629 92 12C92 15.2102 89.4789 17.8316 86.3086 17.9922L86 18H64L63.6914 17.9922C60.5211 17.8316 58 15.2102 58 12C58 8.68629 60.6863 6 64 6H86ZM64 6.59961C61.0177 6.59961 58.5996 9.01766 58.5996 12C58.5996 14.9823 61.0177 17.4004 64 17.4004H86C88.9823 17.4004 91.4004 14.9823 91.4004 12C91.4004 9.01766 88.9823 6.59961 86 6.59961H64ZM80.2461 9.22363C80.6992 9.22363 81.082 9.30697 81.3945 9.47363C81.7069 9.64029 81.9493 9.87083 82.1211 10.165C82.2954 10.4592 82.4024 10.7967 82.4414 11.1768H81.4648C81.4388 10.9321 81.3814 10.7223 81.293 10.5479C81.2071 10.3734 81.0793 10.2406 80.9102 10.1494C80.7409 10.0557 80.5195 10.0088 80.2461 10.0088C80.0221 10.0088 79.8268 10.0505 79.6602 10.1338C79.4936 10.2171 79.3541 10.3396 79.2422 10.501C79.1303 10.6624 79.0455 10.8618 78.9883 11.0986C78.9337 11.3329 78.9062 11.6014 78.9062 11.9033V12.3838C78.9063 12.6701 78.931 12.9308 78.9805 13.165C79.0326 13.3966 79.1107 13.5961 79.2148 13.7627C79.3216 13.9292 79.4571 14.0583 79.6211 14.1494C79.7851 14.2405 79.9819 14.2861 80.2109 14.2861C80.4895 14.2861 80.7149 14.2418 80.8867 14.1533C81.0611 14.0648 81.1927 13.9357 81.2812 13.7666C81.3723 13.5948 81.4323 13.3849 81.4609 13.1377H82.4375C82.4062 13.5099 82.302 13.8422 82.125 14.1338C81.9479 14.4227 81.6991 14.6508 81.3789 14.8174C81.0586 14.984 80.6692 15.0674 80.2109 15.0674C79.8595 15.0674 79.5429 15.0048 79.2617 14.8799C78.9806 14.7523 78.7395 14.5725 78.5391 14.3408C78.3386 14.1066 78.1849 13.8237 78.0781 13.4932C77.974 13.1626 77.9219 12.7924 77.9219 12.3838V11.9111C77.9219 11.5025 77.9754 11.1324 78.082 10.8018C78.1914 10.4712 78.3478 10.1884 78.5508 9.9541C78.7539 9.71717 78.9975 9.53613 79.2812 9.41113C79.5677 9.28613 79.8893 9.22363 80.2461 9.22363ZM85.2461 9.22363C85.668 9.22363 86.0312 9.30176 86.3359 9.45801C86.6431 9.61425 86.8789 9.82395 87.043 10.0869C87.2095 10.3498 87.293 10.6404 87.293 10.958H86.3203C86.3203 10.7707 86.2798 10.6051 86.1992 10.4619C86.1211 10.3161 86.0012 10.2015 85.8398 10.1182C85.681 10.0348 85.4792 9.99316 85.2344 9.99316C85.0026 9.99316 84.8099 10.0283 84.6562 10.0986C84.5027 10.1689 84.388 10.264 84.3125 10.3838C84.2371 10.5035 84.1992 10.6391 84.1992 10.79C84.1993 10.8966 84.224 10.9946 84.2734 11.083C84.3229 11.1688 84.3986 11.2498 84.5 11.3252C84.6015 11.3981 84.7293 11.4672 84.8828 11.5322C85.0364 11.5973 85.2175 11.6599 85.4258 11.7197C85.7408 11.8135 86.0157 11.9177 86.25 12.0322C86.4843 12.1442 86.6797 12.2718 86.8359 12.415C86.9921 12.5582 87.1094 12.7211 87.1875 12.9033C87.2655 13.0829 87.3047 13.2876 87.3047 13.5166C87.3046 13.756 87.2564 13.9725 87.1602 14.165C87.0638 14.355 86.9257 14.518 86.7461 14.6533C86.5691 14.786 86.3554 14.889 86.1055 14.9619C85.8581 15.0322 85.582 15.0674 85.2773 15.0674C85.0039 15.0674 84.7343 15.0309 84.4688 14.958C84.2058 14.8851 83.9661 14.7743 83.75 14.626C83.534 14.475 83.362 14.2873 83.2344 14.0635C83.1068 13.837 83.043 13.5724 83.043 13.2705H84.0234C84.0235 13.4552 84.0547 13.6131 84.1172 13.7432C84.1823 13.8732 84.2722 13.9802 84.3867 14.0635C84.5012 14.1441 84.6342 14.2041 84.7852 14.2432C84.9388 14.2822 85.1029 14.3018 85.2773 14.3018C85.5064 14.3018 85.6979 14.2692 85.8516 14.2041C86.0077 14.1391 86.125 14.0477 86.2031 13.9307C86.2812 13.8136 86.3202 13.6779 86.3203 13.5244C86.3203 13.4074 86.302 13.303 86.2656 13.2119C86.2318 13.1209 86.1704 13.0374 86.082 12.9619C85.9935 12.8864 85.8684 12.8135 85.707 12.7432C85.5482 12.6703 85.345 12.596 85.0977 12.5205C84.8269 12.4372 84.5768 12.3447 84.3477 12.2432C84.1212 12.139 83.9231 12.0191 83.7539 11.8838C83.5848 11.7459 83.4531 11.5881 83.3594 11.4111C83.2657 11.2316 83.2188 11.0242 83.2188 10.79C83.2188 10.5584 83.2671 10.3472 83.3633 10.1572C83.4622 9.96721 83.6017 9.80302 83.7812 9.66504C83.9635 9.52444 84.1784 9.41634 84.4258 9.34082C84.6732 9.2627 84.9466 9.22363 85.2461 9.22363ZM63.5586 14.2119H66.1406V14.9893H62.5781V9.30176H63.5586V14.2119ZM67.7695 12.0166L69.0898 9.30176H70.1758L68.2617 12.8955V14.9893H67.2734V12.8955L65.3594 9.30176H66.4492L67.7695 12.0166ZM72.8086 9.30176C73.2409 9.30176 73.6094 9.36686 73.9141 9.49707C74.2187 9.62728 74.4519 9.82004 74.6133 10.0752C74.7772 10.3277 74.8594 10.6405 74.8594 11.0127C74.8593 11.2963 74.8072 11.5467 74.7031 11.7627C74.599 11.9787 74.4517 12.1612 74.2617 12.3096C74.1285 12.4117 73.9766 12.4962 73.8076 12.5664L75.0898 14.9385V14.9893H74.043L72.8945 12.7939H71.7773V14.9893H70.7969V9.30176H72.8086ZM76.8828 14.9893H75.9023V9.30176H76.8828V14.9893ZM71.7773 12.0166H72.8242C73.0585 12.0166 73.2539 11.9749 73.4102 11.8916C73.5663 11.8083 73.6836 11.6948 73.7617 11.5518C73.8424 11.4061 73.8827 11.2417 73.8828 11.0596C73.8828 10.8618 73.8436 10.6897 73.7656 10.5439C73.6901 10.3956 73.5728 10.2822 73.4141 10.2041C73.2552 10.1234 73.0534 10.083 72.8086 10.083H71.7773V12.0166Z" fill="#F3F6F8" fill-opacity="0.6"/>
<g clip-path="url(#clip0_24452_33003)">
<rect x="132" y="3.98828" width="32" height="16" rx="8" fill="#EF1C51"/>
<path d="M143.539 13.082V9H144.512V14.6875H143.531L140.98 10.6133V14.6875H140V9H140.98L143.539 13.082ZM149.383 9.78125H146.66V11.375H149.008V12.1406H146.66V13.9102H149.402V14.6875H145.68V9H149.383V9.78125ZM151.671 13.2432L152.762 9H153.586L154.663 13.251L155.547 9H156.523L155.207 14.6875H154.254L153.175 10.5654L152.078 14.6875H151.125L149.809 9H150.781L151.671 13.2432Z" fill="#F3F6F8"/>
</g>
<g clip-path="url(#clip1_24452_33003)">
<rect x="204" y="8" width="8" height="8" rx="4" fill="#EF1C51"/>
</g>
<rect x="256" y="8" width="8" height="8" rx="4" fill="#EF1C51"/>
<path d="M308 12C308 6.47715 312.477 2 318 2C323.523 2 328 6.47715 328 12C328 17.5228 323.523 22 318 22C312.477 22 308 17.5228 308 12Z" fill="#EF1C51"/>
<path d="M320.707 14.9688V16H315.465V15.1138L318.011 12.3369C318.29 12.0218 318.51 11.7497 318.671 11.5205C318.833 11.2913 318.945 11.0854 319.01 10.9028C319.078 10.7166 319.112 10.5358 319.112 10.3604C319.112 10.1133 319.065 9.89665 318.972 9.71045C318.883 9.52067 318.75 9.37207 318.575 9.26465C318.399 9.15365 318.186 9.09814 317.936 9.09814C317.646 9.09814 317.402 9.16081 317.205 9.28613C317.008 9.41146 316.86 9.58512 316.759 9.80713C316.659 10.0256 316.609 10.2762 316.609 10.5591H315.314C315.314 10.1043 315.418 9.68896 315.626 9.31299C315.834 8.93343 316.134 8.63265 316.528 8.41064C316.922 8.18506 317.397 8.07227 317.952 8.07227C318.474 8.07227 318.918 8.15999 319.284 8.33545C319.649 8.5109 319.926 8.75977 320.116 9.08203C320.31 9.4043 320.406 9.78564 320.406 10.2261C320.406 10.4696 320.367 10.7113 320.288 10.9512C320.209 11.1911 320.097 11.431 319.95 11.6709C319.806 11.9072 319.636 12.1453 319.439 12.3853C319.243 12.6216 319.026 12.8615 318.79 13.105L317.098 14.9688H320.707Z" fill="#F3F6F8"/>
<path d="M386.206 4.00488C388.319 4.11211 390 5.85996 390 8V16L389.995 16.2061C389.891 18.2512 388.251 19.8913 386.206 19.9951L386 20H372C369.791 20 368 18.2091 368 16V8C368 5.79086 369.791 4 372 4H386L386.206 4.00488ZM372 5C370.343 5 369 6.34315 369 8V16C369 17.6569 370.343 19 372 19H386C387.657 19 389 17.6569 389 16V8C389 6.34315 387.657 5 386 5H372ZM376.219 8L379.209 16H377.774L377.134 14.126H374.069L373.43 16H372L374.979 8H376.219ZM382.444 8C382.97 8 383.45 8.09012 383.885 8.26953C384.32 8.44536 384.695 8.69987 385.011 9.0332C385.33 9.36648 385.575 9.76539 385.745 10.2305C385.915 10.6956 386 11.216 386 11.791V12.2139C386 12.7888 385.915 13.3093 385.745 13.7744C385.575 14.2396 385.33 14.6393 385.011 14.9727C384.692 15.3023 384.311 15.5568 383.869 15.7363C383.431 15.9122 382.939 16 382.396 16H380.096V8H382.444ZM381.46 14.9062H382.396C382.885 14.9062 383.294 14.7981 383.624 14.582C383.957 14.366 384.208 14.0571 384.375 13.6543C384.545 13.2514 384.63 12.7706 384.63 12.2139V11.7803C384.63 11.348 384.581 10.9652 384.483 10.6318C384.389 10.2985 384.248 10.0181 384.06 9.79102C383.875 9.56391 383.646 9.39163 383.374 9.27441C383.106 9.15726 382.796 9.09863 382.444 9.09863H381.46V14.9062ZM374.441 13.0332H376.76L375.599 9.63965L374.441 13.0332Z" fill="#F3F6F8"/>
<circle cx="442" cy="11.9355" r="9" stroke="#F3F6F8" stroke-opacity="0.16" stroke-width="2.4"/>
<path d="M442 2.93555C443.58 2.93555 445.132 3.3514 446.5 4.14132C447.868 4.93123 449.004 6.06737 449.794 7.43555C450.584 8.80372 451 10.3557 451 11.9355C451 13.5154 450.584 15.0674 449.794 16.4355C449.004 17.8037 447.868 18.9399 446.5 19.7298C445.132 20.5197 443.58 20.9355 442 20.9355C440.42 20.9355 438.868 20.5197 437.5 19.7298C436.132 18.9399 434.996 17.8037 434.206 16.4355" stroke="#86E9AA" stroke-width="2.4" stroke-linecap="round"/>
<circle cx="506" cy="11.9355" r="9" stroke="#F3F6F8" stroke-opacity="0.16" stroke-width="2.4"/>
<path d="M506 2.93555C507.58 2.93555 509.132 3.3514 510.5 4.14132C511.868 4.93123 513.004 6.06737 513.794 7.43555C514.584 8.80372 515 10.3557 515 11.9355C515 13.5154 514.584 15.0674 513.794 16.4355C513.004 17.8037 511.868 18.9399 510.5 19.7298C509.132 20.5197 507.58 20.9355 506 20.9355C504.42 20.9355 502.868 20.5197 501.5 19.7298C500.132 18.9399 498.996 17.8037 498.206 16.4355" stroke="#F3F6F8" stroke-opacity="0.6" stroke-width="2.4" stroke-linecap="round"/>
<defs>
<clipPath id="clip0_24452_33003">
<rect width="32" height="16" fill="white" transform="translate(132 4)"/>
</clipPath>
<clipPath id="clip1_24452_33003">
<rect width="8" height="8" fill="white" transform="translate(204 8)"/>
</clipPath>
</defs>
</svg>
