<svg width="24" height="24" viewBox="0 0 24 24" fill="none" xmlns="http://www.w3.org/2000/svg">
<g clip-path="url(#clip0_24452_69103)">
<path d="M11.0005 17.7886C11.6631 17.7887 12.2007 18.3261 12.2007 18.9888C12.2006 19.6514 11.6631 20.1889 11.0005 20.189H3.00049C2.33779 20.189 1.80037 19.6514 1.80029 18.9888C1.80029 18.326 2.33775 17.7886 3.00049 17.7886H11.0005ZM21.0005 9.78857C21.6632 9.78857 22.2007 10.326 22.2007 10.9888C22.2007 11.6515 21.6632 12.189 21.0005 12.189H3.00049C2.33775 12.189 1.80029 11.6515 1.80029 10.9888C1.80029 10.326 2.33775 9.78857 3.00049 9.78857H21.0005ZM21.0005 1.77783C21.6632 1.77783 22.2007 2.31529 22.2007 2.97803C22.2006 3.64068 21.6632 4.17822 21.0005 4.17822H3.00049C2.33781 4.17822 1.8004 3.64068 1.80029 2.97803C1.80029 2.31529 2.33775 1.77783 3.00049 1.77783H21.0005Z" fill="#F3F6F8"/>
<path d="M20.16 16.7717C21.4201 17.4993 22.0502 17.8631 22.2617 18.338C22.4461 18.7522 22.4461 19.2253 22.2617 19.6395C22.0502 20.1145 21.4201 20.4782 20.16 21.2058L18.84 21.9679C17.5799 22.6954 16.9498 23.0592 16.4328 23.0049C15.9818 22.9575 15.5721 22.7209 15.3056 22.3541C15 21.9335 15 21.206 15 19.7509L15 18.2267C15 16.7716 15 16.044 15.3056 15.6234C15.5721 15.2566 15.9818 15.0201 16.4328 14.9727C16.9498 14.9183 17.5799 15.2821 18.84 16.0096L20.16 16.7717Z" fill="#F3F6F8"/>
</g>
<defs>
<clipPath id="clip0_24452_69103">
<rect width="24" height="24" fill="white"/>
</clipPath>
</defs>
</svg>
