<svg width="24" height="24" viewBox="0 0 24 24" fill="none" xmlns="http://www.w3.org/2000/svg">
<path d="M15.5996 2.98877C16.7032 2.98877 17.5914 2.9878 18.3086 3.04639C19.0373 3.10592 19.6773 3.23203 20.2695 3.53369C21.2103 4.01306 21.9757 4.77843 22.4551 5.71924C22.7567 6.31143 22.8828 6.95147 22.9424 7.68018C23.001 8.39734 23 9.28558 23 10.3892V13.5884C23 14.692 23.001 15.5802 22.9424 16.2974C22.8828 17.0261 22.7567 17.6661 22.4551 18.2583C21.9757 19.1991 21.2103 19.9645 20.2695 20.4438C19.6773 20.7455 19.0373 20.8716 18.3086 20.9312C17.5914 20.9897 16.7032 20.9888 15.5996 20.9888H8.40039C7.29681 20.9888 6.40857 20.9897 5.69141 20.9312C4.9627 20.8716 4.32266 20.7455 3.73047 20.4438C2.78966 19.9645 2.02429 19.1991 1.54492 18.2583C1.24326 17.6661 1.11715 17.0261 1.05762 16.2974C0.999025 15.5802 1 14.692 1 13.5884V10.3892C1 9.28558 0.999025 8.39734 1.05762 7.68018C1.11715 6.95147 1.24326 6.31143 1.54492 5.71924C2.02429 4.77843 2.78966 4.01306 3.73047 3.53369C4.32266 3.23203 4.9627 3.10592 5.69141 3.04639C6.40857 2.9878 7.29681 2.98877 8.40039 2.98877H15.5996ZM8.40039 4.98877C7.26396 4.98877 6.47129 4.98918 5.85449 5.03955C5.24932 5.08899 4.90105 5.18173 4.6377 5.31592C4.07347 5.60349 3.61472 6.06224 3.32715 6.62646C3.19296 6.88982 3.10023 7.23809 3.05078 7.84326C3.00041 8.46006 3 9.25273 3 10.3892V13.5884C3 14.7248 3.00041 15.5175 3.05078 16.1343C3.10023 16.7394 3.19296 17.0877 3.32715 17.3511C3.61472 17.9153 4.07347 18.374 4.6377 18.6616C4.90105 18.7958 5.24932 18.8885 5.85449 18.938C6.47129 18.9884 7.26396 18.9888 8.40039 18.9888H15.5996C16.736 18.9888 17.5287 18.9884 18.1455 18.938C18.7507 18.8885 19.0989 18.7958 19.3623 18.6616C19.9265 18.374 20.3853 17.9153 20.6729 17.3511C20.807 17.0877 20.8998 16.7394 20.9492 16.1343C20.9996 15.5175 21 14.7248 21 13.5884V10.3892C21 9.25273 20.9996 8.46006 20.9492 7.84326C20.8998 7.23809 20.807 6.88982 20.6729 6.62646C20.3853 6.06224 19.9265 5.60349 19.3623 5.31592C19.0989 5.18173 18.7507 5.08899 18.1455 5.03955C17.5287 4.98918 16.736 4.98877 15.5996 4.98877H8.40039ZM8.76172 7.16064C9.27505 7.16064 9.56455 7.29189 9.62988 7.55322L11.7861 16.4565C11.8047 16.5868 11.8144 16.671 11.8145 16.7085C11.8145 16.9138 11.6132 17.0171 11.2119 17.0171H10.4697C10.022 17.017 9.77428 16.919 9.72754 16.7231L9.36426 15.0151H7.23633L6.8584 16.7231C6.82098 16.919 6.60129 17.0171 6.2002 17.0171H5.47168C5.02389 17.017 4.7998 16.9138 4.7998 16.7085C4.79985 16.6339 4.81385 16.5497 4.8418 16.4565L6.99805 7.55322C7.06336 7.29197 7.34784 7.16072 7.85156 7.16064H8.76172ZM15.8164 7.18896C17.0296 7.18898 17.9209 7.59486 18.4902 8.40674C19.0689 9.21874 19.3584 10.4467 19.3584 12.0894C19.3583 13.7318 19.0688 14.9591 18.4902 15.771C17.9209 16.5829 17.0297 16.9888 15.8164 16.9888H13.1562C12.979 16.9888 12.8486 16.9467 12.7646 16.8628C12.6807 16.7695 12.6387 16.625 12.6387 16.4292V7.74854C12.6387 7.55272 12.6807 7.41256 12.7646 7.32861C12.8486 7.2355 12.9792 7.18898 13.1562 7.18896H15.8164ZM14.8506 15.1548H15.7461C16.2407 15.1548 16.5959 14.9264 16.8105 14.4692C17.0252 14.0026 17.1328 13.2091 17.1328 12.0894C17.1328 10.9696 17.0251 10.1805 16.8105 9.72314C16.5959 9.25648 16.2408 9.02295 15.7461 9.02295H14.8506V15.1548ZM8.25781 9.2749C8.21115 9.64822 8.15517 10.0034 8.08984 10.3394L7.47363 13.3071H9.12598L8.49609 10.3394C8.43076 10.0034 8.37479 9.64822 8.32812 9.2749H8.25781Z" fill="#F3F6F8"/>
</svg>
