<svg width="24" height="24" viewBox="0 0 24 24" fill="none" xmlns="http://www.w3.org/2000/svg">
<g clip-path="url(#clip0_24452_69260)">
<path d="M12 0.77832C18.1855 0.778426 23.2002 5.79299 23.2002 11.9785C23.2001 18.164 18.1854 23.1786 12 23.1787C5.81448 23.1787 0.79991 18.164 0.799805 11.9785C0.799805 5.79293 5.81441 0.77832 12 0.77832ZM12 3.17871C7.13989 3.17871 3.2002 7.11841 3.2002 11.9785C3.2003 16.8385 7.13996 20.7783 12 20.7783C16.86 20.7782 20.7997 16.8385 20.7998 11.9785C20.7998 7.11847 16.86 3.17882 12 3.17871ZM15.6465 8.62402C16.112 8.1528 16.8712 8.14802 17.3428 8.61328C17.8142 9.07878 17.8197 9.83892 17.3545 10.3105L12.4355 15.292C11.773 15.9629 10.6913 15.9663 10.0244 15.2998L7.55078 12.8271C7.08248 12.3586 7.08248 11.5985 7.55078 11.1299C8.01941 10.6613 8.78039 10.6613 9.24902 11.1299L11.2227 13.1045L15.6465 8.62402Z" fill="#F3F6F8"/>
</g>
<defs>
<clipPath id="clip0_24452_69260">
<rect width="24" height="24" fill="white"/>
</clipPath>
</defs>
</svg>
