<svg width="24" height="24" viewBox="0 0 24 24" fill="none" xmlns="http://www.w3.org/2000/svg">
<rect x="2" y="2" width="20" height="20" rx="10" fill="#4ADE80"/>
<path d="M12 4.48877C13.933 4.48877 15.5 6.05577 15.5 7.98877V8.98877H15.9004C17.336 8.98898 18.4998 10.1527 18.5 11.5884V15.8892C18.4998 17.3248 17.336 18.4886 15.9004 18.4888H8.09961C6.66398 18.4886 5.50021 17.3248 5.5 15.8892V11.5884C5.50021 10.1527 6.66398 8.98898 8.09961 8.98877H8.5V7.98877C8.5 6.05577 10.067 4.48877 12 4.48877ZM12 11.7388C11.3096 11.7388 10.75 12.2984 10.75 12.9888C10.75 13.4196 10.9682 13.7992 11.2998 14.0239V14.9888C11.2998 15.3754 11.6134 15.689 12 15.689C12.3866 15.689 12.7002 15.3754 12.7002 14.9888V14.0239C13.0318 13.7992 13.25 13.4196 13.25 12.9888C13.25 12.2984 12.6904 11.7388 12 11.7388ZM12 6.48877C11.1716 6.48877 10.5 7.16034 10.5 7.98877V8.98877H13.5V7.98877C13.5 7.16034 12.8284 6.48877 12 6.48877Z" fill="#F3F6F8"/>
</svg>
