<svg width="24" height="24" viewBox="0 0 24 24" fill="none" xmlns="http://www.w3.org/2000/svg">
<path d="M17.0112 2.78589C18.1228 2.78599 19.1891 3.2275 19.9751 4.01343C20.7612 4.79954 21.2026 5.86655 21.2026 6.97827C21.2026 6.99994 21.2019 7.02207 21.2007 7.0437C21.091 9.05294 20.3885 10.9847 19.1812 12.5945C18.1304 13.9956 16.7377 15.0969 15.1431 15.7996C15.0059 16.7357 14.6882 17.639 14.1987 18.4548C13.5703 19.5022 12.6847 20.3721 11.6265 20.9822C11.2772 21.1834 10.8501 21.1959 10.4897 21.0154C10.1292 20.8346 9.88305 20.4842 9.83545 20.0837C9.80341 19.8143 9.75433 19.5484 9.69092 19.2869C9.19728 19.7423 8.64099 20.1306 8.03369 20.4343C6.75406 21.0741 5.31176 21.3172 3.89307 21.1326C3.35346 21.0623 2.92843 20.6369 2.85791 20.0974C2.67306 18.6785 2.91629 17.2366 3.55615 15.9568C3.86007 15.349 4.24672 14.7906 4.70264 14.2966C4.44088 14.2331 4.17447 14.1851 3.90479 14.1531C3.50446 14.1055 3.15497 13.86 2.97412 13.4998C2.79336 13.1392 2.80495 12.7115 3.00635 12.3621C3.61647 11.3038 4.48719 10.4183 5.53467 9.78979C6.35005 9.30066 7.25245 8.98171 8.18799 8.84448C8.8906 7.2502 9.99333 5.85899 11.394 4.80835C13.004 3.6009 14.9364 2.89741 16.9458 2.78784L17.0112 2.78589ZM7.06006 15.3806C6.4913 15.8192 6.02644 16.3824 5.70264 17.03C5.42885 17.5777 5.26542 18.1701 5.21533 18.7742C5.8195 18.7241 6.4127 18.5617 6.96045 18.2878C7.60797 17.964 8.16934 17.4972 8.60791 16.9285C8.39512 16.6324 8.15841 16.352 7.89795 16.0916C7.63718 15.8308 7.35648 15.5937 7.06006 15.3806ZM17.0327 5.18726C15.5129 5.27868 14.0531 5.81435 12.8345 6.72827C11.6043 7.65094 10.6749 8.91732 10.1646 10.3679C10.0004 10.8344 9.567 11.1522 9.07275 11.1687C8.25977 11.1955 7.46656 11.4299 6.76904 11.8484C6.57063 11.9674 6.3826 12.1014 6.20459 12.2468C7.47122 12.7014 8.63167 13.4307 9.59521 14.3943C10.5583 15.3575 11.2871 16.517 11.7417 17.783C11.887 17.6051 12.0222 17.4177 12.1411 17.2195C12.5594 16.5221 12.7929 15.7295 12.8198 14.9167L12.8394 14.7341C12.9176 14.3177 13.2124 13.9677 13.6206 13.824C15.0712 13.3137 16.3386 12.3843 17.2612 11.1541C18.1768 9.93314 18.7114 8.46994 18.8013 6.94702C18.7933 6.483 18.6065 6.03943 18.2778 5.71069C17.947 5.37992 17.5 5.19295 17.0327 5.18726ZM15.1997 7.60034C15.8624 7.60034 16.3999 8.1378 16.3999 8.80054C16.3997 9.46308 15.8623 9.99976 15.1997 9.99976C14.5373 9.99953 14.0007 9.46294 14.0005 8.80054C14.0005 8.13793 14.5372 7.60056 15.1997 7.60034Z" fill="#F3F6F8"/>
</svg>
