<svg width="24" height="24" viewBox="0 0 24 24" fill="none" xmlns="http://www.w3.org/2000/svg">
<path d="M20 17.7886C20.6627 17.7886 21.2002 18.326 21.2002 18.9888C21.2002 19.6515 20.6627 20.189 20 20.189H4C3.33726 20.189 2.7998 19.6515 2.7998 18.9888C2.7998 18.326 3.33726 17.7886 4 17.7886H20ZM20 10.7886C20.6627 10.7886 21.2002 11.326 21.2002 11.9888C21.2002 12.6515 20.6627 13.189 20 13.189H4C3.33726 13.189 2.7998 12.6515 2.7998 11.9888C2.7998 11.326 3.33726 10.7886 4 10.7886H20ZM20 3.78857C20.6627 3.78857 21.2002 4.32603 21.2002 4.98877C21.2002 5.65151 20.6627 6.18896 20 6.18896H4C3.33726 6.18896 2.7998 5.65151 2.7998 4.98877C2.7998 4.32603 3.33726 3.78857 4 3.78857H20Z" fill="#F3F6F8"/>
</svg>
