<svg width="24" height="24" viewBox="0 0 24 24" fill="none" xmlns="http://www.w3.org/2000/svg">
<path d="M18.7422 1.03467C19.4049 1.03467 19.9424 1.57212 19.9424 2.23486V7.67725H14.5C13.8373 7.67725 13.2998 7.13979 13.2998 6.47705C13.2999 5.81443 13.8373 5.27686 14.5 5.27686H15.9941C14.826 4.57869 13.4608 4.17728 12 4.17725C7.69234 4.17725 4.20046 7.66945 4.2002 11.9771C4.2002 16.2849 7.69218 19.7769 12 19.7769C16.3077 19.7768 19.7998 16.2848 19.7998 11.9771C19.8001 11.3145 20.3374 10.7769 21 10.7769C21.6625 10.777 22.1999 11.3146 22.2002 11.9771C22.2002 17.6103 17.6332 22.1771 12 22.1772C6.3667 22.1772 1.7998 17.6104 1.7998 11.9771C1.80007 6.34397 6.36686 1.77686 12 1.77686C14.0425 1.77689 15.9462 2.37993 17.542 3.41455V2.23486C17.542 1.57221 18.0796 1.03482 18.7422 1.03467Z" fill="#F3F6F8"/>
</svg>
