<svg width="24" height="24" viewBox="0 0 24 24" fill="none" xmlns="http://www.w3.org/2000/svg">
<g clip-path="url(#clip0_24452_69154)">
<path d="M12.7598 0.419922C13.5421 0.419922 14.0997 0.414015 14.6436 0.525391C15.1015 0.619191 15.5445 0.775066 15.9609 0.987305C16.4554 1.23935 16.8876 1.59133 17.499 2.0791L18.3398 2.74902C19.1719 3.4128 19.7708 3.87807 20.207 4.47852C20.5736 4.98321 20.8467 5.55007 21.0127 6.15137C21.2101 6.86696 21.2002 7.62582 21.2002 8.69043V15.1299C22.2108 15.2303 23 16.0831 23 17.1201V21.6084C22.9999 22.7129 22.1045 23.6084 21 23.6084H3C1.89549 23.6084 1.0001 22.7129 1 21.6084V17.1201C1.00003 16.0831 1.78924 15.2303 2.7998 15.1299V8.02051C2.7998 6.92024 2.79898 6.02211 2.8584 5.29492C2.91897 4.5539 3.04874 3.88481 3.36719 3.25977C3.86573 2.28135 4.66123 1.48584 5.63965 0.987305C6.2647 0.668863 6.93377 0.539079 7.6748 0.478516C8.40201 0.419101 9.30009 0.419922 10.4004 0.419922H12.7598ZM4.5498 17.667H6.22168V22.2959H7.59277V17.667H9.30371V16.6084H4.5498V17.667ZM11.1006 19.4287L9.46777 22.2959H11.0498L12.0068 20.3701L12.9639 22.2959H14.542L12.9131 19.4287L14.499 16.6084H12.9365L12.0068 18.499L11.0771 16.6084H9.51074L11.1006 19.4287ZM14.7061 17.667H16.3779V22.2959H17.749V17.667H19.46V16.6084H14.7061V17.667ZM10.4004 2.82031C9.26049 2.82031 8.47692 2.82152 7.87012 2.87109C7.27763 2.91953 6.95892 3.00761 6.72852 3.125C6.20178 3.39342 5.77331 3.82191 5.50488 4.34863C5.38749 4.57903 5.29942 4.89777 5.25098 5.49023C5.2014 6.09703 5.2002 6.88064 5.2002 8.02051V15.1201H18.7998V8.69043C18.7998 7.49221 18.7899 7.11884 18.6992 6.79004C18.6099 6.46637 18.4629 6.16135 18.2656 5.88965C18.0652 5.61368 17.7795 5.37228 16.8428 4.625L16.0029 3.95508C15.3164 3.40741 15.0989 3.2411 14.8711 3.125C14.647 3.01085 14.4085 2.92744 14.1621 2.87695C13.9116 2.82565 13.638 2.82031 12.7598 2.82031H10.4004ZM14 10.4082C14.6627 10.4082 15.2002 10.9457 15.2002 11.6084C15.2002 12.2711 14.6627 12.8086 14 12.8086H10C9.33726 12.8086 8.7998 12.2711 8.7998 11.6084C8.79985 10.9457 9.33728 10.4082 10 10.4082H14ZM14 5.4082C14.6626 5.4082 15.2 5.9458 15.2002 6.6084C15.2002 7.27114 14.6627 7.80859 14 7.80859H10C9.33726 7.80859 8.7998 7.27114 8.7998 6.6084C8.79997 5.9458 9.33736 5.4082 10 5.4082H14Z" fill="#F3F6F8" fill-opacity="0.6"/>
</g>
<defs>
<clipPath id="clip0_24452_69154">
<rect width="24" height="24" fill="white"/>
</clipPath>
</defs>
</svg>
