<svg width="24" height="24" viewBox="0 0 24 24" fill="none" xmlns="http://www.w3.org/2000/svg">
<path d="M15.5996 2.78857C16.6999 2.78857 17.598 2.78775 18.3252 2.84717C19.0662 2.90773 19.7353 3.0375 20.3604 3.35596C21.3388 3.8545 22.1343 4.64998 22.6328 5.62842C22.9513 6.25348 23.081 6.92252 23.1416 7.66357C23.201 8.39078 23.2002 9.28886 23.2002 10.3892V13.5884C23.2002 14.6887 23.201 15.5868 23.1416 16.314C23.081 17.055 22.9513 17.7241 22.6328 18.3491C22.1343 19.3276 21.3388 20.123 20.3604 20.6216C19.7353 20.94 19.0662 21.0698 18.3252 21.1304C17.598 21.1898 16.6999 21.189 15.5996 21.189H8.40039C7.30009 21.189 6.40201 21.1898 5.6748 21.1304C4.93375 21.0698 4.26471 20.94 3.63965 20.6216C2.66121 20.123 1.86573 19.3276 1.36719 18.3491C1.04873 17.7241 0.918963 17.055 0.858398 16.314C0.798983 15.5868 0.799805 14.6887 0.799805 13.5884V10.3892C0.799805 9.28886 0.798983 8.39078 0.858398 7.66357C0.918963 6.92252 1.04873 6.25348 1.36719 5.62842C1.86573 4.64998 2.66121 3.8545 3.63965 3.35596C4.26471 3.0375 4.93375 2.90773 5.6748 2.84717C6.40201 2.78775 7.30009 2.78857 8.40039 2.78857H15.5996ZM8.40039 5.18896C7.26048 5.18896 6.47693 5.19017 5.87012 5.23975C5.2776 5.28819 4.95892 5.37626 4.72852 5.49365C4.20176 5.76208 3.77331 6.19053 3.50488 6.71729C3.38749 6.94769 3.29942 7.26637 3.25098 7.85889C3.2014 8.46569 3.2002 9.24925 3.2002 10.3892V13.5884C3.2002 14.7283 3.2014 15.5118 3.25098 16.1187C3.29942 16.7112 3.38749 17.0298 3.50488 17.2603C3.77331 17.787 4.20176 18.2155 4.72852 18.4839C4.95892 18.6013 5.2776 18.6894 5.87012 18.7378C6.47693 18.7874 7.26048 18.7886 8.40039 18.7886H15.5996C16.7395 18.7886 17.5231 18.7874 18.1299 18.7378C18.7224 18.6894 19.0411 18.6013 19.2715 18.4839C19.7982 18.2155 20.2267 17.787 20.4951 17.2603C20.6125 17.0298 20.7006 16.7112 20.749 16.1187C20.7986 15.5118 20.7998 14.7283 20.7998 13.5884V10.3892C20.7998 9.24925 20.7986 8.46569 20.749 7.85889C20.7006 7.26637 20.6125 6.94769 20.4951 6.71729C20.2267 6.19053 19.7982 5.76208 19.2715 5.49365C19.0411 5.37626 18.7224 5.28819 18.1299 5.23975C17.5231 5.19017 16.7395 5.18896 15.5996 5.18896H8.40039ZM9.5 8.1001C10.5493 8.1001 11.4004 8.95115 11.4004 10.0005V11.0005H9.59961V10.0005C9.59961 9.94526 9.55523 9.90088 9.5 9.90088H6.5C6.44477 9.90088 6.40039 9.94526 6.40039 10.0005V14.0005C6.40065 14.0555 6.44493 14.1001 6.5 14.1001H9.5C9.55507 14.1001 9.59935 14.0555 9.59961 14.0005V13.0005H11.4004V14.0005C11.4001 15.0496 10.5492 15.9009 9.5 15.9009H6.5C5.45082 15.9009 4.59987 15.0496 4.59961 14.0005V10.0005C4.59961 8.95115 5.45066 8.1001 6.5 8.1001H9.5ZM17.5 8.1001C18.5493 8.1001 19.4004 8.95115 19.4004 10.0005V11.0005H17.5996V10.0005C17.5996 9.94526 17.5552 9.90088 17.5 9.90088H14.5C14.4448 9.90088 14.4004 9.94526 14.4004 10.0005V14.0005C14.4007 14.0555 14.4449 14.1001 14.5 14.1001H17.5C17.5551 14.1001 17.5993 14.0555 17.5996 14.0005V13.0005H19.4004V14.0005C19.4001 15.0496 18.5492 15.9009 17.5 15.9009H14.5C13.4508 15.9009 12.5999 15.0496 12.5996 14.0005V10.0005C12.5996 8.95115 13.4507 8.1001 14.5 8.1001H17.5Z" fill="#F3F6F8"/>
</svg>
