<svg width="24" height="24" viewBox="0 0 24 24" fill="none" xmlns="http://www.w3.org/2000/svg">
<path d="M12.05 19.0995C12.45 16.7662 12.85 14.4162 13.25 12.0495C13.6833 9.68285 14.1 7.33284 14.5 4.99951C15.9 4.99951 17.3 4.99951 18.7 4.99951C20.1333 4.99951 21.55 4.99951 22.95 4.99951C22.35 7.33284 21.7333 9.68285 21.1 12.0495C20.4667 14.4162 19.85 16.7662 19.25 19.0995C18.05 19.0995 16.85 19.0995 15.65 19.0995C14.45 19.0995 13.25 19.0995 12.05 19.0995ZM1 19.0995C1.4 16.7662 1.8 14.4162 2.2 12.0495C2.63333 9.68285 3.05 7.33284 3.45 4.99951C4.85 4.99951 6.25 4.99951 7.65 4.99951C9.08333 4.99951 10.5 4.99951 11.9 4.99951C11.3 7.33284 10.6833 9.68285 10.05 12.0495C9.41667 14.4162 8.8 16.7662 8.2 19.0995C7 19.0995 5.8 19.0995 4.6 19.0995C3.4 19.0995 2.2 19.0995 1 19.0995Z" fill="#F3F6F8"/>
</svg>
