<svg width="24" height="24" viewBox="0 0 24 24" fill="none" xmlns="http://www.w3.org/2000/svg">
<path d="M12 18.3638C12.5523 18.3638 13 17.9161 13 17.3638V15.3315C14.7591 15.2214 16.4904 14.8222 18.123 14.146C18.3604 14.0477 18.5953 13.9439 18.8271 13.8345L19.8838 15.6626C20.1599 16.1409 20.7717 16.3049 21.25 16.0288C21.7283 15.7527 21.8923 15.1409 21.6162 14.6626L20.5801 12.8687C21.5663 12.2419 22.4833 11.5075 23.3135 10.6772C23.7821 10.2086 23.7821 9.44861 23.3135 8.97998C22.8448 8.51169 22.0847 8.51147 21.6162 8.97998C20.3533 10.2429 18.8541 11.2448 17.2041 11.9282C15.5541 12.6116 13.7859 12.9634 12 12.9634C10.2141 12.9634 8.44586 12.6116 6.7959 11.9282C5.14587 11.2448 3.64666 10.2429 2.38379 8.97998C1.91527 8.51147 1.15518 8.51169 0.686523 8.97998C0.217894 9.44861 0.217894 10.2086 0.686523 10.6772C1.51655 11.5073 2.43298 12.242 3.41895 12.8687L2.38379 14.6626C2.10771 15.1409 2.27173 15.7527 2.75 16.0288C3.22828 16.3049 3.84009 16.1409 4.11621 15.6626L5.17188 13.8345C5.40403 13.944 5.63929 14.0476 5.87695 14.146C7.50956 14.8222 9.24088 15.2214 11 15.3315V17.3638C11 17.9161 11.4477 18.3638 12 18.3638Z" fill="white"/>
</svg>
