<svg width="24" height="24" viewBox="0 0 24 24" fill="none" xmlns="http://www.w3.org/2000/svg">
<path d="M13.8052 1.26172C15.0702 1.26172 15.9722 1.24817 16.7983 1.5166C17.4911 1.74179 18.129 2.11022 18.6704 2.59766C19.3159 3.17884 19.7548 3.96614 20.3872 5.06152L22.1919 8.18848C22.8244 9.284 23.2876 10.0576 23.4683 10.9072C23.6197 11.6198 23.6196 12.3568 23.4683 13.0693C23.2877 13.919 22.8243 14.6927 22.1919 15.7881L20.3872 18.915C19.7549 20.0103 19.3157 20.7977 18.6704 21.3789C18.1291 21.8663 17.4911 22.2348 16.7983 22.46C15.9722 22.7284 15.0702 22.7148 13.8052 22.7148H10.1958C8.9307 22.7148 8.0288 22.7284 7.20264 22.46C6.50975 22.2348 5.872 21.8664 5.33057 21.3789C4.68508 20.7977 4.24622 20.0105 3.61377 18.915L1.80908 15.7881C1.17656 14.6925 0.713321 13.919 0.532715 13.0693C0.381312 12.3567 0.381264 11.6198 0.532715 10.9072C0.713399 10.0577 1.17661 9.28395 1.80908 8.18848L3.61377 5.06152C4.2461 3.96627 4.68514 3.1788 5.33057 2.59766C5.87192 2.11033 6.50991 1.74174 7.20264 1.5166C8.02873 1.24828 8.93082 1.26172 10.1958 1.26172H13.8052ZM10.1958 3.66211C8.7695 3.66211 8.32355 3.67591 7.94482 3.79883C7.5718 3.92003 7.22756 4.11847 6.93604 4.38086C6.64004 4.64737 6.4052 5.02625 5.69189 6.26172L3.88721 9.38867C3.17409 10.6238 2.96325 11.0168 2.88037 11.4062C2.79885 11.7899 2.7989 12.1867 2.88037 12.5703C2.96318 12.9599 3.1739 13.3524 3.88721 14.5879L5.69189 17.7148C6.40535 18.9506 6.64003 19.3292 6.93604 19.5957C7.22764 19.8583 7.57164 20.0565 7.94482 20.1777C8.3236 20.3007 8.76919 20.3145 10.1958 20.3145H13.8052C15.2317 20.3145 15.6774 20.3008 16.0562 20.1777C16.4292 20.0565 16.7734 19.8582 17.0649 19.5957C17.3608 19.3292 17.5959 18.9501 18.3091 17.7148L20.1138 14.5879C20.827 13.3526 21.0378 12.9599 21.1206 12.5703C21.2021 12.1867 21.2021 11.7898 21.1206 11.4062C21.0377 11.0167 20.827 10.624 20.1138 9.38867L18.3091 6.26172C17.5957 5.02606 17.361 4.64739 17.0649 4.38086C16.7734 4.11836 16.4293 3.92008 16.0562 3.79883C15.6774 3.67581 15.2317 3.66211 13.8052 3.66211H10.1958ZM12.0005 7.7998C14.3199 7.79997 16.2007 9.68051 16.2007 12C16.2007 14.3195 14.3199 16.2 12.0005 16.2002C9.6809 16.2002 7.8003 14.3196 7.80029 12C7.80029 9.6804 9.68089 7.7998 12.0005 7.7998ZM12.0005 10.2002C11.0064 10.2002 10.2007 11.0059 10.2007 12C10.2007 12.9941 11.0064 13.7998 12.0005 13.7998C12.9945 13.7996 13.8003 12.994 13.8003 12C13.8003 11.006 12.9945 10.2004 12.0005 10.2002Z" fill="#F3F6F8"/>
</svg>
