<svg width="24" height="24" viewBox="0 0 24 24" fill="none" xmlns="http://www.w3.org/2000/svg">
<path d="M7.16968 3.00219L7.23248 1.80384L7.16968 3.00219ZM7.30618 3.01784L8.24449 2.26979L7.96124 1.9145L7.5137 1.83592L7.30618 3.01784ZM6.21452 3.25813L6.86808 4.26453L6.86808 4.26453L6.21452 3.25813ZM5.2203 4.63139L4.18107 4.03139L5.2203 4.63139ZM3.2803 7.99156L4.31953 8.59156L4.31953 8.59156L3.2803 7.99156ZM2.58813 9.53921L3.78649 9.60201L2.58813 9.53921ZM2.84407 10.4944L1.83766 11.1479L1.83766 11.1479L2.84407 10.4944ZM4.21732 11.4886L3.61732 12.5278L3.61732 12.5278L4.21732 11.4886ZM4.97942 11.9286L4.37943 12.9678L4.37944 12.9678L4.97942 11.9286ZM5.00035 11.9407H6.20035V11.2478L5.60034 10.9014L5.00035 11.9407ZM5.43632 18.0964L6.50553 17.5516L6.50553 17.5516L5.43632 18.0964ZM7.18439 19.8445L7.72918 18.7753L7.72918 18.7753L7.18439 19.8445ZM16.8163 19.8445L16.2715 18.7753L16.2715 18.7753L16.8163 19.8445ZM18.5644 18.0964L19.6336 18.6412L19.6336 18.6412L18.5644 18.0964ZM19.0004 11.9406L18.4004 10.9014L17.8004 11.2478V11.9406H19.0004ZM19.0251 11.9263L19.6251 12.9656L19.6251 12.9656L19.0251 11.9263ZM19.7833 11.4886L19.1833 10.4494L19.1833 10.4494L19.7833 11.4886ZM21.1565 10.4944L22.1629 11.1479L22.1629 11.1479L21.1565 10.4944ZM21.4125 9.53921L22.6108 9.47641L22.6108 9.47641L21.4125 9.53921ZM20.7203 7.99156L19.6811 8.59156L19.6811 8.59156L20.7203 7.99156ZM18.7803 4.63139L17.7411 5.23139L17.7411 5.23139L18.7803 4.63139ZM17.7861 3.25813L18.4396 2.25172L18.4396 2.25172L17.7861 3.25813ZM16.8309 3.00219L16.7681 1.80384L16.7681 1.80384L16.8309 3.00219ZM16.6944 3.01784L16.4869 1.83592L16.0394 1.9145L15.7561 2.26979L16.6944 3.01784ZM7.16968 3.00219L7.10687 4.20055C7.10449 4.20042 7.10245 4.20024 7.10088 4.20006C7.09932 4.19988 7.09854 4.19974 7.09866 4.19976L7.30618 3.01784L7.5137 1.83592C7.42166 1.81976 7.32803 1.80885 7.23248 1.80384L7.16968 3.00219ZM6.21452 3.25813L6.86808 4.26453C6.93893 4.21853 7.02252 4.19613 7.10687 4.20055L7.16968 3.00219L7.23248 1.80384C6.64199 1.77289 6.05686 1.92968 5.56095 2.25172L6.21452 3.25813ZM5.2203 4.63139L6.25953 5.23139C6.49345 4.82622 6.63361 4.58532 6.75153 4.41483C6.86146 4.25591 6.89277 4.2485 6.86808 4.26453L6.21452 3.25813L5.56095 2.25172C5.2141 2.47697 4.97233 2.76817 4.77769 3.04956C4.59105 3.3194 4.39519 3.66052 4.18107 4.03139L5.2203 4.63139ZM3.2803 7.99156L4.31953 8.59156L6.25953 5.23139L5.2203 4.63139L4.18107 4.03139L2.24107 7.39156L3.2803 7.99156ZM2.58813 9.53921L3.78649 9.60201C3.78495 9.63141 3.77571 9.60059 3.85838 9.42593C3.94706 9.23857 4.08561 8.99673 4.31953 8.59156L3.2803 7.99156L2.24107 7.39156C2.02695 7.76243 1.82946 8.10262 1.6891 8.39917C1.54272 8.70842 1.41142 9.06341 1.38978 9.47641L2.58813 9.53921ZM2.84407 10.4944L3.85047 9.8408C3.80446 9.76996 3.78207 9.68637 3.78649 9.60201L2.58813 9.53921L1.38978 9.47641C1.35883 10.0669 1.51561 10.652 1.83766 11.1479L2.84407 10.4944ZM4.21732 11.4886L4.81732 10.4494C4.41216 10.2154 4.17125 10.0753 4.00077 9.95735C3.84185 9.84743 3.83444 9.81611 3.85047 9.8408L2.84407 10.4944L1.83766 11.1479C2.06291 11.4948 2.35411 11.7366 2.6355 11.9312C2.90534 12.1178 3.24646 12.3137 3.61732 12.5278L4.21732 11.4886ZM4.97942 11.9286L5.57942 10.8894L4.81732 10.4494L4.21732 11.4886L3.61732 12.5278L4.37943 12.9678L4.97942 11.9286ZM5.00035 11.9407L5.60034 10.9014L5.57941 10.8894L4.97942 11.9286L4.37944 12.9678L4.40036 12.9799L5.00035 11.9407ZM5.00035 13.8805H6.20035V11.9407H5.00035H3.80035V13.8805H5.00035ZM5.43632 18.0964L6.50553 17.5516C6.38811 17.3212 6.2993 17.0027 6.25086 16.4099C6.20128 15.8031 6.20035 15.0204 6.20035 13.8805H5.00035H3.80035C3.80035 14.9808 3.79942 15.8782 3.85883 16.6054C3.91939 17.3466 4.04857 18.016 4.36712 18.6412L5.43632 18.0964ZM7.18439 19.8445L7.72918 18.7753C7.20232 18.5068 6.77398 18.0785 6.50553 17.5516L5.43632 18.0964L4.36712 18.6412C4.86566 19.6197 5.66116 20.4152 6.6396 20.9137L7.18439 19.8445ZM11.4004 20.2805V19.0805C10.2604 19.0805 9.47769 19.0795 8.87088 19.0299C8.27808 18.9815 7.95964 18.8927 7.72918 18.7753L7.18439 19.8445L6.6396 20.9137C7.26478 21.2322 7.93422 21.3614 8.67544 21.422C9.40265 21.4814 10.3 21.4805 11.4004 21.4805V20.2805ZM12.6004 20.2805V19.0805H11.4004V20.2805V21.4805H12.6004V20.2805ZM16.8163 19.8445L16.2715 18.7753C16.0411 18.8927 15.7226 18.9815 15.1298 19.0299C14.523 19.0795 13.7403 19.0805 12.6004 19.0805V20.2805V21.4805C13.7007 21.4805 14.5981 21.4814 15.3253 21.422C16.0665 21.3614 16.7359 21.2322 17.3611 20.9137L16.8163 19.8445ZM18.5644 18.0964L17.4952 17.5516C17.2267 18.0785 16.7984 18.5068 16.2715 18.7753L16.8163 19.8445L17.3611 20.9137C18.3395 20.4152 19.135 19.6197 19.6336 18.6412L18.5644 18.0964ZM19.0004 13.8805H17.8004C17.8004 15.0204 17.7994 15.8031 17.7498 16.4099C17.7014 17.0027 17.6126 17.3212 17.4952 17.5516L18.5644 18.0964L19.6336 18.6412C19.9521 18.016 20.0813 17.3466 20.1419 16.6054C20.2013 15.8782 20.2004 14.9808 20.2004 13.8805H19.0004ZM19.0004 11.9406H17.8004V13.8805H19.0004H20.2004V11.9406H19.0004ZM19.0251 11.9263L18.4251 10.8871L18.4004 10.9014L19.0004 11.9406L19.6003 12.9799L19.6251 12.9656L19.0251 11.9263ZM19.7833 11.4886L19.1833 10.4494L18.4251 10.8871L19.0251 11.9263L19.6251 12.9656L20.3833 12.5278L19.7833 11.4886ZM21.1565 10.4944L20.1501 9.8408C20.1662 9.81611 20.1587 9.84743 19.9998 9.95735C19.8293 10.0753 19.5884 10.2154 19.1833 10.4494L19.7833 11.4886L20.3833 12.5278C20.7541 12.3137 21.0953 12.1178 21.3651 11.9312C21.6465 11.7366 21.9377 11.4948 22.1629 11.1479L21.1565 10.4944ZM21.4125 9.53921L20.2141 9.60201C20.2185 9.68637 20.1961 9.76996 20.1501 9.84081L21.1565 10.4944L22.1629 11.1479C22.485 10.652 22.6418 10.0669 22.6108 9.47641L21.4125 9.53921ZM20.7203 7.99156L19.6811 8.59156C19.915 8.99673 20.0535 9.23857 20.1422 9.42593C20.2249 9.60059 20.2156 9.63141 20.2141 9.60201L21.4125 9.53921L22.6108 9.47641C22.5892 9.06341 22.4579 8.70842 22.3115 8.39917C22.1711 8.10262 21.9736 7.76243 21.7595 7.39156L20.7203 7.99156ZM18.7803 4.63139L17.7411 5.23139L19.6811 8.59156L20.7203 7.99156L21.7595 7.39156L19.8195 4.03139L18.7803 4.63139ZM17.7861 3.25813L17.1325 4.26453C17.1078 4.2485 17.1391 4.25591 17.2491 4.41483C17.367 4.58532 17.5071 4.82622 17.7411 5.23139L18.7803 4.63139L19.8195 4.03139C19.6054 3.66052 19.4095 3.3194 19.2229 3.04956C19.0283 2.76817 18.7865 2.47697 18.4396 2.25172L17.7861 3.25813ZM16.8309 3.00219L16.8937 4.20055C16.9781 4.19613 17.0617 4.21853 17.1325 4.26453L17.7861 3.25813L18.4396 2.25172C17.9437 1.92968 17.3586 1.77289 16.7681 1.80384L16.8309 3.00219ZM16.6944 3.01784L16.9019 4.19976C16.9021 4.19974 16.9013 4.19988 16.8997 4.20006C16.8981 4.20024 16.8961 4.20042 16.8937 4.20055L16.8309 3.00219L16.7681 1.80384C16.6726 1.80885 16.5789 1.81976 16.4869 1.83592L16.6944 3.01784ZM16.6944 3.01784L15.7561 2.26979C14.8747 3.3754 13.5202 4.08046 12.0003 4.08046V5.28046V6.48046C14.2816 6.48046 16.3155 5.41813 17.6327 3.7659L16.6944 3.01784ZM12.0003 5.28046V4.08046C10.4804 4.08046 9.12592 3.3754 8.24449 2.26979L7.30618 3.01784L6.36788 3.7659C7.6851 5.41813 9.71903 6.48046 12.0003 6.48046V5.28046Z" fill="#F3F6F8"/>
</svg>
