<svg width="24" height="24" viewBox="0 0 24 24" fill="none" xmlns="http://www.w3.org/2000/svg">
<g clip-path="url(#clip0_24452_69255)">
<path d="M12 0.799805C18.1855 0.79991 23.2002 5.81448 23.2002 12C23.2001 18.1854 18.1854 23.2001 12 23.2002C5.81448 23.2002 0.79991 18.1855 0.799805 12C0.799805 5.81441 5.81441 0.799805 12 0.799805ZM12 3.2002C7.13989 3.2002 3.2002 7.13989 3.2002 12C3.2003 16.86 7.13996 20.7998 12 20.7998C16.86 20.7997 20.7997 16.86 20.7998 12C20.7998 7.13996 16.86 3.2003 12 3.2002ZM10.4326 7.96094C10.9496 7.90665 11.5798 8.27056 12.8398 8.99805L14.1602 9.76074C15.4198 10.488 16.0502 10.8514 16.2617 11.3262C16.4461 11.7403 16.446 12.2137 16.2617 12.6279C16.0503 13.1028 15.4201 13.4669 14.1602 14.1943L12.8398 14.9561C11.5797 15.6836 10.9496 16.0475 10.4326 15.9932C9.98173 15.9458 9.5722 15.7095 9.30566 15.3428C9.00009 14.9222 9 14.1944 9 12.7393V11.2148C9 9.76008 9.00016 9.03286 9.30566 8.6123C9.5722 8.24545 9.98165 8.00834 10.4326 7.96094Z" fill="#F3F6F8"/>
</g>
<defs>
<clipPath id="clip0_24452_69255">
<rect width="24" height="24" fill="white"/>
</clipPath>
</defs>
</svg>
