<svg width="24" height="24" viewBox="0 0 24 24" fill="none" xmlns="http://www.w3.org/2000/svg">
<path d="M19 2.77734C19.6627 2.77745 20.2002 3.31486 20.2002 3.97754V18.0801L21.1514 17.1289C21.62 16.6603 22.38 16.6603 22.8486 17.1289C23.3173 17.5975 23.3173 18.3575 22.8486 18.8262L19 22.6748L15.1514 18.8262C14.6827 18.3575 14.6827 17.5975 15.1514 17.1289C15.62 16.6603 16.38 16.6603 16.8486 17.1289L17.7998 18.0801V3.97754C17.7998 3.3148 18.3373 2.77734 19 2.77734ZM9 17.7773C9.66265 17.7774 10.2002 18.3149 10.2002 18.9775C10.2001 19.6401 9.66259 20.1776 9 20.1777H3C2.33732 20.1777 1.79991 19.6402 1.7998 18.9775C1.7998 18.3148 2.33726 17.7773 3 17.7773H9ZM12 10.7773C12.6627 10.7774 13.2002 11.3149 13.2002 11.9775C13.2001 12.6401 12.6626 13.1776 12 13.1777H3C2.33732 13.1777 1.79991 12.6402 1.7998 11.9775C1.7998 11.3148 2.33726 10.7773 3 10.7773H12ZM15 3.77734C15.6627 3.77745 16.2002 4.31486 16.2002 4.97754C16.2001 5.64013 15.6626 6.17763 15 6.17773H3C2.33732 6.17773 1.79991 5.64019 1.7998 4.97754C1.7998 4.3148 2.33726 3.77734 3 3.77734H15Z" fill="#F3F6F8"/>
</svg>
