<svg width="24" height="24" viewBox="0 0 24 24" fill="none" xmlns="http://www.w3.org/2000/svg">
<path d="M12.0005 2.77734C12.663 2.77761 13.2007 3.31496 13.2007 3.97754V10.7783H20.0005C20.663 10.7786 21.2007 11.3159 21.2007 11.9785C21.2006 12.6412 20.6622 13.1787 19.9995 13.1787H13.2007V19.9775C13.2006 20.64 12.663 21.1775 12.0005 21.1777C11.3378 21.1777 10.8004 20.6402 10.8003 19.9775V13.1787H3.99951C3.33711 13.1784 2.79938 12.641 2.79932 11.9785C2.79932 11.3158 3.33782 10.7784 4.00049 10.7783H10.8003V3.97754C10.8003 3.3148 11.3377 2.77734 12.0005 2.77734Z" fill="#F3F6F8"/>
</svg>
