<svg width="24" height="24" viewBox="0 0 24 24" fill="none" xmlns="http://www.w3.org/2000/svg">
<path d="M12 0.988281C16.9704 0.988282 20.9997 5.01794 21 9.98828V13.9883C21 18.9588 16.9706 22.9883 12 22.9883C7.0296 22.9883 3.00026 18.9596 3 13.9893V9.98926C3 5.0187 7.02944 0.988281 12 0.988281ZM12 2.98828C8.13417 2.98828 5.00026 6.12251 5 9.98828V13.9883C5 17.8543 8.13401 20.9883 12 20.9883C15.866 20.9883 19 17.8543 19 13.9883V9.98828C18.9997 6.12251 15.8658 2.98828 12 2.98828ZM14.293 13.793C14.6835 13.4024 15.3165 13.4024 15.707 13.793C16.0976 14.1835 16.0976 14.8165 15.707 15.207L12.7773 18.1367C12.3479 18.5658 11.6521 18.5658 11.2227 18.1367L8.29297 15.207C7.90244 14.8165 7.90244 14.1835 8.29297 13.793C8.68349 13.4024 9.31651 13.4024 9.70703 13.793L12 16.0859L14.293 13.793ZM12 9.5C12.8284 9.5 13.5 10.1716 13.5 11C13.5 11.8284 12.8284 12.5 12 12.5C11.1716 12.5 10.5 11.8284 10.5 11C10.5 10.1716 11.1716 9.5 12 9.5ZM12 5.5C12.8284 5.5 13.5 6.17157 13.5 7C13.5 7.82843 12.8284 8.5 12 8.5C11.1716 8.5 10.5 7.82843 10.5 7C10.5 6.17157 11.1716 5.5 12 5.5Z" fill="#F3F6F8"/>
</svg>
