<svg width="24" height="24" viewBox="0 0 24 24" fill="none" xmlns="http://www.w3.org/2000/svg">
<path d="M15.5996 1.78882C16.6998 1.78882 17.598 1.788 18.3252 1.84741C19.0662 1.90798 19.7353 2.03778 20.3604 2.3562C21.3387 2.85475 22.1343 3.6503 22.6328 4.62866C22.9512 5.25366 23.081 5.92286 23.1416 6.66382C23.201 7.39099 23.2002 8.28921 23.2002 9.3894V14.1111C23.2002 14.8761 23.2045 15.4123 23.123 15.8806C22.7466 18.0421 21.0531 19.7356 18.8916 20.1121C18.68 20.1489 18.4543 20.1665 18.2002 20.1765V21.989C18.2001 22.4212 17.9669 22.82 17.5908 23.033C17.2148 23.2458 16.7534 23.2404 16.3828 23.0183L12.9023 20.9304C12.3045 20.5717 12.1163 20.4632 11.9258 20.3875C11.7382 20.3129 11.5429 20.2579 11.3438 20.2253C11.1415 20.1923 10.9243 20.1892 10.2275 20.1892H8.40039C7.30019 20.1892 6.40198 20.19 5.6748 20.1306C4.93385 20.0701 4.26465 19.9402 3.63965 19.6218C2.66128 19.1233 1.86574 18.3277 1.36719 17.3494C1.04876 16.7244 0.91897 16.0552 0.858398 15.3142C0.798987 14.587 0.799805 13.6888 0.799805 12.5886V9.3894C0.799805 8.28919 0.798998 7.391 0.858398 6.66382C0.918961 5.9228 1.04876 5.25371 1.36719 4.62866C1.86573 3.65022 2.66121 2.85474 3.63965 2.3562C4.26469 2.03778 4.93378 1.90797 5.6748 1.84741C6.40198 1.78801 7.30018 1.78882 8.40039 1.78882H15.5996ZM8.40039 4.18921C7.2606 4.18921 6.4769 4.19043 5.87012 4.23999C5.27767 4.28843 4.95891 4.37652 4.72852 4.4939C4.20176 4.76232 3.77331 5.19078 3.50488 5.71753C3.38751 5.94793 3.29941 6.26668 3.25098 6.85913C3.20141 7.46591 3.2002 8.24961 3.2002 9.3894V12.5886C3.2002 13.7284 3.2014 14.5121 3.25098 15.1189C3.29942 15.7113 3.3875 16.0301 3.50488 16.2605C3.77332 16.7871 4.20184 17.2157 4.72852 17.4841C4.9589 17.6015 5.2778 17.6896 5.87012 17.738C6.4769 17.7876 7.26062 17.7888 8.40039 17.7888H10.2275C10.8494 17.7888 11.2926 17.7854 11.7314 17.8572C12.1015 17.9177 12.464 18.0185 12.8125 18.157C13.2258 18.3213 13.6043 18.5518 14.1377 18.8718L15.7998 19.8689V19.1111C15.7998 19.108 15.7999 19.0789 15.8008 19.0505C15.8018 19.018 15.8048 18.9497 15.8193 18.866L15.8408 18.7664C15.9668 18.2741 16.3703 17.8966 16.877 17.8083L17.0615 17.7898C17.0898 17.7889 17.119 17.7888 17.1221 17.7888C17.988 17.7888 18.2679 17.7848 18.4805 17.7478C19.6443 17.5451 20.556 16.6333 20.7588 15.4695C20.7958 15.2569 20.7998 14.977 20.7998 14.1111V9.3894C20.7998 8.24963 20.7986 7.46591 20.749 6.85913C20.7006 6.26682 20.6125 5.94792 20.4951 5.71753C20.2267 5.19085 19.7981 4.76233 19.2715 4.4939C19.0411 4.37651 18.7223 4.28844 18.1299 4.23999C17.5231 4.19041 16.7394 4.18921 15.5996 4.18921H8.40039ZM10 7.97729C10.5521 7.9774 10.9998 8.42521 11 8.97729V11.7849C11 11.912 10.9758 12.038 10.9287 12.156L10.2334 13.8943C10.0923 14.2466 9.75066 14.4773 9.37109 14.4773C8.71429 14.4772 8.26485 13.8137 8.50879 13.2039L9 11.9773H8C7.44772 11.9773 7 11.5296 7 10.9773V8.97729C7.00016 8.42515 7.44781 7.97729 8 7.97729H10ZM16 7.97729C16.5521 7.9774 16.9998 8.42521 17 8.97729V11.7849C17 11.912 16.9758 12.038 16.9287 12.156L16.2334 13.8943C16.0923 14.2466 15.7507 14.4773 15.3711 14.4773C14.7143 14.4772 14.2648 13.8137 14.5088 13.2039L15 11.9773H14C13.4477 11.9773 13 11.5296 13 10.9773V8.97729C13.0002 8.42515 13.4478 7.97729 14 7.97729H16Z" fill="#F3F6F8"/>
</svg>
