<svg width="24" height="24" viewBox="0 0 24 24" fill="none" xmlns="http://www.w3.org/2000/svg">
<path fill-rule="evenodd" clip-rule="evenodd" d="M17.9756 7.95654C17.9987 8.23988 18 8.61241 18 9.18897V14.7886C18 15.3651 17.9987 15.7377 17.9756 16.021C17.9534 16.2926 17.9158 16.3934 17.8906 16.4429C17.7948 16.6308 17.6421 16.7836 17.4541 16.8794C17.4047 16.9046 17.3038 16.9422 17.0322 16.9644C16.7489 16.9875 16.3764 16.9888 15.7998 16.9888H6.2002C5.62364 16.9888 5.25111 16.9875 4.96778 16.9644C4.69619 16.9422 4.59534 16.9046 4.5459 16.8794C4.35793 16.7836 4.20522 16.6308 4.10938 16.4429C4.08419 16.3934 4.04661 16.2926 4.02442 16.021C4.00127 15.7377 4 15.3651 4 14.7886V9.18897C4 8.61241 4.00127 8.23988 4.02442 7.95654C4.04661 7.68496 4.08419 7.58411 4.10938 7.53467C4.20522 7.3467 4.35793 7.19399 4.5459 7.09815C4.59534 7.07296 4.69619 7.03538 4.96778 7.01319C5.25111 6.99004 5.62364 6.98877 6.2002 6.98877H15.7998C16.3764 6.98877 16.7489 6.99004 17.0322 7.01319C17.3038 7.03538 17.4047 7.07296 17.4541 7.09815C17.6421 7.19399 17.7948 7.3467 17.8906 7.53467C17.9158 7.58411 17.9534 7.68496 17.9756 7.95654ZM20 14.8409L20 14.7886L20 13.9888H22V9.98877H20L20 9.18897L20 9.13669C20 8.61534 20.0001 8.16477 19.9697 7.79346C19.9374 7.3982 19.8656 7.00476 19.6729 6.62647C19.3853 6.06224 18.9265 5.60349 18.3623 5.31592C17.984 5.12317 17.5906 5.05136 17.1953 5.01904C16.824 4.98871 16.3734 4.98873 15.852 4.98877L15.7998 4.98877H6.2002C6.18272 4.98877 6.16532 4.98877 6.148 4.98877C5.62662 4.98873 5.17603 4.98871 4.80469 5.01904C4.40943 5.05136 4.01599 5.12317 3.6377 5.31592C3.07347 5.60349 2.61472 6.06224 2.32715 6.62647C2.1344 7.00476 2.06259 7.3982 2.03028 7.79346C1.99994 8.16479 1.99996 8.61539 2 9.13677C2 9.15409 2 9.17149 2 9.18897V14.7886L2 14.8408C1.99996 15.3622 1.99994 15.8127 2.03028 16.1841C2.06259 16.5793 2.1344 16.9728 2.32715 17.3511C2.61472 17.9153 3.07347 18.374 3.6377 18.6616C4.01599 18.8544 4.40943 18.9262 4.80469 18.9585C5.176 18.9888 5.62657 18.9888 6.14792 18.9888L6.2002 18.9888H15.7998L15.8521 18.9888C16.3734 18.9888 16.824 18.9888 17.1953 18.9585C17.5906 18.9262 17.984 18.8544 18.3623 18.6616C18.9265 18.374 19.3853 17.9153 19.6729 17.3511C19.8656 16.9728 19.9374 16.5793 19.9697 16.1841C20.0001 15.8128 20 15.3622 20 14.8409Z" fill="#F3F6F8"/>
</svg>
