<svg width="24" height="24" viewBox="0 0 24 24" fill="none" xmlns="http://www.w3.org/2000/svg">
<path d="M19.2002 14.9883C19.8627 14.9884 20.4003 15.5259 20.4004 16.1885V17.9883H22.2002C22.8627 17.9884 23.4003 18.5259 23.4004 19.1885C23.4004 19.8511 22.8628 20.3885 22.2002 20.3887H20.4004V22.1885C20.4003 22.851 19.8628 23.3885 19.2002 23.3887C18.5375 23.3887 18.0001 22.8511 18 22.1885V20.3887H16.2002C15.5375 20.3886 15 19.8512 15 19.1885C15.0001 18.5259 15.5376 17.9883 16.2002 17.9883H18V16.1885C18.0001 15.5258 18.5375 14.9883 19.2002 14.9883ZM15.5996 2.77734C16.6999 2.77734 17.598 2.77652 18.3252 2.83594C19.0662 2.8965 19.7353 3.02628 20.3604 3.34473C21.3388 3.84327 22.1343 4.63877 22.6328 5.61719C22.9512 6.24221 23.081 6.91136 23.1416 7.65234C23.201 8.37952 23.2002 9.27772 23.2002 10.3779V13.4893C23.1998 14.1517 22.6625 14.6885 22 14.6885C21.3375 14.6885 20.8002 14.1517 20.7998 13.4893V10.3779C20.7998 9.23814 20.7986 8.45444 20.749 7.84766C20.7006 7.25528 20.6125 6.93645 20.4951 6.70605C20.2267 6.17933 19.7982 5.75085 19.2715 5.48242C19.0411 5.36503 18.7224 5.27696 18.1299 5.22852C17.5231 5.17894 16.7395 5.17773 15.5996 5.17773H8.40039C7.26048 5.17773 6.47693 5.17894 5.87012 5.22852C5.27761 5.27696 4.95892 5.36503 4.72852 5.48242C4.20179 5.75085 3.7733 6.17932 3.50488 6.70605C3.38752 6.93645 3.29941 7.25527 3.25098 7.84766C3.20141 8.45444 3.2002 9.23814 3.2002 10.3779V10.9277L4.57422 9.55371C4.88333 9.24459 5.19882 8.92509 5.49609 8.69824C5.78065 8.4812 6.1541 8.2646 6.62793 8.21387L6.83691 8.20215L7.0459 8.21387C7.51949 8.26471 7.8923 8.48127 8.17676 8.69824C8.47417 8.92519 8.79035 9.24446 9.09961 9.55371L12.7715 13.2256C12.9411 13.3952 13.0752 13.5293 13.1934 13.6416C13.2489 13.6944 13.2972 13.7375 13.3379 13.7734C13.3783 13.7377 13.4255 13.6939 13.4805 13.6416C13.5985 13.5293 13.7329 13.395 13.9023 13.2256L15.4883 11.6396C15.9569 11.1714 16.717 11.1712 17.1855 11.6396C17.6539 12.1082 17.6538 12.8683 17.1855 13.3369L15.5996 14.9229C15.2905 15.2319 14.975 15.5514 14.6777 15.7783C14.3526 16.0264 13.9117 16.2743 13.3369 16.2744C12.7623 16.2744 12.3222 16.0263 11.9971 15.7783C11.6996 15.5514 11.3835 15.2321 11.0742 14.9229L7.40234 11.251C7.23277 11.0814 7.09859 10.9473 6.98047 10.835C6.9252 10.7824 6.87746 10.739 6.83691 10.7031C6.79642 10.7389 6.74855 10.7825 6.69336 10.835C6.57529 10.9472 6.44095 11.0815 6.27148 11.251L3.20312 14.3184C3.20552 15.0726 3.21296 15.6421 3.25098 16.1074C3.29942 16.6998 3.3875 17.0186 3.50488 17.249C3.77332 17.7757 4.20181 18.2043 4.72852 18.4727C4.95891 18.59 5.27768 18.6781 5.87012 18.7266C6.47692 18.7761 7.2605 18.7773 8.40039 18.7773H11.5C12.1627 18.7773 12.7002 19.3148 12.7002 19.9775C12.7001 20.6402 12.1627 21.1777 11.5 21.1777H8.40039C7.3001 21.1777 6.40201 21.1786 5.6748 21.1191C4.93379 21.0586 4.26469 20.9288 3.63965 20.6104C2.66126 20.1118 1.86573 19.3163 1.36719 18.3379C1.04876 17.7129 0.91897 17.0437 0.858398 16.3027C0.798987 15.5756 0.799805 14.6774 0.799805 13.5771V10.3779C0.799805 9.27772 0.798999 8.37952 0.858398 7.65234C0.918958 6.91135 1.04879 6.24221 1.36719 5.61719C1.86572 4.63877 2.66124 3.84327 3.63965 3.34473C4.26471 3.02627 4.93376 2.8965 5.6748 2.83594C6.40201 2.77652 7.30009 2.77734 8.40039 2.77734H15.5996Z" fill="#F3F6F8"/>
<circle cx="16" cy="7.98877" r="2" fill="#F3F6F8"/>
</svg>
