<svg width="24" height="24" viewBox="0 0 24 24" fill="none" xmlns="http://www.w3.org/2000/svg">
<path d="M21.04 16.2676C21.4378 15.7378 22.1897 15.6308 22.7197 16.0283C23.2498 16.426 23.3575 17.1779 22.96 17.708L19.96 21.708C19.9558 21.7135 19.9505 21.7182 19.9463 21.7236C19.9312 21.7431 19.9155 21.762 19.8994 21.7803C19.8863 21.7952 19.8731 21.8101 19.8594 21.8242C19.8465 21.8375 19.8327 21.8498 19.8193 21.8623C19.8037 21.877 19.7878 21.8915 19.7715 21.9053C19.758 21.9166 19.7444 21.9278 19.7305 21.9385C19.711 21.9534 19.6911 21.9678 19.6709 21.9814C19.6616 21.9877 19.6521 21.994 19.6426 22C19.6192 22.0148 19.5955 22.0289 19.5713 22.042C19.5598 22.0482 19.5478 22.0537 19.5361 22.0596C19.5151 22.0701 19.4942 22.0806 19.4727 22.0898C19.4572 22.0964 19.4414 22.1025 19.4258 22.1084C19.4048 22.1164 19.3837 22.1241 19.3623 22.1309C19.3485 22.1352 19.3343 22.1387 19.3203 22.1426C19.2976 22.1488 19.2749 22.1552 19.252 22.1602C19.2352 22.1638 19.2181 22.1661 19.2012 22.1689C19.1843 22.1718 19.1674 22.1746 19.1504 22.1768C19.1238 22.1801 19.0971 22.183 19.0703 22.1846C19.0606 22.1851 19.0508 22.1862 19.041 22.1865C19.0157 22.1874 18.9902 22.1872 18.9648 22.1865C18.9463 22.186 18.9277 22.185 18.9092 22.1836C18.8945 22.1825 18.8799 22.1804 18.8652 22.1787C18.8418 22.1761 18.8182 22.1739 18.7949 22.1699C18.7783 22.1671 18.7616 22.1637 18.7451 22.1602C18.7225 22.1553 18.7001 22.1488 18.6777 22.1426C18.6627 22.1384 18.6477 22.1337 18.6328 22.1289C18.6129 22.1225 18.5929 22.1159 18.5732 22.1084C18.5546 22.1013 18.5359 22.094 18.5176 22.0859C18.4982 22.0774 18.479 22.0682 18.46 22.0586C18.4423 22.0496 18.4246 22.0402 18.4072 22.0303C18.3921 22.0216 18.3772 22.0123 18.3623 22.0029C18.3525 21.9968 18.3417 21.9918 18.332 21.9854L15.332 19.9746C14.7815 19.6056 14.634 18.8591 15.0029 18.3086C15.372 17.7585 16.1176 17.6117 16.668 17.9805L18.7217 19.3574L21.04 16.2676ZM11 17.7773C11.6627 17.7774 12.2002 18.3149 12.2002 18.9775C12.2001 19.6401 11.6626 20.1776 11 20.1777H3C2.33732 20.1777 1.79991 19.6402 1.7998 18.9775C1.7998 18.3148 2.33726 17.7773 3 17.7773H11ZM21 10.7773C21.6627 10.7774 22.2002 11.3149 22.2002 11.9775C22.2001 12.6401 21.6626 13.1776 21 13.1777H3C2.33732 13.1777 1.79991 12.6402 1.7998 11.9775C1.7998 11.3148 2.33726 10.7773 3 10.7773H21ZM21 3.77734C21.6627 3.77745 22.2002 4.31486 22.2002 4.97754C22.2001 5.64013 21.6626 6.17763 21 6.17773H3C2.33732 6.17773 1.79991 5.64019 1.7998 4.97754C1.7998 4.3148 2.33726 3.77734 3 3.77734H21Z" fill="#F3F6F8"/>
</svg>
