<svg width="56" height="56" viewBox="0 0 56 56" fill="none" xmlns="http://www.w3.org/2000/svg">
<g clip-path="url(#clip0_25989_47400)">
<rect width="56" height="56" rx="28" fill="#222324"/>
<path d="M28.0001 38.1819C18.8117 38.1819 10.5063 41.7396 4.55445 47.471C2.1088 49.8261 1.67301 56.9506 2.00829 64.5274C2.31468 71.4516 2.46788 74.9137 4.37172 78.3805C5.90363 81.1701 8.88877 84.0261 11.7433 85.4332C15.291 87.1819 19.3152 87.1819 27.3635 87.1819H28.6367C36.685 87.1819 40.7092 87.1819 44.2568 85.4332C47.1114 84.0261 50.0965 81.1701 51.6285 78.3805C53.5323 74.9137 53.6855 71.4516 53.9919 64.5274C54.3272 56.9506 53.8914 49.8261 51.4457 47.471C45.4939 41.7396 37.1885 38.1819 28.0001 38.1819Z" fill="#F3F6F8" fill-opacity="0.16"/>
<circle cx="28.3184" cy="22.5909" r="13.0455" fill="#F3F6F8" fill-opacity="0.16"/>
</g>
<defs>
<clipPath id="clip0_25989_47400">
<rect width="56" height="56" rx="28" fill="white"/>
</clipPath>
</defs>
</svg>
