<svg width="24" height="24" viewBox="0 0 24 24" fill="none" xmlns="http://www.w3.org/2000/svg">
<path d="M12 21.9888C17.5228 21.9888 22 17.5116 22 11.9888C22 6.46594 17.5228 1.98877 12 1.98877C6.47717 1.98877 2 6.46594 2 11.9888C2 17.5116 6.47717 21.9888 12 21.9888Z" fill="#2B9BFF"/>
<path d="M11.6578 5.53058C12.2517 5.41823 12.8924 5.62063 13.3168 6.05288C13.7556 6.48513 13.9584 7.1438 13.8374 7.74929C13.7215 8.41567 13.2171 8.99201 12.5772 9.19784C11.956 9.40796 11.2292 9.26302 10.7418 8.81962C10.2476 8.38909 10.0082 7.68754 10.1377 7.0426C10.2681 6.28616 10.9046 5.65236 11.6578 5.53058ZM7.10693 9.60522C7.66503 8.45941 8.63468 7.51773 9.80115 7.01515C9.25157 7.64552 8.74715 8.33077 8.44382 9.11894C8.03057 10.1335 7.89339 11.2562 8.03398 12.3419C7.52359 12.3196 7.02173 12.4654 6.59314 12.7425C6.45511 11.6756 6.63233 10.5692 7.10693 9.60522ZM14.1969 7.01687C15.3268 7.52888 16.2828 8.42854 16.8383 9.5469C17.3359 10.5246 17.5208 11.6541 17.3819 12.7425C17.0795 11.733 16.6015 10.763 15.8738 9.99287C15.3327 9.39424 14.6673 8.92082 13.9524 8.55633C13.9277 8.43712 14.0385 8.32734 14.0683 8.21241C14.2259 7.83677 14.2489 7.41824 14.1969 7.01687ZM7.41453 12.763C7.97092 12.6198 8.59037 12.7459 9.04026 13.1078C9.54042 13.4963 9.81819 14.1516 9.75003 14.7845C9.69464 15.3986 9.31633 15.9706 8.77612 16.2605C8.17797 16.5941 7.40004 16.559 6.83598 16.1704C6.27276 15.7999 5.94131 15.1078 6.00863 14.4337C6.0606 13.6498 6.6579 12.9474 7.41453 12.763ZM15.7468 12.7416C16.3024 12.6284 16.9065 12.7793 17.3368 13.1541C17.8446 13.5795 18.0943 14.2871 17.9673 14.9397C17.8557 15.5967 17.3666 16.1687 16.7403 16.3831C16.1805 16.5847 15.5287 16.4938 15.0439 16.1481C14.4491 15.7399 14.1339 14.9697 14.2711 14.2579C14.3938 13.5109 15.009 12.8831 15.7468 12.7416ZM8.95676 16.5727C10.7112 16.9406 12.6095 16.5521 14.0512 15.4723C14.2532 15.932 14.5983 16.3171 15.0268 16.5735C13.2486 17.8042 10.7325 17.8137 8.95676 16.5727Z" fill="white"/>
</svg>
