<svg width="24" height="24" viewBox="0 0 24 24" fill="none" xmlns="http://www.w3.org/2000/svg">
<path d="M3 15.7886C3.66273 15.7886 4.20017 16.326 4.2002 16.9888C4.2002 18.5352 5.4536 19.7886 7 19.7886C7.66273 19.7886 8.20017 20.326 8.2002 20.9888C8.2002 21.6515 7.66274 22.189 7 22.189C4.12812 22.189 1.7998 19.8607 1.7998 16.9888C1.79983 16.326 2.33727 15.7886 3 15.7886ZM21 15.7886C21.6627 15.7886 22.2002 16.326 22.2002 16.9888C22.2002 19.8607 19.8719 22.189 17 22.189H16C15.3373 22.189 14.7998 21.6515 14.7998 20.9888C14.7998 20.326 15.3373 19.7886 16 19.7886H17C18.5464 19.7886 19.7998 18.5352 19.7998 16.9888C19.7998 16.326 20.3373 15.7886 21 15.7886ZM7 1.78857C7.66273 1.78857 8.20017 2.32605 8.2002 2.98877C8.2002 3.65151 7.66274 4.18896 7 4.18896C5.45362 4.18896 4.20022 5.44239 4.2002 6.98877V7.98877C4.2002 8.65151 3.66274 9.18896 3 9.18896C2.33726 9.18896 1.7998 8.65151 1.7998 7.98877V6.98877C1.79983 4.11691 4.12813 1.78857 7 1.78857ZM16 1.78857C16.8718 1.78857 17.4831 1.78343 18.0146 1.88916C20.0772 2.29954 21.6892 3.91156 22.0996 5.97412C22.2053 6.50565 22.2002 7.117 22.2002 7.98877C22.2002 8.65151 21.6627 9.18896 21 9.18896C20.3373 9.18896 19.7998 8.65151 19.7998 7.98877C19.7998 7.00241 19.794 6.68409 19.7461 6.44287C19.5251 5.33216 18.6566 4.46361 17.5459 4.24268C17.3047 4.19475 16.9864 4.18896 16 4.18896C15.3373 4.18896 14.7998 3.65151 14.7998 2.98877C14.7998 2.32605 15.3373 1.78857 16 1.78857Z" fill="#F3F6F8"/>
</svg>
