<svg width="24" height="24" viewBox="0 0 24 24" fill="none" xmlns="http://www.w3.org/2000/svg">
<path d="M10.1777 4.17017C10.7245 3.11388 11.9256 1.65109 13.7334 1.7981C14.3231 1.84608 15.0132 2.01231 15.6299 2.4729C16.2634 2.94621 16.7078 3.64702 16.9355 4.55591C17.1227 5.30342 17.0983 5.99768 17.0234 6.52173H19.3525C21.3425 6.52193 22.7517 8.39736 22.3223 10.2981L20.4043 18.7903C20.0909 20.1772 18.871 21.1886 17.4336 21.1887H5.04785C3.34106 21.1887 2.0003 19.7823 2 18.1018V9.60962C2 7.92884 3.34087 6.52173 5.04785 6.52173H8.07812C8.22636 6.52158 8.34954 6.47069 8.43457 6.39282C8.78747 6.06967 9.19892 5.66711 9.44824 5.35376C9.65848 5.08944 9.92196 4.6643 10.1777 4.17017ZM13.5391 4.19067C13.3961 4.17905 13.2141 4.22193 12.9805 4.40845C12.7383 4.60185 12.4989 4.90789 12.3096 5.27368C12.017 5.83891 11.6718 6.41351 11.3271 6.84692C10.9518 7.31881 10.4188 7.82897 10.0547 8.16235C9.74358 8.44723 9.38194 8.64819 9 8.77271V18.7883H17.4336C17.7164 18.7882 17.99 18.5862 18.0635 18.261L19.9814 9.7688C20.0861 9.30488 19.7383 8.92233 19.3525 8.92212H15.6699C15.3654 8.92206 15.0442 8.81507 14.7881 8.57544C14.5586 8.36039 14.4614 8.11346 14.4189 7.96118C14.3405 7.67962 14.366 7.42186 14.3779 7.3186C14.3936 7.18281 14.4207 7.06254 14.4395 6.98657C14.4494 6.94614 14.4585 6.91166 14.4658 6.88599C14.4695 6.87306 14.473 6.86157 14.4756 6.85278C14.4769 6.84847 14.4785 6.84431 14.4795 6.84106C14.4799 6.83971 14.4801 6.83832 14.4805 6.83716L14.4814 6.83521V6.83325L14.4971 6.78345L14.5166 6.73462L14.5176 6.73267C14.5232 6.71716 14.5333 6.68771 14.5459 6.64673C14.5713 6.56383 14.6054 6.43648 14.6328 6.27856C14.689 5.95493 14.7096 5.54701 14.6074 5.13892C14.4919 4.67806 14.3169 4.48812 14.1934 4.39575C14.0529 4.29084 13.8467 4.21574 13.5391 4.19067ZM5.04785 8.92212C4.71425 8.92212 4.40039 9.20592 4.40039 9.60962V18.1018C4.40068 18.5052 4.7144 18.7883 5.04785 18.7883H7.40039V8.92212H5.04785Z" fill="#F3F6F8"/>
</svg>
