<svg width="24" height="24" viewBox="0 0 24 24" fill="none" xmlns="http://www.w3.org/2000/svg">
<g clip-path="url(#clip0_24452_69130)">
<path d="M12.0005 0.799805C18.186 0.79991 23.2007 5.81448 23.2007 12C23.2006 18.1854 18.1859 23.2001 12.0005 23.2002C5.81496 23.2002 0.800399 18.1855 0.800293 12C0.800293 5.81441 5.8149 0.799805 12.0005 0.799805ZM12.0005 3.2002C7.14038 3.2002 3.20068 7.13989 3.20068 12C3.20079 16.86 7.14045 20.7998 12.0005 20.7998C16.8604 20.7997 20.8002 16.86 20.8003 12C20.8003 7.13996 16.8605 3.2003 12.0005 3.2002ZM12.1235 9.79492C12.7283 9.85662 13.2005 10.3673 13.2007 10.9883V15.7881H13.5005C14.163 15.7882 14.7005 16.3257 14.7007 16.9883C14.7007 17.651 14.1631 18.1884 13.5005 18.1885H10.5005C9.83775 18.1885 9.30029 17.651 9.30029 16.9883C9.30045 16.3257 9.83784 15.7881 10.5005 15.7881H10.8003V12.1699C10.233 12.0745 9.80029 11.5827 9.80029 10.9883C9.80045 10.3257 10.3378 9.78809 11.0005 9.78809H12.0005L12.1235 9.79492ZM11.9995 5C12.883 5 13.5999 5.71613 13.6001 6.59961C13.6001 7.48326 12.8832 8.2002 11.9995 8.2002C11.116 8.19998 10.3999 7.48313 10.3999 6.59961C10.4001 5.71626 11.1162 5.00021 11.9995 5Z" fill="#F3F6F8"/>
</g>
<defs>
<clipPath id="clip0_24452_69130">
<rect width="24" height="24" fill="white"/>
</clipPath>
</defs>
</svg>
