<svg width="24" height="24" viewBox="0 0 24 24" fill="none" xmlns="http://www.w3.org/2000/svg">
<path d="M14.3999 14.3997C15.0626 14.3997 15.6001 14.9371 15.6001 15.5999V21.5999C15.6 22.2625 15.0626 22.8 14.3999 22.8H9.6001C8.93742 22.8 8.40001 22.2625 8.3999 21.5999V15.5999C8.3999 14.9371 8.93736 14.3997 9.6001 14.3997H14.3999ZM4.79932 16.7991C5.46206 16.7991 5.99951 17.3365 5.99951 17.9993V21.5989C5.99951 22.2616 5.46206 22.7991 4.79932 22.7991H2.3999C1.73716 22.7991 1.19971 22.2616 1.19971 21.5989V17.9993C1.19971 17.3365 1.73716 16.7991 2.3999 16.7991H4.79932ZM21.6001 16.7991C22.2627 16.7993 22.7993 17.3367 22.7993 17.9993V21.5989C22.7993 22.2615 22.2627 22.7989 21.6001 22.7991H19.1997C18.537 22.7991 17.9995 22.2616 17.9995 21.5989V17.9993C17.9995 17.3365 18.537 16.7991 19.1997 16.7991H21.6001ZM11.3901 1.51489C11.5938 1.04098 12.4062 1.04097 12.6099 1.51489L13.9663 4.29517L17.0845 4.76978C17.3556 4.83758 17.5587 4.97325 17.6265 5.24438C17.6941 5.51536 17.6271 5.78655 17.4917 5.92212L15.2544 8.09106L15.7964 11.2102C15.8639 11.4812 15.7282 11.7524 15.5249 11.8879C15.3216 12.0232 14.9831 12.023 14.7798 11.9553L11.9995 10.4641L9.22021 11.8879C9.01687 12.0233 8.74575 12.0229 8.54248 11.8196C8.3392 11.684 8.20323 11.4129 8.271 11.1418L8.81396 8.02368L6.5083 5.92212C6.37284 5.78655 6.3059 5.51537 6.37354 5.24438C6.44132 4.97324 6.6444 4.83758 6.91553 4.76978L10.0337 4.29517L11.3901 1.51489Z" fill="#F3F6F8"/>
</svg>
