<svg width="24" height="24" viewBox="0 0 24 24" fill="none" xmlns="http://www.w3.org/2000/svg">
<path d="M7 1.77734C7.66264 1.77746 8.2002 2.31487 8.2002 2.97754V4.95117C9.93498 5.46764 11.2002 7.07504 11.2002 8.97754C11.2002 10.8799 9.93484 12.4864 8.2002 13.0029V20.9775C8.20009 21.6401 7.66258 22.1776 7 22.1777C6.33732 22.1777 5.79991 21.6402 5.7998 20.9775V13.0029C4.06498 12.4865 2.7998 10.8801 2.7998 8.97754C2.7998 7.07491 4.06485 5.46754 5.7998 4.95117V2.97754C5.7998 2.3148 6.33726 1.77734 7 1.77734ZM17 1.77734C17.6626 1.77746 18.2002 2.31487 18.2002 2.97754V10.9512C19.935 11.4677 21.2002 13.0751 21.2002 14.9775C21.2002 16.8799 19.9348 18.4864 18.2002 19.0029V20.9775C18.2001 21.6401 17.6626 22.1776 17 22.1777C16.3373 22.1777 15.7999 21.6402 15.7998 20.9775V19.0029C14.065 18.4865 12.7998 16.8801 12.7998 14.9775C12.7998 13.0749 14.0648 11.4675 15.7998 10.9512V2.97754C15.7998 2.3148 16.3373 1.77734 17 1.77734ZM17 13.1777C16.0059 13.1777 15.2002 13.9834 15.2002 14.9775C15.2002 15.9717 16.0059 16.7773 17 16.7773C17.994 16.7772 18.7998 15.9716 18.7998 14.9775C18.7998 13.9835 17.994 13.1779 17 13.1777ZM7 7.17773C6.00589 7.17773 5.2002 7.98343 5.2002 8.97754C5.2002 9.97165 6.00589 10.7773 7 10.7773C7.99403 10.7772 8.7998 9.97159 8.7998 8.97754C8.7998 7.98349 7.99403 7.17783 7 7.17773Z" fill="#F3F6F8"/>
</svg>
