<svg width="24" height="24" viewBox="0 0 24 24" fill="none" xmlns="http://www.w3.org/2000/svg">
<g clip-path="url(#clip0_24452_69259)">
<path d="M12 0.799805C18.1855 0.79991 23.2002 5.81448 23.2002 12C23.2001 18.1854 18.1854 23.2001 12 23.2002C5.81448 23.2002 0.79991 18.1855 0.799805 12C0.799805 5.81441 5.81441 0.799805 12 0.799805ZM12 3.2002C7.13989 3.2002 3.2002 7.13989 3.2002 12C3.2003 16.86 7.13996 20.7998 12 20.7998C16.86 20.7997 20.7997 16.86 20.7998 12C20.7998 7.13996 16.86 3.2003 12 3.2002ZM15.8486 10.1406C16.317 10.6093 16.3172 11.3693 15.8486 11.8379C15.3801 12.3062 14.6199 12.3062 14.1514 11.8379L13.2002 10.8867V16.4668C13.2001 17.1294 12.6627 17.667 12 17.667C11.3373 17.667 10.7999 17.1294 10.7998 16.4668V10.8867L9.84863 11.8379C9.37998 12.3063 8.61991 12.3055 8.15137 11.8369C7.68298 11.3683 7.68282 10.6082 8.15137 10.1396L12 6.29199L15.8486 10.1406Z" fill="#F3F6F8"/>
</g>
<defs>
<clipPath id="clip0_24452_69259">
<rect width="24" height="24" fill="white"/>
</clipPath>
</defs>
</svg>
