<svg width="24" height="24" viewBox="0 0 24 24" fill="none" xmlns="http://www.w3.org/2000/svg">
<path d="M18.7104 8.60498C19.1887 8.3912 19.7505 8.51188 20.0981 8.90381C20.5711 9.43713 21.0872 9.94775 21.5737 10.3149C22.1059 10.7165 22.4121 10.7992 22.5005 10.7993C23.1628 10.7997 23.7005 11.3372 23.7007 11.9995C23.7007 12.662 23.1629 13.1993 22.5005 13.1997C21.8683 13.1997 21.2693 12.9556 20.7554 12.6519L21.3921 18.0591C21.4046 18.1654 21.4008 18.2704 21.3862 18.3716C21.3946 18.4799 21.4009 18.5893 21.4009 18.6997C21.4009 21.0191 19.52 22.8995 17.2007 22.8999C14.8811 22.8999 13.0005 21.0193 13.0005 18.6997C13.0008 16.3803 14.8813 14.4995 17.2007 14.4995C17.6854 14.4996 18.1513 14.5827 18.5845 14.7339L18.0093 9.84033C17.9482 9.31974 18.2321 8.81933 18.7104 8.60498ZM17.2007 16.8999C16.2067 16.8999 15.4011 17.7058 15.4009 18.6997C15.4009 19.6938 16.2066 20.4995 17.2007 20.4995C18.1945 20.4991 19.0005 19.6936 19.0005 18.6997C19.0002 17.706 18.1943 16.9003 17.2007 16.8999ZM9.00049 17.7886C9.66314 17.7887 10.2007 18.3261 10.2007 18.9888C10.2006 19.6514 9.66308 20.1889 9.00049 20.189H3.00049C2.33781 20.189 1.8004 19.6514 1.80029 18.9888C1.80029 18.326 2.33775 17.7886 3.00049 17.7886H9.00049ZM13.0005 9.78857C13.6631 9.78868 14.2007 10.3261 14.2007 10.9888C14.2006 11.6514 13.6631 12.1889 13.0005 12.189H3.00049C2.33781 12.189 1.8004 11.6514 1.80029 10.9888C1.80029 10.326 2.33775 9.78857 3.00049 9.78857H13.0005ZM21.0005 1.77783C21.6631 1.77794 22.2007 2.31535 22.2007 2.97803C22.2006 3.64061 21.6631 4.17812 21.0005 4.17822H3.00049C2.33781 4.17822 1.8004 3.64068 1.80029 2.97803C1.80029 2.31529 2.33775 1.77783 3.00049 1.77783H21.0005Z" fill="#F3F6F8"/>
</svg>
