<svg width="24" height="24" viewBox="0 0 24 24" fill="none" xmlns="http://www.w3.org/2000/svg">
<rect x="2" y="2" width="20" height="20" rx="10" fill="#EF1C51"/>
<g clip-path="url(#clip0_24452_69305)">
<path d="M16.4448 7C17.672 7.00012 18.6665 7.99543 18.6665 9.22266V14.7773C18.6665 16.0046 17.672 16.9999 16.4448 17H7.55615C6.32885 17 5.3335 16.0046 5.3335 14.7773V9.22266C5.3335 7.99536 6.32885 7 7.55615 7H16.4448ZM11.9995 8.66699C10.159 8.66732 8.66668 10.1594 8.6665 12C8.66667 13.7833 10.0675 15.2398 11.8286 15.3291L11.9995 15.334C13.7828 15.334 15.2392 13.9329 15.3286 12.1719L15.3335 12C15.3333 10.1592 13.8404 8.66699 11.9995 8.66699ZM11.9995 9.77832C13.2267 9.77832 14.222 10.7729 14.2222 12C14.222 13.2271 13.2267 14.2227 11.9995 14.2227C10.7726 14.2223 9.77801 13.2269 9.77783 12C9.77801 10.7731 10.7726 9.77865 11.9995 9.77832Z" fill="white"/>
<rect x="15.8887" y="8.11133" width="1.66667" height="1.66667" rx="0.833333" fill="#EF1C51"/>
</g>
<defs>
<clipPath id="clip0_24452_69305">
<rect width="20" height="20" fill="white" transform="translate(2 2)"/>
</clipPath>
</defs>
</svg>
