<svg width="24" height="24" viewBox="0 0 24 24" fill="none" xmlns="http://www.w3.org/2000/svg">
<mask id="path-1-inside-1_24452_69134" fill="white">
<path fill-rule="evenodd" clip-rule="evenodd" d="M12 21.9888C17.5228 21.9888 22 17.5116 22 11.9888C22 6.46592 17.5228 1.98877 12 1.98877C11.1677 1.98877 10.9884 3.20609 11.5401 3.82928C12.392 4.79158 12.9091 6.05706 12.9091 7.44332C12.9091 10.4558 10.467 12.8979 7.45455 12.8979C6.06829 12.8979 4.80281 12.3807 3.84051 11.5288C3.21732 10.9772 2 11.1565 2 11.9888C2 17.5116 6.47715 21.9888 12 21.9888Z"/>
</mask>
<path d="M3.84051 11.5288L2.24969 13.3259L3.84051 11.5288ZM22 11.9888H19.6C19.6 16.1861 16.1974 19.5888 12 19.5888V21.9888V24.3888C18.8483 24.3888 24.4 18.8371 24.4 11.9888H22ZM12 1.98877V4.38877C16.1974 4.38877 19.6 7.79141 19.6 11.9888H22H24.4C24.4 5.14044 18.8483 -0.411231 12 -0.411231V1.98877ZM11.5401 3.82928L9.74305 5.42011C10.2214 5.96048 10.5091 6.66539 10.5091 7.44332H12.9091H15.3091C15.3091 5.44872 14.5625 3.62269 13.3371 2.23846L11.5401 3.82928ZM12.9091 7.44332H10.5091C10.5091 9.13029 9.14152 10.4979 7.45455 10.4979V12.8979V15.2979C11.7925 15.2979 15.3091 11.7813 15.3091 7.44332H12.9091ZM7.45455 12.8979V10.4979C6.67662 10.4979 5.97171 10.2102 5.43134 9.73182L3.84051 11.5288L2.24969 13.3259C3.63392 14.5513 5.45995 15.2979 7.45455 15.2979V12.8979ZM12 21.9888V19.5888C7.80264 19.5888 4.4 16.1861 4.4 11.9888H2H-0.4C-0.4 18.8371 5.15167 24.3888 12 24.3888V21.9888ZM3.84051 11.5288L5.43134 9.73182C4.48204 8.89145 3.2235 8.67568 2.19546 8.89059C1.1177 9.1159 -0.4 10.059 -0.4 11.9888H2H4.4C4.4 12.4195 4.222 12.8567 3.90632 13.1759C3.62792 13.4574 3.33809 13.5555 3.17766 13.589C2.91408 13.6441 2.57579 13.6145 2.24969 13.3259L3.84051 11.5288ZM12 1.98877V-0.411231C10.0702 -0.411231 9.12713 1.10647 8.90182 2.18423C8.68691 3.21227 8.90268 4.47081 9.74305 5.42011L11.5401 3.82928L13.3371 2.23846C13.6258 2.56456 13.6554 2.90285 13.6003 3.16643C13.5667 3.32686 13.4686 3.61669 13.1871 3.89509C12.8679 4.21077 12.4307 4.38877 12 4.38877V1.98877Z" fill="#F3F6F8" mask="url(#path-1-inside-1_24452_69134)"/>
</svg>
