<svg width="24" height="24" viewBox="0 0 24 24" fill="none" xmlns="http://www.w3.org/2000/svg">
<path d="M12.0005 1.5C13.6572 1.5002 15.0005 2.84327 15.0005 4.5V9C16.6572 9.0002 18.0005 10.3433 18.0005 12V12.5C18.0005 12.8807 17.9267 13.244 17.7974 13.5791C18.4483 13.7659 18.9763 14.2747 19.1694 14.9502L20.5981 19.9502C20.9631 21.2277 20.0029 22.4998 18.6743 22.5H15.9712C14.8666 22.5 13.9712 21.6046 13.9712 20.5L12.6567 21.8789C12.2793 22.2752 11.7557 22.4999 11.2085 22.5H5.32666C3.9979 22.5 3.03779 21.2278 3.40283 19.9502L4.83154 14.9502C5.02464 14.2748 5.55184 13.766 6.20264 13.5791C6.09087 13.2896 6.02086 12.9792 6.00439 12.6543L6.00049 12.5V12C6.00049 10.3431 7.34363 9 9.00049 9V4.5C9.00049 2.84315 10.3436 1.5 12.0005 1.5ZM5.32666 20.5H11.2085L12.5229 19.1211C13.7681 17.8139 15.9712 18.6947 15.9712 20.5H18.6743L17.2466 15.5H6.75439L5.32666 20.5ZM12.0005 3.5C11.4482 3.5 11.0005 3.94772 11.0005 4.5V11H9.00049C8.4482 11 8.00049 11.4477 8.00049 12V12.5L8.00537 12.6025C8.05672 13.1067 8.48282 13.5 9.00049 13.5H15.0005L15.103 13.4951C15.607 13.4436 16.0005 13.0176 16.0005 12.5V12C16.0005 11.4824 15.607 11.0564 15.103 11.0049L15.0005 11H13.0005V4.5C13.0005 3.94784 12.5526 3.5002 12.0005 3.5Z" fill="#F3F6F8"/>
</svg>
