<svg width="24" height="24" viewBox="0 0 24 24" fill="none" xmlns="http://www.w3.org/2000/svg">
<g clip-path="url(#clip0_24452_69253)">
<path d="M12.8101 0.829102C14.0011 0.915494 15.1386 1.1862 16.1929 1.61133C16.8069 1.85942 17.1045 2.55852 16.8569 3.17285C16.6091 3.78741 15.909 4.08457 15.2944 3.83691C14.4687 3.50399 13.5765 3.2918 12.6372 3.22363C7.78988 2.87204 3.57481 6.51598 3.22314 11.3633C2.87155 16.2107 6.5164 20.4248 11.3638 20.7764C16.2111 21.1279 20.4252 17.484 20.7769 12.6367C20.8248 11.9757 21.4 11.4784 22.061 11.5264C22.722 11.5744 23.2193 12.1496 23.1714 12.8105C22.7238 18.9798 17.3593 23.6184 11.1899 23.1709C5.0206 22.7234 0.382104 17.3588 0.82959 11.1895C1.27724 5.02041 6.641 0.381901 12.8101 0.829102ZM20.5864 4.67578C21.055 4.2072 21.8151 4.20728 22.2837 4.67578C22.7523 5.14441 22.7523 5.90442 22.2837 6.37305L12.2427 16.4141L7.15186 11.3232C6.68326 10.8546 6.68334 10.0946 7.15186 9.62598C7.62048 9.15735 8.38049 9.15735 8.84912 9.62598L12.2427 13.0195L20.5864 4.67578Z" fill="#F3F6F8"/>
</g>
<defs>
<clipPath id="clip0_24452_69253">
<rect width="24" height="24" fill="white"/>
</clipPath>
</defs>
</svg>
