<svg width="24" height="24" viewBox="0 0 24 24" fill="none" xmlns="http://www.w3.org/2000/svg">
<g clip-path="url(#clip0_24452_69237)">
<path d="M14.4686 21.9326L8.59153 20.3361C7.40203 20.0129 6.75381 18.7312 7.19848 17.5816C7.45778 16.9112 8.15507 16.5179 8.86293 16.6427L11.4303 17.0954C11.6165 17.1283 11.7563 16.9286 11.6617 16.7649L8.14376 10.6715C7.61052 9.74793 7.92697 8.56693 8.85057 8.03369C9.77417 7.50045 10.9552 7.8169 11.4884 8.7405L12.941 11.2565C12.9886 11.339 13.0878 11.3764 13.1781 11.346L15.2063 10.6629C15.5235 10.5561 15.8624 10.5306 16.192 10.5887L18.609 11.0149C19.4159 11.1572 20.0543 11.7772 20.2202 12.5795L21.075 16.7128C21.2496 17.5573 20.8633 18.4187 20.1164 18.8499L14.8663 21.881C14.7459 21.9505 14.6028 21.9691 14.4686 21.9326Z" stroke="#F3F6F8" stroke-width="2.4"/>
<path d="M14.5466 5.89977C12.8897 3.03001 9.22021 2.04676 6.35045 3.70361C3.48069 5.36047 2.49744 9.03001 4.1543 11.8998" stroke="#F3F6F8" stroke-width="2.4" stroke-linecap="round"/>
</g>
<defs>
<clipPath id="clip0_24452_69237">
<rect width="24" height="24" fill="white"/>
</clipPath>
</defs>
</svg>
