<svg width="24" height="24" viewBox="0 0 24 24" fill="none" xmlns="http://www.w3.org/2000/svg">
<g clip-path="url(#clip0_24452_69105)">
<path d="M10.1953 21.4492C10.3499 21.4492 10.4887 21.4869 10.6113 21.5615C10.7392 21.6362 10.8404 21.7374 10.915 21.8652C10.995 21.9879 11.0352 22.1241 11.0352 22.2734C11.0351 22.4227 10.995 22.5615 10.915 22.6895C10.8404 22.8173 10.7392 22.9185 10.6113 22.9932C10.4887 23.0678 10.3499 23.1054 10.1953 23.1055C10.0406 23.1055 9.89603 23.0678 9.7627 22.9932C9.6349 22.9185 9.53357 22.8173 9.45898 22.6895C9.38433 22.5615 9.3467 22.4227 9.34668 22.2734C9.34668 22.1241 9.38432 21.9879 9.45898 21.8652C9.53357 21.7374 9.6349 21.6362 9.7627 21.5615C9.89603 21.4869 10.0406 21.4492 10.1953 21.4492ZM6.75977 17.4258C7.11169 17.4258 7.43178 17.4976 7.71973 17.6416C8.01296 17.7803 8.26621 17.9775 8.47949 18.2334C8.69276 18.484 8.85578 18.7824 8.96777 19.1289C9.08508 19.4701 9.14352 19.8438 9.14355 20.249C9.14355 20.6542 9.08502 21.0304 8.96777 21.377C8.85577 21.7236 8.69282 22.0253 8.47949 22.2812C8.26623 22.5372 8.01293 22.7369 7.71973 22.8809C7.43178 23.0195 7.11169 23.0888 6.75977 23.0889C6.40782 23.0889 6.08529 23.0195 5.79199 22.8809C5.49866 22.7369 5.24458 22.5373 5.03125 22.2812C4.82334 22.0253 4.66124 21.7235 4.54395 21.377C4.432 21.0304 4.37598 20.6543 4.37598 20.249C4.37601 19.8438 4.43197 19.4701 4.54395 19.1289C4.66123 18.7825 4.82343 18.4839 5.03125 18.2334C5.24458 17.9774 5.49866 17.7803 5.79199 17.6416C6.08527 17.4977 6.40786 17.4258 6.75977 17.4258ZM15.0596 18.8096H13.2588C13.2481 18.9107 13.2357 19.0172 13.2197 19.1289C13.2037 19.2355 13.1904 19.3426 13.1797 19.4492C13.6327 19.4439 14.019 19.5084 14.3389 19.6416C14.6642 19.7749 14.9123 19.9721 15.083 20.2334C15.259 20.4947 15.3476 20.8198 15.3477 21.209C15.3477 21.6248 15.2489 21.9693 15.0518 22.2412C14.8544 22.5079 14.5845 22.7085 14.2432 22.8418C13.9072 22.9697 13.5202 23.0307 13.083 23.0254C12.6511 23.02 12.1947 22.9482 11.7148 22.8096V21.4736C12.1573 21.6122 12.5469 21.7024 12.8828 21.7451C13.2241 21.7825 13.4916 21.7616 13.6836 21.6816C13.8755 21.6016 13.9717 21.457 13.9717 21.249C13.9716 21.0412 13.872 20.8864 13.6748 20.7852C13.4829 20.684 13.2219 20.6279 12.8916 20.6172C12.5609 20.6012 12.1899 20.6279 11.7793 20.6973C11.8273 20.1746 11.8749 19.6466 11.9229 19.1133C11.9709 18.58 12.0194 18.0544 12.0674 17.5371H15.0596V18.8096ZM17.376 19.3291C17.4773 19.4891 17.5759 19.6496 17.6719 19.8096C17.7732 19.6496 17.8743 19.4891 17.9756 19.3291C18.0768 19.164 18.1781 19.0016 18.2793 18.8418H19.7354C19.5275 19.1669 19.3142 19.4947 19.0957 19.8252C18.8824 20.1558 18.6719 20.4867 18.4639 20.8174C18.6825 21.1747 18.904 21.5348 19.1279 21.8975C19.3519 22.2601 19.5709 22.6203 19.7842 22.9775H18.3115C18.2049 22.7962 18.0954 22.6149 17.9834 22.4336C17.8767 22.2469 17.7707 22.0622 17.6641 21.8809C17.5574 22.0622 17.4455 22.2469 17.3281 22.4336C17.2161 22.6149 17.1067 22.7962 17 22.9775H15.5439C15.7626 22.6309 15.984 22.2782 16.208 21.9209C16.4319 21.5584 16.6535 21.2039 16.8721 20.8574C16.6641 20.5268 16.4526 20.1909 16.2393 19.8496C16.026 19.5083 15.8154 19.1724 15.6074 18.8418H17.0801C17.176 19.0016 17.2748 19.164 17.376 19.3291ZM6.75977 18.7451C6.55177 18.7451 6.37297 18.807 6.22363 18.9297C6.07441 19.0523 5.95985 19.2254 5.87988 19.4492C5.79991 19.6731 5.75979 19.9398 5.75977 20.249C5.75977 20.553 5.79988 20.8205 5.87988 21.0498C5.95985 21.2788 6.07449 21.4571 6.22363 21.585C6.37297 21.7076 6.55177 21.7695 6.75977 21.7695C6.97302 21.7695 7.15194 21.7076 7.2959 21.585C7.44497 21.4571 7.55972 21.2788 7.63965 21.0498C7.71965 20.8205 7.75977 20.553 7.75977 20.249C7.75974 19.9452 7.71962 19.681 7.63965 19.457C7.55972 19.228 7.445 19.0523 7.2959 18.9297C7.15194 18.8071 6.97302 18.7452 6.75977 18.7451ZM12 0.799805C13.1941 0.799825 14.3475 0.987233 15.4297 1.33496C16.0602 1.53794 16.4077 2.21398 16.2051 2.84473C16.0023 3.47545 15.3261 3.82249 14.6953 3.62012C13.8475 3.34771 12.9419 3.20022 12 3.2002C7.13989 3.2002 3.2002 7.13989 3.2002 12C3.20022 12.929 3.34408 13.8225 3.60938 14.6602C3.80919 15.2918 3.4587 15.9659 2.82715 16.166C2.19545 16.3661 1.52152 16.0164 1.32129 15.3848C0.982647 14.3155 0.799825 13.1778 0.799805 12C0.799805 5.81441 5.81441 0.799805 12 0.799805ZM21.1729 7.83398C21.8046 7.63399 22.4786 7.98354 22.6787 8.61523C23.0173 9.68454 23.2002 10.8223 23.2002 12C23.2002 13.1778 23.0174 14.3155 22.6787 15.3848C22.4785 16.0163 21.8045 16.3659 21.1729 16.166C20.5412 15.9659 20.1907 15.2919 20.3906 14.6602C20.6559 13.8225 20.7998 12.929 20.7998 12C20.7998 11.071 20.6559 10.1775 20.3906 9.33984C20.1906 8.7081 20.5411 8.0341 21.1729 7.83398ZM20.3008 3.24414C20.3008 3.24414 14.1095 11.7683 13.4062 12.4717C12.7034 13.1745 11.6112 13.2221 10.9668 12.5781C10.3224 11.9338 10.3693 10.8406 11.0723 10.1377C11.7757 9.43443 20.3008 3.24414 20.3008 3.24414Z" fill="#F3F6F8"/>
</g>
<defs>
<clipPath id="clip0_24452_69105">
<rect width="24" height="24" fill="white"/>
</clipPath>
</defs>
</svg>
