<svg width="24" height="24" viewBox="0 0 24 24" fill="none" xmlns="http://www.w3.org/2000/svg">
<path d="M15.5996 2.77734C16.6999 2.77734 17.598 2.77652 18.3252 2.83594C19.0662 2.8965 19.7353 3.02628 20.3604 3.34473C21.3388 3.84327 22.1343 4.63877 22.6328 5.61719C22.9512 6.24221 23.081 6.91136 23.1416 7.65234C23.201 8.37952 23.2002 9.27772 23.2002 10.3779V13.5771C23.2002 14.6774 23.201 15.5756 23.1416 16.3027C23.081 17.0437 22.9512 17.7129 22.6328 18.3379C22.1343 19.3163 21.3387 20.1118 20.3604 20.6104C19.7353 20.9288 19.0662 21.0586 18.3252 21.1191C17.598 21.1786 16.6999 21.1777 15.5996 21.1777H8.40039C7.3001 21.1777 6.40201 21.1786 5.6748 21.1191C4.93379 21.0586 4.26469 20.9288 3.63965 20.6104C2.66126 20.1118 1.86573 19.3163 1.36719 18.3379C1.04876 17.7129 0.91897 17.0437 0.858398 16.3027C0.798987 15.5756 0.799805 14.6774 0.799805 13.5771V10.3779C0.799805 9.27772 0.798999 8.37952 0.858398 7.65234C0.918958 6.91135 1.04879 6.24221 1.36719 5.61719C1.86572 4.63877 2.66124 3.84327 3.63965 3.34473C4.26471 3.02627 4.93376 2.8965 5.6748 2.83594C6.40201 2.77652 7.30009 2.77734 8.40039 2.77734H15.5996ZM6.69238 10.835C6.57427 10.9473 6.44008 11.0814 6.27051 11.251L3.20312 14.3174C3.20552 15.0721 3.21294 15.6419 3.25098 16.1074C3.29942 16.6998 3.3875 17.0186 3.50488 17.249C3.77332 17.7757 4.20181 18.2043 4.72852 18.4727C4.95891 18.59 5.27768 18.6781 5.87012 18.7266C6.47692 18.7761 7.2605 18.7773 8.40039 18.7773H15.5996C16.7395 18.7773 17.5231 18.7761 18.1299 18.7266C18.7223 18.6781 19.0411 18.59 19.2715 18.4727C19.562 18.3246 19.8206 18.1257 20.041 17.8906L17.5654 15.415C17.396 15.2456 17.2616 15.1113 17.1436 14.999C17.0884 14.9466 17.0405 14.903 17 14.8672C16.9595 14.903 16.9117 14.9465 16.8564 14.999C16.7383 15.1113 16.6041 15.2455 16.4346 15.415L16.2627 15.5869C15.9535 15.8962 15.6372 16.2155 15.3398 16.4424C15.0147 16.6903 14.5746 16.9375 14 16.9375C13.4256 16.9374 12.9852 16.6903 12.6602 16.4424C12.3629 16.2155 12.0464 15.896 11.7373 15.5869L7.40137 11.251C7.2319 11.0815 7.09756 10.9472 6.97949 10.835C6.92432 10.7825 6.87642 10.7389 6.83594 10.7031C6.79539 10.739 6.74766 10.7824 6.69238 10.835ZM8.40039 5.17773C7.26048 5.17773 6.47693 5.17894 5.87012 5.22852C5.27761 5.27696 4.95892 5.36503 4.72852 5.48242C4.20179 5.75085 3.7733 6.17932 3.50488 6.70605C3.38752 6.93645 3.29941 7.25527 3.25098 7.84766C3.20141 8.45444 3.2002 9.23814 3.2002 10.3779V10.9268L4.57324 9.55371C4.88247 9.24448 5.1987 8.92517 5.49609 8.69824C5.78065 8.4812 6.15411 8.26461 6.62793 8.21387L6.83691 8.20215L7.0459 8.21387C7.51949 8.26471 7.8923 8.48128 8.17676 8.69824C8.47405 8.92509 8.7895 9.24459 9.09863 9.55371L13.4346 13.8896C13.604 14.0591 13.7384 14.1934 13.8564 14.3057C13.9114 14.3579 13.9596 14.4008 14 14.4365C14.0405 14.4008 14.0885 14.358 14.1436 14.3057C14.2617 14.1934 14.3959 14.0592 14.5654 13.8896L14.7373 13.7178C15.0465 13.4086 15.3618 13.0892 15.6592 12.8623C15.9843 12.6143 16.4253 12.3664 17 12.3662C17.5747 12.3662 18.0157 12.6143 18.3408 12.8623C18.6381 13.0892 18.9536 13.4087 19.2627 13.7178L20.7871 15.2422C20.7973 14.7845 20.7998 14.2413 20.7998 13.5771V10.3779C20.7998 9.23814 20.7986 8.45444 20.749 7.84766C20.7006 7.25528 20.6125 6.93645 20.4951 6.70605C20.2267 6.17933 19.7982 5.75085 19.2715 5.48242C19.0411 5.36503 18.7224 5.27696 18.1299 5.22852C17.5231 5.17894 16.7395 5.17773 15.5996 5.17773H8.40039ZM16 5.98828C17.1045 5.98828 17.9999 6.88382 18 7.98828C18 9.09285 17.1046 9.98828 16 9.98828C14.8954 9.98828 14 9.09285 14 7.98828C14.0001 6.88382 14.8955 5.98828 16 5.98828Z" fill="#F3F6F8"/>
</svg>
