<svg width="24" height="24" viewBox="0 0 24 24" fill="none" xmlns="http://www.w3.org/2000/svg">
<path d="M14.541 3.54639C15.2733 3.60703 15.9879 3.92117 16.4678 4.40088C17.1056 5.03879 18.1221 6.19008 19.0977 7.29346C20.0995 8.42661 21.0632 9.51485 21.6523 10.104C22.6219 11.0739 23.1243 12.2202 23.0811 13.4165C23.0383 14.5932 22.4748 15.6448 21.6523 16.4673C20.9085 17.2111 19.9478 17.4533 19.1758 17.5151C18.8996 17.5372 18.629 17.5367 18.374 17.5239V19.1489C18.3737 19.8656 17.7929 20.4475 17.0762 20.4478H9.91699C6.88569 20.4478 4.39128 18.1475 4.08301 15.1978C2.58614 14.8964 1.45816 13.5743 1.45801 11.9888C1.45823 10.1812 2.92396 8.71576 4.73145 8.71533C5.56789 8.71533 6.33033 9.02969 6.9082 9.54443C7.78791 9.01781 8.81722 8.71533 9.91699 8.71533H12.6035L12.1123 8.10205C11.6269 7.57496 11.4386 6.88673 11.4385 6.28662C11.4385 5.65969 11.6435 4.93603 12.1787 4.40088C12.8853 3.6945 13.7712 3.48282 14.541 3.54639ZM14.3428 5.93799C14.1553 5.92258 14.004 5.97034 13.876 6.09814C13.8871 6.0869 13.8769 6.09202 13.8633 6.12939C13.8495 6.16743 13.8379 6.22271 13.8379 6.28662C13.8379 6.35054 13.8495 6.40584 13.8633 6.44385L13.876 6.4751L13.9229 6.52197L13.9639 6.57373L15.5469 8.55225C16.3726 9.58505 15.6377 11.1152 14.3154 11.1157H9.91699C8.00287 11.1157 6.45117 12.6674 6.45117 14.5815C6.45145 16.4954 8.00304 18.0474 9.91699 18.0474H11.3086V17.1724C11.3082 16.6904 10.9175 16.2997 10.4355 16.2993H9.39844V13.8989H10.4355C12.243 13.8993 13.7086 15.3649 13.709 17.1724V18.0474H15.9746V16.4028C15.9746 15.5369 16.7239 14.9253 17.5176 14.9976L17.6768 15.021L17.9658 15.0728C18.2742 15.1205 18.6354 15.1505 18.9844 15.1226C19.459 15.0845 19.7722 14.9528 19.9551 14.77C20.454 14.2711 20.6667 13.7662 20.6826 13.3296C20.6977 12.9127 20.5398 12.3863 19.9551 11.8013C19.3002 11.1464 18.2753 9.98772 17.2988 8.8833C16.2962 7.7493 15.3423 6.67003 14.7705 6.09814C14.7605 6.08827 14.7146 6.05011 14.627 6.01123C14.5418 5.9735 14.4422 5.94624 14.3428 5.93799ZM4.73145 11.1157C4.24944 11.1161 3.85862 11.5067 3.8584 11.9888C3.85852 12.3287 4.05343 12.6227 4.33691 12.7671C4.51956 12.205 4.78565 11.6809 5.11914 11.2075C5.00191 11.1494 4.87053 11.1157 4.73145 11.1157Z" fill="#F3F6F8"/>
</svg>
