<svg width="24" height="24" viewBox="0 0 24 24" fill="none" xmlns="http://www.w3.org/2000/svg">
<path d="M17.6958 13.8564C18.9764 14.0066 20.2215 14.3703 21.3794 14.9316L21.8706 15.1846L21.8794 15.1895L21.8872 15.1943C22.3796 15.4734 22.7897 15.8782 23.0747 16.3672C23.3595 16.856 23.5102 17.4118 23.5103 17.9775C23.5103 18.5435 23.3596 19.0998 23.0747 19.5889C22.7897 20.078 22.3797 20.4826 21.8872 20.7617L21.8696 20.7715C20.5657 21.4813 19.1368 21.9331 17.6616 22.1006L17.3901 19.7158C18.5534 19.5838 19.6804 19.228 20.7095 18.6699C20.8301 18.6003 20.9313 18.5013 21.0015 18.3809C21.0727 18.2586 21.1099 18.119 21.1099 17.9775C21.1098 17.8363 21.0725 17.6972 21.0015 17.5752C20.9303 17.4532 20.8274 17.3519 20.7046 17.2822H20.7036C19.6842 16.7291 18.5686 16.3744 17.4165 16.2393L17.6958 13.8564ZM2.52393 14.9883C6.22011 13.5099 10.3434 13.5099 14.0396 14.9883C16.7379 16.0676 16.7379 19.8874 14.0396 20.9668C10.3434 22.4451 6.22007 22.4451 2.52393 20.9668C-0.174164 19.8873 -0.174343 16.0676 2.52393 14.9883ZM13.1489 17.2168C10.0248 15.9672 6.53867 15.9672 3.41455 17.2168C2.72825 17.4917 2.72827 18.4634 3.41455 18.7383C6.53877 19.988 10.0247 19.988 13.1489 18.7383C13.8352 18.4634 13.8351 17.4918 13.1489 17.2168ZM16.2974 2.77832C17.0339 2.7791 17.7573 2.9741 18.395 3.34277C19.0328 3.71158 19.563 4.24175 19.9312 4.87988C20.2992 5.51798 20.4927 6.24188 20.4927 6.97852C20.4926 7.71517 20.2992 8.43905 19.9312 9.07715C19.563 9.7153 19.0328 10.2455 18.395 10.6143C17.7573 10.9829 17.0339 11.1779 16.2974 11.1787C15.5606 11.1794 14.8363 10.9857 14.1978 10.6182L15.395 8.53809C15.6685 8.69549 15.9789 8.77856 16.2944 8.77832C16.61 8.77799 16.9206 8.69503 17.1938 8.53711C17.4672 8.37907 17.6943 8.1514 17.8521 7.87793C18.0098 7.60447 18.0932 7.29422 18.0933 6.97852C18.0933 6.66283 18.0098 6.35256 17.8521 6.0791C17.6943 5.80565 17.4671 5.57798 17.1938 5.41992C16.9206 5.262 16.61 5.17904 16.2944 5.17871C15.9788 5.17847 15.6686 5.26148 15.395 5.41895L14.1978 3.33887C14.8363 2.9713 15.5606 2.77761 16.2974 2.77832ZM8.29639 2.77734C10.6159 2.77743 12.4966 4.658 12.4966 6.97754C12.4965 9.29699 10.6158 11.1776 8.29639 11.1777C5.97686 11.1777 4.0963 9.29705 4.09619 6.97754C4.09619 4.65794 5.97679 2.77734 8.29639 2.77734ZM8.29639 5.17773C7.30227 5.17773 6.49658 5.98343 6.49658 6.97754C6.49669 7.97156 7.30234 8.77734 8.29639 8.77734C9.29036 8.77726 10.0961 7.97151 10.0962 6.97754C10.0962 5.98348 9.29043 5.17782 8.29639 5.17773Z" fill="#F3F6F8"/>
</svg>
