<svg width="24" height="24" viewBox="0 0 24 24" fill="none" xmlns="http://www.w3.org/2000/svg">
<g clip-path="url(#clip0_24452_69135)">
<path d="M13.5991 0.799316C14.6993 0.799316 15.5976 0.798523 16.3247 0.85791C17.0656 0.918462 17.7349 1.04839 18.3599 1.3667C19.3382 1.86517 20.1338 2.66089 20.6323 3.63916C20.9507 4.26413 21.0805 4.9334 21.1411 5.67432C21.2005 6.40145 21.1997 7.29975 21.1997 8.3999V15.5991C21.1997 16.6993 21.2005 17.5976 21.1411 18.3247C21.0806 19.0657 20.9507 19.7348 20.6323 20.3599C20.1338 21.3383 19.3383 22.1338 18.3599 22.6323C17.7348 22.9507 17.0657 23.0806 16.3247 23.1411C15.5976 23.2005 14.6993 23.1997 13.5991 23.1997H10.3999C9.29975 23.1997 8.40145 23.2005 7.67432 23.1411C6.93341 23.0805 6.26413 22.9507 5.63916 22.6323C4.6609 22.1338 3.86517 21.3382 3.3667 20.3599C3.04839 19.7349 2.91846 19.0656 2.85791 18.3247C2.79852 17.5976 2.79932 16.6992 2.79932 15.5991V7.6626C2.79931 7.52192 2.79501 7.32331 2.82178 7.11279L2.85986 6.8999L2.90771 6.73389C2.94327 6.62453 2.98736 6.518 3.03955 6.41553L3.12354 6.26416L3.24756 6.08643C3.37748 5.91875 3.52024 5.78151 3.61963 5.68213L7.68213 1.61963C7.78151 1.52024 7.91875 1.37748 8.08643 1.24756L8.26416 1.12354L8.41553 1.03955C8.518 0.987364 8.62453 0.943268 8.73389 0.907715L8.8999 0.859863L9.11279 0.821777C9.32331 0.795011 9.52192 0.79931 9.6626 0.799316H13.5991ZM9.49658 3.20068C9.49359 3.20361 9.49007 3.20628 9.48682 3.20947L5.20947 7.48682C5.20592 7.49043 5.20292 7.49426 5.19971 7.49756V15.5991C5.19971 16.7388 5.20094 17.5226 5.25049 18.1294C5.2989 18.7216 5.3871 19.0406 5.50439 19.271C5.77276 19.7976 6.20145 20.2262 6.72803 20.4946C6.95839 20.612 7.27734 20.7001 7.86963 20.7485C8.47638 20.7981 9.26017 20.7993 10.3999 20.7993H13.5991C14.7388 20.7993 15.5226 20.7981 16.1294 20.7485C16.7218 20.7001 17.0406 20.612 17.271 20.4946C17.7978 20.2262 18.2262 19.7978 18.4946 19.271C18.612 19.0406 18.7001 18.7218 18.7485 18.1294C18.7981 17.5226 18.7993 16.7388 18.7993 15.5991V8.3999C18.7993 7.26017 18.7981 6.47638 18.7485 5.86963C18.7001 5.27734 18.612 4.95839 18.4946 4.72803C18.2262 4.20145 17.7976 3.77276 17.271 3.50439C17.0406 3.3871 16.7216 3.2989 16.1294 3.25049C15.5226 3.20094 14.7388 3.19971 13.5991 3.19971H9.51123C9.50636 3.19979 9.50101 3.20063 9.49658 3.20068ZM7.99951 6.78857C8.66225 6.78857 9.19971 7.32603 9.19971 7.98877V10.9888C9.1996 11.6514 8.66219 12.189 7.99951 12.189C7.33698 12.1888 6.79942 11.6513 6.79932 10.9888V7.98877C6.79932 7.32614 7.33692 6.78875 7.99951 6.78857ZM11.9995 6.78857C12.6623 6.78857 13.1997 7.32603 13.1997 7.98877V10.9888C13.1996 11.6514 12.6622 12.189 11.9995 12.189C11.337 12.1888 10.7994 11.6513 10.7993 10.9888V7.98877C10.7993 7.32614 11.3369 6.78875 11.9995 6.78857ZM15.9995 6.78857C16.6623 6.78857 17.1997 7.32603 17.1997 7.98877V10.9888C17.1996 11.6514 16.6622 12.189 15.9995 12.189C15.337 12.1888 14.7994 11.6513 14.7993 10.9888V7.98877C14.7993 7.32614 15.3369 6.78875 15.9995 6.78857Z" fill="#F3F6F8"/>
</g>
<defs>
<clipPath id="clip0_24452_69135">
<rect width="24" height="24" fill="white"/>
</clipPath>
</defs>
</svg>
