<svg width="24" height="24" viewBox="0 0 24 24" fill="none" xmlns="http://www.w3.org/2000/svg">
<path d="M17 1C19.7614 1 22 3.23858 22 6V18C22 20.7614 19.7614 23 17 23H7C4.23858 23 2 20.7614 2 18V6C2 3.23858 4.23858 1 7 1H17ZM7 3C5.34315 3 4 4.34315 4 6V18C4 19.6569 5.34315 21 7 21H17C18.6569 21 20 19.6569 20 18V6C20 4.34315 18.6569 3 17 3H7ZM11.5 11.7773C12.1627 11.7773 12.7002 12.3148 12.7002 12.9775C12.7002 13.6403 12.1627 14.1777 11.5 14.1777H7.5C6.83726 14.1777 6.2998 13.6403 6.2998 12.9775C6.2998 12.3148 6.83726 11.7773 7.5 11.7773H11.5ZM16.5 6.77734C17.1627 6.77734 17.7002 7.3148 17.7002 7.97754C17.7002 8.64028 17.1627 9.17773 16.5 9.17773H7.5C6.83726 9.17773 6.2998 8.64028 6.2998 7.97754C6.2998 7.3148 6.83726 6.77734 7.5 6.77734H16.5Z" fill="#F3F6F8"/>
</svg>
