<svg width="24" height="24" viewBox="0 0 24 24" fill="none" xmlns="http://www.w3.org/2000/svg">
<g clip-path="url(#clip0_24452_69283)">
<path d="M18 0.799805C20.8719 0.799805 23.2002 3.12812 23.2002 6V15C23.2002 17.8048 20.9793 20.0891 18.2002 20.1943V21.8379C18.2002 22.8043 17.1827 23.4332 16.3184 23.001L10.7168 20.2002H6C3.12812 20.2002 0.799805 17.8719 0.799805 15V6C0.799805 3.12812 3.12812 0.799805 6 0.799805H18ZM6 3.2002C4.4536 3.2002 3.2002 4.4536 3.2002 6V15C3.2002 16.5464 4.4536 17.7998 6 17.7998H10.9766C11.1278 17.7998 11.2774 17.8267 11.4189 17.8779L11.5576 17.9375L15.7998 20.0586V19.0996C15.8 18.382 16.3819 17.8 17.0996 17.7998H18C19.5464 17.7998 20.7998 16.5464 20.7998 15V6C20.7998 4.4536 19.5464 3.2002 18 3.2002H6ZM12 13.2002C12.8284 13.2002 13.5 13.8718 13.5 14.7002C13.4999 15.5285 12.8284 16.2002 12 16.2002C11.1716 16.2002 10.5001 15.5285 10.5 14.7002C10.5 13.8718 11.1716 13.2002 12 13.2002ZM13.2002 11.7002H10.7998L10.5 5.2002H13.5L13.2002 11.7002Z" fill="#F3F6F8"/>
</g>
<defs>
<clipPath id="clip0_24452_69283">
<rect width="24" height="24" fill="white"/>
</clipPath>
</defs>
</svg>
