<svg width="24" height="24" viewBox="0 0 24 24" fill="none" xmlns="http://www.w3.org/2000/svg">
<rect x="2" y="1.98877" width="20" height="20" rx="10" fill="white"/>
<path d="M9.80762 5.37208C11.3519 4.84877 13.0843 4.86007 14.6209 5.4135C15.4737 5.72221 16.2535 6.20411 16.9219 6.81025C16.6991 7.04744 16.4571 7.26956 16.2266 7.49922C15.7887 7.92841 15.3508 8.3576 14.9128 8.78679C14.4788 8.38019 13.9487 8.07147 13.3724 7.89829C12.6964 7.69876 11.9665 7.66864 11.275 7.81547C10.4683 7.98488 9.71927 8.39902 9.13922 8.9788C8.67057 9.44188 8.31716 10.0141 8.10204 10.6316C7.32224 10.0367 6.54243 9.44564 5.75879 8.8508C6.58469 7.23191 8.06747 5.95563 9.80762 5.37208Z" fill="#EA4335"/>
<path d="M5.14017 10.6052C5.26693 9.9953 5.47437 9.40046 5.76247 8.84326C6.54228 9.43811 7.32208 10.0292 8.10573 10.624C7.79842 11.5012 7.79842 12.4763 8.10573 13.3498C7.32592 13.9446 6.54612 14.5395 5.76632 15.1305C5.04413 13.7488 4.82517 12.1262 5.14017 10.6052Z" fill="#FBBC05"/>
<path d="M11.9995 10.6763C14.239 10.6763 16.6255 10.6763 18.865 10.6763C19.0878 11.9074 19.0379 13.1912 18.6845 14.3959C18.358 15.499 17.7395 16.5231 16.8752 17.3024C16.1184 16.7264 15.3617 16.1503 14.6049 15.5743C15.354 15.0811 15.8841 14.283 16.0339 13.4095C14.7355 13.4095 13.2979 13.4095 11.9995 13.4095C12.0034 12.4985 11.9995 11.5874 11.9995 10.6763Z" fill="#4285F4"/>
<path d="M5.75879 15.1343C6.53859 14.5432 7.3184 13.9484 8.0982 13.3535C8.39783 14.2157 8.97404 14.9799 9.73464 15.5032C10.211 15.8308 10.7565 16.0642 11.325 16.1771C11.8858 16.2901 12.4659 16.275 13.0306 16.1809C13.5914 16.083 14.133 15.8835 14.6055 15.571C15.3623 16.147 16.119 16.723 16.8758 17.2991C16.0576 18.0407 15.0319 18.5452 13.9487 18.7899C12.7501 19.0572 11.4825 19.0648 10.2916 18.7523C9.34666 18.5076 8.45929 18.0671 7.69486 17.4685C6.892 16.8435 6.2236 16.0378 5.75879 15.1343Z" fill="#34A853"/>
</svg>
