<svg width="24" height="24" viewBox="0 0 24 24" fill="none" xmlns="http://www.w3.org/2000/svg">
<path d="M6.93359 1.05591C10.1663 0.712002 12.7547 2.00382 15.9199 3.87036C19.0314 5.70523 22.0576 8.93256 22.627 10.2268C23.1235 11.3557 23.1235 12.6448 22.627 13.7737C22.0572 15.0682 19.031 18.2945 15.9199 20.1292C12.7547 21.9957 10.1664 23.2885 6.93359 22.9446C5.7194 22.8154 4.61606 22.1709 3.89844 21.1711C2.23314 18.8512 1.76087 15.7544 1.80273 12.0002C1.8424 8.44586 2.23336 5.14934 3.89844 2.82935C4.61605 1.82963 5.71941 1.18508 6.93359 1.05591ZM12 7.59985C11.2268 7.59985 10.5996 8.22705 10.5996 9.00024V12.2512L6.72363 14.8352C6.08039 15.2641 5.9062 16.1333 6.33496 16.7766C6.76382 17.4197 7.63313 17.5938 8.27637 17.1653L12.7764 14.1653C13.1658 13.9057 13.4003 13.4682 13.4004 13.0002V9.00024C13.4004 8.22707 12.7732 7.59989 12 7.59985Z" fill="#F3F6F8"/>
</svg>
