<svg width="24" height="24" viewBox="0 0 24 24" fill="none" xmlns="http://www.w3.org/2000/svg">
<g clip-path="url(#clip0_24452_28972)">
<path d="M12 0.777344C18.1855 0.777449 23.2002 5.79203 23.2002 11.9775C23.2002 18.1631 18.1855 23.1776 12 23.1777C5.81441 23.1777 0.799805 18.1631 0.799805 11.9775C0.799821 11.3148 1.33727 10.7773 2 10.7773C2.66264 10.7774 3.20018 11.3149 3.2002 11.9775C3.2002 16.8376 7.13989 20.7773 12 20.7773C16.86 20.7772 20.7998 16.8376 20.7998 11.9775C20.7998 7.11751 16.86 3.17784 12 3.17773C9.96915 3.17773 8.10143 3.86465 6.6123 5.01953H8.24219C8.90484 5.01953 9.44224 5.5571 9.44238 6.21973C9.44238 6.88247 8.90493 7.41992 8.24219 7.41992H2.7998V1.97754C2.7998 1.3148 3.33726 0.777344 4 0.777344C4.66264 0.777459 5.2002 1.31487 5.2002 1.97754V3.08008C7.08544 1.63739 9.44328 0.777344 12 0.777344ZM12 6.77734C12.6626 6.77748 13.2002 7.3149 13.2002 7.97754V11.4805L15.6787 13.959C16.1471 14.4276 16.1471 15.1877 15.6787 15.6562C15.2101 16.1248 14.4501 16.1247 13.9814 15.6562L11.1514 12.8262C10.9263 12.6011 10.7998 12.2958 10.7998 11.9775V7.97754C10.7998 7.31481 11.3373 6.77734 12 6.77734Z" fill="#F3F6F8"/>
</g>
<defs>
<clipPath id="clip0_24452_28972">
<rect width="24" height="24" fill="white"/>
</clipPath>
</defs>
</svg>
