<svg width="24" height="24" viewBox="0 0 24 24" fill="none" xmlns="http://www.w3.org/2000/svg">
<g clip-path="url(#clip0_24452_69289)">
<path d="M12 22.5C7.30558 22.5 3.5 18.6944 3.5 14L3.5 10C3.5 5.30558 7.30558 1.5 12 1.5C16.6944 1.5 20.5 5.30558 20.5 10L20.5 14C20.5 18.6944 16.6944 22.5 12 22.5Z" stroke="#F3F6F8" stroke-width="2"/>
<path d="M12.4173 11.8675C12.2197 12.167 11.7803 12.167 11.5827 11.8675L9.04751 8.02537C8.82817 7.69294 9.06658 7.25 9.46485 7.25L14.5352 7.25C14.9334 7.25 15.1718 7.69294 14.9525 8.02537L12.4173 11.8675Z" fill="#F3F6F8"/>
<path d="M12.4173 17.3675C12.2197 17.667 11.7803 17.667 11.5827 17.3675L9.04751 13.5254C8.82817 13.1929 9.06658 12.75 9.46485 12.75L14.5352 12.75C14.9334 12.75 15.1718 13.1929 14.9525 13.5254L12.4173 17.3675Z" fill="#F3F6F8"/>
</g>
<defs>
<clipPath id="clip0_24452_69289">
<rect width="24" height="24" fill="white"/>
</clipPath>
</defs>
</svg>
