<svg width="24" height="24" viewBox="0 0 24 24" fill="none" xmlns="http://www.w3.org/2000/svg">
<g clip-path="url(#clip0_24452_69107)">
<path d="M12 0.799805C13.1941 0.799825 14.3475 0.987233 15.4297 1.33496C16.0602 1.53794 16.4077 2.21398 16.2051 2.84473C16.0023 3.47545 15.3261 3.82249 14.6953 3.62012C13.8475 3.34771 12.9419 3.20022 12 3.2002C7.13989 3.2002 3.2002 7.13989 3.2002 12C3.2003 16.86 7.13996 20.7998 12 20.7998C12.6627 20.7999 13.2002 21.3373 13.2002 22C13.2001 22.6626 12.6626 23.2001 12 23.2002C5.81448 23.2002 0.79991 18.1855 0.799805 12C0.799805 5.81441 5.81441 0.799805 12 0.799805ZM16.7314 22.9775H15.1562V18.5498C14.9823 18.5858 14.8049 18.624 14.625 18.666C14.4511 18.702 14.2774 18.7384 14.1035 18.7744V17.3164C14.5354 17.2204 14.9731 17.1271 15.417 17.0371C15.861 16.9411 16.2994 16.845 16.7314 16.749V22.9775ZM20.3223 18.873C20.4363 19.053 20.5473 19.2331 20.6553 19.4131C20.7692 19.2332 20.8831 19.0529 20.9971 18.873C21.111 18.6871 21.2249 18.5041 21.3389 18.3242H22.9766C22.7426 18.6902 22.5028 19.0597 22.2568 19.4316C22.017 19.8034 21.7798 20.1751 21.5459 20.5469C21.7919 20.9489 22.041 21.3547 22.293 21.7627C22.5449 22.1706 22.7913 22.5756 23.0312 22.9775H21.375C21.255 22.7735 21.1319 22.5692 21.0059 22.3652C20.8859 22.1553 20.7655 21.9481 20.6455 21.7441C20.5255 21.9481 20.3996 22.1552 20.2676 22.3652C20.1416 22.5692 20.0184 22.7736 19.8984 22.9775H18.2607C18.5067 22.5875 18.7558 22.1911 19.0078 21.7891C19.2597 21.3812 19.509 20.9826 19.7549 20.5928C19.5209 20.2208 19.2839 19.842 19.0439 19.458C18.804 19.0741 18.567 18.6961 18.333 18.3242H19.9893C20.0972 18.5042 20.2083 18.6871 20.3223 18.873ZM21.1729 7.83398C21.8046 7.63399 22.4786 7.98354 22.6787 8.61523C23.0173 9.68454 23.2002 10.8223 23.2002 12C23.2002 13.1778 23.0174 14.3155 22.6787 15.3848C22.4785 16.0163 21.8045 16.3659 21.1729 16.166C20.5412 15.9659 20.1907 15.2919 20.3906 14.6602C20.6559 13.8225 20.7998 12.929 20.7998 12C20.7998 11.071 20.6559 10.1775 20.3906 9.33984C20.1906 8.7081 20.5411 8.0341 21.1729 7.83398ZM20.3008 3.24414C20.3008 3.24414 14.1095 11.7683 13.4062 12.4717C12.7034 13.1745 11.6112 13.2221 10.9668 12.5781C10.3224 11.9338 10.3693 10.8406 11.0723 10.1377C11.7757 9.43443 20.3008 3.24414 20.3008 3.24414Z" fill="#F3F6F8"/>
</g>
<defs>
<clipPath id="clip0_24452_69107">
<rect width="24" height="24" fill="white"/>
</clipPath>
</defs>
</svg>
