<svg width="24" height="24" viewBox="0 0 24 24" fill="none" xmlns="http://www.w3.org/2000/svg">
<path d="M9.61328 1.8396C13.6652 1.37001 17.3435 4.13701 18.0693 8.09155C21.037 8.98078 23.2002 11.732 23.2002 14.989C23.2001 18.9653 19.9763 22.1891 16 22.1892H8C7.98961 22.1892 7.97908 22.1875 7.96875 22.1873C4.00673 22.1705 0.800044 18.9549 0.799805 14.989C0.799882 13.0488 1.56982 11.2876 2.81641 9.9939C2.54537 5.92327 5.5165 2.31453 9.61328 1.8396ZM15.5244 7.80347C14.7466 5.47619 12.4241 3.93062 9.88965 4.22437C6.98217 4.56142 4.89855 7.19093 5.23535 10.0984C5.25387 10.2581 5.23912 10.4144 5.19824 10.5603C5.18675 10.8749 5.05355 11.1845 4.80078 11.4109C3.81693 12.2915 3.20028 13.5676 3.2002 14.989C3.20043 17.6398 5.34918 19.7888 8 19.7888H16C18.6508 19.7887 20.7997 17.6398 20.7998 14.989C20.7998 12.3381 18.6509 10.1893 16 10.1892C14.225 10.1892 12.6736 11.152 11.8418 12.5896C11.51 13.163 10.7757 13.3594 10.2021 13.0281C9.62862 12.6963 9.43216 11.962 9.76367 11.3884C10.9323 9.36821 13.0584 7.96432 15.5244 7.80347Z" fill="#F3F6F8"/>
</svg>
