<svg width="24" height="24" viewBox="0 0 24 24" fill="none" xmlns="http://www.w3.org/2000/svg">
<g clip-path="url(#clip0_24452_69111)">
<path d="M12 0.799805C18.1855 0.79991 23.2002 5.81448 23.2002 12C23.2001 18.1854 18.1854 23.2001 12 23.2002C5.81448 23.2002 0.79991 18.1855 0.799805 12C0.799805 5.81441 5.81441 0.799805 12 0.799805ZM12 16.1777C9.70828 16.1778 7.62246 17.0521 6.05566 18.4883C7.62149 19.9235 9.70843 20.7998 12 20.7998C14.2911 20.7998 16.3767 19.923 17.9424 18.4883C16.3757 17.0526 14.2912 16.1778 12 16.1777ZM12 3.2002C7.13989 3.2002 3.2002 7.13989 3.2002 12C3.20023 13.7036 3.68534 15.2933 4.52344 16.6406C6.50534 14.8624 9.12663 13.7774 12 13.7773C14.8729 13.7774 17.4929 14.8628 19.4746 16.6406C20.313 15.2931 20.7998 13.7039 20.7998 12C20.7998 7.13996 16.86 3.2003 12 3.2002ZM12 4.77734C14.3195 4.77745 16.2002 6.65801 16.2002 8.97754C16.2001 11.297 14.3194 13.1776 12 13.1777C9.68047 13.1777 7.79991 11.297 7.7998 8.97754C7.7998 6.65794 9.6804 4.77734 12 4.77734ZM12 7.17773C11.0059 7.17773 10.2002 7.98343 10.2002 8.97754C10.2003 9.97156 11.006 10.7773 12 10.7773C12.994 10.7772 13.7997 9.9715 13.7998 8.97754C13.7998 7.98349 12.994 7.17784 12 7.17773Z" fill="#F3F6F8"/>
</g>
<defs>
<clipPath id="clip0_24452_69111">
<rect width="24" height="24" fill="white"/>
</clipPath>
</defs>
</svg>
