<svg width="24" height="24" viewBox="0 0 24 24" fill="none" xmlns="http://www.w3.org/2000/svg">
<path d="M18.5576 3.99268C18.7904 3.9964 19.0035 4.00337 19.1953 4.01904C19.5906 4.05135 19.984 4.12317 20.3623 4.31592C20.9265 4.60349 21.3853 5.06224 21.6729 5.62646C21.8656 6.00476 21.9374 6.3982 21.9697 6.79346C22.0011 7.17713 22 7.64541 22 8.18896V15.7886C22 16.3321 22.0011 16.8004 21.9697 17.1841C21.9374 17.5793 21.8656 17.9728 21.6729 18.3511C21.3853 18.9153 20.9265 19.374 20.3623 19.6616C19.984 19.8544 19.5906 19.9262 19.1953 19.9585C18.8116 19.9898 18.3434 19.9888 17.7998 19.9888H6.2002C5.65664 19.9888 5.18836 19.9898 4.80469 19.9585C4.40943 19.9262 4.01599 19.8544 3.6377 19.6616C3.07347 19.374 2.61472 18.9153 2.32715 18.3511C2.1344 17.9728 2.06258 17.5793 2.03027 17.1841C1.99893 16.8004 2 16.3321 2 15.7886V8.18896C2 7.64541 1.99893 7.17713 2.03027 6.79346C2.06258 6.3982 2.1344 6.00476 2.32715 5.62646C2.61472 5.06224 3.07347 4.60349 3.6377 4.31592C4.01599 4.12317 4.40943 4.05135 4.80469 4.01904C5.18836 3.9877 5.65664 3.98877 6.2002 3.98877H17.7998L18.5576 3.99268ZM6.2002 5.98877C5.62364 5.98877 5.25111 5.99003 4.96777 6.01318C4.69619 6.03538 4.59534 6.07295 4.5459 6.09814C4.35793 6.19398 4.20521 6.3467 4.10938 6.53467C4.08419 6.58411 4.04661 6.68496 4.02441 6.95654C4.00126 7.23988 4 7.61241 4 8.18896V15.7886C4 16.3651 4.00126 16.7377 4.02441 17.021C4.04661 17.2926 4.08419 17.3934 4.10938 17.4429C4.20521 17.6308 4.35793 17.7836 4.5459 17.8794C4.59534 17.9046 4.69619 17.9422 4.96777 17.9644C5.25111 17.9875 5.62364 17.9888 6.2002 17.9888H17.7998C18.3764 17.9888 18.7489 17.9875 19.0322 17.9644C19.3038 17.9422 19.4047 17.9046 19.4541 17.8794C19.6421 17.7836 19.7948 17.6308 19.8906 17.4429C19.9158 17.3934 19.9534 17.2926 19.9756 17.021C19.9987 16.7377 20 16.3651 20 15.7886V8.18896C20 7.61241 19.9987 7.23988 19.9756 6.95654C19.9534 6.68496 19.9158 6.58411 19.8906 6.53467C19.7948 6.3467 19.6421 6.19398 19.4541 6.09814C19.4047 6.07295 19.3038 6.03538 19.0322 6.01318C18.8906 6.00162 18.7268 5.99479 18.5264 5.9917L17.7998 5.98877H6.2002ZM8 16.9888H6V14.9888H8V16.9888ZM18 16.9888H10V14.9888H18V16.9888ZM14 12.9888H6V10.9888H14V12.9888ZM18 12.9888H16V10.9888H18V12.9888Z" fill="#F3F6F8"/>
</svg>
