<svg width="24" height="24" viewBox="0 0 24 24" fill="none" xmlns="http://www.w3.org/2000/svg">
<path d="M13.8301 2.58594C15.3324 2.58594 16.5645 3.79693 16.5645 5.30664V15.8193C16.5646 16.2094 16.8854 16.5389 17.2979 16.5391C17.7105 16.5391 18.0321 16.2095 18.0322 15.8193V13.9072C18.0324 12.3978 19.2636 11.1877 20.7656 11.1875H22.5C23.0523 11.1875 23.5 11.6352 23.5 12.1875C23.4999 12.7397 23.0522 13.1875 22.5 13.1875H20.7656C20.3533 13.1877 20.0324 13.5173 20.0322 13.9072V15.8193C20.0321 17.3289 18.8001 18.5391 17.2979 18.5391C15.7958 18.5389 14.5646 17.3288 14.5645 15.8193V5.30664C14.5645 4.91639 14.2428 4.58594 13.8301 4.58594C13.4175 4.58604 13.0967 4.91646 13.0967 5.30664V19.2598C13.0966 20.7694 11.8646 21.9795 10.3623 21.9795C8.86006 21.9794 7.629 20.7694 7.62891 19.2598V8.74707C7.62891 8.35683 7.30723 8.02639 6.89453 8.02637C6.48182 8.02637 6.16016 8.35682 6.16016 8.74707V10.6582C6.16015 12.1679 4.92902 13.3788 3.42676 13.3789H1.5C0.947858 13.3789 0.500231 12.931 0.5 12.3789C0.5 11.8266 0.947715 11.3789 1.5 11.3789H3.42676C3.8394 11.3788 4.16015 11.0484 4.16016 10.6582V8.74707C4.16016 7.23736 5.3922 6.02637 6.89453 6.02637C8.39685 6.02639 9.62891 7.23738 9.62891 8.74707V19.2598C9.629 19.6499 9.94969 19.9794 10.3623 19.9795C10.775 19.9795 11.0966 19.6499 11.0967 19.2598V5.30664C11.0967 3.797 12.3278 2.58604 13.8301 2.58594Z" fill="#F3F6F8"/>
</svg>
