<svg width="24" height="24" viewBox="0 0 24 24" fill="none" xmlns="http://www.w3.org/2000/svg">
<path d="M5 17.9883C5 19.0928 4.10457 19.9883 3 19.9883C1.89543 19.9883 0.999999 19.0928 0.999999 17.9883L1 9.98828C1 8.88371 1.89543 7.98828 3 7.98828C4.10457 7.98828 5 8.88371 5 9.98828L5 17.9883ZM11 17.9883C11 19.0929 10.1046 19.9883 9 19.9883C7.89543 19.9883 7 19.0928 7 17.9883L7 13.9883C7 12.8837 7.89543 11.9883 9 11.9883C10.1046 11.9883 11 12.8837 11 13.9883L11 17.9883ZM17 17.9883C17 19.0929 16.1046 19.9883 15 19.9883C13.8954 19.9883 13 19.0928 13 17.9883L13 5.98828C13 4.88371 13.8954 3.98828 15 3.98828C16.1046 3.98828 17 4.88371 17 5.98828L17 17.9883ZM23 17.9873C23 19.0919 22.1046 19.9873 21 19.9873C19.8954 19.9873 19 19.0919 19 17.9873L19 15.9873C19 14.8827 19.8954 13.9873 21 13.9873C22.1046 13.9873 23 14.8827 23 15.9873L23 17.9873Z" fill="#F3F6F8"/>
</svg>
