<svg width="24" height="24" viewBox="0 0 24 24" fill="none" xmlns="http://www.w3.org/2000/svg">
<path fill-rule="evenodd" clip-rule="evenodd" d="M1.21799 4.08079C1 4.50861 1 5.06866 1 6.18877V7.78877C1 8.90887 1 9.46893 1.21799 9.89675C1.40973 10.2731 1.71569 10.579 2.09202 10.7708C2.51984 10.9888 3.0799 10.9888 4.2 10.9888H7.8C8.9201 10.9888 9.48016 10.9888 9.90798 10.7708C10.2843 10.579 10.5903 10.2731 10.782 9.89675C11 9.46893 11 8.90887 11 7.78877V6.18877C11 5.06866 11 4.50861 10.782 4.08079C10.5903 3.70446 10.2843 3.3985 9.90798 3.20676C9.48016 2.98877 8.9201 2.98877 7.8 2.98877H4.2C3.0799 2.98877 2.51984 2.98877 2.09202 3.20676C1.71569 3.3985 1.40973 3.70446 1.21799 4.08079ZM1.21799 14.0808C1 14.5086 1 15.0687 1 16.1888V17.7888C1 18.9089 1 19.4689 1.21799 19.8968C1.40973 20.2731 1.71569 20.579 2.09202 20.7708C2.51984 20.9888 3.0799 20.9888 4.2 20.9888H7.8C8.9201 20.9888 9.48016 20.9888 9.90798 20.7708C10.2843 20.579 10.5903 20.2731 10.782 19.8968C11 19.4689 11 18.9089 11 17.7888V16.1888C11 15.0687 11 14.5086 10.782 14.0808C10.5903 13.7045 10.2843 13.3985 9.90798 13.2068C9.48016 12.9888 8.9201 12.9888 7.8 12.9888H4.2C3.0799 12.9888 2.51984 12.9888 2.09202 13.2068C1.71569 13.3985 1.40973 13.7045 1.21799 14.0808ZM13 6.18877C13 5.06866 13 4.50861 13.218 4.08079C13.4097 3.70446 13.7157 3.3985 14.092 3.20676C14.5198 2.98877 15.0799 2.98877 16.2 2.98877H19.8C20.9201 2.98877 21.4802 2.98877 21.908 3.20676C22.2843 3.3985 22.5903 3.70446 22.782 4.08079C23 4.50861 23 5.06866 23 6.18877V7.78877C23 8.90887 23 9.46893 22.782 9.89675C22.5903 10.2731 22.2843 10.579 21.908 10.7708C21.4802 10.9888 20.9201 10.9888 19.8 10.9888H16.2C15.0799 10.9888 14.5198 10.9888 14.092 10.7708C13.7157 10.579 13.4097 10.2731 13.218 9.89675C13 9.46893 13 8.90887 13 7.78877V6.18877ZM13.218 14.0808C13 14.5086 13 15.0687 13 16.1888V17.7888C13 18.9089 13 19.4689 13.218 19.8968C13.4097 20.2731 13.7157 20.579 14.092 20.7708C14.5198 20.9888 15.0799 20.9888 16.2 20.9888H19.8C20.9201 20.9888 21.4802 20.9888 21.908 20.7708C22.2843 20.579 22.5903 20.2731 22.782 19.8968C23 19.4689 23 18.9089 23 17.7888V16.1888C23 15.0687 23 14.5086 22.782 14.0808C22.5903 13.7045 22.2843 13.3985 21.908 13.2068C21.4802 12.9888 20.9201 12.9888 19.8 12.9888H16.2C15.0799 12.9888 14.5198 12.9888 14.092 13.2068C13.7157 13.3985 13.4097 13.7045 13.218 14.0808Z" fill="#F3F6F8"/>
</svg>
