<svg width="24" height="24" viewBox="0 0 24 24" fill="none" xmlns="http://www.w3.org/2000/svg">
<path d="M14.5996 1.7998C15.6999 1.7998 16.598 1.79899 17.3252 1.8584C18.0662 1.91897 18.7353 2.04876 19.3604 2.36719C20.3387 2.86574 21.1343 3.66127 21.6328 4.63965C21.9512 5.26465 22.081 5.93384 22.1416 6.6748C22.201 7.40198 22.2002 8.30019 22.2002 9.40039V14.5996C22.2002 15.6998 22.201 16.598 22.1416 17.3252C22.081 18.0662 21.9512 18.7353 21.6328 19.3604C21.1343 20.3387 20.3387 21.1343 19.3604 21.6328C18.7353 21.9512 18.0662 22.081 17.3252 22.1416C16.598 22.201 15.6999 22.2002 14.5996 22.2002H8C7.1283 22.2002 6.51685 22.2053 5.98535 22.0996C3.92284 21.6892 2.31084 20.0771 1.90039 18.0146C1.79467 17.4832 1.7998 16.8717 1.7998 16C1.7998 15.3373 2.33726 14.7998 3 14.7998C3.66268 14.7999 4.2002 15.3373 4.2002 16C4.2002 16.9862 4.20598 17.3047 4.25391 17.5459C4.47491 18.6565 5.34344 19.5252 6.4541 19.7461C6.6953 19.794 7.01384 19.7998 8 19.7998H14.5996C15.7394 19.7998 16.5231 19.7986 17.1299 19.749C17.7223 19.7006 18.0411 19.6125 18.2715 19.4951C18.7982 19.2267 19.2267 18.7982 19.4951 18.2715C19.6125 18.0411 19.7006 17.7223 19.749 17.1299C19.7986 16.5231 19.7998 15.7394 19.7998 14.5996V9.40039C19.7998 8.26061 19.7986 7.4769 19.749 6.87012C19.7006 6.27778 19.6125 5.9589 19.4951 5.72852C19.2267 5.20182 18.7982 4.77332 18.2715 4.50488C18.0411 4.3875 17.7223 4.29942 17.1299 4.25098C16.5231 4.2014 15.7394 4.2002 14.5996 4.2002H7C5.4536 4.2002 4.2002 5.4536 4.2002 7C4.20009 7.66261 3.66261 8.20012 3 8.2002C2.33732 8.2002 1.79991 7.66265 1.7998 7C1.7998 4.12812 4.12812 1.7998 7 1.7998H14.5996ZM10.1514 8.15137C10.62 7.68274 11.38 7.68274 11.8486 8.15137L15.6973 12L11.8486 15.8486C11.3801 16.3172 10.62 16.3171 10.1514 15.8486C9.68275 15.38 9.68277 14.62 10.1514 14.1514L11.1025 13.2002H3C2.33732 13.2002 1.79991 12.6627 1.7998 12C1.7998 11.3373 2.33726 10.7998 3 10.7998H11.1025L10.1514 9.84863C9.68275 9.38001 9.68277 8.62 10.1514 8.15137Z" fill="#F3F6F8"/>
</svg>
