<svg width="24" height="24" viewBox="0 0 24 24" fill="none" xmlns="http://www.w3.org/2000/svg">
<path d="M4 18C4.82843 18 5.5 18.6716 5.5 19.5C5.5 20.3284 4.82843 21 4 21C3.17157 21 2.5 20.3284 2.5 19.5C2.5 18.6716 3.17157 18 4 18ZM21 18.2891C21.6627 18.2891 22.2002 18.8265 22.2002 19.4893C22.1999 20.1518 21.6626 20.6895 21 20.6895H8C7.33742 20.6895 6.80007 20.1518 6.7998 19.4893C6.7998 18.8265 7.33726 18.2891 8 18.2891H21ZM4 12.7773C4.82843 12.7773 5.5 13.4489 5.5 14.2773C5.5 15.1058 4.82843 15.7773 4 15.7773C3.17157 15.7773 2.5 15.1058 2.5 14.2773C2.5 13.4489 3.17157 12.7773 4 12.7773ZM21 13.29C21.6627 13.29 22.2002 13.8275 22.2002 14.4902C22.2001 15.1529 21.6627 15.6904 21 15.6904H8C7.33734 15.6904 6.79993 15.1529 6.7998 14.4902C6.7998 13.8275 7.33726 13.29 8 13.29H21ZM4 8.28906C4.82843 8.28906 5.5 8.96064 5.5 9.78906C5.49974 10.6173 4.82826 11.2891 4 11.2891C3.17174 11.2891 2.50026 10.6173 2.5 9.78906C2.5 8.96064 3.17157 8.28906 4 8.28906ZM21 8.29004C21.6627 8.29004 22.2001 8.82761 22.2002 9.49023C22.1999 10.1528 21.6626 10.6904 21 10.6904H8C7.33742 10.6904 6.80007 10.1528 6.7998 9.49023C6.79994 8.82761 7.33734 8.29004 8 8.29004H21ZM4 3C4.82843 3 5.5 3.67157 5.5 4.5C5.5 5.32843 4.82843 6 4 6C3.17157 6 2.5 5.32843 2.5 4.5C2.5 3.67157 3.17157 3 4 3ZM21 3.28906C21.6627 3.28907 22.2002 3.82652 22.2002 4.48926C22.1999 5.15177 21.6626 5.68945 21 5.68945H8C7.33742 5.68945 6.80007 5.15177 6.7998 4.48926C6.7998 3.82652 7.33726 3.28907 8 3.28906H21Z" fill="#F3F6F8"/>
</svg>
