<svg width="24" height="24" viewBox="0 0 24 24" fill="none" xmlns="http://www.w3.org/2000/svg">
<g clip-path="url(#clip0_24452_69109)">
<path d="M9.23828 21.4492C9.39288 21.4492 9.53167 21.4869 9.6543 21.5615C9.78215 21.6362 9.88339 21.7374 9.95801 21.8652C10.038 21.9879 10.0781 22.1241 10.0781 22.2734C10.0781 22.4227 10.038 22.5615 9.95801 22.6895C9.88339 22.8173 9.78215 22.9185 9.6543 22.9932C9.53167 23.0678 9.39288 23.1054 9.23828 23.1055C9.08361 23.1055 8.939 23.0678 8.80566 22.9932C8.67786 22.9185 8.57654 22.8173 8.50195 22.6895C8.4273 22.5615 8.38966 22.4227 8.38965 22.2734C8.38965 22.1241 8.42729 21.9879 8.50195 21.8652C8.57654 21.7374 8.67786 21.6362 8.80566 21.5615C8.939 21.4869 9.08361 21.4492 9.23828 21.4492ZM14.1025 18.8096H12.3018C12.2911 18.9107 12.2786 19.0172 12.2627 19.1289C12.2467 19.2355 12.2333 19.3426 12.2227 19.4492C12.6757 19.4439 13.062 19.5084 13.3818 19.6416C13.7071 19.7749 13.9553 19.9721 14.126 20.2334C14.3019 20.4947 14.3906 20.8198 14.3906 21.209C14.3906 21.6248 14.2919 21.9693 14.0947 22.2412C13.8974 22.5079 13.6275 22.7085 13.2861 22.8418C12.9502 22.9697 12.5632 23.0307 12.126 23.0254C11.6941 23.02 11.2377 22.9482 10.7578 22.8096V21.4736C11.2003 21.6122 11.5899 21.7024 11.9258 21.7451C12.2671 21.7825 12.5346 21.7616 12.7266 21.6816C12.9185 21.6016 13.0146 21.457 13.0146 21.249C13.0145 21.0412 12.915 20.8864 12.7178 20.7852C12.5259 20.684 12.2648 20.6279 11.9346 20.6172C11.6039 20.6012 11.2329 20.6279 10.8223 20.6973C10.8703 20.1746 10.9178 19.6466 10.9658 19.1133C11.0138 18.58 11.0624 18.0544 11.1104 17.5371H14.1025V18.8096ZM7.62891 22.9775H6.22852V19.041C6.07391 19.073 5.91677 19.1082 5.75684 19.1455C5.60229 19.1775 5.44751 19.2092 5.29297 19.2412V17.9453C5.67686 17.86 6.06639 17.7772 6.46094 17.6973C6.85549 17.612 7.24501 17.5267 7.62891 17.4414V22.9775ZM16.4189 19.3291C16.5203 19.4891 16.6188 19.6496 16.7148 19.8096C16.8162 19.6496 16.9172 19.4891 17.0186 19.3291C17.1198 19.164 17.2211 19.0016 17.3223 18.8418H18.7783C18.5704 19.1669 18.3572 19.4947 18.1387 19.8252C17.9253 20.1558 17.7148 20.4867 17.5068 20.8174C17.7255 21.1747 17.9469 21.5348 18.1709 21.8975C18.3949 22.2601 18.6139 22.6203 18.8271 22.9775H17.3545C17.2478 22.7962 17.1384 22.6149 17.0264 22.4336C16.9197 22.2469 16.8137 22.0622 16.707 21.8809C16.6004 22.0622 16.4884 22.2469 16.3711 22.4336C16.2591 22.6149 16.1496 22.7962 16.043 22.9775H14.5869C14.8056 22.6309 15.027 22.2782 15.251 21.9209C15.4749 21.5584 15.6965 21.2039 15.915 20.8574C15.707 20.5268 15.4956 20.1909 15.2822 19.8496C15.0689 19.5083 14.8583 19.1724 14.6504 18.8418H16.123C16.2189 19.0016 16.3177 19.164 16.4189 19.3291ZM12 0.799805C13.1941 0.799825 14.3475 0.987233 15.4297 1.33496C16.0602 1.53794 16.4077 2.21398 16.2051 2.84473C16.0023 3.47545 15.3261 3.82249 14.6953 3.62012C13.8475 3.34771 12.9419 3.20022 12 3.2002C7.13989 3.2002 3.2002 7.13989 3.2002 12C3.20022 12.929 3.34408 13.8225 3.60938 14.6602C3.80919 15.2918 3.4587 15.9659 2.82715 16.166C2.19545 16.3661 1.52152 16.0164 1.32129 15.3848C0.982647 14.3155 0.799825 13.1778 0.799805 12C0.799805 5.81441 5.81441 0.799805 12 0.799805ZM21.1729 7.83398C21.8046 7.63399 22.4786 7.98354 22.6787 8.61523C23.0173 9.68454 23.2002 10.8223 23.2002 12C23.2002 13.1778 23.0174 14.3155 22.6787 15.3848C22.4785 16.0163 21.8045 16.3659 21.1729 16.166C20.5412 15.9659 20.1907 15.2919 20.3906 14.6602C20.6559 13.8225 20.7998 12.929 20.7998 12C20.7998 11.071 20.6559 10.1775 20.3906 9.33984C20.1906 8.7081 20.5411 8.0341 21.1729 7.83398ZM20.3008 3.24414C20.3008 3.24414 14.1095 11.7683 13.4062 12.4717C12.7034 13.1745 11.6112 13.2221 10.9668 12.5781C10.3224 11.9338 10.3693 10.8406 11.0723 10.1377C11.7757 9.43443 20.3008 3.24414 20.3008 3.24414Z" fill="#F3F6F8"/>
</g>
<defs>
<clipPath id="clip0_24452_69109">
<rect width="24" height="24" fill="white"/>
</clipPath>
</defs>
</svg>
