<svg width="24" height="24" viewBox="0 0 24 24" fill="none" xmlns="http://www.w3.org/2000/svg">
<g clip-path="url(#clip0_26283_64000)">
<mask id="mask0_26283_64000" style="mask-type:luminance" maskUnits="userSpaceOnUse" x="2" y="2" width="20" height="20">
<path d="M6.1 2C3.84444 2 2 3.84444 2 6.1V17.9C2 20.1556 3.84444 22 6.1 22H17.9C20.1444 22 21.9778 20.1778 22 17.9333V6.06667C21.9778 3.82222 20.1444 2 17.9 2H6.1Z" fill="white"/>
</mask>
<g mask="url(#mask0_26283_64000)">
<path d="M22 2H2V22H22V2Z" fill="url(#paint0_linear_26283_64000)"/>
</g>
<mask id="mask1_26283_64000" style="mask-type:luminance" maskUnits="userSpaceOnUse" x="4" y="4" width="16" height="16">
<path d="M20 4H4V20H20V4Z" fill="white"/>
</mask>
<g mask="url(#mask1_26283_64000)">
<path d="M15.8848 13.0131C15.6003 13.0131 15.3603 12.782 15.3603 12.4886C15.3603 12.2042 15.5914 11.9642 15.8848 11.9642C16.1692 11.9642 16.4092 12.1953 16.4092 12.4886C16.4003 12.782 16.1692 13.0131 15.8848 13.0131ZM13.2803 13.0131C12.9959 13.0131 12.7559 12.782 12.7559 12.4886C12.7559 12.2042 12.987 11.9642 13.2803 11.9642C13.5648 11.9642 13.8048 12.1953 13.8048 12.4886C13.7959 12.782 13.5648 13.0131 13.2803 13.0131ZM17.1381 15.9997C17.9648 15.4042 18.4892 14.5153 18.4892 13.5375C18.4892 11.742 16.7381 10.2842 14.5781 10.2842C12.4181 10.2842 10.667 11.742 10.667 13.5375C10.667 15.3331 12.4181 16.7908 14.5781 16.7908C15.0225 16.7908 15.4581 16.7286 15.8581 16.6131C15.8937 16.6042 15.9292 16.5953 15.9737 16.5953C16.0448 16.5953 16.1159 16.622 16.1781 16.6575L17.0314 17.1553C17.0581 17.1731 17.0759 17.182 17.1025 17.182C17.1737 17.182 17.2359 17.1197 17.2359 17.0486C17.2359 17.0131 17.227 16.9864 17.2181 16.9508C17.2092 16.9331 17.1114 16.542 17.0403 16.2931C17.0314 16.2664 17.0225 16.2397 17.0225 16.2131C17.0314 16.1242 17.067 16.0442 17.1381 15.9997Z" fill="white"/>
</g>
<mask id="mask2_26283_64000" style="mask-type:luminance" maskUnits="userSpaceOnUse" x="4" y="4" width="16" height="16">
<path d="M20 4H4V20H20V4Z" fill="white"/>
</mask>
<g mask="url(#mask2_26283_64000)">
<path d="M11.7685 9.96457C11.4219 9.96457 11.1463 9.68901 11.1463 9.34235C11.1463 8.99568 11.4219 8.72013 11.7685 8.72013C12.1152 8.72013 12.3907 8.99568 12.3907 9.34235C12.3907 9.68901 12.1063 9.96457 11.7685 9.96457ZM8.63963 9.96457C8.29296 9.96457 8.01741 9.68901 8.01741 9.34235C8.01741 8.99568 8.29296 8.72013 8.63963 8.72013C8.9863 8.72013 9.26185 8.99568 9.26185 9.34235C9.26185 9.68901 8.9863 9.96457 8.63963 9.96457ZM10.2041 6.68457C7.61741 6.68457 5.51074 8.43568 5.51074 10.5957C5.51074 11.769 6.14185 12.8357 7.12852 13.5468C7.20852 13.6001 7.26185 13.6979 7.26185 13.8046C7.26185 13.8401 7.25296 13.8668 7.24408 13.9023C7.16408 14.1957 7.03963 14.6668 7.03074 14.6935C7.02185 14.729 7.00408 14.7646 7.00408 14.809C7.00408 14.8979 7.07519 14.969 7.16408 14.969C7.19963 14.969 7.2263 14.9601 7.25296 14.9423L8.27519 14.3468C8.35519 14.3023 8.43519 14.2757 8.52408 14.2757C8.56852 14.2757 8.62185 14.2846 8.6663 14.2935C9.1463 14.4268 9.66185 14.5068 10.1952 14.5068C10.2841 14.5068 10.3641 14.5068 10.453 14.4979C10.3552 14.1957 10.293 13.8757 10.293 13.5379C10.293 11.5735 12.2041 9.97346 14.5685 9.97346C14.6574 9.97346 14.7374 9.97346 14.8263 9.98235C14.4796 8.11568 12.5419 6.68457 10.2041 6.68457Z" fill="white"/>
</g>
</g>
<defs>
<linearGradient id="paint0_linear_26283_64000" x1="12.0007" y1="21.9628" x2="12.0007" y2="2.02208" gradientUnits="userSpaceOnUse">
<stop offset="0.0145433" stop-color="#07C160"/>
<stop offset="1" stop-color="#02E36F"/>
</linearGradient>
<clipPath id="clip0_26283_64000">
<rect x="2" y="2" width="20" height="20" rx="10" fill="white"/>
</clipPath>
</defs>
</svg>
