<svg width="24" height="24" viewBox="0 0 24 24" fill="none" xmlns="http://www.w3.org/2000/svg">
<path d="M15.5996 2.98877C16.7032 2.98877 17.5914 2.9878 18.3086 3.04639C19.0373 3.10592 19.6773 3.23203 20.2695 3.53369C21.2103 4.01306 21.9757 4.77843 22.4551 5.71924C22.7567 6.31143 22.8828 6.95147 22.9424 7.68018C23.001 8.39734 23 9.28558 23 10.3892V13.5884C23 14.692 23.001 15.5802 22.9424 16.2974C22.8828 17.0261 22.7567 17.6661 22.4551 18.2583C21.9757 19.1991 21.2103 19.9645 20.2695 20.4438C19.6773 20.7455 19.0373 20.8716 18.3086 20.9312C17.5914 20.9897 16.7032 20.9888 15.5996 20.9888H8.40039C7.29681 20.9888 6.40857 20.9897 5.69141 20.9312C4.9627 20.8716 4.32266 20.7455 3.73047 20.4438C2.78966 19.9645 2.02429 19.1991 1.54492 18.2583C1.24326 17.6661 1.11715 17.0261 1.05762 16.2974C0.999025 15.5802 1 14.692 1 13.5884V10.3892C1 9.28558 0.999025 8.39734 1.05762 7.68018C1.11715 6.95147 1.24326 6.31143 1.54492 5.71924C2.02429 4.77843 2.78966 4.01306 3.73047 3.53369C4.32266 3.23203 4.9627 3.10592 5.69141 3.04639C6.40857 2.9878 7.29681 2.98877 8.40039 2.98877H15.5996ZM8.40039 4.98877C7.26396 4.98877 6.47129 4.98918 5.85449 5.03955C5.24933 5.08899 4.90105 5.18173 4.6377 5.31592C4.07347 5.60349 3.61472 6.06224 3.32715 6.62646C3.19296 6.88982 3.10023 7.23809 3.05078 7.84326C3.00041 8.46006 3 9.25273 3 10.3892V13.5884C3 14.7248 3.00041 15.5175 3.05078 16.1343C3.10023 16.7394 3.19296 17.0877 3.32715 17.3511C3.61472 17.9153 4.07347 18.374 4.6377 18.6616C4.90105 18.7958 5.24933 18.8885 5.85449 18.938C6.47129 18.9884 7.26396 18.9888 8.40039 18.9888H15.5996C16.736 18.9888 17.5287 18.9884 18.1455 18.938C18.7507 18.8885 19.0989 18.7958 19.3623 18.6616C19.9265 18.374 20.3853 17.9153 20.6729 17.3511C20.807 17.0877 20.8998 16.7394 20.9492 16.1343C20.9996 15.5175 21 14.7248 21 13.5884V10.3892C21 9.25273 20.9996 8.46006 20.9492 7.84326C20.8998 7.23809 20.807 6.88982 20.6729 6.62646C20.3853 6.06224 19.9265 5.60349 19.3623 5.31592C19.0989 5.18173 18.7507 5.08899 18.1455 5.03955C17.5287 4.98918 16.736 4.98877 15.5996 4.98877H8.40039ZM6.23145 7.62842C6.43575 7.62846 6.59757 7.65769 6.7168 7.71729C6.8361 7.76842 6.92987 7.85802 6.99805 7.98584L8.58301 10.9897C8.66824 11.1432 8.74947 11.3483 8.82617 11.604C8.88583 11.3739 8.96289 11.1687 9.05664 10.9897L10.6416 7.98584C10.7098 7.85804 10.8036 7.76841 10.9229 7.71729C11.0421 7.6577 11.2039 7.62845 11.4082 7.62842H11.8047C12.0687 7.62842 12.2564 7.6619 12.3672 7.72998C12.4864 7.78958 12.5458 7.89195 12.5459 8.03662V16.2192C12.5458 16.3639 12.4864 16.4705 12.3672 16.5386C12.2564 16.5982 12.0687 16.6284 11.8047 16.6284H11.3701C11.106 16.6284 10.9142 16.5982 10.7949 16.5386C10.6842 16.4705 10.629 16.3639 10.6289 16.2192V11.7954C10.6289 11.5909 10.6581 11.3564 10.7178 11.0923L10.667 11.0796C10.6073 11.2415 10.5135 11.4416 10.3857 11.6802L9.43945 13.4448C9.37983 13.5555 9.312 13.6369 9.23535 13.688C9.15871 13.7305 9.05637 13.7514 8.92871 13.7515H8.71094C8.58327 13.7514 8.48095 13.7305 8.4043 13.688C8.32766 13.6369 8.25982 13.5555 8.2002 13.4448L7.25391 11.6802C7.20281 11.5865 7.15168 11.4801 7.10059 11.3608C7.04945 11.233 7.01092 11.1392 6.98535 11.0796L6.93457 11.0923C6.98569 11.399 7.01073 11.6335 7.01074 11.7954V16.2192C7.01063 16.3639 6.95119 16.4705 6.83203 16.5386C6.72126 16.5982 6.53364 16.6284 6.26953 16.6284H5.83496C5.57101 16.6284 5.37911 16.5981 5.25977 16.5386C5.14907 16.4705 5.09288 16.3639 5.09277 16.2192V8.03662C5.09288 7.89195 5.14907 7.78958 5.25977 7.72998C5.37911 7.66194 5.57103 7.62842 5.83496 7.62842H6.23145ZM14.5469 7.62842C14.9727 7.6285 15.2074 7.7515 15.25 7.99854L16.2598 13.2661C16.3024 13.4539 16.3744 13.9608 16.4766 14.7866H16.5283C16.588 14.2841 16.6599 13.7772 16.7451 13.2661L17.7686 7.99854C17.8113 7.75152 18.0457 7.62842 18.4717 7.62842H18.9443C19.43 7.62843 19.6729 7.72218 19.6729 7.90967C19.6728 7.96922 19.6602 8.04575 19.6348 8.13916L17.6914 16.3599C17.6486 16.5386 17.4225 16.6284 17.0137 16.6284H15.9912C15.5824 16.6284 15.3563 16.5386 15.3135 16.3599L13.3701 8.13916C13.3362 8.02051 13.3195 7.94398 13.3193 7.90967C13.3193 7.72218 13.5663 7.62843 14.0605 7.62842H14.5469Z" fill="#F3F6F8"/>
</svg>
