<svg width="24" height="24" viewBox="0 0 24 24" fill="none" xmlns="http://www.w3.org/2000/svg">
<path d="M22.2002 16.9775C22.2001 16.3149 21.6627 15.7773 21 15.7773H19.0264C18.5099 14.0426 16.9025 12.7773 15 12.7773C13.0976 12.7773 11.4912 14.0427 10.9746 15.7773H3C2.33742 15.7774 1.79992 16.315 1.7998 16.9775C1.7998 17.6402 2.33735 18.1776 3 18.1777H10.9746C11.4911 19.9126 13.0975 21.1777 15 21.1777C16.9026 21.1777 18.51 19.9127 19.0264 18.1777H21C21.6627 18.1777 22.2002 17.6403 22.2002 16.9775ZM22.2002 6.97754C22.2001 6.3149 21.6627 5.77734 21 5.77734H13.0264C12.5099 4.04259 10.9025 2.77734 9 2.77734C7.09762 2.77734 5.49119 4.04272 4.97461 5.77734H3C2.33742 5.77745 1.79992 6.31496 1.7998 6.97754C1.7998 7.64022 2.33735 8.17763 3 8.17773H4.97461C5.49104 9.91259 7.09745 11.1777 9 11.1777C10.9026 11.1777 12.51 9.91272 13.0264 8.17773H21C21.6627 8.17773 22.2002 7.64028 22.2002 6.97754ZM10.7998 6.97754C10.7998 7.97165 9.99411 8.77734 9 8.77734C8.00589 8.77734 7.2002 7.97165 7.2002 6.97754C7.20033 5.98354 8.00597 5.17773 9 5.17773C9.99403 5.17773 10.7997 5.98354 10.7998 6.97754ZM16.7998 16.9775C16.7998 17.9717 15.9941 18.7773 15 18.7773C14.0059 18.7773 13.2002 17.9717 13.2002 16.9775C13.2003 15.9835 14.0059 15.1777 15 15.1777C15.9941 15.1777 16.7997 15.9835 16.7998 16.9775Z" fill="#F3F6F8"/>
</svg>
