<svg width="24" height="24" viewBox="0 0 24 24" fill="none" xmlns="http://www.w3.org/2000/svg">
<path d="M12 21.9888C17.5228 21.9888 22 17.5116 22 11.9888C22 6.46594 17.5228 1.98877 12 1.98877C6.47717 1.98877 2 6.46594 2 11.9888C2 17.5116 6.47717 21.9888 12 21.9888Z" fill="url(#paint0_linear_24452_69302)"/>
<path d="M5.72385 12.4778C6.89285 11.8338 8.19776 11.2964 9.41701 10.7563C11.5146 9.87151 13.6205 9.00209 15.7477 8.19268C16.1616 8.05476 16.9052 7.91989 16.9781 8.53322C16.9382 9.40139 16.7739 10.2645 16.6613 11.1276C16.3753 13.0256 16.0448 14.9171 15.7225 16.8088C15.6115 17.4389 14.8221 17.7651 14.317 17.3619C13.1032 16.542 11.88 15.7301 10.6817 14.8911C10.2891 14.4923 10.6531 13.9195 11.0037 13.6346C12.0035 12.6494 13.0637 11.8123 14.0112 10.7761C14.2668 10.1589 13.5116 10.6791 13.2626 10.8385C11.8939 11.7816 10.5587 12.7824 9.11572 13.6113C8.37864 14.0171 7.51955 13.6703 6.7828 13.4439C6.12221 13.1704 5.1542 12.8948 5.72379 12.4778L5.72385 12.4778Z" fill="white"/>
<defs>
<linearGradient id="paint0_linear_24452_69302" x1="9.50117" y1="2.82277" x2="4.50117" y2="14.4888" gradientUnits="userSpaceOnUse">
<stop stop-color="#37AEE2"/>
<stop offset="1" stop-color="#1E96C8"/>
</linearGradient>
</defs>
</svg>
