<svg width="24" height="24" viewBox="0 0 24 24" fill="none" xmlns="http://www.w3.org/2000/svg">
<path d="M15.7998 13.7893C16.4625 13.7893 17 14.3268 17 14.9895V20.9895C16.9998 21.652 16.4624 22.1897 15.7998 22.1897C15.1373 22.1896 14.5998 21.652 14.5996 20.9895V17.7151L14.4775 17.8381C14.0089 18.3066 13.2479 18.3066 12.7793 17.8381C12.3111 17.3696 12.3111 16.6094 12.7793 16.1409L14.7793 14.1409C15.0349 13.8853 15.3775 13.77 15.7119 13.7932C15.741 13.7911 15.7702 13.7893 15.7998 13.7893ZM6.22461 8.09106C6.95051 4.1366 10.6298 1.36946 14.6816 1.83911C18.9054 2.329 21.9335 6.15047 21.4443 10.3743C21.368 11.0325 20.7714 11.505 20.1133 11.429C19.4551 11.3525 18.9833 10.7561 19.0596 10.0979C19.3961 7.19073 17.3124 4.56114 14.4053 4.22388C11.8443 3.92702 9.49935 5.50833 8.74609 7.87622C9.18491 8.05468 9.49497 8.48574 9.49512 8.98853C9.49498 9.65092 8.95727 10.1884 8.29492 10.1887C5.64407 10.1887 3.49531 12.3377 3.49512 14.9885C3.49525 17.6394 5.64404 19.7883 8.29492 19.7883H10.2949C10.9573 19.7887 11.4949 20.3262 11.4951 20.9885C11.495 21.6509 10.9573 22.1884 10.2949 22.1887H8.29492C4.31856 22.1887 1.09389 18.9649 1.09375 14.9885C1.0939 11.7319 3.25738 8.98045 6.22461 8.09106ZM20.1719 13.7883C20.8342 13.7887 21.372 14.3261 21.3721 14.9885V18.262L21.4941 18.1399C21.9627 17.6715 22.7228 17.6715 23.1914 18.1399C23.6595 18.6085 23.6597 19.3687 23.1914 19.8372L21.1924 21.8372C20.937 22.0926 20.594 22.2079 20.2598 22.1848C20.2309 22.1869 20.2013 22.1887 20.1719 22.1887C19.5092 22.1887 18.9718 21.6512 18.9717 20.9885V14.9885C18.9718 14.3259 19.5092 13.7883 20.1719 13.7883Z" fill="#F3F6F8"/>
</svg>
