<svg width="24" height="24" viewBox="0 0 24 24" fill="none" xmlns="http://www.w3.org/2000/svg">
<path d="M18.5 13.5781C20.5864 13.5781 22.2898 15.2169 22.3945 17.2773L22.4004 17.4785L22.3945 17.6797C22.2898 19.7401 20.5864 21.3789 18.5 21.3789H5.5C3.34609 21.3789 1.59961 19.6324 1.59961 17.4785C1.59961 15.3246 3.34609 13.5781 5.5 13.5781H18.5ZM19 15.4785C17.8954 15.4785 17 16.3739 17 17.4785C17 18.5831 17.8954 19.4785 19 19.4785C20.1046 19.4785 21 18.5831 21 17.4785C21 16.3739 20.1046 15.4785 19 15.4785ZM18.5 3.57812C20.5864 3.57813 22.2898 5.21694 22.3945 7.27734L22.4004 7.47852L22.3945 7.67969C22.2898 9.7401 20.5864 11.3789 18.5 11.3789H5.5C3.34609 11.3789 1.59961 9.63242 1.59961 7.47852C1.59961 5.32461 3.34609 3.57813 5.5 3.57812H18.5ZM5.5 5.47852C4.39543 5.47852 3.5 6.37395 3.5 7.47852C3.5 8.58308 4.39543 9.47852 5.5 9.47852C6.60457 9.47852 7.5 8.58309 7.5 7.47852C7.5 6.37395 6.60457 5.47852 5.5 5.47852ZM8.66309 5.97852C8.87907 6.43315 9 6.9417 9 7.47852C9 8.01533 8.87907 8.52388 8.66309 8.97852H18.5C19.3284 8.97852 20 8.30694 20 7.47852C20 6.70185 19.4097 6.06313 18.6533 5.98633L18.5 5.97852H8.66309Z" fill="#F3F6F8"/>
</svg>
