<svg width="24" height="24" viewBox="0 0 24 24" fill="none" xmlns="http://www.w3.org/2000/svg">
<path fill-rule="evenodd" clip-rule="evenodd" d="M1.30448 5.45804C1 6.19312 1 7.125 1 8.98877C1 10.8525 1 11.7844 1.30448 12.5195C1.71046 13.4996 2.48915 14.2783 3.46927 14.6843C4.20435 14.9888 5.13623 14.9888 7 14.9888H17C18.8638 14.9888 19.7956 14.9888 20.5307 14.6843C21.5108 14.2783 22.2895 13.4996 22.6955 12.5195C23 11.7844 23 10.8525 23 8.98877C23 7.125 23 6.19312 22.6955 5.45804C22.2895 4.47792 21.5108 3.69923 20.5307 3.29325C19.7956 2.98877 18.8638 2.98877 17 2.98877H7C5.13623 2.98877 4.20435 2.98877 3.46927 3.29325C2.48915 3.69923 1.71046 4.47792 1.30448 5.45804ZM5 16.9888C2.79086 16.9888 1 18.7796 1 20.9888H23C23 18.7796 21.2091 16.9888 19 16.9888H5Z" fill="#F3F6F8"/>
</svg>
