<svg width="24" height="24" viewBox="0 0 24 24" fill="none" xmlns="http://www.w3.org/2000/svg">
<path d="M5.86523 2.27197C7.81807 1.68274 10.004 2.03318 12.0039 3.50146C14.0015 2.03523 16.1856 1.68443 18.1367 2.271C20.3154 2.92617 22.0313 4.70055 22.7822 6.97314C24.3317 11.6639 21.7952 17.985 12.5088 22.2896L12.0059 22.5229L11.502 22.2905C2.20707 18.0034 -0.332032 11.6793 1.21777 6.98291C1.9687 4.70816 3.68543 2.92992 5.86523 2.27197ZM11.1934 5.93799C9.53448 4.4184 7.87421 4.17286 6.55859 4.56982C5.20278 4.97914 4.02851 6.12508 3.49707 7.73486C2.50272 10.7479 3.76089 15.8897 12.0029 19.8696C20.2406 15.8729 21.4964 10.7337 20.5029 7.72607C19.9721 6.11939 18.7998 4.97711 17.4453 4.56982C16.1309 4.1747 14.4716 4.42044 12.8145 5.93799L12.0039 6.68018L11.1934 5.93799Z" fill="#F3F6F8"/>
</svg>
