<svg width="24" height="24" viewBox="0 0 24 24" fill="none" xmlns="http://www.w3.org/2000/svg">
<g clip-path="url(#clip0_24452_69266)">
<path d="M19.3218 18.9878C19.8681 18.6132 20.6148 18.7522 20.9897 19.2983C21.3646 19.8447 21.2253 20.5913 20.6792 20.9663C19.4926 21.7806 18.1336 22.0835 16.772 22.1577C15.4222 22.2312 13.9741 22.083 12.5698 21.9224C9.66319 21.5899 6.88403 21.2131 4.3501 21.9858C3.71629 22.1789 3.04632 21.8218 2.85303 21.188C2.66006 20.5542 3.01714 19.8832 3.65088 19.6899C6.76347 18.7409 10.1024 19.2252 12.8423 19.5386C14.2614 19.7009 15.5203 19.8223 16.6411 19.7612C17.7498 19.7008 18.6263 19.4651 19.3218 18.9878ZM13.9448 1.35889C14.804 0.499734 16.197 0.499733 17.0562 1.35889L19.6421 3.94482C20.5008 4.804 20.5001 6.19615 19.6411 7.05518L10.6421 16.0562C10.042 16.656 9.22791 16.9927 8.37939 16.9927L5.20752 16.9937L4.0083 16.9927L4.00732 15.7935V12.6216C4.00726 11.7728 4.34464 10.9581 4.94482 10.3579L13.9448 1.35889ZM6.64209 12.0552C6.49207 12.2052 6.40772 12.4094 6.40771 12.6216V14.5923H8.37939C8.59137 14.5923 8.79485 14.5087 8.94482 14.3589L17.8032 5.50049L15.5005 3.19775L6.64209 12.0552Z" fill="#F3F6F8"/>
</g>
<defs>
<clipPath id="clip0_24452_69266">
<rect width="24" height="24" fill="white"/>
</clipPath>
</defs>
</svg>
