<svg width="24" height="24" viewBox="0 0 24 24" fill="none" xmlns="http://www.w3.org/2000/svg">
<path d="M17.7998 10.7886C18.3398 10.7886 18.8174 10.7877 19.2109 10.8198C19.6186 10.8531 20.0419 10.9277 20.4531 11.1372C21.055 11.444 21.5448 11.9337 21.8516 12.5356C22.061 12.9468 22.1356 13.3702 22.1689 13.7778C22.2011 14.1714 22.2002 14.649 22.2002 15.189V17.7886C22.2002 18.3286 22.2011 18.8061 22.1689 19.1997C22.1356 19.6074 22.0611 20.0307 21.8516 20.4419C21.5448 21.0438 21.0551 21.5336 20.4531 21.8403C20.0419 22.0499 19.6186 22.1244 19.2109 22.1577C18.8174 22.1898 18.3398 22.189 17.7998 22.189H15.2002C14.6602 22.189 14.1827 22.1898 13.7891 22.1577C13.3814 22.1244 12.9581 22.0498 12.5469 21.8403C11.9449 21.5336 11.4552 21.0438 11.1484 20.4419C10.9389 20.0307 10.8644 19.6074 10.8311 19.1997C10.7989 18.8061 10.7998 18.3286 10.7998 17.7886V15.189C10.7998 14.649 10.7989 14.1714 10.8311 13.7778C10.8644 13.3701 10.9389 12.9469 11.1484 12.5356C11.4552 11.9336 11.9449 11.444 12.5469 11.1372C12.9581 10.9277 13.3814 10.8531 13.7891 10.8198C14.1827 10.7877 14.6602 10.7886 15.2002 10.7886H17.7998ZM13 1.78857C13.9154 1.78857 14.6624 1.7881 15.2705 1.82959C15.8893 1.87183 16.4522 1.96221 16.9902 2.18506C18.2639 2.71285 19.276 3.72479 19.8037 4.99854C20.0265 5.53654 20.117 6.0995 20.1592 6.71826C20.2007 7.32637 20.2002 8.07341 20.2002 8.98877H17.7998C17.7998 8.0406 17.7993 7.38882 17.7646 6.88135C17.7308 6.3853 17.6684 6.11433 17.5869 5.91748C17.3028 5.23148 16.7573 4.68607 16.0713 4.40186C15.8744 4.32036 15.6035 4.25801 15.1074 4.22412C14.5999 4.1895 13.9482 4.18896 13 4.18896H9.40039C8.2606 4.18896 7.4769 4.19018 6.87012 4.23975C6.27767 4.28818 5.95891 4.37627 5.72852 4.49365C5.20176 4.76208 4.77331 5.19053 4.50488 5.71729C4.38751 5.94768 4.29941 6.26644 4.25098 6.85889C4.20141 7.46567 4.2002 8.24937 4.2002 9.38916V12.9888C4.2002 13.937 4.20073 14.5887 4.23535 15.0962C4.26924 15.5923 4.33159 15.8632 4.41309 16.0601C4.6973 16.746 5.24271 17.2915 5.92871 17.5757C6.12556 17.6571 6.39653 17.7195 6.89258 17.7534C7.40006 17.788 8.05183 17.7886 9 17.7886V20.189C8.08464 20.189 7.3376 20.1894 6.72949 20.1479C6.11073 20.1057 5.54777 20.0153 5.00977 19.7925C3.73602 19.2648 2.72408 18.2527 2.19629 16.979C1.97344 16.441 1.88306 15.878 1.84082 15.2593C1.79933 14.6512 1.7998 13.9041 1.7998 12.9888V9.38916C1.7998 8.28895 1.799 7.39075 1.8584 6.66357C1.91896 5.92255 2.04876 5.25346 2.36719 4.62842C2.86573 3.64998 3.66121 2.8545 4.63965 2.35596C5.26469 2.03753 5.93378 1.90773 6.6748 1.84717C7.40198 1.78777 8.30018 1.78857 9.40039 1.78857H13ZM15.2002 13.189C14.6206 13.189 14.2576 13.1901 13.9844 13.2124C13.7255 13.2336 13.6534 13.2674 13.6367 13.2759C13.4862 13.3526 13.3638 13.475 13.2871 13.6255C13.2786 13.6422 13.2448 13.7142 13.2236 13.9731C13.2013 14.2464 13.2002 14.6094 13.2002 15.189V17.7886C13.2002 18.3682 13.2013 18.7311 13.2236 19.0044C13.2448 19.2635 13.2787 19.3355 13.2871 19.3521C13.3638 19.5024 13.4863 19.625 13.6367 19.7017C13.6537 19.7103 13.7263 19.744 13.9844 19.7651C14.2576 19.7874 14.6206 19.7886 15.2002 19.7886H17.7998C18.3794 19.7886 18.7424 19.7874 19.0156 19.7651C19.2748 19.744 19.3467 19.7101 19.3633 19.7017C19.5137 19.625 19.6362 19.5025 19.7129 19.3521C19.7213 19.3355 19.7552 19.2635 19.7764 19.0044C19.7987 18.7311 19.7998 18.3682 19.7998 17.7886V15.189C19.7998 14.6094 19.7987 14.2464 19.7764 13.9731C19.7553 13.715 19.7215 13.6425 19.7129 13.6255C19.6362 13.4751 19.5137 13.3526 19.3633 13.2759C19.3467 13.2674 19.2747 13.2336 19.0156 13.2124C18.7424 13.1901 18.3794 13.189 17.7998 13.189H15.2002Z" fill="#F3F6F8"/>
</svg>
