<svg width="24" height="24" viewBox="0 0 24 24" fill="none" xmlns="http://www.w3.org/2000/svg">
<g clip-path="url(#clip0_24452_69256)">
<path d="M12 0.799805C18.1855 0.79991 23.2002 5.81448 23.2002 12C23.2001 18.1854 18.1854 23.2001 12 23.2002C5.81448 23.2002 0.79991 18.1855 0.799805 12C0.799805 5.81441 5.81441 0.799805 12 0.799805ZM12 3.2002C7.13989 3.2002 3.2002 7.13989 3.2002 12C3.2003 16.86 7.13996 20.7998 12 20.7998C16.86 20.7997 20.7997 16.86 20.7998 12C20.7998 7.13996 16.86 3.2003 12 3.2002ZM9.5 7.78809C10.1627 7.78809 10.7002 8.32557 10.7002 8.98828V14.9883C10.7002 15.651 10.1627 16.1885 9.5 16.1885C8.83726 16.1885 8.2998 15.651 8.2998 14.9883V8.98828C8.29984 8.32557 8.83728 7.78809 9.5 7.78809ZM14.5 7.78809C15.1627 7.78809 15.7002 8.32557 15.7002 8.98828V14.9883C15.7002 15.651 15.1627 16.1885 14.5 16.1885C13.8373 16.1885 13.2998 15.651 13.2998 14.9883V8.98828C13.2998 8.32557 13.8373 7.78809 14.5 7.78809Z" fill="#F3F6F8"/>
</g>
<defs>
<clipPath id="clip0_24452_69256">
<rect width="24" height="24" fill="white"/>
</clipPath>
</defs>
</svg>
