<svg width="24" height="24" viewBox="0 0 24 24" fill="none" xmlns="http://www.w3.org/2000/svg">
<path d="M12 0.98877C14.9164 0.99202 17.7122 2.15216 19.7744 4.21436C21.8366 6.27655 22.9967 9.07239 23 11.9888C23 11.9998 22.9991 12.0109 22.999 12.022C22.999 12.0303 23 12.0391 23 12.0474C23 12.1031 22.9959 12.1588 22.9951 12.2144C22.9937 12.2857 22.9931 12.357 22.9902 12.4282C22.7892 18.3267 17.9475 23.0474 12 23.0474C5.99323 23.0474 1.114 18.2322 1.00488 12.2515C1.00356 12.1961 1.00146 12.1408 1.00098 12.0854C1.00093 12.0728 1 12.0601 1 12.0474C1 12.0264 1.00086 12.0049 1.00098 11.9839C1.00162 10.5479 1.28206 9.11835 1.83691 7.77881C2.66949 5.76892 4.0798 4.05093 5.88867 2.84229C7.69759 1.63364 9.82445 0.98877 12 0.98877ZM3.28516 9.78857C3.0987 10.5102 3 11.2675 3 12.0474C3.00026 17.0177 7.0296 21.0474 12 21.0474C12.1665 21.0474 12.3318 21.0416 12.4961 21.0327C12.4429 20.3617 12.2108 19.411 12 18.9888C11.2428 17.8632 8.57163 18.4111 8.5 16.9888C8.5 15.9888 9.85449 15.4888 9.85449 14.4888C9.85449 13.5594 4.54472 13.497 3.28516 9.78857ZM11.8945 3.04932C10.2223 3.4312 11.1835 5.50038 9.85449 5.98877C8.42976 6.51179 7.5 3.98877 6 5.48877C4.5 6.98877 7.22684 7.45699 7.5 8.87842C7.72902 10.0712 6.79849 10.9971 7.5 11.9888C8.27017 13.0775 9.54233 12.4311 10.793 12.894C11.8834 13.2977 12.6083 13.3881 13.5 14.1343C14.8003 15.2226 15.5979 16.2959 15.5 17.9888C15.4266 19.2583 14.7402 18.8337 14.0625 20.8052C17.7382 19.9429 20.545 16.8314 20.9482 12.9995C20.6659 13.0381 20.3232 13.0499 20 12.9888C19.0407 12.8072 18.4768 12.3407 18 11.4888C17.247 10.1433 18.3359 8.80107 18.7217 7.60693C18.726 7.58908 18.9919 6.48069 18 5.48877C17.7004 5.18922 17.4298 4.92564 17.1846 4.69189C15.7187 3.65672 13.931 3.04736 12 3.04736C11.9648 3.04736 11.9296 3.04891 11.8945 3.04932Z" fill="#F3F6F8"/>
</svg>
