<svg width="24" height="24" viewBox="0 0 24 24" fill="none" xmlns="http://www.w3.org/2000/svg">
<g clip-path="url(#clip0_24452_29624)">
<path d="M20.6266 3.35174C21.0951 3.82025 21.0948 4.58041 20.6266 5.04907L13.6964 11.9793L20.6259 18.9088C21.0945 19.3774 21.0945 20.1375 20.6259 20.6061C20.1572 21.0744 19.397 21.0746 18.9285 20.6061L11.999 13.6766L5.07021 20.6054C4.60158 21.074 3.84081 21.0747 3.37218 20.6061C2.90376 20.1376 2.90393 19.3774 3.37218 18.9088L10.3017 11.9793L3.37218 5.04976C2.90391 4.58123 2.90398 3.821 3.37218 3.35243C3.84073 2.88388 4.60087 2.88404 5.06952 3.35243L11.999 10.2819L18.9285 3.35243C19.3971 2.88383 20.1579 2.88319 20.6266 3.35174Z" fill="#F3F6F8"/>
</g>
<defs>
<clipPath id="clip0_24452_29624">
<rect width="24" height="24" fill="white"/>
</clipPath>
</defs>
</svg>
