<svg width="24" height="24" viewBox="0 0 24 24" fill="none" xmlns="http://www.w3.org/2000/svg">
<path d="M12.0005 16.9888C13.1049 16.989 14.0005 17.8843 14.0005 18.9888C14.0005 20.0932 13.1049 20.9886 12.0005 20.9888C10.8959 20.9888 10.0005 20.0933 10.0005 18.9888C10.0005 17.8842 10.8959 16.9888 12.0005 16.9888ZM12.0005 10.7886C14.5691 10.7887 17.0329 11.8092 18.8491 13.6255C19.3175 14.0941 19.3175 14.8542 18.8491 15.3228C18.3806 15.7913 17.6205 15.7912 17.1519 15.3228C15.7857 13.9566 13.9325 13.1891 12.0005 13.189C10.0684 13.189 8.21536 13.9566 6.84912 15.3228C6.38056 15.7913 5.62049 15.7912 5.15186 15.3228C4.68324 14.8541 4.68326 14.0941 5.15186 13.6255C6.96818 11.8093 9.43187 10.7886 12.0005 10.7886ZM11.9995 3.78857C16.0684 3.78857 19.9709 5.40559 22.8481 8.28271C23.3165 8.75127 23.3164 9.51043 22.8481 9.979C22.3795 10.4473 21.6194 10.4475 21.1509 9.979C18.7238 7.55213 15.4318 6.18896 11.9995 6.18896C8.56733 6.18908 5.27513 7.55216 2.84814 9.979C2.37949 10.4473 1.6194 10.4475 1.15088 9.979C0.682823 9.51052 0.682923 8.75126 1.15088 8.28271C4.02798 5.40561 7.93069 3.78869 11.9995 3.78857Z" fill="#F3F6F8"/>
</svg>
