<svg width="24" height="24" viewBox="0 0 24 24" fill="none" xmlns="http://www.w3.org/2000/svg">
<path d="M6.7998 12.7886C7.33984 12.7886 7.81733 12.7877 8.21094 12.8198C8.61862 12.8531 9.04188 12.9277 9.45312 13.1372C10.0551 13.444 10.5448 13.9337 10.8516 14.5356C11.0611 14.9469 11.1356 15.3702 11.1689 15.7778C11.2011 16.1714 11.2002 16.649 11.2002 17.189V17.7886C11.2002 18.3286 11.2011 18.8061 11.1689 19.1997C11.1356 19.6074 11.061 20.0307 10.8516 20.4419C10.5448 21.0438 10.0551 21.5336 9.45312 21.8403C9.04189 22.0499 8.61862 22.1244 8.21094 22.1577C7.81733 22.1898 7.33984 22.189 6.7998 22.189H6.2002C5.66015 22.189 5.18268 22.1898 4.78906 22.1577C4.38135 22.1244 3.95815 22.0499 3.54688 21.8403C2.94488 21.5336 2.45521 21.0439 2.14844 20.4419C1.93893 20.0307 1.86436 19.6074 1.83105 19.1997C1.79894 18.8061 1.7998 18.3286 1.7998 17.7886V17.189C1.7998 16.649 1.79892 16.1714 1.83105 15.7778C1.86437 15.3702 1.93892 14.9468 2.14844 14.5356C2.45522 13.9337 2.94494 13.4439 3.54688 13.1372C3.9581 12.9277 4.3814 12.8531 4.78906 12.8198C5.18267 12.7877 5.66017 12.7886 6.2002 12.7886H6.7998ZM21 18.7886C21.6627 18.7886 22.2002 19.326 22.2002 19.9888C22.2002 20.6515 21.6627 21.189 21 21.189H14C13.3373 21.1889 12.7998 20.6515 12.7998 19.9888C12.7998 19.3261 13.3373 18.7886 14 18.7886H21ZM6.2002 15.189C5.62057 15.189 5.25764 15.1901 4.98438 15.2124C4.72587 15.2335 4.65356 15.2673 4.63672 15.2759C4.48628 15.3525 4.36381 15.4751 4.28711 15.6255C4.27868 15.642 4.24482 15.714 4.22363 15.9731C4.20132 16.2464 4.2002 16.6094 4.2002 17.189V17.7886C4.2002 18.3681 4.20134 18.7311 4.22363 19.0044C4.24476 19.263 4.27857 19.3353 4.28711 19.3521C4.3638 19.5025 4.48622 19.625 4.63672 19.7017C4.65327 19.7101 4.72508 19.744 4.98438 19.7651C5.25765 19.7874 5.62055 19.7886 6.2002 19.7886H6.7998C7.37945 19.7886 7.74236 19.7874 8.01562 19.7651C8.27484 19.744 8.34673 19.7101 8.36328 19.7017C8.51371 19.625 8.63622 19.5025 8.71289 19.3521C8.72149 19.3351 8.75527 19.2627 8.77637 19.0044C8.79866 18.7311 8.7998 18.3681 8.7998 17.7886V17.189C8.7998 16.6094 8.79868 16.2464 8.77637 15.9731C8.75518 15.714 8.72132 15.642 8.71289 15.6255C8.63619 15.475 8.51374 15.3526 8.36328 15.2759C8.34671 15.2674 8.27479 15.2336 8.01562 15.2124C7.74236 15.1901 7.37945 15.189 6.7998 15.189H6.2002ZM17.7998 1.78857C18.3399 1.78857 18.8173 1.78769 19.2109 1.81982C19.6186 1.85314 20.0419 1.92766 20.4531 2.13721C21.0551 2.44398 21.5448 2.93367 21.8516 3.53564C22.0611 3.94687 22.1356 4.37017 22.1689 4.77783C22.2011 5.17143 22.2002 5.64898 22.2002 6.18896V12.7886C22.2002 13.3286 22.2011 13.8061 22.1689 14.1997C22.1356 14.6074 22.0611 15.0307 21.8516 15.4419C21.5448 16.0438 21.0551 16.5336 20.4531 16.8403C20.0419 17.0499 19.6186 17.1244 19.2109 17.1577C18.8173 17.1898 18.3399 17.189 17.7998 17.189H17.2002C16.6601 17.189 16.1827 17.1898 15.7891 17.1577C15.3814 17.1244 14.9581 17.0499 14.5469 16.8403C13.9449 16.5336 13.4552 16.0438 13.1484 15.4419C12.9389 15.0307 12.8644 14.6074 12.8311 14.1997C12.7989 13.8061 12.7998 13.3286 12.7998 12.7886V6.18896C12.7998 5.64898 12.7989 5.17143 12.8311 4.77783C12.8644 4.37017 12.9389 3.94687 13.1484 3.53564C13.4552 2.93367 13.9449 2.44398 14.5469 2.13721C14.9581 1.92766 15.3814 1.85314 15.7891 1.81982C16.1827 1.78769 16.6601 1.78857 17.2002 1.78857H17.7998ZM17.2002 4.18896C16.6205 4.18896 16.2577 4.19009 15.9844 4.2124C15.7251 4.23359 15.6533 4.26745 15.6367 4.27588C15.4863 4.35258 15.3638 4.47501 15.2871 4.62549C15.2785 4.64233 15.2448 4.71464 15.2236 4.97314C15.2013 5.2464 15.2002 5.6094 15.2002 6.18896V12.7886C15.2002 13.3682 15.2013 13.7311 15.2236 14.0044C15.2448 14.2635 15.2787 14.3355 15.2871 14.3521C15.3638 14.5025 15.4863 14.625 15.6367 14.7017C15.6534 14.7102 15.7255 14.744 15.9844 14.7651C16.2577 14.7874 16.6205 14.7886 17.2002 14.7886H17.7998C18.3795 14.7886 18.7423 14.7874 19.0156 14.7651C19.2745 14.744 19.3466 14.7102 19.3633 14.7017C19.5137 14.625 19.6362 14.5025 19.7129 14.3521C19.7213 14.3355 19.7552 14.2635 19.7764 14.0044C19.7987 13.7311 19.7998 13.3682 19.7998 12.7886V6.18896C19.7998 5.6094 19.7987 5.2464 19.7764 4.97314C19.7552 4.71464 19.7215 4.64232 19.7129 4.62549C19.6362 4.47501 19.5137 4.35258 19.3633 4.27588C19.3467 4.26745 19.2749 4.23359 19.0156 4.2124C18.7423 4.19009 18.3795 4.18896 17.7998 4.18896H17.2002ZM6.7998 1.78857C7.3398 1.78857 7.81735 1.78769 8.21094 1.81982C8.61859 1.85314 9.04191 1.92768 9.45312 2.13721C10.0551 2.44398 10.5448 2.93368 10.8516 3.53564C11.0611 3.94689 11.1356 4.37015 11.1689 4.77783C11.2011 5.17144 11.2002 5.64893 11.2002 6.18896V6.78857C11.2002 7.32859 11.2011 7.8061 11.1689 8.19971C11.1356 8.60737 11.0611 9.03067 10.8516 9.44189C10.5448 10.0438 10.055 10.5336 9.45312 10.8403C9.04192 11.0499 8.61859 11.1244 8.21094 11.1577C7.81735 11.1898 7.3398 11.189 6.7998 11.189H6.2002C5.6602 11.189 5.18266 11.1898 4.78906 11.1577C4.38139 11.1244 3.95811 11.0498 3.54688 10.8403C2.94487 10.5336 2.45521 10.0439 2.14844 9.44189C1.93889 9.03062 1.86437 8.60742 1.83105 8.19971C1.79893 7.80609 1.7998 7.32861 1.7998 6.78857V6.18896C1.7998 5.64893 1.79892 5.17144 1.83105 4.77783C1.86437 4.37016 1.9389 3.94688 2.14844 3.53564C2.45522 2.93371 2.94492 2.44395 3.54688 2.13721C3.95809 1.92773 4.38141 1.85313 4.78906 1.81982C5.18265 1.78771 5.66021 1.78857 6.2002 1.78857H6.7998ZM6.2002 4.18896C5.62064 4.18896 5.25763 4.19011 4.98438 4.2124C4.72608 4.23351 4.65363 4.26728 4.63672 4.27588C4.48627 4.35255 4.36381 4.47506 4.28711 4.62549C4.27868 4.64204 4.24482 4.71395 4.22363 4.97314C4.20132 5.24641 4.2002 5.60933 4.2002 6.18896V6.78857C4.2002 7.36821 4.20133 7.73113 4.22363 8.00439C4.24482 8.26366 4.27867 8.33549 4.28711 8.35205C4.3638 8.50255 4.48622 8.62497 4.63672 8.70166C4.65348 8.71019 4.72565 8.744 4.98438 8.76514C5.25763 8.78743 5.62063 8.78857 6.2002 8.78857H6.7998C7.37939 8.78857 7.74238 8.78745 8.01562 8.76514C8.27476 8.74395 8.34674 8.71009 8.36328 8.70166C8.51369 8.62496 8.63623 8.50249 8.71289 8.35205C8.72146 8.3352 8.75525 8.26287 8.77637 8.00439C8.79867 7.73113 8.7998 7.36819 8.7998 6.78857V6.18896C8.7998 5.60933 8.79868 5.24641 8.77637 4.97314C8.75518 4.71392 8.72132 4.64204 8.71289 4.62549C8.63622 4.47503 8.51373 4.35258 8.36328 4.27588C8.34673 4.26745 8.27477 4.23359 8.01562 4.2124C7.74238 4.19009 7.37939 4.18897 6.7998 4.18896H6.2002Z" fill="#F3F6F8"/>
</svg>
