<svg width="24" height="24" viewBox="0 0 24 24" fill="none" xmlns="http://www.w3.org/2000/svg">
<path d="M13.1602 11.9929V13.699L13.1689 14.0417C13.1866 14.3833 13.2313 14.7235 13.3018 15.0593L13.3633 15.3503L13.3643 15.3533C13.5373 16.1757 13.8664 16.964 14.3369 17.6794L16.1523 20.4392L15.3174 20.989L14.4814 21.5388L12.666 18.7791L12.665 18.7781C12.0591 17.8565 11.6324 16.8357 11.4072 15.7654L11.4082 15.7644L11.3457 15.4773L11.3447 15.4744C11.2219 14.8902 11.16 14.2951 11.1602 13.699V11.9929H13.1602ZM8.99121 14.8611C9.15527 16.1086 9.62437 17.7697 10.9189 19.9841L9.19238 20.9939C7.77688 18.5727 7.21095 16.659 7.00879 15.1218L8 14.991L8.99121 14.8611ZM8.94043 8.05835C9.96902 7.28226 11.2598 6.9094 12.5547 7.00366C13.8498 7.09807 15.0703 7.6543 15.9668 8.57495C16.8643 9.49682 17.3706 10.7169 17.3691 11.9929L17.375 12.2117C17.4019 12.773 17.5289 13.6772 17.8467 14.657C18.2097 15.7762 18.7966 16.9182 19.6885 17.7654L18.3115 19.2146C17.0992 18.0629 16.3705 16.587 15.9443 15.2732C15.5186 13.9604 15.3692 12.7321 15.3691 11.9929V11.991C15.3701 11.2509 15.0777 10.5277 14.5342 9.96948C13.9892 9.40983 13.2315 9.0578 12.4102 8.9978C11.5884 8.93794 10.7792 9.17691 10.1455 9.65503C9.51314 10.1322 9.1054 10.8085 8.9873 11.5417L7.0127 11.2234C7.21573 9.96328 7.91056 8.83546 8.94043 8.05835ZM11.999 2.98901C13.586 2.98896 15.1438 3.42189 16.5137 4.24194L15.4863 5.95874C14.4239 5.32272 13.2215 4.98905 12 4.98901C10.7783 4.98908 9.57519 5.32252 8.5127 5.95874C7.45011 6.59507 6.56359 7.51313 5.94531 8.62378C5.3269 9.73489 4.99972 10.9984 5 12.2859L5.00781 13.5281C5.03085 14.8308 5.12048 16.2979 5.47168 17.7546L3.52832 18.2234C2.9967 16.0184 3 13.8311 3 12.2859C2.99972 10.6611 3.41176 9.06244 4.19727 7.65112C4.98295 6.23961 6.11588 5.063 7.48535 4.24292C8.8551 3.42271 10.4121 2.98919 11.999 2.98901ZM19.3223 6.87866C20.3799 8.40411 21 10.2743 21 12.2859C21 13.5528 21.407 14.4581 21.9004 15.4812L21 15.9148L20.0996 16.3494C19.593 15.2988 19 14.0403 19 12.2859C19 10.6894 18.5078 9.21559 17.6777 8.01831L18.5 7.44897L19.3223 6.87866Z" fill="#F3F6F8"/>
</svg>
