<svg width="24" height="24" viewBox="0 0 24 24" fill="none" xmlns="http://www.w3.org/2000/svg">
<g clip-path="url(#clip0_24512_6227)">
<path d="M12 0.799805C18.1856 0.799805 23.2002 5.81441 23.2002 12C23.2002 15.5584 21.5385 18.7267 18.9512 20.7783H21C21.6627 20.7783 22.2002 21.3158 22.2002 21.9785C22.2002 22.6413 21.6627 23.1787 21 23.1787H12.667C12.4463 23.1917 12.224 23.2002 12 23.2002C5.81441 23.2002 0.799805 18.1856 0.799805 12C0.799805 5.81441 5.81441 0.799805 12 0.799805ZM12 3.2002C7.13989 3.2002 3.2002 7.13989 3.2002 12C3.2002 16.7958 7.03639 20.6916 11.8076 20.7939C11.8703 20.7838 11.9345 20.7783 12 20.7783H12.5811C17.1702 20.4791 20.7998 16.6648 20.7998 12C20.7998 7.13989 16.8601 3.2002 12 3.2002ZM12 14.5C13.1046 14.5 14 15.3954 14 16.5C14 17.6046 13.1046 18.5 12 18.5C10.8954 18.5 10 17.6046 10 16.5C10 15.3954 10.8954 14.5 12 14.5ZM7.5 10C8.60457 10 9.5 10.8954 9.5 12C9.5 13.1046 8.60457 14 7.5 14C6.39543 14 5.5 13.1046 5.5 12C5.5 10.8954 6.39543 10 7.5 10ZM16.5 10C17.6046 10 18.5 10.8954 18.5 12C18.5 13.1046 17.6046 14 16.5 14C15.3954 14 14.5 13.1046 14.5 12C14.5 10.8954 15.3954 10 16.5 10ZM12 5.5C13.1046 5.5 14 6.39543 14 7.5C14 8.60457 13.1046 9.5 12 9.5C10.8954 9.5 10 8.60457 10 7.5C10 6.39543 10.8954 5.5 12 5.5Z" fill="#F3F6F8"/>
</g>
<defs>
<clipPath id="clip0_24512_6227">
<rect width="24" height="24" fill="white"/>
</clipPath>
</defs>
</svg>
