<svg width="24" height="24" viewBox="0 0 24 24" fill="none" xmlns="http://www.w3.org/2000/svg">
<path d="M19 14.7773C19.6626 14.7775 20.2002 15.3149 20.2002 15.9775V17.7773H22C22.6626 17.7775 23.2002 18.3149 23.2002 18.9775C23.2001 19.6401 22.6626 20.1776 22 20.1777H20.2002V21.9775C20.2 22.64 19.6625 23.1776 19 23.1777C18.3374 23.1777 17.8 22.6401 17.7998 21.9775V20.1777H16C15.3374 20.1777 14.7999 19.6401 14.7998 18.9775C14.7998 18.3148 15.3373 17.7774 16 17.7773H17.7998V15.9775C17.7998 15.3148 18.3373 14.7774 19 14.7773ZM11 17.7773C11.6627 17.7774 12.2002 18.3149 12.2002 18.9775C12.2001 19.6401 11.6626 20.1776 11 20.1777H3C2.33732 20.1777 1.79991 19.6402 1.7998 18.9775C1.7998 18.3148 2.33726 17.7773 3 17.7773H11ZM21 10.7773C21.6627 10.7774 22.2002 11.3149 22.2002 11.9775C22.2001 12.6401 21.6626 13.1776 21 13.1777H3C2.33732 13.1777 1.79991 12.6402 1.7998 11.9775C1.7998 11.3148 2.33726 10.7773 3 10.7773H21ZM21 3.77734C21.6627 3.77745 22.2002 4.31486 22.2002 4.97754C22.2001 5.64013 21.6626 6.17763 21 6.17773H3C2.33732 6.17773 1.79991 5.64019 1.7998 4.97754C1.7998 4.3148 2.33726 3.77734 3 3.77734H21Z" fill="#F3F6F8"/>
</svg>
