<svg width="24" height="24" viewBox="0 0 24 24" fill="none" xmlns="http://www.w3.org/2000/svg">
<g clip-path="url(#clip0_24452_69110)">
<path d="M12 0.799805C13.1941 0.799825 14.3475 0.987233 15.4297 1.33496C16.0602 1.53794 16.4077 2.21398 16.2051 2.84473C16.0023 3.47545 15.3261 3.82249 14.6953 3.62012C13.8475 3.34771 12.9419 3.20022 12 3.2002C7.13989 3.2002 3.2002 7.13989 3.2002 12C3.20029 16.5622 6.67276 20.3153 11.1182 20.7568C11.7776 20.8224 12.2598 21.4099 12.1943 22.0693C12.1287 22.7285 11.541 23.2097 10.8818 23.1445C5.2209 22.5825 0.799904 17.8082 0.799805 12C0.799805 5.81441 5.81441 0.799805 12 0.799805ZM15.79 16.7588C16.2819 16.7588 16.7019 16.8391 17.0498 17.001C17.4038 17.157 17.6744 17.3762 17.8604 17.6582C18.0523 17.9402 18.1484 18.2677 18.1484 18.6396C18.1484 19.0115 18.0485 19.3625 17.8506 19.6924C17.6526 20.0163 17.3502 20.3766 16.9424 20.7725C16.8104 20.8985 16.6779 21.0272 16.5459 21.1592C16.414 21.291 16.2823 21.42 16.1504 21.5459H18.1035V22.9775H14.0801V21.5459C14.3199 21.318 14.56 21.0874 14.7998 20.8535C15.0398 20.6135 15.2805 20.3794 15.5205 20.1514C15.7964 19.8815 16.0064 19.6649 16.1504 19.5029C16.2942 19.3351 16.3933 19.194 16.4473 19.0801C16.5071 18.9663 16.5371 18.8615 16.5371 18.7656C16.5371 18.5677 16.4231 18.4268 16.1953 18.3428C15.9674 18.2528 15.6733 18.2258 15.3135 18.2617C14.9535 18.2977 14.5691 18.3966 14.1611 18.5586V17.0557C14.7611 16.8577 15.304 16.7588 15.79 16.7588ZM20.5879 18.873C20.7018 19.0529 20.813 19.2332 20.9209 19.4131C21.0349 19.2331 21.1497 19.053 21.2637 18.873C21.3776 18.6872 21.4916 18.5041 21.6055 18.3242H23.2432C23.0092 18.6902 22.7694 19.0596 22.5234 19.4316C22.2836 19.8034 22.0464 20.1751 21.8125 20.5469C22.0585 20.9489 22.3076 21.3547 22.5596 21.7627C22.8115 22.1706 23.057 22.5757 23.2969 22.9775H21.6416C21.5216 22.7735 21.3985 22.5692 21.2725 22.3652C21.1525 22.1552 21.0321 21.9481 20.9121 21.7441C20.7921 21.9481 20.6662 22.1553 20.5342 22.3652C20.4082 22.5692 20.285 22.7735 20.165 22.9775H18.5273C18.7733 22.5875 19.0224 22.1911 19.2744 21.7891C19.5263 21.3812 19.7756 20.9826 20.0215 20.5928C19.7875 20.2208 19.5505 19.842 19.3105 19.458C19.0706 19.0741 18.8336 18.6962 18.5996 18.3242H20.2549C20.3628 18.5041 20.474 18.6872 20.5879 18.873ZM21.1729 7.83398C21.8046 7.63399 22.4786 7.98354 22.6787 8.61523C23.0173 9.68454 23.2002 10.8223 23.2002 12C23.2002 13.1778 23.0174 14.3155 22.6787 15.3848C22.4785 16.0163 21.8045 16.3659 21.1729 16.166C20.5412 15.9659 20.1907 15.2919 20.3906 14.6602C20.6559 13.8225 20.7998 12.929 20.7998 12C20.7998 11.071 20.6559 10.1775 20.3906 9.33984C20.1906 8.7081 20.5411 8.0341 21.1729 7.83398ZM20.3008 3.24414C20.3008 3.24414 14.1095 11.7683 13.4062 12.4717C12.7034 13.1745 11.6112 13.2221 10.9668 12.5781C10.3224 11.9338 10.3693 10.8406 11.0723 10.1377C11.7757 9.43443 20.3008 3.24414 20.3008 3.24414Z" fill="#F3F6F8"/>
</g>
<defs>
<clipPath id="clip0_24452_69110">
<rect width="24" height="24" fill="white"/>
</clipPath>
</defs>
</svg>
