<svg width="24" height="24" viewBox="0 0 24 24" fill="none" xmlns="http://www.w3.org/2000/svg">
<path d="M10.7417 3.98877C13.5761 3.98888 16.416 5.853 17.9146 8.37744L19.2241 8.24756C21.1077 8.05939 22.7425 9.53822 22.7427 11.4312V12.5005C22.7424 13.6047 21.8469 14.5003 20.7427 14.5005H18.3433C18.1517 14.79 17.9232 15.0468 17.6616 15.2749L18.064 16.2124C18.629 17.5319 17.6615 19.0002 16.2261 19.0005H14.1528C13.438 19.0005 12.8226 18.4953 12.6821 17.7944L12.5063 16.9175C11.8328 16.9673 11.1463 16.9888 10.4673 16.9888L9.70361 16.98C9.62452 16.9781 9.54563 16.9728 9.46729 16.9702L9.30322 17.7944C9.16287 18.4952 8.54724 19.0003 7.83252 19.0005H5.75928C4.32355 19.0005 3.35604 17.5321 3.92139 16.2124L4.24072 15.4653C3.66597 14.9279 3.26793 14.21 3.09619 13.2554C2.9627 13.1735 2.8435 13.0915 2.74268 13.0181C2.30876 12.7021 1.951 12.3533 1.79346 12.1958C1.31408 11.7164 0.565985 10.997 0.504395 9.66748C0.4708 8.93654 1.12153 8.43183 1.77295 8.53467L1.90283 8.56396L3.64014 9.06006C4.85623 6.19654 7.65742 3.98899 10.7417 3.98877ZM5.75928 17.0005H7.42236L7.46143 16.8013C6.93703 16.7207 6.44462 16.6081 5.9917 16.4565L5.75928 17.0005ZM15.9116 16.2671C15.4681 16.4294 14.9925 16.5584 14.4946 16.6587L14.563 17.0005H16.2261L15.9116 16.2671ZM10.7417 6.38916C8.07956 6.38947 5.40088 9.11989 5.40088 12.1187C5.40092 12.8448 5.54439 13.2342 5.66455 13.4419C5.77723 13.6365 5.9523 13.8169 6.28467 13.9878C7.07645 14.3947 8.42172 14.5884 10.4673 14.5884C12.4836 14.5884 14.1947 14.4064 15.3335 13.9175C15.8638 13.6898 16.1512 13.4439 16.3101 13.2271C16.4515 13.0338 16.6 12.7177 16.6001 12.1187C16.6001 10.8112 15.9366 9.36692 14.7427 8.20361C13.5473 7.03896 12.0573 6.38924 10.7417 6.38916ZM19.4233 10.2378L18.7446 10.3052C18.9094 10.8969 19.0005 11.505 19.0005 12.1187L18.9878 12.5005H20.7427V11.4312C20.7425 10.7215 20.1295 10.1674 19.4233 10.2378Z" fill="#F3F6F8"/>
</svg>
