<svg width="24" height="24" viewBox="0 0 24 24" fill="none" xmlns="http://www.w3.org/2000/svg">
<g clip-path="url(#clip0_24452_69236)">
<path d="M9.16592 21.8347L4.87448 17.5134C4.00591 16.6388 4.0854 15.2047 5.04531 14.4314C5.60506 13.9805 6.40559 13.9885 6.9562 14.4506L8.95323 16.1263C9.09809 16.2479 9.31897 16.1449 9.31897 15.9558V8.9198C9.31897 7.85332 10.1835 6.98877 11.25 6.98877C12.3165 6.98877 13.181 7.85332 13.181 8.9198V11.825C13.181 11.9203 13.2482 12.0023 13.3415 12.0211L15.4396 12.4436C15.7677 12.5097 16.074 12.6571 16.3304 12.8722L18.2105 14.4498C18.8381 14.9764 19.081 15.8326 18.8235 16.6104L17.4971 20.6173C17.2261 21.436 16.4608 21.9888 15.5984 21.9888H9.53616C9.39715 21.9888 9.26388 21.9333 9.16592 21.8347Z" stroke="#F3F6F8" stroke-width="2.4"/>
<path d="M17.25 7.98877C17.25 4.67506 14.5637 1.98877 11.25 1.98877C7.93629 1.98877 5.25 4.67506 5.25 7.98877" stroke="#F3F6F8" stroke-width="2.4" stroke-linecap="round"/>
</g>
<defs>
<clipPath id="clip0_24452_69236">
<rect width="24" height="24" fill="white"/>
</clipPath>
</defs>
</svg>
