<svg width="24" height="24" viewBox="0 0 24 24" fill="none" xmlns="http://www.w3.org/2000/svg">
<g clip-path="url(#clip0_24452_69100)">
<path d="M12 2.77734C17.6333 2.77736 22.2002 7.34427 22.2002 12.9775C22.2002 18.6108 17.6333 23.1777 12 23.1777C6.3667 23.1777 1.7998 18.6108 1.7998 12.9775C1.79984 7.34426 6.36671 2.77734 12 2.77734ZM12 5.17773C7.6922 5.17773 4.20023 8.66974 4.2002 12.9775C4.2002 17.2854 7.69218 20.7773 12 20.7773C16.3078 20.7773 19.7998 17.2854 19.7998 12.9775C19.7998 8.66975 16.3078 5.17775 12 5.17773ZM12 7.77734C12.6627 7.77738 13.2001 8.31487 13.2002 8.97754V12.4805L15.6787 14.959C16.1472 15.4276 16.1472 16.1876 15.6787 16.6562C15.2101 17.1249 14.4501 17.1248 13.9814 16.6562L11.1514 13.8262C10.9263 13.6011 10.7998 13.2958 10.7998 12.9775V8.97754C10.7999 8.31485 11.3373 7.77734 12 7.77734ZM5.08398 1.11035C5.55261 0.641722 6.31262 0.641722 6.78125 1.11035C7.24987 1.57898 7.24988 2.33899 6.78125 2.80762L3.24609 6.34277C2.77747 6.8114 2.01746 6.8114 1.54883 6.34277C1.0802 5.87414 1.0802 5.11414 1.54883 4.64551L5.08398 1.11035ZM17.2158 1.11035C17.6844 0.641722 18.4445 0.641722 18.9131 1.11035L22.4482 4.64551C22.9169 5.11414 22.9169 5.87414 22.4482 6.34277C21.9796 6.81132 21.2196 6.81137 20.751 6.34277L17.2158 2.80762C16.7472 2.33902 16.7473 1.57899 17.2158 1.11035Z" fill="#F3F6F8"/>
</g>
<defs>
<clipPath id="clip0_24452_69100">
<rect width="24" height="24" fill="white"/>
</clipPath>
</defs>
</svg>
