<svg width="24" height="24" viewBox="0 0 24 24" fill="none" xmlns="http://www.w3.org/2000/svg">
<g clip-path="url(#clip0_24452_69164)">
<path d="M10.1445 1.13599C11.2135 0.22505 12.7865 0.225041 13.8555 1.13599L15.6475 2.66333C15.7531 2.75332 15.8851 2.80756 16.0234 2.8186L18.3701 3.0061C19.77 3.11791 20.8824 4.23019 20.9941 5.63013L21.1816 7.97681C21.1927 8.11518 21.2469 8.24712 21.3369 8.35278L22.8643 10.1448C23.775 11.2137 23.7752 12.7868 22.8643 13.8557L21.3369 15.6477C21.2468 15.7534 21.1927 15.8852 21.1816 16.0237L20.9941 18.3704C20.8824 19.7702 19.77 20.8826 18.3701 20.9944L16.0234 21.1819C15.885 21.1929 15.7532 21.2471 15.6475 21.3372L13.8555 22.8645C12.7866 23.7754 11.2135 23.7753 10.1445 22.8645L8.35254 21.3372C8.24688 21.2471 8.11494 21.193 7.97656 21.1819L5.62988 20.9944C4.22995 20.8827 3.11767 19.7703 3.00586 18.3704L2.81836 16.0237C2.80732 15.8853 2.75307 15.7534 2.66309 15.6477L1.13574 13.8557C0.224797 12.7868 0.224805 11.2137 1.13574 10.1448L2.66309 8.35278C2.75313 8.24712 2.80728 8.11519 2.81836 7.97681L3.00586 5.63013C3.11758 4.23013 4.22988 3.11782 5.62988 3.0061L7.97656 2.8186C8.11495 2.80753 8.24687 2.75338 8.35254 2.66333L10.1445 1.13599ZM12.4277 2.81079C12.1811 2.60058 11.8189 2.60058 11.5723 2.81079L9.7793 4.33813C9.32142 4.72823 8.75195 4.964 8.15234 5.01196L5.80469 5.19946C5.48161 5.22524 5.225 5.48185 5.19922 5.80493L5.01172 8.15259C4.96376 8.7522 4.72799 9.32166 4.33789 9.77954L2.81055 11.5725C2.60034 11.8192 2.60033 12.1813 2.81055 12.428L4.33789 14.2209C4.72793 14.6788 4.96379 15.2483 5.01172 15.8479L5.19922 18.1956C5.22509 18.5185 5.48167 18.7752 5.80469 18.801L8.15234 18.9885C8.75194 19.0365 9.32142 19.2723 9.7793 19.6624L11.5723 21.1897C11.8189 21.3998 12.1811 21.3999 12.4277 21.1897L14.2207 19.6624C14.6786 19.2722 15.248 19.0365 15.8477 18.9885L18.1953 18.801C18.5183 18.7752 18.7749 18.5185 18.8008 18.1956L18.9883 15.8479C19.0362 15.2482 19.272 14.6789 19.6621 14.2209L21.1895 12.428C21.3996 12.1814 21.3995 11.8192 21.1895 11.5725L19.6621 9.77954C19.272 9.32167 19.0363 8.75218 18.9883 8.15259L18.8008 5.80493C18.775 5.48192 18.5183 5.22533 18.1953 5.19946L15.8477 5.01196C15.2481 4.96404 14.6786 4.72817 14.2207 4.33813L12.4277 2.81079ZM15.1514 8.65161C15.62 8.18298 16.38 8.18298 16.8486 8.65161C17.3171 9.12025 17.3172 9.88031 16.8486 10.3489L11.8486 15.3489C11.3801 15.8174 10.62 15.8173 10.1514 15.3489L7.15137 12.3489C6.68274 11.8802 6.68274 11.1202 7.15137 10.6516C7.62 10.183 8.38 10.183 8.84863 10.6516L11 12.803L15.1514 8.65161Z" fill="#F3F6F8"/>
</g>
<defs>
<clipPath id="clip0_24452_69164">
<rect width="24" height="24" fill="white"/>
</clipPath>
</defs>
</svg>
