<svg width="24" height="24" viewBox="0 0 24 24" fill="none" xmlns="http://www.w3.org/2000/svg">
<path d="M15.7998 4.98877C16.3434 4.98877 16.8116 4.9877 17.1953 5.01904C17.5906 5.05135 17.984 5.12317 18.3623 5.31592C18.9265 5.60349 19.3853 6.06224 19.6729 6.62646C19.8656 7.00476 19.9374 7.3982 19.9697 7.79346C20.0011 8.17713 20 8.64541 20 9.18896V9.98877H22V13.9888H20V14.7886C20 15.3321 20.0011 15.8004 19.9697 16.1841C19.9374 16.5793 19.8656 16.9728 19.6729 17.3511C19.3853 17.9153 18.9265 18.374 18.3623 18.6616C17.984 18.8544 17.5906 18.9262 17.1953 18.9585C16.8116 18.9898 16.3434 18.9888 15.7998 18.9888H6.2002C5.65664 18.9888 5.18836 18.9898 4.80469 18.9585C4.40943 18.9262 4.01599 18.8544 3.6377 18.6616C3.07347 18.374 2.61472 17.9153 2.32715 17.3511C2.1344 16.9728 2.06258 16.5793 2.03027 16.1841C1.99893 15.8004 2 15.3321 2 14.7886V9.18896C2 8.64541 1.99893 8.17713 2.03027 7.79346C2.06258 7.3982 2.1344 7.00476 2.32715 6.62646C2.61472 6.06224 3.07347 5.60349 3.6377 5.31592C4.01599 5.12317 4.40943 5.05135 4.80469 5.01904C5.18836 4.9877 5.65664 4.98877 6.2002 4.98877H15.7998ZM6.2002 6.98877C5.62364 6.98877 5.25111 6.99003 4.96777 7.01318C4.69619 7.03538 4.59534 7.07295 4.5459 7.09814C4.35793 7.19398 4.20521 7.3467 4.10938 7.53467C4.08419 7.58411 4.04661 7.68496 4.02441 7.95654C4.00126 8.23988 4 8.61241 4 9.18896V14.7886C4 15.3651 4.00126 15.7377 4.02441 16.021C4.04661 16.2926 4.08419 16.3934 4.10938 16.4429C4.20521 16.6308 4.35793 16.7836 4.5459 16.8794C4.59534 16.9046 4.69619 16.9422 4.96777 16.9644C5.25111 16.9875 5.62364 16.9888 6.2002 16.9888H15.7998C16.3764 16.9888 16.7489 16.9875 17.0322 16.9644C17.3038 16.9422 17.4047 16.9046 17.4541 16.8794C17.6421 16.7836 17.7948 16.6308 17.8906 16.4429C17.9158 16.3934 17.9534 16.2926 17.9756 16.021C17.9987 15.7377 18 15.3651 18 14.7886V9.18896C18 8.61241 17.9987 8.23988 17.9756 7.95654C17.9534 7.68496 17.9158 7.58411 17.8906 7.53467C17.7948 7.3467 17.6421 7.19398 17.4541 7.09814C17.4047 7.07295 17.3038 7.03538 17.0322 7.01318C16.7489 6.99003 16.3764 6.98877 15.7998 6.98877H6.2002ZM6.48535 15.9878C6.00069 15.9873 5.74469 15.9807 5.5459 15.8794C5.35793 15.7836 5.20521 15.6308 5.10938 15.4429C5.00041 15.229 5 14.9489 5 14.3892V9.58838C5 9.02859 5.00041 8.74853 5.10938 8.53467C5.20522 8.3467 5.35793 8.19398 5.5459 8.09814C5.75976 7.98918 6.03982 7.98877 6.59961 7.98877H11.1045L6.48535 15.9878Z" fill="#F3F6F8"/>
</svg>
