<svg width="24" height="24" viewBox="0 0 24 24" fill="none" xmlns="http://www.w3.org/2000/svg">
<g clip-path="url(#clip0_24452_69275)">
<path d="M12 0.799805C18.1855 0.799937 23.2002 5.81449 23.2002 12C23.2002 18.1855 18.1855 23.2001 12 23.2002C5.81441 23.2002 0.799805 18.1856 0.799805 12C0.799805 5.81441 5.81441 0.799805 12 0.799805ZM12 3.2002C10.0085 3.2002 8.17195 3.86226 6.69727 4.97754L8.07031 6.35059C8.53857 6.8192 8.53871 7.57932 8.07031 8.04785C7.60168 8.51648 6.8407 8.51648 6.37207 8.04785L4.99707 6.67188C3.87008 8.15086 3.2002 9.99699 3.2002 12C3.2002 16.8601 7.13989 20.7998 12 20.7998C13.9999 20.7998 15.8425 20.1307 17.3203 19.0068L16.1514 17.8379C15.6827 17.3693 15.6827 16.6083 16.1514 16.1396C16.62 15.6714 17.3801 15.6713 17.8486 16.1396L19.0166 17.3076C20.1346 15.8319 20.7998 13.9942 20.7998 12C20.7998 7.13998 16.86 3.20033 12 3.2002ZM9.21973 8.32227C9.35834 8.32227 9.48261 8.40831 9.53125 8.53809L12.0244 15.207C12.1052 15.4241 11.9445 15.6551 11.7129 15.6553H11.1133C10.9713 15.6551 10.8448 15.565 10.7988 15.4307L10.3662 14.1631C10.3202 14.0286 10.1929 13.9385 10.0508 13.9385H7.71777C7.57558 13.9385 7.44928 14.0285 7.40332 14.1631L6.9707 15.4307C6.92471 15.5651 6.79834 15.6552 6.65625 15.6553H6.06152C5.82993 15.6551 5.66924 15.4241 5.75 15.207L8.2334 8.53906C8.28181 8.40907 8.40623 8.32243 8.54492 8.32227H9.21973ZM15.1572 8.32227C15.6389 8.32227 16.0789 8.40487 16.4775 8.56934C16.8762 8.73051 17.2207 8.96398 17.5098 9.26953C17.802 9.57502 18.0265 9.94091 18.1826 10.3672C18.3387 10.7936 18.417 11.2708 18.417 11.7979V12.1855C18.417 12.7124 18.3386 13.189 18.1826 13.6152C18.0265 14.0417 17.8021 14.4083 17.5098 14.7139C17.2174 15.0161 16.8682 15.2495 16.4629 15.4141C16.0609 15.5752 15.6106 15.6553 15.1123 15.6553H13.3369C13.1534 15.6553 13.004 15.5067 13.0039 15.3232V8.6543C13.0041 8.47088 13.1534 8.32227 13.3369 8.32227H15.1572ZM14.5879 9.3291C14.4043 9.3291 14.2549 9.4785 14.2549 9.66211V14.3203C14.2549 14.5039 14.4043 14.6533 14.5879 14.6533H15.1123C15.5606 14.6533 15.936 14.5544 16.2383 14.3564C16.544 14.1583 16.7739 13.8742 16.9268 13.5049C17.0829 13.1356 17.1611 12.6958 17.1611 12.1855V11.7871C17.1611 11.391 17.1161 11.0398 17.0264 10.7344C16.94 10.429 16.8104 10.172 16.6377 9.96387C16.4684 9.75584 16.2587 9.59865 16.0098 9.49121C15.7639 9.38377 15.4795 9.32911 15.1572 9.3291H14.5879ZM7.82129 12.9355H9.94629L8.88281 9.8252L7.82129 12.9355Z" fill="#F3F6F8"/>
</g>
<defs>
<clipPath id="clip0_24452_69275">
<rect width="24" height="24" fill="white"/>
</clipPath>
</defs>
</svg>
