<svg width="24" height="24" viewBox="0 0 24 24" fill="none" xmlns="http://www.w3.org/2000/svg">
<g clip-path="url(#clip0_24452_69128)">
<path d="M11 1.80005C11.6627 1.80015 12.2002 2.33757 12.2002 3.00024C12.2 3.66279 11.6626 4.20033 11 4.20044C9.6355 4.20044 8.74873 4.63108 7.68457 5.54321C6.70567 6.38234 6.20024 7.4772 6.2002 8.57153V13.0002C6.2001 13.6618 5.86836 14.1629 5.61719 14.4709C5.3698 14.7743 5.04007 15.0748 4.83105 15.2756C4.2838 15.8016 4.2002 16 4.2002 16.1252C4.20023 16.3336 4.23718 16.454 4.26562 16.5168C4.2924 16.5758 4.32478 16.6139 4.36426 16.6448C4.45844 16.718 4.66336 16.8 5 16.8H18C18.4545 16.8 18.6267 16.7034 18.6729 16.6653C18.6789 16.661 18.7998 16.5754 18.7998 16.1252C18.7998 16 18.716 15.8014 18.1689 15.2756C17.96 15.0748 17.6302 14.7743 17.3828 14.4709C17.1316 14.1629 16.7999 13.6618 16.7998 13.0002C16.7998 12.3375 17.3373 11.8 18 11.8C18.6241 11.8001 19.1358 12.277 19.1934 12.886C19.204 12.9017 19.2186 12.9254 19.2422 12.9543C19.3697 13.1107 19.5404 13.2659 19.8311 13.5452C20.2837 13.9801 21.2002 14.8445 21.2002 16.1252C21.2001 17.0721 20.9089 17.9303 20.2021 18.5149C19.54 19.0625 18.7118 19.2004 18 19.2004H16.4492C16.3903 19.616 16.2805 20.0238 16.1191 20.4133C15.8679 21.0199 15.4994 21.5711 15.0352 22.0354C14.5709 22.4997 14.0197 22.8681 13.4131 23.1194C12.8066 23.3706 12.1565 23.5002 11.5 23.5002C10.8436 23.5002 10.1934 23.3705 9.58691 23.1194C8.98038 22.8682 8.42909 22.4996 7.96484 22.0354C7.50062 21.5712 7.13213 21.0199 6.88086 20.4133C6.71952 20.0238 6.60872 19.616 6.5498 19.2004H5C4.33759 19.2004 3.54184 19.0478 2.88574 18.5354C2.18074 17.9844 1.79988 17.1446 1.7998 16.1252C1.7998 14.8443 2.71641 13.98 3.16895 13.5452C3.4597 13.2658 3.63026 13.1108 3.75781 12.9543C3.77724 12.9305 3.7894 12.9096 3.7998 12.8948V8.57153C3.79985 6.71076 4.66417 4.97143 6.12305 3.72095C7.49683 2.54345 8.91675 1.80005 11 1.80005ZM8.58594 19.2004C8.62256 19.3528 8.6683 19.5033 8.72852 19.6487C8.87927 20.0124 9.10049 20.3429 9.37891 20.6213C9.65734 20.8997 9.98783 21.121 10.3516 21.2717C10.7155 21.4224 11.1061 21.5002 11.5 21.5002C11.8939 21.5002 12.2845 21.4225 12.6484 21.2717C13.0122 21.121 13.3427 20.8998 13.6211 20.6213C13.8995 20.3429 14.1207 20.0125 14.2715 19.6487C14.3317 19.5034 14.3765 19.3528 14.4131 19.2004H8.58594ZM18.5 0.800049C21.0956 0.800181 23.2002 2.90459 23.2002 5.50024C23.2001 8.09579 21.0955 10.2003 18.5 10.2004C15.9043 10.2004 13.7999 8.09587 13.7998 5.50024C13.7998 2.90451 15.9043 0.800049 18.5 0.800049ZM18.5 3.20044C17.2297 3.20044 16.2002 4.22999 16.2002 5.50024C16.2003 6.77039 17.2298 7.80005 18.5 7.80005C19.7701 7.79992 20.7997 6.77031 20.7998 5.50024C20.7998 4.23007 19.7701 3.20057 18.5 3.20044Z" fill="#F3F6F8"/>
</g>
<defs>
<clipPath id="clip0_24452_69128">
<rect width="24" height="24" fill="white"/>
</clipPath>
</defs>
</svg>
