<svg width="24" height="24" viewBox="0 0 24 24" fill="none" xmlns="http://www.w3.org/2000/svg">
<g clip-path="url(#clip0_24452_29145)">
<path d="M11.9014 0.788818C15.3255 0.788818 18.1016 3.56485 18.1016 6.98901V9.23413C19.3226 9.77385 20.2915 10.7625 20.8037 11.9988C21.0265 12.5368 21.117 13.0997 21.1592 13.7185C21.2007 14.3266 21.2002 15.0736 21.2002 15.989C21.2002 16.9044 21.2007 17.6514 21.1592 18.2595C21.1169 18.8783 21.0266 19.4412 20.8037 19.9792C20.276 21.253 19.264 22.265 17.9902 22.7927C17.4522 23.0156 16.8893 23.106 16.2705 23.1482C15.6624 23.1897 14.9154 23.1892 14 23.1892H10C9.08464 23.1892 8.3376 23.1897 7.72949 23.1482C7.11073 23.106 6.54777 23.0155 6.00977 22.7927C4.73601 22.265 3.72407 21.253 3.19629 19.9792C2.97343 19.4412 2.88306 18.8783 2.84082 18.2595C2.79933 17.6514 2.7998 16.9044 2.7998 15.989C2.7998 15.0736 2.79934 14.3266 2.84082 13.7185C2.88305 13.0997 2.97343 12.5368 3.19629 11.9988C3.68065 10.8297 4.57302 9.88199 5.70117 9.32593V6.98901C5.70117 3.56489 8.47726 0.788883 11.9014 0.788818ZM10 11.1892C9.05181 11.1892 8.40006 11.1898 7.89258 11.2244C7.39643 11.2582 7.12557 11.3206 6.92871 11.4021C6.24263 11.6863 5.69727 12.2316 5.41309 12.9177C5.33159 13.1146 5.26923 13.3854 5.23535 13.8816C5.20073 14.3891 5.2002 15.0408 5.2002 15.989C5.2002 16.9372 5.20073 17.589 5.23535 18.0964C5.26924 18.5926 5.33158 18.8635 5.41309 19.0603C5.69729 19.7463 6.2427 20.2918 6.92871 20.5759C7.12556 20.6574 7.39652 20.7198 7.89258 20.7537C8.40006 20.7883 9.05183 20.7888 10 20.7888H14C14.9482 20.7888 15.5999 20.7883 16.1074 20.7537C16.6035 20.7198 16.8744 20.6574 17.0713 20.5759C17.7573 20.2917 18.3027 19.7463 18.5869 19.0603C18.6684 18.8634 18.7308 18.5926 18.7646 18.0964C18.7993 17.589 18.7998 16.9372 18.7998 15.989C18.7998 15.0408 18.7993 14.3891 18.7646 13.8816C18.7308 13.3855 18.6684 13.1146 18.5869 12.9177C18.3028 12.2317 17.7573 11.6863 17.0713 11.4021C16.8744 11.3206 16.6035 11.2583 16.1074 11.2244C15.5999 11.1897 14.9482 11.1892 14 11.1892H10ZM12 13.7888C12.6627 13.7889 13.2002 14.3263 13.2002 14.989V16.989C13.2002 17.6517 12.6626 18.1891 12 18.1892C11.3373 18.1892 10.7998 17.6517 10.7998 16.989V14.989C10.7998 14.3263 11.3373 13.7888 12 13.7888ZM11.9014 3.18921C9.80274 3.18927 8.10156 4.89037 8.10156 6.98901V8.8103C8.6355 8.7888 9.26325 8.78882 10 8.78882H14C14.648 8.78882 15.2115 8.78889 15.7012 8.80347V6.98901C15.7012 4.89033 14 3.18921 11.9014 3.18921Z" fill="#F3F6F8"/>
</g>
<defs>
<clipPath id="clip0_24452_29145">
<rect width="24" height="24" fill="white"/>
</clipPath>
</defs>
</svg>
