<svg width="24" height="24" viewBox="0 0 24 24" fill="none" xmlns="http://www.w3.org/2000/svg">
<path d="M17.4741 2.1814C19.4244 1.85652 21.2005 3.36149 21.2007 5.33862V15.4773C21.2007 15.5356 21.1941 15.5931 21.186 15.6492C21.1945 15.7578 21.2007 15.8675 21.2007 15.9783C21.2006 18.2977 19.3199 20.1783 17.0005 20.1785C14.6809 20.1785 12.8004 18.2978 12.8003 15.9783C12.8003 13.6587 14.6809 11.7781 17.0005 11.7781C17.6446 11.7781 18.2548 11.9232 18.8003 12.1824V9.39331L9.20068 10.9939V17.989C9.2006 20.3085 7.31994 22.1891 5.00049 22.1892C2.68094 22.1892 0.800378 20.3085 0.800293 17.989C0.800293 15.6694 2.68089 13.7888 5.00049 13.7888C5.6446 13.7888 6.25476 13.9339 6.80029 14.1931V6.67163C6.80046 5.10761 7.93141 3.77266 9.47412 3.51538L17.4741 2.1814ZM5.00049 16.1892C4.00638 16.1892 3.20068 16.9949 3.20068 17.989C3.20077 18.9831 4.00643 19.7888 5.00049 19.7888C5.99446 19.7887 6.80021 18.983 6.80029 17.989C6.80029 16.995 5.99451 16.1893 5.00049 16.1892ZM17.0005 14.1785C16.0064 14.1785 15.2007 14.9842 15.2007 15.9783C15.2008 16.9723 16.0064 17.7781 17.0005 17.7781C17.9944 17.7779 18.8002 16.9722 18.8003 15.9783C18.8003 14.9842 17.9945 14.1786 17.0005 14.1785ZM17.8687 4.54956L9.86865 5.88257C9.48319 5.94698 9.20086 6.28082 9.20068 6.67163V8.5603L18.8003 6.96069V5.33862C18.8001 4.84454 18.3561 4.4685 17.8687 4.54956Z" fill="#F3F6F8"/>
</svg>
