<svg width="24" height="24" viewBox="0 0 24 24" fill="none" xmlns="http://www.w3.org/2000/svg">
<g clip-path="url(#clip0_24452_69132)">
<path d="M12.0005 0.799805C18.186 0.79991 23.2007 5.81448 23.2007 12C23.2006 18.1854 18.1859 23.2001 12.0005 23.2002C5.81496 23.2002 0.800399 18.1855 0.800293 12C0.800293 5.81441 5.8149 0.799805 12.0005 0.799805ZM12.0005 3.2002C7.14038 3.2002 3.20068 7.13989 3.20068 12C3.20079 16.86 7.14045 20.7998 12.0005 20.7998C16.8604 20.7997 20.8002 16.86 20.8003 12C20.8003 7.13996 16.8605 3.2003 12.0005 3.2002ZM11.9995 16C12.883 16 13.5999 16.7161 13.6001 17.5996C13.6001 18.4833 12.8832 19.2002 11.9995 19.2002C11.116 19.2 10.3999 18.4831 10.3999 17.5996C10.4001 16.7163 11.1162 16.0002 11.9995 16ZM9.60693 6.22656C10.7719 6.00307 11.8226 5.93662 12.7583 6.02832C13.9682 6.14579 14.908 6.49864 15.5776 7.08594C16.259 7.66156 16.6001 8.44873 16.6001 9.44727C16.6001 10.0698 16.465 10.6044 16.1948 11.0508C15.9246 11.4854 15.5485 11.8499 15.0669 12.1436C14.5971 12.4372 14.0507 12.6773 13.4282 12.8652C13.4282 13.1594 13.4106 13.4754 13.4106 13.8174H10.5034C10.4917 13.3357 10.48 12.8479 10.4683 12.3545C10.4565 11.8611 10.4439 11.3791 10.4321 10.9092C11.5599 10.8152 12.3714 10.6859 12.8647 10.5215C13.3693 10.3453 13.6214 10.0991 13.6216 9.78223C13.6216 9.51204 13.4748 9.30018 13.1812 9.14746C12.8875 8.98309 12.4937 8.88289 12.0005 8.84766C11.5189 8.80072 10.9783 8.83083 10.3794 8.93652C9.50157 9.07674 8.60015 8.46807 8.6001 7.5791V7.4834C8.60026 6.87653 9.01099 6.34109 9.60693 6.22656Z" fill="#F3F6F8"/>
</g>
<defs>
<clipPath id="clip0_24452_69132">
<rect width="24" height="24" fill="white"/>
</clipPath>
</defs>
</svg>
