<svg width="24" height="24" viewBox="0 0 24 24" fill="none" xmlns="http://www.w3.org/2000/svg">
<g clip-path="url(#clip0_24452_69136)">
<path fill-rule="evenodd" clip-rule="evenodd" d="M13.2001 20.9888C13.2001 20.326 12.6627 19.7886 11.9999 19.7886C11.3372 19.7886 10.7997 20.326 10.7997 20.9888V21.9888C10.7997 22.6515 11.3372 23.189 11.9999 23.189C12.6627 23.189 13.2001 22.6515 13.2001 21.9888V20.9888ZM13.2001 1.98877C13.2001 1.32603 12.6627 0.788574 11.9999 0.788574C11.3372 0.788574 10.7997 1.32603 10.7997 1.98877V2.98877C10.7998 3.65142 11.3373 4.18896 11.9999 4.18896C12.6626 4.18896 13.2 3.65142 13.2001 2.98877V1.98877ZM4.80563 17.5285C5.37958 17.1971 5.57631 16.463 5.24494 15.889C4.91356 15.3151 4.17939 15.1183 3.60544 15.4497L2.73941 15.9497C2.16546 16.2811 1.96874 17.0153 2.30011 17.5892C2.63148 18.1632 3.36566 18.3599 3.93961 18.0285L4.80563 17.5285ZM21.2601 8.02851C21.8341 7.69714 22.0308 6.96296 21.6994 6.38901C21.368 5.81506 20.6339 5.61834 20.0599 5.94971L19.1939 6.44971C18.6201 6.78112 18.4233 7.51531 18.7546 8.0892C19.0859 8.6631 19.8202 8.85974 20.3941 8.52851L21.2601 8.02851ZM5.24445 8.08872C4.91308 8.66267 4.1789 8.85939 3.60495 8.52802L2.73893 8.02802C2.16497 7.69665 1.96825 6.96247 2.29962 6.38852C2.63099 5.81457 3.36517 5.61785 3.93912 5.94922L4.80515 6.44922C5.3791 6.78059 5.57582 7.51476 5.24445 8.08872ZM21.6989 17.5887C21.3676 18.1627 20.6334 18.3594 20.0594 18.028L19.1934 17.528C18.6196 17.1966 18.4228 16.4624 18.7541 15.8885C19.0854 15.3146 19.8197 15.118 20.3936 15.4492L21.2596 15.9492C21.8336 16.2806 22.0303 17.0148 21.6989 17.5887ZM12.0002 8.18896C14.0989 8.18896 15.8 9.89009 15.8 11.9888C15.8 14.0875 14.0989 15.7886 12.0002 15.7886C9.90155 15.7886 8.20042 14.0875 8.20042 11.9888C8.20042 9.89009 9.90155 8.18896 12.0002 8.18896ZM12.0002 18.189C15.4244 18.189 18.2004 15.4129 18.2004 11.9888C18.2004 8.5646 15.4244 5.78857 12.0002 5.78857C8.57606 5.78857 5.80003 8.5646 5.80003 11.9888C5.80003 15.4129 8.57606 18.189 12.0002 18.189Z" fill="#F3F6F8"/>
</g>
<defs>
<clipPath id="clip0_24452_69136">
<rect width="24" height="24" fill="white"/>
</clipPath>
</defs>
</svg>
