<svg width="24" height="24" viewBox="0 0 24 24" fill="none" xmlns="http://www.w3.org/2000/svg">
<g clip-path="url(#clip0_24452_69106)">
<path d="M8.39453 21.4492C8.54913 21.4492 8.68792 21.4869 8.81055 21.5615C8.9384 21.6362 9.03964 21.7374 9.11426 21.8652C9.19426 21.9879 9.23438 22.1241 9.23438 22.2734C9.23436 22.4227 9.19424 22.5615 9.11426 22.6895C9.03964 22.8173 8.9384 22.9185 8.81055 22.9932C8.68792 23.0678 8.54913 23.1054 8.39453 23.1055C8.23986 23.1055 8.09525 23.0678 7.96191 22.9932C7.83411 22.9185 7.73279 22.8173 7.6582 22.6895C7.58355 22.5615 7.54591 22.4227 7.5459 22.2734C7.5459 22.1241 7.58354 21.9879 7.6582 21.8652C7.73279 21.7374 7.83411 21.6362 7.96191 21.5615C8.09525 21.4869 8.23986 21.4492 8.39453 21.4492ZM4.95898 17.4258C5.31091 17.4258 5.63099 17.4976 5.91895 17.6416C6.21218 17.7803 6.46543 17.9775 6.67871 18.2334C6.89197 18.484 7.055 18.7824 7.16699 19.1289C7.28429 19.4701 7.34274 19.8438 7.34277 20.249C7.34277 20.6542 7.28423 21.0304 7.16699 21.377C7.05499 21.7236 6.89204 22.0253 6.67871 22.2812C6.46545 22.5372 6.21215 22.7369 5.91895 22.8809C5.63099 23.0195 5.31091 23.0888 4.95898 23.0889C4.60704 23.0889 4.28451 23.0195 3.99121 22.8809C3.69788 22.7369 3.4438 22.5373 3.23047 22.2812C3.02255 22.0253 2.86046 21.7235 2.74316 21.377C2.63122 21.0304 2.5752 20.6543 2.5752 20.249C2.57522 19.8438 2.63119 19.4701 2.74316 19.1289C2.86045 18.7825 3.02265 18.4839 3.23047 18.2334C3.4438 17.9774 3.69788 17.7803 3.99121 17.6416C4.28448 17.4977 4.60707 17.4258 4.95898 17.4258ZM16.8604 18.8096H15.0596C15.0489 18.9107 15.0365 19.0172 15.0205 19.1289C15.0045 19.2355 14.9911 19.3426 14.9805 19.4492C15.4335 19.4439 15.8198 19.5084 16.1396 19.6416C16.4649 19.7749 16.7131 19.9721 16.8838 20.2334C17.0597 20.4947 17.1484 20.8198 17.1484 21.209C17.1484 21.6248 17.0497 21.9693 16.8525 22.2412C16.6552 22.5079 16.3853 22.7085 16.0439 22.8418C15.708 22.9697 15.321 23.0307 14.8838 23.0254C14.4519 23.02 13.9955 22.9482 13.5156 22.8096V21.4736C13.9581 21.6122 14.3477 21.7024 14.6836 21.7451C15.0249 21.7825 15.2924 21.7616 15.4844 21.6816C15.6763 21.6016 15.7725 21.457 15.7725 21.249C15.7724 21.0412 15.6728 20.8864 15.4756 20.7852C15.2837 20.684 15.0226 20.6279 14.6924 20.6172C14.3617 20.6012 13.9907 20.6279 13.5801 20.6973C13.6281 20.1746 13.6756 19.6466 13.7236 19.1133C13.7716 18.58 13.8202 18.0544 13.8682 17.5371H16.8604V18.8096ZM13.0518 18.8096C12.7478 19.4975 12.4411 20.1936 12.1318 20.8975C11.8279 21.5961 11.5237 22.2896 11.2197 22.9775H9.78027C10.0843 22.2895 10.3884 21.5961 10.6924 20.8975C11.0017 20.1935 11.3083 19.4975 11.6123 18.8096H9.41992V17.5371H13.0518V18.8096ZM19.1768 19.3291C19.2781 19.4891 19.3767 19.6496 19.4727 19.8096C19.574 19.6496 19.675 19.4891 19.7764 19.3291C19.8776 19.164 19.9789 19.0016 20.0801 18.8418H21.5361C21.3283 19.1669 21.115 19.4947 20.8965 19.8252C20.6832 20.1558 20.4726 20.4867 20.2646 20.8174C20.4833 21.1747 20.7047 21.5348 20.9287 21.8975C21.1527 22.2601 21.3717 22.6203 21.585 22.9775H20.1123C20.0056 22.7962 19.8962 22.6149 19.7842 22.4336C19.6775 22.2469 19.5715 22.0622 19.4648 21.8809C19.3582 22.0622 19.2462 22.2469 19.1289 22.4336C19.0169 22.6149 18.9074 22.7962 18.8008 22.9775H17.3447C17.5634 22.6309 17.7848 22.2782 18.0088 21.9209C18.2327 21.5584 18.4543 21.2039 18.6729 20.8574C18.4649 20.5268 18.2534 20.1909 18.04 19.8496C17.8268 19.5083 17.6162 19.1724 17.4082 18.8418H18.8809C18.9768 19.0016 19.0755 19.164 19.1768 19.3291ZM4.95898 18.7451C4.75098 18.7451 4.57218 18.807 4.42285 18.9297C4.27363 19.0523 4.15907 19.2254 4.0791 19.4492C3.99913 19.6731 3.95901 19.9398 3.95898 20.249C3.95898 20.553 3.9991 20.8205 4.0791 21.0498C4.15906 21.2788 4.27371 21.4571 4.42285 21.585C4.57218 21.7076 4.75098 21.7695 4.95898 21.7695C5.17224 21.7695 5.35116 21.7076 5.49512 21.585C5.64419 21.4571 5.75894 21.2788 5.83887 21.0498C5.91887 20.8205 5.95898 20.553 5.95898 20.249C5.95896 19.9452 5.91884 19.681 5.83887 19.457C5.75893 19.228 5.64422 19.0523 5.49512 18.9297C5.35116 18.8071 5.17224 18.7452 4.95898 18.7451ZM12 0.799805C13.1941 0.799825 14.3475 0.987233 15.4297 1.33496C16.0602 1.53794 16.4077 2.21398 16.2051 2.84473C16.0023 3.47545 15.3261 3.82249 14.6953 3.62012C13.8475 3.34771 12.9419 3.20022 12 3.2002C7.13989 3.2002 3.2002 7.13989 3.2002 12C3.20022 12.929 3.34408 13.8225 3.60938 14.6602C3.80919 15.2918 3.4587 15.9659 2.82715 16.166C2.19545 16.3661 1.52152 16.0164 1.32129 15.3848C0.982647 14.3155 0.799825 13.1778 0.799805 12C0.799805 5.81441 5.81441 0.799805 12 0.799805ZM21.1729 7.83398C21.8046 7.63399 22.4786 7.98354 22.6787 8.61523C23.0173 9.68454 23.2002 10.8223 23.2002 12C23.2002 13.1778 23.0174 14.3155 22.6787 15.3848C22.4785 16.0163 21.8045 16.3659 21.1729 16.166C20.5412 15.9659 20.1907 15.2919 20.3906 14.6602C20.6559 13.8225 20.7998 12.929 20.7998 12C20.7998 11.071 20.6559 10.1775 20.3906 9.33984C20.1906 8.7081 20.5411 8.0341 21.1729 7.83398ZM20.3008 3.24414C20.3008 3.24414 14.1095 11.7683 13.4062 12.4717C12.7034 13.1745 11.6112 13.2221 10.9668 12.5781C10.3224 11.9338 10.3693 10.8406 11.0723 10.1377C11.7757 9.43443 20.3008 3.24414 20.3008 3.24414Z" fill="#F3F6F8"/>
</g>
<defs>
<clipPath id="clip0_24452_69106">
<rect width="24" height="24" fill="white"/>
</clipPath>
</defs>
</svg>
