<svg width="24" height="24" viewBox="0 0 24 24" fill="none" xmlns="http://www.w3.org/2000/svg">
<path d="M3.86426 5.13965C4.52996 5.0944 5.33466 5.61625 6.94336 6.66113L11.0303 9.31641C12.4069 10.2106 13.0955 10.6575 13.334 11.2246C13.5423 11.7201 13.5422 12.2788 13.334 12.7744C13.0956 13.3416 12.4072 13.7893 11.0303 14.6836L6.94336 17.3379C5.33469 18.3828 4.52995 18.9056 3.86426 18.8604C3.28415 18.8208 2.74952 18.5304 2.40039 18.0654C1.99995 17.5318 2 16.5724 2 14.6543V9.34473C2 7.42659 1.99976 6.46716 2.40039 5.93359C2.74952 5.46867 3.28418 5.17916 3.86426 5.13965ZM16.3623 5.97852C17.025 5.97862 17.5625 6.51603 17.5625 7.17871V16.7783C17.5625 17.441 17.025 17.9784 16.3623 17.9785C15.6996 17.9785 15.1621 17.4411 15.1621 16.7783V7.17871C15.1621 6.51597 15.6996 5.97852 16.3623 5.97852ZM21.1621 5.97852C21.8248 5.97862 22.3623 6.51603 22.3623 7.17871V16.7783C22.3623 17.441 21.8248 17.9784 21.1621 17.9785C20.4994 17.9785 19.9619 17.4411 19.9619 16.7783V7.17871C19.9619 6.51597 20.4994 5.97852 21.1621 5.97852Z" fill="#F3F6F8"/>
</svg>
