<svg width="24" height="24" viewBox="0 0 24 24" fill="none" xmlns="http://www.w3.org/2000/svg">
<g clip-path="url(#clip0_24452_69158)">
<path d="M12.7598 0.417969C13.5421 0.417969 14.0997 0.412059 14.6436 0.523438C15.1015 0.617242 15.5445 0.773113 15.9609 0.985352C16.4554 1.23739 16.8876 1.5894 17.499 2.07715L18.3398 2.74707C19.1719 3.41081 19.7708 3.87612 20.207 4.47656C20.5736 4.98124 20.8468 5.54815 21.0127 6.14941C21.2101 6.86496 21.2002 7.62394 21.2002 8.68848V15.1279C22.2108 15.2284 23 16.0812 23 17.1182V21.6064C22.9999 22.7109 22.1045 23.6064 21 23.6064H3C1.89549 23.6064 1.0001 22.7109 1 21.6064V17.1182C1.00003 16.0812 1.78924 15.2284 2.7998 15.1279V8.01855C2.7998 6.91837 2.799 6.02013 2.8584 5.29297C2.91896 4.552 3.04881 3.88282 3.36719 3.25781C3.86571 2.2794 4.66125 1.4839 5.63965 0.985352C6.26471 0.666901 6.93376 0.537128 7.6748 0.476562C8.40201 0.417147 9.30009 0.417969 10.4004 0.417969H12.7598ZM16.7852 16.5176C16.4258 16.5176 16.0989 16.5814 15.8047 16.709C15.5105 16.8366 15.2578 17.0215 15.0469 17.2637C14.8386 17.5032 14.6771 17.795 14.5625 18.1387C14.4505 18.4798 14.3946 18.864 14.3945 19.291V19.5996C14.3945 20.0266 14.448 20.4109 14.5547 20.752C14.664 21.093 14.8217 21.3835 15.0273 21.623C15.2356 21.8626 15.4884 22.0462 15.7852 22.1738C16.0846 22.3014 16.4245 22.3652 16.8047 22.3652C17.2734 22.3652 17.6797 22.2819 18.0234 22.1152C18.3698 21.946 18.6406 21.7103 18.8359 21.4082C19.0312 21.1061 19.138 20.7571 19.1562 20.3613H17.7891C17.7839 20.5748 17.7421 20.7507 17.6641 20.8887C17.5859 21.0241 17.4753 21.1257 17.332 21.1934C17.1888 21.2585 17.013 21.291 16.8047 21.291C16.6172 21.291 16.4583 21.2598 16.3281 21.1973C16.2006 21.1322 16.0963 21.0318 16.0156 20.8965C15.935 20.7611 15.8763 20.5865 15.8398 20.373C15.8034 20.1596 15.7852 19.9016 15.7852 19.5996V19.2832C15.7852 18.9812 15.8047 18.7232 15.8438 18.5098C15.8854 18.2937 15.9479 18.1178 16.0312 17.9824C16.1146 17.8471 16.2188 17.748 16.3438 17.6855C16.4687 17.6231 16.6159 17.5918 16.7852 17.5918C17.0272 17.5918 17.2214 17.6283 17.3672 17.7012C17.5129 17.774 17.6198 17.8836 17.6875 18.0293C17.7552 18.1725 17.7916 18.351 17.7969 18.5645H19.1641C19.1302 18.1713 19.0195 17.8209 18.832 17.5137C18.6445 17.2039 18.3801 16.9602 18.0391 16.7832C17.698 16.6062 17.2799 16.5176 16.7852 16.5176ZM5 22.2871H8.75781V21.2324H6.37109V16.5996H5V22.2871ZM9.5 22.2871H10.8711V20.2793H11.6094L12.6133 22.2871H14.082V22.2285L12.8955 19.9326C13.0486 19.859 13.1881 19.7751 13.3125 19.6777C13.4947 19.5345 13.6367 19.3535 13.7383 19.1348C13.8398 18.9161 13.8906 18.6438 13.8906 18.3184C13.8906 17.9435 13.802 17.6282 13.625 17.373C13.4505 17.1179 13.2017 16.9251 12.8789 16.7949C12.556 16.6647 12.1757 16.5996 11.7383 16.5996H9.5V22.2871ZM11.7383 17.6582C11.9075 17.6582 12.0495 17.6895 12.1641 17.752C12.2812 17.8144 12.3698 17.9044 12.4297 18.0215C12.4895 18.1386 12.5195 18.2794 12.5195 18.4434C12.5195 18.6047 12.4895 18.7442 12.4297 18.8613C12.3724 18.9759 12.2864 19.0645 12.1719 19.127C12.0573 19.1895 11.9128 19.2207 11.7383 19.2207H10.8711V17.6582H11.7383ZM10.4004 2.81836C9.26048 2.81836 8.47693 2.81956 7.87012 2.86914C7.27762 2.91758 6.95892 3.00565 6.72852 3.12305C6.20181 3.39148 5.77329 3.81996 5.50488 4.34668C5.38754 4.57707 5.2994 4.89593 5.25098 5.48828C5.20142 6.09506 5.2002 6.8788 5.2002 8.01855V15.1182H18.7998V8.68848C18.7998 7.49047 18.7899 7.11684 18.6992 6.78809C18.6099 6.46445 18.4629 6.15937 18.2656 5.8877C18.0652 5.61172 17.7795 5.3703 16.8428 4.62305L16.0029 3.95312C15.3165 3.40551 15.0989 3.23915 14.8711 3.12305C14.647 3.00889 14.4085 2.92549 14.1621 2.875C13.9116 2.8237 13.638 2.81836 12.7598 2.81836H10.4004ZM14 10.4062C14.6627 10.4062 15.2002 10.9437 15.2002 11.6064C15.2001 12.2691 14.6627 12.8066 14 12.8066H10C9.33732 12.8066 8.7999 12.2691 8.7998 11.6064C8.7998 10.9437 9.33726 10.4062 10 10.4062H14ZM14 5.40625C14.6626 5.40625 15.2 5.94384 15.2002 6.60645C15.2002 7.26919 14.6627 7.80664 14 7.80664H10C9.33726 7.80664 8.7998 7.26919 8.7998 6.60645C8.79997 5.94384 9.33736 5.40625 10 5.40625H14Z" fill="#F3F6F8" fill-opacity="0.6"/>
</g>
<defs>
<clipPath id="clip0_24452_69158">
<rect width="24" height="24" fill="white"/>
</clipPath>
</defs>
</svg>
