<svg width="24" height="24" viewBox="0 0 24 24" fill="none" xmlns="http://www.w3.org/2000/svg">
<path d="M11.7002 2C17.0573 2.00011 21.4004 6.3431 21.4004 11.7002C21.4004 13.655 20.8191 15.4731 19.8242 16.9961L22.0635 19.2354C22.8445 20.0164 22.8445 21.2834 22.0635 22.0645C21.2824 22.8451 20.0163 22.8453 19.2354 22.0645L16.9961 19.8242C15.4731 20.8191 13.655 21.4004 11.7002 21.4004C6.3431 21.4004 2.00011 17.0573 2 11.7002C2 6.34303 6.34303 2 11.7002 2ZM11.7002 4.40039C7.66852 4.40039 4.40039 7.66852 4.40039 11.7002C4.4005 15.7318 7.66858 19 11.7002 19C15.7317 18.9999 18.9999 15.7317 19 11.7002C19 7.66858 15.7318 4.4005 11.7002 4.40039Z" fill="#F3F6F8"/>
</svg>
