<svg width="24" height="24" viewBox="0 0 24 24" fill="none" xmlns="http://www.w3.org/2000/svg">
<path d="M13.6001 0.978027C14.7035 0.978027 15.592 0.977061 16.3091 1.03564C17.0376 1.0952 17.678 1.22136 18.27 1.52295C19.2106 2.00234 19.9763 2.76788 20.4556 3.7085C20.757 4.30053 20.8834 4.94097 20.9429 5.66943C21.0014 6.38651 21.0005 7.27511 21.0005 8.37842V15.5776C21.0005 16.681 21.0015 17.5696 20.9429 18.2866C20.8833 19.0151 20.7572 19.6555 20.4556 20.2476C19.9762 21.1882 19.2107 21.9538 18.27 22.4331C17.6779 22.7347 17.0376 22.8609 16.3091 22.9204C15.592 22.979 14.7035 22.978 13.6001 22.978H10.4009C9.29757 22.978 8.40897 22.979 7.69189 22.9204C6.96343 22.8609 6.32299 22.7345 5.73096 22.4331C4.79034 21.9538 4.0248 21.1881 3.54541 20.2476C3.24382 19.6555 3.11766 19.0151 3.05811 18.2866C2.99952 17.5696 3.00049 16.681 3.00049 15.5776V8.37842C3.00049 7.27507 2.99955 6.38652 3.05811 5.66943C3.11764 4.94081 3.24382 4.30064 3.54541 3.7085C4.02478 2.76769 4.79015 2.00232 5.73096 1.52295C6.3231 1.22136 6.96327 1.09518 7.69189 1.03564C8.40898 0.97709 9.29753 0.978027 10.4009 0.978027H13.6001ZM10.4009 2.97803C9.26472 2.97803 8.47172 2.97847 7.85498 3.02881C7.24996 3.07824 6.90152 3.17104 6.63818 3.30518C6.07396 3.59275 5.61521 4.0515 5.32764 4.61572C5.1935 4.87906 5.1007 5.2275 5.05127 5.83252C5.00093 6.44926 5.00049 7.24226 5.00049 8.37842V15.5776C5.00049 16.7138 5.0009 17.5068 5.05127 18.1235C5.10072 18.7284 5.19349 19.0771 5.32764 19.3403C5.61523 19.9043 6.07415 20.3634 6.63818 20.6509C6.90147 20.7849 7.25026 20.8778 7.85498 20.9272C8.47171 20.9776 9.26477 20.978 10.4009 20.978H13.6001C14.7363 20.978 15.5293 20.9776 16.146 20.9272C16.7509 20.8778 17.0995 20.785 17.3628 20.6509C17.9269 20.3633 18.3858 19.9044 18.6733 19.3403C18.8075 19.077 18.9003 18.7284 18.9497 18.1235C19.0001 17.5068 19.0005 16.7138 19.0005 15.5776V8.37842C19.0005 7.24231 19 6.44925 18.9497 5.83252C18.9003 5.2278 18.8074 4.87901 18.6733 4.61572C18.3859 4.05169 17.9267 3.59277 17.3628 3.30518C17.0995 3.17103 16.7508 3.07826 16.146 3.02881C15.5293 2.97844 14.7363 2.97803 13.6001 2.97803H10.4009ZM10.6938 8.63037C11.1246 8.58509 11.6498 8.88849 12.6997 9.49463L13.8003 10.1304C14.85 10.7364 15.375 11.0394 15.5513 11.4351C15.705 11.7803 15.705 12.1748 15.5513 12.52C15.375 12.9157 14.85 13.2186 13.8003 13.8247L12.6997 14.4604C11.6498 15.0666 11.1246 15.37 10.6938 15.3247C10.3181 15.2852 9.97648 15.0874 9.75439 14.7817C9.49998 14.4312 9.50049 13.8249 9.50049 12.6128V11.3423C9.50049 10.1302 9.49998 9.52386 9.75439 9.17334C9.97648 8.86766 10.3181 8.6699 10.6938 8.63037Z" fill="#F3F6F8"/>
</svg>
