<svg width="24" height="24" viewBox="0 0 24 24" fill="none" xmlns="http://www.w3.org/2000/svg">
<g clip-path="url(#clip0_24452_69096)">
<path d="M17.1702 9.16085C17.5606 8.77055 18.1946 8.77028 18.5852 9.16016L19.9994 10.5744L21.4136 9.16016C21.8039 8.76998 22.438 8.76955 22.8285 9.15947C23.219 9.54999 23.2183 10.1839 22.8278 10.5744L21.4136 11.9886L22.8278 13.4028C23.218 13.7933 23.218 14.4266 22.8278 14.817C22.4373 15.2073 21.8034 15.208 21.4129 14.8177L19.9987 13.4035L18.5858 14.8177C18.1953 15.2079 17.5613 15.2074 17.1709 14.817C16.781 14.4265 16.7814 13.7925 17.1716 13.4021L18.5852 11.9886L17.1709 10.5744C16.781 10.184 16.7805 9.55129 17.1702 9.16085ZM1.88183 8.11538C2.18075 6.73587 3.25824 5.65838 4.63775 5.35946C5.04601 5.271 5.50819 5.27728 6.05127 5.27729C6.27022 5.27729 6.31473 5.27621 6.35234 5.27314C6.52792 5.25875 6.69876 5.20538 6.8516 5.11777C6.88427 5.09902 6.92165 5.07436 7.10157 4.95067L8.30517 4.1241C9.26009 3.46759 10.0451 2.92676 10.693 2.56349C11.3289 2.20706 12.0231 1.90734 12.7785 1.94477C13.8369 1.99739 14.8196 2.51317 15.4626 3.35553C15.9214 3.95694 16.0673 4.6997 16.1338 5.42575C16.2015 6.16554 16.2 7.11868 16.2 8.27766V15.6774C16.2 16.8364 16.2015 17.7895 16.1338 18.5293C16.0673 19.2554 15.9214 19.9981 15.4626 20.5995C14.8196 21.4419 13.8369 21.9577 12.7785 22.0103C12.0231 22.0477 11.3289 21.748 10.693 21.3916C10.0451 21.0283 9.26009 20.4875 8.30517 19.831L7.10157 19.0044C6.92166 18.8807 6.88427 18.8561 6.8516 18.8373C6.69876 18.7497 6.52792 18.6963 6.35234 18.6819C6.31473 18.6789 6.27022 18.6778 6.05127 18.6778C5.50819 18.6778 5.04601 18.6841 4.63775 18.5956C3.25824 18.2967 2.18075 17.2192 1.88183 15.8397C1.7934 15.4314 1.79965 14.9692 1.79965 14.4262V9.52891C1.79965 8.98583 1.7934 8.52364 1.88183 8.11538ZM5.14529 7.70521C4.68596 7.80502 4.32732 8.16357 4.22757 8.62293C4.20722 8.71684 4.19996 8.86082 4.19995 9.52891V14.4262C4.19995 15.0943 4.20722 15.2382 4.22757 15.3322C4.32732 15.7915 4.68596 16.1501 5.14529 16.2499C5.2392 16.2702 5.3833 16.2775 6.05127 16.2775C6.23256 16.2775 6.39047 16.277 6.54846 16.2899C7.07514 16.3331 7.58705 16.4912 8.04553 16.754C8.18286 16.8327 8.3114 16.9228 8.46054 17.0253L9.66415 17.8533C10.6584 18.5368 11.337 19.0004 11.8663 19.2972C12.4054 19.5995 12.6037 19.616 12.659 19.6135C13.0116 19.5959 13.3396 19.4244 13.5539 19.1439C13.587 19.1006 13.6866 18.9284 13.7431 18.3111C13.7984 17.7068 13.7998 16.8841 13.7998 15.6774V8.27766C13.7998 7.07096 13.7984 6.24824 13.7431 5.64396C13.6866 5.02672 13.587 4.85452 13.5539 4.81118C13.3396 4.53065 13.0116 4.35913 12.659 4.34161C12.6037 4.33904 12.4054 4.3556 11.8663 4.65788C11.337 4.95465 10.6584 5.41823 9.66415 6.10179L8.46054 6.92974C8.3114 7.03228 8.18286 7.12237 8.04553 7.20112C7.58705 7.4639 7.07514 7.62196 6.54846 7.66515C6.39047 7.67809 6.23256 7.67758 6.05127 7.67758C5.3833 7.67759 5.2392 7.68486 5.14529 7.70521Z" fill="#F3F6F8"/>
</g>
<defs>
<clipPath id="clip0_24452_69096">
<rect width="24" height="24" fill="white"/>
</clipPath>
</defs>
</svg>
