<svg width="24" height="24" viewBox="0 0 24 24" fill="none" xmlns="http://www.w3.org/2000/svg">
<path fill-rule="evenodd" clip-rule="evenodd" d="M12 22C17.5228 22 22 17.5228 22 12C22 6.47715 17.5228 2 12 2C6.47715 2 2 6.47715 2 12C2 17.5228 6.47715 22 12 22Z" fill="#1C72E4"/>
<g clip-path="url(#clip0_24452_69295)">
<path fill-rule="evenodd" clip-rule="evenodd" d="M10.1295 12.303C10.1308 12.1335 10.0829 12.0805 9.91339 12.0874C9.6001 12.1001 9.28596 12.0861 8.97227 12.0933C8.84524 12.0966 8.79845 12.0614 8.79987 11.9268C8.80617 11.2996 8.80554 10.6719 8.80049 10.0445C8.79935 9.92381 8.8357 9.88412 8.95773 9.88684C9.27846 9.89423 9.59987 9.87787 9.92003 9.89371C10.1056 9.9028 10.144 9.83687 10.1401 9.6647C10.1289 9.18729 10.1289 8.70915 10.1394 8.2317C10.1522 7.64856 10.3087 7.10409 10.656 6.62998C11.0956 6.02947 11.7205 5.75497 12.4415 5.72282C13.1819 5.68994 13.9242 5.70817 14.6655 5.70022C14.7689 5.69903 14.7997 5.736 14.7993 5.83645C14.796 6.47093 14.7953 7.10563 14.7997 7.7401C14.8007 7.85299 14.7639 7.88751 14.6531 7.88575C14.2965 7.88019 13.9399 7.88291 13.5836 7.88388C13.109 7.88536 12.825 8.12948 12.7952 8.59922C12.7714 8.97582 12.7888 9.3547 12.7801 9.73239C12.7768 9.86697 12.8568 9.85771 12.9458 9.8576C13.4876 9.8568 14.0296 9.86299 14.5714 9.85374C14.7305 9.85095 14.783 9.88758 14.7648 10.055C14.6966 10.6854 14.638 11.3171 14.584 11.949C14.5717 12.0916 14.5066 12.1188 14.3785 12.1167C13.9511 12.1101 13.5232 12.1121 13.0953 12.1149C12.7881 12.1167 12.8179 12.0699 12.8179 12.3832C12.8165 14.3511 12.8139 16.3191 12.8223 18.2869C12.8232 18.4948 12.7701 18.5463 12.5645 18.5427C11.8302 18.5292 11.0956 18.5285 10.3613 18.543C10.1544 18.5471 10.1203 18.477 10.122 18.2924C10.1298 17.3013 10.1258 16.3103 10.1258 15.3191C10.1258 14.3137 10.122 13.3083 10.1295 12.303Z" fill="#FFFFFE"/>
</g>
<defs>
<clipPath id="clip0_24452_69295">
<rect width="16" height="16" fill="white" transform="translate(4 4)"/>
</clipPath>
</defs>
</svg>
