<svg width="24" height="24" viewBox="0 0 24 24" fill="none" xmlns="http://www.w3.org/2000/svg">
<g clip-path="url(#clip0_24452_69126)">
<path d="M13.5996 0.800049C14.6998 0.800049 15.598 0.799231 16.3252 0.858643C17.0662 0.919215 17.7353 1.04901 18.3604 1.36743C19.3387 1.86598 20.1343 2.66153 20.6328 3.63989C20.9512 4.26489 21.081 4.93409 21.1416 5.67505C21.201 6.40222 21.2002 7.30044 21.2002 8.40063V15.5999C21.2002 16.7001 21.201 17.5983 21.1416 18.3254C21.081 19.0664 20.9512 19.7356 20.6328 20.3606C20.1343 21.339 19.3387 22.1345 18.3604 22.6331C17.7353 22.9515 17.0662 23.0813 16.3252 23.1418C15.598 23.2013 14.6998 23.2004 13.5996 23.2004H10.4004C9.30019 23.2004 8.40198 23.2012 7.6748 23.1418C6.93385 23.0813 6.26465 22.9514 5.63965 22.6331C4.66128 22.1346 3.86574 21.3389 3.36719 20.3606C3.04876 19.7356 2.91897 19.0664 2.8584 18.3254C2.79899 17.5983 2.7998 16.7001 2.7998 15.5999V8.40063C2.7998 7.30042 2.799 6.40223 2.8584 5.67505C2.91896 4.93403 3.04876 4.26494 3.36719 3.63989C3.86573 2.66145 4.66121 1.86597 5.63965 1.36743C6.26469 1.04901 6.93378 0.919205 7.6748 0.858643C8.40198 0.799242 9.30018 0.800049 10.4004 0.800049H13.5996ZM10.4004 3.20044C9.2606 3.20044 8.4769 3.20166 7.87012 3.25122C7.27767 3.29966 6.95891 3.38775 6.72852 3.50513C6.20176 3.77356 5.77331 4.20201 5.50488 4.72876C5.38751 4.95916 5.29941 5.27791 5.25098 5.87036C5.20141 6.47714 5.2002 7.26084 5.2002 8.40063V15.5999C5.2002 16.7397 5.2014 17.5234 5.25098 18.1301C5.29942 18.7225 5.3875 19.0414 5.50488 19.2717C5.77332 19.7984 6.20184 20.227 6.72852 20.4954C6.9589 20.6127 7.2778 20.7008 7.87012 20.7493C8.4769 20.7988 9.26061 20.8 10.4004 20.8H13.5996C14.7394 20.8 15.5231 20.7988 16.1299 20.7493C16.7223 20.7008 17.0411 20.6127 17.2715 20.4954C17.7982 20.2269 18.2267 19.7984 18.4951 19.2717C18.6125 19.0413 18.7006 18.7225 18.749 18.1301C18.7986 17.5234 18.7998 16.7397 18.7998 15.5999V8.40063C18.7998 7.26086 18.7986 6.47714 18.749 5.87036C18.7006 5.27805 18.6125 4.95915 18.4951 4.72876C18.2267 4.20208 17.7981 3.77356 17.2715 3.50513C17.0411 3.38774 16.7223 3.29967 16.1299 3.25122C15.5231 3.20165 14.7394 3.20044 13.5996 3.20044H10.4004ZM14 16.7883C14.6626 16.7884 15.2 17.326 15.2002 17.9885C15.2002 18.6512 14.6627 19.1886 14 19.1887H10C9.33728 19.1887 8.7998 18.6513 8.7998 17.9885C8.79996 17.3259 9.33738 16.7884 10 16.7883H14Z" fill="#F3F6F8"/>
</g>
<defs>
<clipPath id="clip0_24452_69126">
<rect width="24" height="24" fill="white"/>
</clipPath>
</defs>
</svg>
