<svg width="24" height="24" viewBox="0 0 24 24" fill="none" xmlns="http://www.w3.org/2000/svg">
<g clip-path="url(#clip0_24452_69261)">
<path d="M21.1306 13.099C21.7707 13.2705 22.1508 13.9288 21.9793 14.5689C20.5211 20.0099 14.9278 23.2394 9.48662 21.7815C7.51398 21.2529 5.83069 20.1784 4.55708 18.7662L4.25201 19.9047C4.08035 20.5447 3.42211 20.9249 2.78208 20.7534C2.14219 20.5818 1.76212 19.9234 1.93341 19.2835L3.34201 14.0265L8.59989 15.4354C9.23986 15.607 9.62006 16.2653 9.44855 16.9053C9.27683 17.5451 8.6185 17.9253 7.97862 17.754L6.53445 17.367C7.48206 18.3437 8.69693 19.0848 10.1079 19.4629C14.2687 20.5778 18.5455 18.1084 19.6607 13.9476C19.8322 13.3076 20.4905 12.9276 21.1306 13.099ZM21.5189 3.18286C22.1591 3.35439 22.5391 4.01264 22.3676 4.6528L20.959 9.90973L15.702 8.50114C15.0619 8.32961 14.6818 7.67137 14.8534 7.03121C15.025 6.3912 15.6832 6.01103 16.3233 6.18254L17.7665 6.56925C16.8189 5.59254 15.6041 4.85147 14.1931 4.47335C10.0322 3.35845 5.75545 5.8279 4.64031 9.98865C4.4688 10.6287 3.81048 11.0087 3.17038 10.8373C2.53022 10.6658 2.15018 10.0075 2.32171 9.36738C3.77991 3.92631 9.37315 0.69679 14.8143 2.15475C16.7872 2.68342 18.47 3.75862 19.7436 5.17102L20.049 4.03153C20.2205 3.39138 20.8787 3.01135 21.5189 3.18286Z" fill="#F3F6F8"/>
</g>
<defs>
<clipPath id="clip0_24452_69261">
<rect width="24" height="24" fill="white"/>
</clipPath>
</defs>
</svg>
