<svg width="24" height="24" viewBox="0 0 24 24" fill="none" xmlns="http://www.w3.org/2000/svg">
<path d="M18.2104 2.43359C19.0974 2.43359 19.9074 2.93684 20.3013 3.73145L23.0493 9.27832C23.4721 10.1317 23.3344 11.1563 22.7007 11.8672L13.855 21.7852C12.9269 22.8258 11.2996 22.8258 10.3716 21.7852L1.52588 11.8672C0.892138 11.1564 0.753648 10.1317 1.17627 9.27832L3.92432 3.73145C4.31814 2.9367 5.12914 2.43363 6.01611 2.43359H18.2104ZM12.1128 18.6826L15.3433 11.3477H8.8833L12.1128 18.6826ZM3.34619 10.3027L9.70459 17.4326L7.0249 11.3477H5.24561C4.77596 11.3477 4.39504 10.9667 4.39502 10.4971C4.39512 10.0275 4.77601 9.64648 5.24561 9.64648H6.96436L8.5542 4.83398H6.05615L3.34619 10.3027ZM17.2622 9.64648H18.981C19.4505 9.64655 19.8314 10.0275 19.8315 10.4971C19.8315 10.9667 19.4505 11.3476 18.981 11.3477H17.2017L14.522 17.4297L20.8784 10.3027L18.1694 4.83398H15.6724L17.2622 9.64648ZM8.75635 9.64648H15.4702L13.8804 4.83398H10.3462L8.75635 9.64648Z" fill="#F3F6F8"/>
</svg>
