<svg width="24" height="24" viewBox="0 0 24 24" fill="none" xmlns="http://www.w3.org/2000/svg">
<path d="M15.5996 2.97754C16.7032 2.97754 17.5914 2.97656 18.3086 3.03516C19.0373 3.09469 19.6773 3.2208 20.2695 3.52246C21.2103 4.00183 21.9757 4.7672 22.4551 5.70801C22.7567 6.3002 22.8828 6.94024 22.9424 7.66895C23.001 8.38611 23 9.27435 23 10.3779V13.5771C23 14.6807 23.001 15.569 22.9424 16.2861C22.8828 17.0148 22.7567 17.6549 22.4551 18.2471C21.9757 19.1879 21.2103 19.9533 20.2695 20.4326C19.6773 20.7343 19.0373 20.8604 18.3086 20.9199C17.5914 20.9785 16.7032 20.9775 15.5996 20.9775H8.40039C7.29681 20.9775 6.40857 20.9785 5.69141 20.9199C4.9627 20.8604 4.32266 20.7343 3.73047 20.4326C2.78966 19.9533 2.02429 19.1879 1.54492 18.2471C1.24326 17.6549 1.11715 17.0148 1.05762 16.2861C0.999026 15.569 1 14.6807 1 13.5771V10.3779C1 9.27435 0.999025 8.38611 1.05762 7.66895C1.11715 6.94024 1.24326 6.3002 1.54492 5.70801C2.02429 4.7672 2.78966 4.00183 3.73047 3.52246C4.32266 3.2208 4.9627 3.09469 5.69141 3.03516C6.40857 2.97656 7.29681 2.97754 8.40039 2.97754H15.5996ZM8.40039 4.97754C7.26396 4.97754 6.47129 4.97795 5.85449 5.02832C5.24933 5.07776 4.90105 5.1705 4.6377 5.30469C4.07347 5.59226 3.61472 6.05101 3.32715 6.61523C3.19296 6.87859 3.10023 7.22686 3.05078 7.83203C3.00041 8.44883 3 9.2415 3 10.3779V13.5771C3 14.7136 3.00041 15.5062 3.05078 16.123C3.10023 16.7282 3.19296 17.0765 3.32715 17.3398C3.61472 17.9041 4.07347 18.3628 4.6377 18.6504C4.90105 18.7846 5.24933 18.8773 5.85449 18.9268C6.47129 18.9771 7.26396 18.9775 8.40039 18.9775H15.5996C16.736 18.9775 17.5287 18.9771 18.1455 18.9268C18.7507 18.8773 19.0989 18.7846 19.3623 18.6504C19.9265 18.3628 20.3853 17.9041 20.6729 17.3398C20.807 17.0765 20.8998 16.7282 20.9492 16.123C20.9996 15.5062 21 14.7136 21 13.5771V10.3779C21 9.2415 20.9996 8.44883 20.9492 7.83203C20.8998 7.22686 20.807 6.87859 20.6729 6.61523C20.3853 6.05101 19.9265 5.59226 19.3623 5.30469C19.0989 5.1705 18.7507 5.07776 18.1455 5.02832C17.5287 4.97795 16.736 4.97754 15.5996 4.97754H8.40039ZM10.6943 8.63086C11.1251 8.58578 11.6504 8.889 12.7002 9.49512L13.7998 10.1299C14.8499 10.7362 15.3755 11.0398 15.5518 11.4355C15.7052 11.7805 15.7052 12.1746 15.5518 12.5195C15.3755 12.9153 14.8499 13.2189 13.7998 13.8252L12.7002 14.46C11.6504 15.0661 11.1251 15.3693 10.6943 15.3242C10.3186 15.2847 9.977 15.0878 9.75488 14.7822C9.50024 14.4317 9.5 13.8249 9.5 12.6123V11.3428C9.5 10.1302 9.50024 9.52334 9.75488 9.17285C9.977 8.8673 10.3186 8.67035 10.6943 8.63086Z" fill="#F3F6F8"/>
</svg>
