<svg width="24" height="24" viewBox="0 0 24 24" fill="none" xmlns="http://www.w3.org/2000/svg">
<path d="M12 1.78882C17.6332 1.78892 22.2002 6.35577 22.2002 11.989C22.2001 17.6222 17.6331 22.1891 12 22.1892C6.36676 22.1892 1.79991 17.6222 1.7998 11.989C1.7998 6.35571 6.3667 1.78882 12 1.78882ZM12 4.18921C7.69218 4.18921 4.2002 7.68119 4.2002 11.989C4.2003 16.2967 7.69224 19.7888 12 19.7888C16.3077 19.7887 19.7997 16.2967 19.7998 11.989C19.7998 7.68126 16.3077 4.18931 12 4.18921ZM12.6064 6.30835C12.988 6.00155 13.4811 5.90981 13.9355 6.05933H13.9365C16.2831 6.83935 18 9.20384 18 11.9988C18 14.7942 16.2831 17.1584 13.9307 17.9197C13.4819 18.0673 12.9943 17.9756 12.6172 17.6726C12.2408 17.3703 12.0185 16.8929 12.0176 16.3855C11.9996 14.1362 12 9.86406 12 7.61499C12 7.09996 12.2248 6.61496 12.6064 6.30835Z" fill="#F3F6F8"/>
</svg>
