<svg width="24" height="24" viewBox="0 0 24 24" fill="none" xmlns="http://www.w3.org/2000/svg">
<path d="M19 12.7881C19.4494 12.7881 19.8466 12.7881 20.1758 12.8105C20.5158 12.8337 20.8703 12.8855 21.2246 13.0322C22.0085 13.357 22.6313 13.9798 22.9561 14.7637C23.1028 15.1179 23.1545 15.4726 23.1777 15.8125C23.2002 16.1416 23.2002 16.5389 23.2002 16.9883C23.2002 17.4376 23.2002 17.8349 23.1777 18.1641C23.1545 18.504 23.1028 18.8586 22.9561 19.2129C22.6313 19.9968 22.0085 20.6195 21.2246 20.9443C20.8703 21.0911 20.5158 21.1428 20.1758 21.166C19.8466 21.1885 19.4494 21.1885 19 21.1885H10C9.55056 21.1885 9.15342 21.1885 8.82422 21.166C8.48421 21.1428 8.12974 21.0911 7.77539 20.9443C6.99146 20.6195 6.36871 19.9968 6.04395 19.2129C5.89723 18.8586 5.84546 18.504 5.82227 18.1641C5.79983 17.8349 5.7998 17.4376 5.7998 16.9883C5.7998 16.5389 5.79982 16.1416 5.82227 15.8125C5.84547 15.4726 5.8972 15.1179 6.04395 14.7637C6.36875 13.9798 6.99149 13.357 7.77539 13.0322C8.12972 12.8855 8.48423 12.8337 8.82422 12.8105C9.15341 12.7881 9.55057 12.7881 10 12.7881H19ZM10 15.1885C9.51765 15.1885 9.2159 15.1885 8.9873 15.2041C8.77242 15.2188 8.70866 15.2431 8.69434 15.249C8.49838 15.3302 8.34196 15.4867 8.26074 15.6826C8.25493 15.6968 8.23052 15.7605 8.21582 15.9756C8.20023 16.2041 8.2002 16.5061 8.2002 16.9883C8.2002 17.4705 8.20024 17.7724 8.21582 18.001C8.23044 18.2153 8.25477 18.2794 8.26074 18.2939C8.34193 18.4899 8.49835 18.6463 8.69434 18.7275C8.70849 18.7334 8.772 18.7578 8.9873 18.7725C9.2159 18.7881 9.51764 18.7881 10 18.7881H19C19.4824 18.7881 19.7841 18.7881 20.0127 18.7725C20.228 18.7578 20.2915 18.7334 20.3057 18.7275C20.5016 18.6463 20.6581 18.4899 20.7393 18.2939C20.7452 18.2794 20.7696 18.2153 20.7842 18.001C20.7998 17.7724 20.7998 17.4705 20.7998 16.9883C20.7998 16.5061 20.7998 16.2041 20.7842 15.9756C20.7695 15.7605 20.7451 15.6968 20.7393 15.6826C20.658 15.4867 20.5016 15.3302 20.3057 15.249C20.2913 15.2431 20.2276 15.2188 20.0127 15.2041C19.7841 15.1885 19.4823 15.1885 19 15.1885H10ZM7.07422 1.53223C7.46197 1.49147 7.93487 1.76397 8.87988 2.30957L10.6201 3.31445C11.5651 3.86005 12.0377 4.13308 12.1963 4.48926C12.3346 4.79994 12.3346 5.15515 12.1963 5.46582C12.0376 5.82191 11.565 6.09508 10.6201 6.64062L8.87988 7.64453C7.93477 8.19019 7.46199 8.46361 7.07422 8.42285C6.73604 8.38727 6.42839 8.20968 6.22852 7.93457C6.01677 7.64301 6.00121 7.15452 6 6.2207C5.95585 6.22371 5.91249 6.22505 5.87012 6.22852C5.27769 6.27695 4.95891 6.36505 4.72852 6.48242C4.20176 6.75085 3.77331 7.1793 3.50488 7.70605C3.38749 7.93646 3.29942 8.25517 3.25098 8.84766C3.20141 9.45445 3.2002 10.2381 3.2002 11.3779V17.4893C3.19985 18.1516 2.66244 18.6884 2 18.6885C1.33747 18.6885 0.800145 18.1517 0.799805 17.4893V11.3779C0.799805 10.2777 0.798993 9.37953 0.858398 8.65234C0.918962 7.91131 1.04875 7.24224 1.36719 6.61719C1.86573 5.63874 2.66121 4.84327 3.63965 4.34473C4.26469 4.02631 4.93379 3.8965 5.6748 3.83594C5.77958 3.82738 5.88804 3.82265 6 3.81641C6.00052 2.82894 6.01077 2.32054 6.22852 2.02051C6.42839 1.74541 6.73605 1.56781 7.07422 1.53223ZM23 5.18848H17C16.5177 5.18848 16.2159 5.18851 15.9873 5.2041C15.7724 5.21877 15.7087 5.24314 15.6943 5.24902C15.4984 5.33019 15.342 5.48669 15.2607 5.68262C15.2549 5.69676 15.2305 5.76046 15.2158 5.97559C15.2002 6.20414 15.2002 6.50606 15.2002 6.98828C15.2002 7.47047 15.2002 7.77241 15.2158 8.00098C15.2304 8.21525 15.2548 8.27939 15.2607 8.29395C15.3419 8.48994 15.4984 8.64633 15.6943 8.72754C15.7085 8.73336 15.772 8.75777 15.9873 8.77246C16.2159 8.78806 16.5176 8.78809 17 8.78809H23V11.1885H17C16.5506 11.1885 16.1534 11.1885 15.8242 11.166C15.4842 11.1428 15.1297 11.0911 14.7754 10.9443C13.9915 10.6195 13.3687 9.99683 13.0439 9.21289C12.8972 8.8586 12.8455 8.50401 12.8223 8.16406C12.7998 7.83491 12.7998 7.43761 12.7998 6.98828C12.7998 6.53894 12.7998 6.14164 12.8223 5.8125C12.8455 5.47256 12.8972 5.11795 13.0439 4.76367C13.3687 3.9798 13.9915 3.35698 14.7754 3.03223C15.1297 2.88547 15.4842 2.83374 15.8242 2.81055C16.1534 2.7881 16.5506 2.78809 17 2.78809H23V5.18848Z" fill="#F3F6F8"/>
</svg>
