<svg width="24" height="24" viewBox="0 0 24 24" fill="none" xmlns="http://www.w3.org/2000/svg">
<g clip-path="url(#clip0_24452_29349)">
<path d="M4 8.4L4 15.6C4 17.8402 4 18.9603 4.43597 19.816C4.81947 20.5686 5.43139 21.1805 6.18404 21.564C7.03969 22 8.15979 22 10.4 22L13.6 22C15.8402 22 16.9603 22 17.816 21.564C18.5686 21.1805 19.1805 20.5686 19.564 19.816C20 18.9603 20 17.8402 20 15.6L20 9.07017C20 7.93867 20 7.37291 19.8559 6.8507C19.7283 6.38807 19.5184 5.95219 19.2364 5.56389C18.918 5.12558 18.4757 4.77277 17.5912 4.06714L16.7511 3.39696C16.1021 2.87918 15.7775 2.62028 15.4163 2.43619C15.0959 2.27286 14.7549 2.1535 14.4025 2.08134C14.0054 2 13.5902 2 12.7599 2L10.4 2C8.15979 2 7.03968 2 6.18404 2.43597C5.43139 2.81947 4.81947 3.43139 4.43597 4.18404C4 5.03968 4 6.15979 4 8.4Z" stroke="#F3F6F8" stroke-width="2.4"/>
<path d="M10 8.98877H14" stroke="#F3F6F8" stroke-width="2.4" stroke-linecap="round"/>
<path d="M10 14.9888H14" stroke="#F3F6F8" stroke-width="2.4" stroke-linecap="round"/>
</g>
<defs>
<clipPath id="clip0_24452_29349">
<rect width="24" height="24" fill="white"/>
</clipPath>
</defs>
</svg>
