<svg width="24" height="24" viewBox="0 0 24 24" fill="none" xmlns="http://www.w3.org/2000/svg">
<path d="M12.7783 1.94409C13.8367 1.99667 14.8189 2.51298 15.4619 3.35522C15.9209 3.95661 16.0673 4.69945 16.1338 5.42554C16.2015 6.16526 16.2002 7.11828 16.2002 8.2771V15.6775C16.2002 16.8363 16.2015 17.7893 16.1338 18.5291C16.0673 19.2552 15.9209 19.9979 15.4619 20.5994C14.8189 21.4418 13.8368 21.9579 12.7783 22.0105C12.0228 22.0479 11.3283 21.7479 10.6924 21.3914C10.0444 21.0281 9.25962 20.4873 8.30469 19.8308L7.10156 19.0037C6.92152 18.8799 6.88426 18.8554 6.85156 18.8367C6.69878 18.7491 6.52804 18.6958 6.35254 18.6814C6.3149 18.6783 6.27089 18.6775 6.05176 18.6775C5.50849 18.6775 5.04607 18.6839 4.6377 18.5955C3.25825 18.2965 2.18075 17.2191 1.88184 15.8396C1.79343 15.4313 1.7998 14.9687 1.7998 14.4255V9.52905C1.7998 8.98589 1.79337 8.5233 1.88184 8.11499C2.18085 6.73563 3.25829 5.65803 4.6377 5.35913C5.04607 5.27065 5.50849 5.2771 6.05176 5.2771C6.271 5.2771 6.31489 5.27627 6.35254 5.27319C6.52812 5.2588 6.69872 5.20553 6.85156 5.11792C6.88425 5.09915 6.92149 5.07473 7.10156 4.95093L8.30469 4.12378C9.25968 3.46722 10.0444 2.92652 10.6924 2.56323C11.3283 2.20672 12.0228 1.90668 12.7783 1.94409ZM12.6592 4.34155C12.6041 4.33895 12.4058 4.3545 11.8662 4.65698C11.3369 4.95374 10.6584 5.41769 9.66406 6.10132L8.46094 6.92944C8.31152 7.03217 8.18249 7.12207 8.04492 7.20093C7.58644 7.46371 7.07552 7.6216 6.54883 7.66479C6.39072 7.67776 6.23319 7.67749 6.05176 7.67749C5.38341 7.67749 5.23943 7.68448 5.14551 7.70483C4.68612 7.80455 4.32737 8.16345 4.22754 8.6228C4.20719 8.71672 4.2002 8.86092 4.2002 9.52905V14.4255C4.2002 15.0932 4.20724 15.2379 4.22754 15.3318C4.32727 15.7912 4.68608 16.15 5.14551 16.2498C5.23943 16.2701 5.38341 16.2771 6.05176 16.2771C6.23317 16.2771 6.39074 16.2768 6.54883 16.2898C7.07544 16.333 7.58649 16.4909 8.04492 16.7537C8.18245 16.8325 8.31158 16.9225 8.46094 17.0251L9.66406 17.8533C10.6584 18.5369 11.3369 19.0008 11.8662 19.2976C12.4059 19.6002 12.6041 19.6156 12.6592 19.613C13.0119 19.5955 13.3394 19.4239 13.5537 19.1433C13.5869 19.0997 13.6867 18.9272 13.7432 18.3103C13.7985 17.7061 13.7998 16.884 13.7998 15.6775V8.2771C13.7998 7.07059 13.7985 6.24851 13.7432 5.64429C13.6866 5.02686 13.5868 4.85463 13.5537 4.81128C13.3394 4.53082 13.0118 4.35907 12.6592 4.34155ZM19.6377 7.83472C20.2695 7.63464 20.9434 7.98424 21.1436 8.61597C21.4821 9.68521 21.665 10.8231 21.665 12.0007C21.665 13.1784 21.4822 14.3163 21.1436 15.3855C20.9432 16.0169 20.2693 16.3667 19.6377 16.1667C19.0061 15.9667 18.6567 15.2925 18.8564 14.6609C19.1217 13.8233 19.2646 12.9296 19.2646 12.0007C19.2646 11.0718 19.1216 10.1782 18.8564 9.34058C18.6564 8.70885 19.0061 8.03492 19.6377 7.83472Z" fill="#F3F6F8"/>
</svg>
