<svg width="24" height="24" viewBox="0 0 24 24" fill="none" xmlns="http://www.w3.org/2000/svg">
<path d="M2.50049 3.80029C3.16314 3.8004 3.70068 4.33781 3.70068 5.00049V19.0005C3.70058 19.6631 3.16308 20.2006 2.50049 20.2007C1.83781 20.2007 1.3004 19.6631 1.30029 19.0005V5.00049C1.30029 4.33775 1.83775 3.80029 2.50049 3.80029ZM21.5005 3.80029C22.163 3.80056 22.7007 4.33791 22.7007 5.00049V19.0005C22.7007 19.6631 22.163 20.2004 21.5005 20.2007C20.8377 20.2007 20.3003 19.6632 20.3003 19.0005V5.00049C20.3003 4.33775 20.8377 3.80029 21.5005 3.80029ZM17.5005 7.80029C18.163 7.80056 18.7007 8.33791 18.7007 9.00049V17.0005C18.7007 17.6631 18.163 18.2004 17.5005 18.2007C16.8377 18.2007 16.3003 17.6632 16.3003 17.0005V9.00049C16.3003 8.33775 16.8377 7.80029 17.5005 7.80029ZM6.50049 5.80029C7.16314 5.8004 7.70068 6.33781 7.70068 7.00049V15.0005C7.70058 15.6631 7.16308 16.2006 6.50049 16.2007C5.83781 16.2007 5.3004 15.6631 5.30029 15.0005V7.00049C5.30029 6.33775 5.83775 5.80029 6.50049 5.80029ZM13.5005 11.8003C14.163 11.8006 14.7007 12.3379 14.7007 13.0005V15.0005C14.7007 15.6631 14.163 16.2004 13.5005 16.2007C12.8377 16.2007 12.3003 15.6632 12.3003 15.0005V13.0005C12.3003 12.3377 12.8377 11.8003 13.5005 11.8003ZM10.5005 7.80029C11.1631 7.8004 11.7007 8.33781 11.7007 9.00049V11.0005C11.7006 11.6631 11.1631 12.2006 10.5005 12.2007C9.83781 12.2007 9.3004 11.6631 9.30029 11.0005V9.00049C9.30029 8.33775 9.83775 7.80029 10.5005 7.80029Z" fill="#F3F6F8"/>
</svg>
