<svg width="24" height="24" viewBox="0 0 24 24" fill="none" xmlns="http://www.w3.org/2000/svg">
<g clip-path="url(#clip0_24452_69242)">
<path d="M12 0.800293C18.1855 0.800399 23.2002 5.81496 23.2002 12.0005C23.2001 18.1859 18.1854 23.2006 12 23.2007C5.81448 23.2007 0.79991 18.186 0.799805 12.0005C0.799805 5.8149 5.81441 0.800293 12 0.800293ZM12 3.20068C7.13989 3.20068 3.2002 7.14038 3.2002 12.0005C3.2003 16.8605 7.13996 20.8003 12 20.8003C16.86 20.8002 20.7997 16.8604 20.7998 12.0005C20.7998 7.14045 16.86 3.20079 12 3.20068ZM15.8906 10.8228C16.5531 10.8231 17.0908 11.3604 17.0908 12.0229C17.0906 12.6853 16.5529 13.2228 15.8906 13.2231H8.2002C7.53762 13.2231 7.00021 12.6855 7 12.0229C7 11.3602 7.53749 10.8228 8.2002 10.8228H15.8906Z" fill="#F3F6F8"/>
</g>
<defs>
<clipPath id="clip0_24452_69242">
<rect width="24" height="24" fill="white"/>
</clipPath>
</defs>
</svg>
