<svg width="24" height="24" viewBox="0 0 24 24" fill="none" xmlns="http://www.w3.org/2000/svg">
<path d="M2 9.38877C2 7.14856 2 6.02845 2.43597 5.17281C2.81947 4.42016 3.43139 3.80824 4.18404 3.42474C5.03968 2.98877 6.15979 2.98877 8.4 2.98877H15.6C17.8402 2.98877 18.9603 2.98877 19.816 3.42474C20.5686 3.80824 21.1805 4.42016 21.564 5.17281C22 6.02845 22 7.14856 22 9.38877V14.9888C22 17.1979 20.2091 18.9888 18 18.9888C17.4477 18.9888 17 19.4365 17 19.9888V21.9888L13.5201 19.9008C12.9543 19.5613 12.6714 19.3916 12.3694 19.2716C12.1013 19.165 11.8225 19.0878 11.5377 19.0412C11.217 18.9888 10.8871 18.9888 10.2273 18.9888H8.4C6.15979 18.9888 5.03968 18.9888 4.18404 18.5528C3.43139 18.1693 2.81947 17.5574 2.43597 16.8047C2 15.9491 2 14.829 2 12.5888V9.38877Z" stroke="#F3F6F8" stroke-width="2.4" stroke-linejoin="round"/>
<path d="M7 8.97778H17" stroke="#F3F6F8" stroke-width="2.4" stroke-linecap="round"/>
<path d="M7 13.7776H13" stroke="#F3F6F8" stroke-width="2.4" stroke-linecap="round"/>
</svg>
