<svg width="24" height="24" viewBox="0 0 24 24" fill="none" xmlns="http://www.w3.org/2000/svg">
<path fill-rule="evenodd" clip-rule="evenodd" d="M12 22C17.5228 22 22 17.5228 22 12C22 6.47715 17.5228 2 12 2C6.47715 2 2 6.47715 2 12C2 17.5228 6.47715 22 12 22Z" fill="#FB6328"/>
<g clip-path="url(#clip0_24452_69301)">
<path d="M11.1483 10.1092C11.2955 10.1092 11.415 11.2792 11.415 12.7225L11.4144 12.9175C11.4038 14.2698 11.2888 15.3359 11.1483 15.3359C11.0061 15.3359 10.89 14.2442 10.8816 12.8692V12.6736C10.8844 11.2525 11.0027 10.1092 11.1483 10.1092ZM10.2238 10.6425C10.3677 10.6425 10.485 11.6425 10.4905 12.8948V13.0836C10.485 14.3359 10.3677 15.3359 10.2238 15.3359C10.0822 15.3359 9.96607 14.3609 9.95718 13.1303V12.9414L9.95829 12.7525C9.97218 11.5675 10.0861 10.6425 10.2238 10.6425ZM9.2994 10.6425C9.44107 10.6425 9.55718 11.6175 9.56607 12.8481V13.037L9.56496 13.2259C9.55107 14.4109 9.43718 15.3359 9.2994 15.3359C9.15552 15.3359 9.03829 14.3359 9.03274 13.0836V12.8948C9.03829 11.6425 9.15552 10.6425 9.2994 10.6425ZM8.37496 10.9625C8.52218 10.9625 8.64163 11.9414 8.64163 13.1492L8.64052 13.3353C8.6294 14.4559 8.51441 15.3359 8.37496 15.3359C8.2294 15.3359 8.11163 14.382 8.10829 13.1959V13.1025C8.11163 11.9164 8.2294 10.9625 8.37496 10.9625ZM7.45052 11.9225C7.59774 11.9225 7.71718 12.6864 7.71718 13.6292V13.717C7.70996 14.6186 7.59329 15.3359 7.45052 15.3359C7.30329 15.3359 7.18385 14.572 7.18385 13.6292V13.5414C7.19107 12.6398 7.30774 11.9225 7.45052 11.9225ZM13.4416 9.25586C14.875 9.25586 16.0638 10.3036 16.285 11.6748C16.5402 11.6015 16.8081 11.5836 17.0709 11.6221C17.3336 11.6607 17.5851 11.7548 17.8085 11.8983C18.032 12.0418 18.2222 12.2314 18.3666 12.4542C18.511 12.6771 18.6061 12.9282 18.6457 13.1908C18.6852 13.4534 18.6683 13.7214 18.5961 13.9769C18.5238 14.2325 18.3979 14.4696 18.2266 14.6726C18.0554 14.8756 17.8429 15.0397 17.6032 15.154C17.3635 15.2683 17.1021 15.3301 16.8366 15.3353L16.8016 15.3359H12.2683C12.1551 15.3359 12.0466 15.2909 11.9666 15.2109C11.8866 15.1309 11.8416 15.0224 11.8416 14.9092V9.74086C12.3149 9.42381 12.8719 9.25496 13.4416 9.25586ZM6.52607 11.8159C6.67329 11.8159 6.79274 12.5559 6.79274 13.4692V13.5559C6.78496 14.4281 6.66885 15.1225 6.52607 15.1225C6.38163 15.1225 6.26329 14.4059 6.25941 13.5125V13.4692C6.25941 12.5559 6.37885 11.8159 6.52607 11.8159ZM5.60163 12.3492C5.74885 12.3492 5.86829 12.8748 5.86829 13.5225V13.5953C5.85941 14.2092 5.74329 14.6959 5.60163 14.6959C5.45441 14.6959 5.33496 14.1703 5.33496 13.5225V13.4498C5.34385 12.8359 5.45996 12.3492 5.60163 12.3492Z" fill="white"/>
</g>
<defs>
<clipPath id="clip0_24452_69301">
<rect width="13.3333" height="13.3333" fill="white" transform="translate(5.33496 5.33398)"/>
</clipPath>
</defs>
</svg>
