<svg width="24" height="24" viewBox="0 0 24 24" fill="none" xmlns="http://www.w3.org/2000/svg">
<path d="M7 12.7888C7.44936 12.7888 7.84663 12.7888 8.17578 12.8113C8.51573 12.8345 8.87032 12.8862 9.22461 13.033C10.0085 13.3578 10.6313 13.9805 10.9561 14.7644C11.1028 15.1187 11.1545 15.4733 11.1777 15.8132C11.2002 16.1424 11.2002 16.5397 11.2002 16.989C11.2002 17.4384 11.2002 17.8356 11.1777 18.1648C11.1545 18.5048 11.1028 18.8593 10.9561 19.2136C10.6313 19.9975 10.0085 20.6203 9.22461 20.9451C8.87031 21.0918 8.51574 21.1435 8.17578 21.1667C7.84663 21.1892 7.44936 21.1892 7 21.1892H5C4.55065 21.1892 4.15338 21.1892 3.82422 21.1667C3.48428 21.1436 3.12967 21.0918 2.77539 20.9451C1.9915 20.6203 1.36875 19.9975 1.04395 19.2136C0.897194 18.8593 0.845471 18.5047 0.822266 18.1648C0.799818 17.8356 0.799805 17.4384 0.799805 16.989C0.799805 16.5397 0.799827 16.1424 0.822266 15.8132C0.845462 15.4733 0.897195 15.1187 1.04395 14.7644C1.36872 13.9804 1.99142 13.3577 2.77539 13.033C3.12972 12.8862 3.48424 12.8345 3.82422 12.8113C4.15338 12.7888 4.55064 12.7888 5 12.7888H7ZM19 12.7888C19.4494 12.7888 19.8466 12.7888 20.1758 12.8113C20.5157 12.8345 20.8703 12.8862 21.2246 13.033C22.0085 13.3578 22.6313 13.9805 22.9561 14.7644C23.1028 15.1187 23.1545 15.4733 23.1777 15.8132C23.2002 16.1424 23.2002 16.5397 23.2002 16.989C23.2002 17.4384 23.2002 17.8356 23.1777 18.1648C23.1545 18.5048 23.1028 18.8593 22.9561 19.2136C22.6313 19.9975 22.0085 20.6203 21.2246 20.9451C20.8703 21.0918 20.5157 21.1435 20.1758 21.1667C19.8466 21.1892 19.4494 21.1892 19 21.1892H17C16.5507 21.1892 16.1534 21.1892 15.8242 21.1667C15.4843 21.1436 15.1297 21.0918 14.7754 20.9451C13.9915 20.6203 13.3687 19.9975 13.0439 19.2136C12.8972 18.8593 12.8455 18.5047 12.8223 18.1648C12.7998 17.8356 12.7998 17.4384 12.7998 16.989C12.7998 16.5397 12.7998 16.1424 12.8223 15.8132C12.8455 15.4733 12.8972 15.1187 13.0439 14.7644C13.3687 13.9804 13.9914 13.3577 14.7754 13.033C15.1297 12.8862 15.4842 12.8345 15.8242 12.8113C16.1534 12.7888 16.5506 12.7888 17 12.7888H19ZM5 15.1892C4.51777 15.1892 4.21588 15.1892 3.9873 15.2048C3.77248 15.2195 3.70868 15.2439 3.69434 15.2498C3.49831 15.331 3.34194 15.4873 3.26074 15.6833C3.25485 15.6977 3.23048 15.7615 3.21582 15.9763C3.20024 16.2049 3.2002 16.5068 3.2002 16.989C3.2002 17.4713 3.20023 17.7731 3.21582 18.0017C3.23052 18.2169 3.25493 18.2805 3.26074 18.2947C3.34196 18.4906 3.49839 18.6471 3.69434 18.7283C3.70894 18.7343 3.77315 18.7586 3.9873 18.7732C4.21587 18.7888 4.51778 18.7888 5 18.7888H7C7.48225 18.7888 7.78413 18.7888 8.0127 18.7732C8.22787 18.7585 8.29152 18.7341 8.30566 18.7283C8.50161 18.6471 8.65806 18.4906 8.73926 18.2947C8.74507 18.2805 8.76948 18.2169 8.78418 18.0017C8.79977 17.7731 8.7998 17.4713 8.7998 16.989C8.7998 16.5068 8.79976 16.2049 8.78418 15.9763C8.76957 15.7622 8.74524 15.698 8.73926 15.6833C8.65809 15.4874 8.50158 15.331 8.30566 15.2498C8.29152 15.2439 8.22785 15.2195 8.0127 15.2048C7.78413 15.1892 7.48225 15.1892 7 15.1892H5ZM17 15.1892C16.5178 15.1892 16.2159 15.1892 15.9873 15.2048C15.7725 15.2195 15.7087 15.2439 15.6943 15.2498C15.4983 15.331 15.3419 15.4873 15.2607 15.6833C15.2549 15.6977 15.2305 15.7615 15.2158 15.9763C15.2002 16.2049 15.2002 16.5068 15.2002 16.989C15.2002 17.4713 15.2002 17.7731 15.2158 18.0017C15.2305 18.2169 15.2549 18.2805 15.2607 18.2947C15.342 18.4906 15.4984 18.6471 15.6943 18.7283C15.7089 18.7343 15.7731 18.7586 15.9873 18.7732C16.2159 18.7888 16.5178 18.7888 17 18.7888H19C19.4822 18.7888 19.7841 18.7888 20.0127 18.7732C20.2279 18.7585 20.2915 18.7341 20.3057 18.7283C20.5016 18.6471 20.6581 18.4906 20.7393 18.2947C20.7451 18.2805 20.7695 18.2169 20.7842 18.0017C20.7998 17.7731 20.7998 17.4713 20.7998 16.989C20.7998 16.5068 20.7998 16.2049 20.7842 15.9763C20.7696 15.7622 20.7452 15.698 20.7393 15.6833C20.6581 15.4874 20.5016 15.331 20.3057 15.2498C20.2915 15.2439 20.2278 15.2195 20.0127 15.2048C19.7841 15.1892 19.4822 15.1892 19 15.1892H17ZM7 2.78882C7.44936 2.78882 7.84663 2.78883 8.17578 2.81128C8.51573 2.83448 8.87032 2.88621 9.22461 3.03296C10.0085 3.35776 10.6313 3.98051 10.9561 4.7644C11.1028 5.11869 11.1545 5.4733 11.1777 5.81323C11.2002 6.14239 11.2002 6.53967 11.2002 6.98901C11.2002 7.43837 11.2002 7.83564 11.1777 8.16479C11.1545 8.50475 11.1028 8.85933 10.9561 9.21362C10.6313 9.99752 10.0085 10.6203 9.22461 10.9451C8.87031 11.0918 8.51574 11.1435 8.17578 11.1667C7.84663 11.1892 7.44936 11.1892 7 11.1892H5C4.55065 11.1892 4.15338 11.1892 3.82422 11.1667C3.48428 11.1436 3.12967 11.0918 2.77539 10.9451C1.9915 10.6203 1.36875 9.99749 1.04395 9.21362C0.897194 8.85933 0.845471 8.50474 0.822266 8.16479C0.799818 7.83564 0.799805 7.43837 0.799805 6.98901C0.799805 6.53966 0.799827 6.1424 0.822266 5.81323C0.845462 5.47325 0.897195 5.11873 1.04395 4.7644C1.36872 3.98043 1.99142 3.35774 2.77539 3.03296C3.12972 2.88621 3.48424 2.83448 3.82422 2.81128C4.15338 2.78884 4.55064 2.78882 5 2.78882H7ZM19 2.78882C19.4494 2.78882 19.8466 2.78883 20.1758 2.81128C20.5157 2.83448 20.8703 2.88621 21.2246 3.03296C22.0085 3.35776 22.6313 3.98051 22.9561 4.7644C23.1028 5.11869 23.1545 5.47329 23.1777 5.81323C23.2002 6.14239 23.2002 6.53967 23.2002 6.98901C23.2002 7.43837 23.2002 7.83564 23.1777 8.16479C23.1545 8.50475 23.1028 8.85933 22.9561 9.21362C22.6313 9.99752 22.0085 10.6203 21.2246 10.9451C20.8703 11.0918 20.5157 11.1435 20.1758 11.1667C19.8466 11.1892 19.4494 11.1892 19 11.1892H17C16.5507 11.1892 16.1534 11.1892 15.8242 11.1667C15.4843 11.1436 15.1297 11.0918 14.7754 10.9451C13.9915 10.6203 13.3687 9.99749 13.0439 9.21362C12.8972 8.85933 12.8455 8.50474 12.8223 8.16479C12.7998 7.83564 12.7998 7.43837 12.7998 6.98901C12.7998 6.53966 12.7998 6.1424 12.8223 5.81323C12.8455 5.47325 12.8972 5.11873 13.0439 4.7644C13.3687 3.98043 13.9914 3.35774 14.7754 3.03296C15.1297 2.88621 15.4842 2.83448 15.8242 2.81128C16.1534 2.78884 16.5506 2.78882 17 2.78882H19ZM5 5.18921C4.51777 5.18921 4.21588 5.18925 3.9873 5.20483C3.77248 5.21949 3.70868 5.24387 3.69434 5.24976C3.49831 5.33095 3.34194 5.48733 3.26074 5.68335C3.25485 5.69769 3.23048 5.76149 3.21582 5.97632C3.20024 6.20489 3.2002 6.50678 3.2002 6.98901C3.2002 7.47126 3.20023 7.77315 3.21582 8.00171C3.23052 8.21686 3.25493 8.28053 3.26074 8.29468C3.34196 8.49059 3.49839 8.64711 3.69434 8.72827C3.70894 8.73426 3.77315 8.75858 3.9873 8.77319C4.21587 8.78878 4.51778 8.78882 5 8.78882H7C7.48225 8.78882 7.78413 8.78879 8.0127 8.77319C8.22787 8.7585 8.29152 8.73409 8.30566 8.72827C8.50161 8.64708 8.65806 8.49062 8.73926 8.29468C8.74507 8.28053 8.76948 8.21688 8.78418 8.00171C8.79977 7.77315 8.7998 7.47126 8.7998 6.98901C8.7998 6.5068 8.79976 6.20489 8.78418 5.97632C8.76957 5.76216 8.74524 5.69796 8.73926 5.68335C8.65809 5.4874 8.50158 5.33098 8.30566 5.24976C8.29152 5.24394 8.22785 5.21953 8.0127 5.20483C7.78413 5.18924 7.48225 5.18921 7 5.18921H5ZM17 5.18921C16.5178 5.18921 16.2159 5.18925 15.9873 5.20483C15.7725 5.21949 15.7087 5.24387 15.6943 5.24976C15.4983 5.33095 15.3419 5.48733 15.2607 5.68335C15.2549 5.69769 15.2305 5.76149 15.2158 5.97632C15.2002 6.20489 15.2002 6.50678 15.2002 6.98901C15.2002 7.47126 15.2002 7.77315 15.2158 8.00171C15.2305 8.21686 15.2549 8.28053 15.2607 8.29468C15.342 8.49059 15.4984 8.64711 15.6943 8.72827C15.7089 8.73426 15.7731 8.75858 15.9873 8.77319C16.2159 8.78878 16.5178 8.78882 17 8.78882H19C19.4822 8.78882 19.7841 8.78879 20.0127 8.77319C20.2279 8.7585 20.2915 8.73409 20.3057 8.72827C20.5016 8.64708 20.6581 8.49062 20.7393 8.29468C20.7451 8.28053 20.7695 8.21688 20.7842 8.00171C20.7998 7.77315 20.7998 7.47126 20.7998 6.98901C20.7998 6.5068 20.7998 6.20489 20.7842 5.97632C20.7696 5.76216 20.7452 5.69796 20.7393 5.68335C20.6581 5.4874 20.5016 5.33098 20.3057 5.24976C20.2915 5.24394 20.2278 5.21953 20.0127 5.20483C19.7841 5.18924 19.4822 5.18921 19 5.18921H17Z" fill="#F3F6F8"/>
</svg>
