<svg width="24" height="24" viewBox="0 0 24 24" fill="none" xmlns="http://www.w3.org/2000/svg">
<path d="M12 10.2886C14.5957 10.2887 16.7002 12.3931 16.7002 14.9888C16.7002 17.5845 14.5957 19.6889 12 19.689C9.40426 19.689 7.2998 17.5845 7.2998 14.9888C7.2998 12.393 9.40426 10.2886 12 10.2886ZM12 12.689C10.7297 12.689 9.7002 13.7185 9.7002 14.9888C9.7002 16.259 10.7297 17.2886 12 17.2886C13.2702 17.2885 14.2998 16.259 14.2998 14.9888C14.2998 13.7186 13.2702 12.6891 12 12.689ZM12 2.98877C12.5523 2.98878 13 3.43649 13 3.98877V6.021C14.7591 6.13113 16.4904 6.5303 18.123 7.20654C18.3604 7.30487 18.5953 7.40865 18.8271 7.51807L19.8838 5.68994C20.1599 5.21167 20.7717 5.04765 21.25 5.32373C21.7283 5.59986 21.8923 6.21166 21.6162 6.68994L20.5801 8.48389C21.5663 9.11064 22.4833 9.84508 23.3135 10.6753C23.7821 11.1439 23.7821 11.9039 23.3135 12.3726C22.8448 12.8408 22.0847 12.8411 21.6162 12.3726C20.3533 11.1097 18.8541 10.1078 17.2041 9.42432C15.5541 8.74092 13.7859 8.38916 12 8.38916C10.2141 8.38916 8.44586 8.74092 6.7959 9.42432C5.14587 10.1078 3.64666 11.1097 2.38379 12.3726C1.91527 12.8411 1.15518 12.8408 0.686523 12.3726C0.217894 11.9039 0.217894 11.1439 0.686523 10.6753C1.51655 9.84527 2.43298 9.11054 3.41895 8.48389L2.38379 6.68994C2.10771 6.21166 2.27173 5.59986 2.75 5.32373C3.22828 5.04766 3.84009 5.21168 4.11621 5.68994L5.17188 7.51807C5.40403 7.40851 5.63929 7.30499 5.87695 7.20654C7.50956 6.5303 9.24088 6.13112 11 6.021V3.98877C11 3.43648 11.4477 2.98877 12 2.98877Z" fill="white"/>
</svg>
