<svg width="24" height="24" viewBox="0 0 24 24" fill="none" xmlns="http://www.w3.org/2000/svg">
<path d="M11.9854 2.89355C12.4036 2.69503 12.8988 2.75457 13.2578 3.04688L22.7578 10.7891L23.8633 11.6895L22.7871 12.625L13.2871 20.8828C12.9323 21.1912 12.4297 21.2642 12.002 21.0693C11.5744 20.8743 11.2999 20.4475 11.2998 19.9775V16.5664C8.90081 16.7015 7.07849 17.2249 5.82812 17.7344C5.10124 18.0306 4.56498 18.3232 4.21973 18.5342C4.04717 18.6396 3.9217 18.7244 3.84473 18.7793C3.80643 18.8066 3.78011 18.8268 3.76562 18.8379L3.75684 18.8438L3.75586 18.8428C3.37782 19.1501 2.85248 19.1994 2.4248 18.9658C1.99672 18.7319 1.75261 18.262 1.80762 17.7773L3 17.9131C1.87256 17.785 1.81091 17.7773 1.80762 17.7764V17.7754C1.80773 17.7744 1.80841 17.7727 1.80859 17.7715C1.80887 17.7691 1.80917 17.7661 1.80957 17.7627C1.81045 17.7554 1.81198 17.7451 1.81348 17.7334C1.81648 17.71 1.82041 17.6777 1.82617 17.6377C1.83776 17.5572 1.85568 17.4438 1.88086 17.3027C1.93118 17.0209 2.01182 16.6255 2.13672 16.1543C2.3855 15.2159 2.8152 13.9507 3.54004 12.6748C4.87923 10.3176 7.26358 7.88778 11.2998 7.48242V3.97754C11.2998 3.51429 11.5669 3.09234 11.9854 2.89355ZM13.7002 9.82227H12.5C8.82819 9.82227 6.799 11.7974 5.62695 13.8604C5.30219 14.432 5.04735 15.0078 4.84766 15.543C4.87229 15.5328 4.89689 15.5219 4.92188 15.5117C6.63741 14.8127 9.1661 14.1328 12.5 14.1328H13.7002V17.3438L20.1367 11.748L13.7002 6.50293V9.82227Z" fill="#F3F6F8"/>
</svg>
