<svg width="24" height="24" viewBox="0 0 24 24" fill="none" xmlns="http://www.w3.org/2000/svg">
<path d="M11.9 5.00024C11.5 7.33358 11.0833 9.68358 10.65 12.0502C10.25 14.4169 9.85 16.7669 9.45 19.1002C8.05 19.1002 6.63333 19.1002 5.2 19.1002C3.8 19.1002 2.4 19.1002 1 19.1002C1.6 16.7669 2.21667 14.4169 2.85 12.0502C3.48333 9.68358 4.1 7.33358 4.7 5.00024C5.9 5.00024 7.1 5.00024 8.3 5.00024C9.5 5.00024 10.7 5.00024 11.9 5.00024ZM22.95 5.00024C22.55 7.33358 22.1333 9.68358 21.7 12.0502C21.3 14.4169 20.9 16.7669 20.5 19.1002C19.1 19.1002 17.6833 19.1002 16.25 19.1002C14.85 19.1002 13.45 19.1002 12.05 19.1002C12.65 16.7669 13.2667 14.4169 13.9 12.0502C14.5333 9.68358 15.15 7.33358 15.75 5.00024C16.95 5.00024 18.15 5.00024 19.35 5.00024C20.55 5.00024 21.75 5.00024 22.95 5.00024Z" fill="#F3F6F8"/>
</svg>
