<svg width="24" height="24" viewBox="0 0 24 24" fill="none" xmlns="http://www.w3.org/2000/svg">
<path d="M9 11.9893H8V11.9894L9 11.9893ZM15 11.9893L16 11.9894V11.9893H15ZM12 2V3C16.9706 3 21 7.02944 21 12H22H23C23 5.92487 18.0751 1 12 1V2ZM22 12H21C21 16.9706 16.9706 21 12 21V22V23C18.0751 23 23 18.0751 23 12H22ZM12 22V21C7.02944 21 3 16.9706 3 12H2H1C1 18.0751 5.92487 23 12 23V22ZM2 12H3C3 7.02944 7.02944 3 12 3V2V1C5.92487 1 1 5.92487 1 12H2ZM12 8.98926V7.98926C9.79086 7.98926 8 9.78012 8 11.9893H9H10C10 10.8847 10.8954 9.98926 12 9.98926V8.98926ZM9 11.9893L8 11.9894C8.00035 14.198 9.79086 15.9893 12 15.9893V14.9893V13.9893C10.8958 13.9893 10.0002 13.0937 10 11.9891L9 11.9893ZM12 14.9893V15.9893C14.2091 15.9893 15.9996 14.198 16 11.9894L15 11.9893L14 11.9891C13.9998 13.0937 13.1042 13.9893 12 13.9893V14.9893ZM15 11.9893H16C16 9.78012 14.2091 7.98926 12 7.98926V8.98926V9.98926C13.1046 9.98926 14 10.8847 14 11.9893H15Z" fill="#F3F6F8"/>
</svg>
