<svg width="24" height="24" viewBox="0 0 24 24" fill="none" xmlns="http://www.w3.org/2000/svg">
<path d="M8.14941 3.35498C8.92487 3.27364 9.86989 3.81952 11.7598 4.91064L18.2402 8.65186C20.1303 9.7431 21.0754 10.2891 21.3926 11.0015C21.6691 11.6228 21.6692 12.3323 21.3926 12.9536C21.0754 13.666 20.1304 14.2119 18.2402 15.3032L11.7598 19.0444C9.86993 20.1355 8.92487 20.6805 8.14941 20.5991C7.47296 20.528 6.85781 20.1738 6.45801 19.6235C5.99972 18.9926 6 17.9008 6 15.7183V8.23584C6 6.05377 5.9999 4.96244 6.45801 4.33154C6.85781 3.78127 7.47296 3.42608 8.14941 3.35498Z" fill="#F3F6F8"/>
</svg>
