<svg width="24" height="24" viewBox="0 0 24 24" fill="none" xmlns="http://www.w3.org/2000/svg">
<path d="M4 16.9775C5.10457 16.9775 6 17.873 6 18.9775C6 20.0821 5.10457 20.9775 4 20.9775C2.89543 20.9775 2 20.0821 2 18.9775C2 17.873 2.89543 16.9775 4 16.9775ZM21 17.7773C21.6627 17.7773 22.2002 18.3148 22.2002 18.9775C22.2002 19.6403 21.6627 20.1777 21 20.1777H9C8.33726 20.1777 7.7998 19.6403 7.7998 18.9775C7.7998 18.3148 8.33726 17.7773 9 17.7773H21ZM4 9.97754C5.10457 9.97754 6 10.873 6 11.9775C6 13.0821 5.10457 13.9775 4 13.9775C2.89543 13.9775 2 13.0821 2 11.9775C2 10.873 2.89543 9.97754 4 9.97754ZM21 10.7773C21.6627 10.7773 22.2002 11.3148 22.2002 11.9775C22.2002 12.6403 21.6627 13.1777 21 13.1777H9C8.33726 13.1777 7.7998 12.6403 7.7998 11.9775C7.7998 11.3148 8.33726 10.7773 9 10.7773H21ZM4 2.97754C5.10457 2.97754 6 3.87297 6 4.97754C6 6.08211 5.10457 6.97754 4 6.97754C2.89543 6.97754 2 6.08211 2 4.97754C2 3.87297 2.89543 2.97754 4 2.97754ZM21 3.77734C21.6627 3.77734 22.2002 4.3148 22.2002 4.97754C22.2002 5.64028 21.6627 6.17773 21 6.17773H9C8.33726 6.17773 7.7998 5.64028 7.7998 4.97754C7.7998 4.3148 8.33726 3.77734 9 3.77734H21Z" fill="#F3F6F8"/>
</svg>
