<svg width="24" height="24" viewBox="0 0 24 24" fill="none" xmlns="http://www.w3.org/2000/svg">
<path d="M13 2.5C17.0755 2.5 20.3885 5.75077 20.4941 9.80078C22.2904 10.8375 23.5 12.777 23.5 15C23.5 18.3137 20.8137 21 17.5 21H7L6.66504 20.9912C3.23086 20.8169 0.5 17.9775 0.5 14.5C0.5 11.3426 2.75136 8.7112 5.73633 8.12305C6.56955 4.88918 9.50597 2.5 13 2.5ZM16.8408 9.83887C16.3722 9.37047 15.6121 9.37031 15.1436 9.83887L10.6885 14.293L8.35547 11.96C7.88682 11.4916 7.12676 11.4914 6.6582 11.96C6.1898 12.4285 6.18985 13.1886 6.6582 13.6572L9.83984 16.8389C10.0647 17.0638 10.3704 17.1903 10.6885 17.1904C11.0067 17.1904 11.3121 17.0638 11.5371 16.8389L16.8408 11.5361C17.3094 11.0676 17.3092 10.3075 16.8408 9.83887Z" fill="#F3F6F8"/>
</svg>
