<svg width="24" height="24" viewBox="0 0 24 24" fill="none" xmlns="http://www.w3.org/2000/svg">
<g clip-path="url(#clip0_24502_47829)">
<path d="M1.99778 11.9888C1.99778 6.46608 6.47552 1.98895 11.9981 1.98846C17.5211 1.98846 21.9984 6.46577 21.9984 11.9888C21.9984 17.5118 17.5211 21.9891 11.9981 21.9891C6.47552 21.9886 1.99778 17.5115 1.99778 11.9888ZM7.20026 7.17851C6.73238 7.64701 6.73235 8.40736 7.20026 8.87584L10.3505 12.0261L7.19957 15.177C6.73162 15.6454 6.73174 16.4058 7.19957 16.8743C7.66805 17.3428 8.42824 17.3425 8.8969 16.8743L12.0478 13.7234L15.1994 16.875C15.6679 17.3432 16.4281 17.343 16.8967 16.875C17.3653 16.4064 17.3651 15.6463 16.8967 15.1777L13.7451 12.0261L16.896 8.87515C17.3644 8.4065 17.3646 7.64637 16.896 7.17782C16.4274 6.70991 15.6672 6.70964 15.1987 7.17782L12.0478 10.3287L8.89759 7.17851C8.42892 6.71041 7.66871 6.71006 7.20026 7.17851Z" fill="#F3F6F8"/>
</g>
<defs>
<clipPath id="clip0_24502_47829">
<rect width="24" height="24" fill="white"/>
</clipPath>
</defs>
</svg>
