<svg width="24" height="24" viewBox="0 0 24 24" fill="none" xmlns="http://www.w3.org/2000/svg">
<path d="M2 12C2 6.47715 6.47715 2 12 2C17.5228 2 22 6.47715 22 12C22 17.5228 17.5228 22 12 22C6.47715 22 2 17.5228 2 12Z" fill="white"/>
<path d="M6.05842 16.2206L6.67583 17.287C6.80412 17.5115 6.98854 17.6879 7.20504 17.8162L9.41008 13.9995H5C5 14.2481 5.06414 14.4966 5.19244 14.7212L6.05842 16.2206Z" fill="#0066DA"/>
<path d="M12 9.50911L9.79496 5.69238C9.57846 5.82068 9.39404 5.99708 9.26575 6.22159L5.19244 13.2777C5.0665 13.4974 5.00017 13.7462 5 13.9994H9.41008L12 9.50911Z" fill="#00AC47"/>
<path d="M16.7947 17.8162C17.0112 17.6879 17.1956 17.5115 17.3239 17.287L17.5805 16.846L18.8073 14.7212C18.9356 14.4966 18.9998 14.2481 18.9998 13.9995H14.5894L15.5278 15.8437L16.7947 17.8162Z" fill="#EA4335"/>
<path d="M12 9.50916L14.205 5.69244C13.9885 5.56415 13.7399 5.5 13.4834 5.5H10.5166C10.26 5.5 10.0114 5.57217 9.79492 5.69244L12 9.50916Z" fill="#00832D"/>
<path d="M14.59 13.9995H9.41012L7.20508 17.8162C7.42157 17.9445 7.67014 18.0087 7.92673 18.0087H16.0733C16.3299 18.0087 16.5785 17.9365 16.795 17.8162L14.59 13.9995Z" fill="#2684FC"/>
<path d="M16.7709 9.74966L14.7342 6.22159C14.606 5.99708 14.4215 5.82068 14.205 5.69238L12 9.50911L14.5899 13.9994H18.992C18.992 13.7508 18.9278 13.5022 18.7995 13.2777L16.7709 9.74966Z" fill="#FFBA00"/>
</svg>
