<svg width="24" height="24" viewBox="0 0 24 24" fill="none" xmlns="http://www.w3.org/2000/svg">
<rect x="2" y="1.98877" width="20" height="20" rx="10" fill="#222324"/>
<path d="M10.6722 10.5697V10.0267C10.4905 10.002 10.3058 9.98633 10.1172 9.98633C7.84651 9.98633 5.99951 11.8337 5.99951 14.104C5.99951 15.497 6.69551 16.73 7.75751 17.4753C7.07218 16.7397 6.66551 15.754 6.66551 14.6717C6.66551 12.4337 8.44651 10.6213 10.6722 10.5693V10.5697Z" fill="#25F4EE"/>
<path d="M10.7691 16.5646C11.7821 16.5646 12.6205 15.7473 12.6581 14.7433L12.6668 5.79029L14.2905 5.79096L14.2878 5.77763C14.2538 5.59329 14.2351 5.40396 14.2351 5.20996H11.9981L11.9945 14.1756C11.9568 15.1796 11.1305 15.9853 10.1175 15.9853C9.80245 15.9853 9.50612 15.9066 9.24512 15.7693C9.58678 16.243 10.1421 16.5646 10.7695 16.5646H10.7691Z" fill="#25F4EE"/>
<path d="M17.3473 8.8472V8.32187C16.7223 8.32187 16.1403 8.1362 15.6523 7.81787C16.087 8.31687 16.6773 8.70354 17.3473 8.8472Z" fill="#25F4EE"/>
<path d="M15.6523 7.81801C15.1763 7.27101 14.887 6.55768 14.887 5.77734H14.2773C14.435 6.62968 14.9513 7.36101 15.6523 7.81801Z" fill="#FE2C55"/>
<path d="M10.1171 12.2069C9.08012 12.2069 8.22412 13.0675 8.22412 14.1045C8.22412 14.8265 8.64612 15.4539 9.24479 15.7689C9.02179 15.4599 8.88879 15.0815 8.88879 14.6722C8.88879 13.6352 9.73245 12.7915 10.7695 12.7915C10.9631 12.7915 11.1488 12.8235 11.3245 12.8785V10.5945C11.1428 10.5699 10.9581 10.5542 10.7695 10.5542C10.7368 10.5542 10.7048 10.5559 10.6721 10.5565H10.6635L10.6575 12.2859C10.4818 12.2309 10.3108 12.2065 10.1171 12.2065V12.2069Z" fill="#FE2C55"/>
<path d="M17.3473 8.82085L17.337 8.81885L17.3363 10.5462C16.1763 10.5462 15.0987 10.1645 14.221 9.53451L14.2217 14.1048C14.2217 16.3755 12.3877 18.2112 10.117 18.2112C9.23966 18.2112 8.42599 17.9458 7.75732 17.4762C8.50966 18.2838 9.58099 18.7902 10.7693 18.7902C13.04 18.7902 14.887 16.9428 14.887 14.6725V10.1262C15.7643 10.7558 16.8393 11.1272 17.9993 11.1272V8.89018C17.7757 8.89018 17.5577 8.86585 17.3473 8.82085Z" fill="#FE2C55"/>
<path d="M14.235 14.1043V9.55801C15.1124 10.1877 16.1874 10.559 17.3474 10.559V8.82034C16.6774 8.67701 16.087 8.31701 15.6524 7.81801C14.9514 7.36101 14.4454 6.62968 14.2877 5.77734H12.6497L12.646 14.743C12.6084 15.747 11.782 16.5527 10.769 16.5527C10.1417 16.5527 9.58637 16.2427 9.2447 15.769C8.64603 15.454 8.23637 14.8267 8.23637 14.1047C8.23637 13.0677 9.08003 12.224 10.117 12.224C10.3107 12.224 10.4964 12.256 10.672 12.311V10.557C8.44637 10.609 6.65137 12.4343 6.65137 14.6723C6.65137 15.7547 7.0717 16.7403 7.75703 17.476C8.4257 17.9457 9.23937 18.2223 10.1167 18.2223C12.3874 18.2223 14.2344 16.375 14.2344 14.1047L14.235 14.1043Z" fill="white"/>
</svg>
