<svg width="27" height="25" viewBox="0 0 27 25" fill="none" xmlns="http://www.w3.org/2000/svg">
<path d="M21 19.7793C21.6627 19.7794 22.2002 20.3168 22.2002 20.9795C22.2001 21.6421 21.6626 22.1796 21 22.1797H3C2.33732 22.1797 1.79991 21.6421 1.7998 20.9795C1.7998 20.3167 2.33726 19.7793 3 19.7793H21ZM10.0889 11.7764C10.5092 12.647 11.0425 13.4523 11.667 14.1768H3C2.33726 14.1768 1.7998 13.6393 1.7998 12.9766C1.79998 12.314 2.33737 11.7764 3 11.7764H10.0889ZM9.47949 3.7793C9.24474 4.54706 9.09532 5.35068 9.03418 6.17969H3C2.33732 6.17969 1.79991 5.64214 1.7998 4.97949C1.7998 4.31675 2.33726 3.7793 3 3.7793H9.47949Z" fill="#F3F6F8" fill-opacity="0.6"/>
<path d="M24.4355 2.68701H24.667V2.81982L25.833 3.49365L24.667 4.1665V4.28662H24.46L23.208 5.00928V4.28662H23.0898C22.5447 4.28675 22.0404 4.57645 21.7656 5.04736L20.6338 6.98682L21.7656 8.92627C22.0404 9.39709 22.5447 9.68689 23.0898 9.68701H23.208V8.97803L24.4365 9.68701H24.667V9.81982L25.833 10.4927L24.667 11.1655V11.2866H24.458L23.208 12.0083V11.2866H23.0898C21.9756 11.2865 20.9453 10.6944 20.3838 9.73193L19.708 8.57373L19.0332 9.73193C18.4717 10.6945 17.4405 11.2866 16.3262 11.2866H14.75V9.68701H16.3262C16.8715 9.68701 17.3766 9.39725 17.6514 8.92627L18.7822 6.98682L17.6514 5.04736C17.3766 4.5763 16.8715 4.28662 16.3262 4.28662H14.75V2.68701H16.3262C17.4406 2.68701 18.4717 3.27908 19.0332 4.2417L19.708 5.39893L20.3838 4.2417C20.9453 3.27919 21.9756 2.68714 23.0898 2.68701H23.208V1.97803L24.4355 2.68701Z" fill="#F3F6F8"/>
</svg>
