<svg width="24" height="24" viewBox="0 0 24 24" fill="none" xmlns="http://www.w3.org/2000/svg">
<g clip-path="url(#clip0_24452_69254)">
<path d="M12 0.799805C18.1855 0.79991 23.2002 5.81448 23.2002 12C23.2001 18.1854 18.1854 23.2001 12 23.2002C5.81448 23.2002 0.79991 18.1855 0.799805 12C0.799805 5.81441 5.81441 0.799805 12 0.799805ZM12 3.2002C7.13989 3.2002 3.2002 7.13989 3.2002 12C3.2003 16.86 7.13996 20.7998 12 20.7998C16.86 20.7997 20.7997 16.86 20.7998 12C20.7998 7.13996 16.86 3.2003 12 3.2002ZM12 5.97754C15.3136 5.97764 18 8.6639 18 11.9775C17.9999 15.2911 15.3136 17.9774 12 17.9775C8.68636 17.9775 6.00011 15.2912 6 11.9775C6 8.66383 8.68629 5.97754 12 5.97754Z" fill="#F3F6F8"/>
</g>
<defs>
<clipPath id="clip0_24452_69254">
<rect width="24" height="24" fill="white"/>
</clipPath>
</defs>
</svg>
