<svg width="24" height="24" viewBox="0 0 24 24" fill="none" xmlns="http://www.w3.org/2000/svg">
<g clip-path="url(#clip0_24452_69133)">
<path d="M12.063 0.790039C12.1045 0.79222 12.1459 0.797246 12.187 0.803711C18.2865 0.903437 23.2007 5.87678 23.2007 12C23.2006 18.1854 18.1859 23.2001 12.0005 23.2002C5.81496 23.2002 0.800399 18.1855 0.800293 12C0.800293 5.87895 5.71067 0.90782 11.8071 0.804688C11.8502 0.797702 11.8935 0.792323 11.937 0.790039H12.063ZM16.9917 13.1885C16.8059 15.693 16.0378 18.1625 14.687 20.3799C17.8683 19.3608 20.2599 16.5825 20.7183 13.1885H16.9917ZM3.28271 13.1885C3.74105 16.5819 6.13146 19.3605 9.31201 20.3799C7.96141 18.1626 7.19408 15.6929 7.0083 13.1885H3.28271ZM9.41553 13.1885C9.6281 15.6256 10.4891 18.0171 11.9995 20.0859C13.5101 18.017 14.3719 15.6258 14.5845 13.1885H9.41553ZM9.29443 3.625C6.12979 4.64668 3.75081 7.41128 3.28564 10.7881H7.0083C7.19335 8.29446 7.95453 5.83492 9.29443 3.625ZM14.7046 3.625C16.0447 5.83503 16.8066 8.2943 16.9917 10.7881H20.7153C20.2501 7.41075 17.87 4.64631 14.7046 3.625ZM11.9995 3.89062C10.4891 5.95939 9.62819 8.35098 9.41553 10.7881H14.5845C14.3718 8.35079 13.5101 5.9595 11.9995 3.89062Z" fill="#F3F6F8"/>
</g>
<defs>
<clipPath id="clip0_24452_69133">
<rect width="24" height="24" fill="white"/>
</clipPath>
</defs>
</svg>
