<svg width="24" height="24" viewBox="0 0 24 24" fill="none" xmlns="http://www.w3.org/2000/svg">
<path d="M12.1216 1.36035C17.7052 1.36047 22.7624 5.4617 22.7505 11.293C22.7478 12.6235 22.685 13.9908 22.5259 15.2881C22.5609 15.7031 22.5266 16.1312 22.4126 16.5566L21.6362 19.4551C21.1072 21.4287 19.0777 22.6001 17.104 22.0713C15.1303 21.5423 13.9589 19.5128 14.4878 17.5391L15.2642 14.6416C15.793 12.6678 17.8226 11.4965 19.7964 12.0254C19.9838 12.0756 20.1642 12.1389 20.3364 12.2148C20.3442 11.9069 20.3504 11.5975 20.3511 11.2881C20.3598 7.0251 16.6322 3.76086 12.1216 3.76074C7.44592 3.76077 3.60251 7.27631 3.64209 11.7725C3.64329 11.9083 3.64581 12.0441 3.64795 12.1797C3.79458 12.1193 3.94672 12.0675 4.104 12.0254C6.07783 11.4965 8.10735 12.6678 8.63623 14.6416L9.4126 17.5391C9.94145 19.5128 8.77003 21.5423 6.79639 22.0713C4.82267 22.6001 2.79318 21.4287 2.26416 19.4551L1.48779 16.5566C1.36467 16.097 1.33433 15.6345 1.38428 15.1885C1.29648 14.0873 1.25272 12.9332 1.24268 11.793C1.19007 5.78754 6.29518 1.36038 12.1216 1.36035ZM6.31787 15.2627C6.13204 14.5692 5.4186 14.1579 4.7251 14.3438C4.25181 14.4707 3.90951 14.843 3.79932 15.2871C3.80345 15.3337 3.80672 15.3805 3.81104 15.4268L3.77295 15.4297C3.75127 15.5941 3.76059 15.7654 3.80615 15.9355L4.58252 18.833C4.7683 19.5263 5.48097 19.9384 6.17432 19.7529C6.86782 19.5671 7.28006 18.8537 7.09424 18.1602L6.31787 15.2627ZM19.1743 14.3438C18.481 14.1582 17.7683 14.5694 17.5825 15.2627L16.8062 18.1602C16.6203 18.8536 17.0317 19.567 17.7251 19.7529C18.4186 19.9388 19.1311 19.5265 19.3169 18.833L20.0942 15.9355C20.1451 15.7457 20.1489 15.5546 20.1167 15.373L20.0962 15.3701C20.0992 15.3485 20.101 15.3264 20.104 15.3047C19.9985 14.8528 19.6539 14.4723 19.1743 14.3438Z" fill="#F3F6F8"/>
</svg>
