<svg width="24" height="24" viewBox="0 0 24 24" fill="none" xmlns="http://www.w3.org/2000/svg">
<g clip-path="url(#clip0_24452_69142)">
<path d="M15 0.800049C16.2149 0.800154 17.2002 1.78528 17.2002 3.00024V3.02856C18.8742 3.13199 20.2002 4.52289 20.2002 6.2229V20.0002C20.2001 21.7674 18.7672 23.2003 17 23.2004H7C5.23275 23.2004 3.79991 21.7675 3.7998 20.0002V6.2229C3.7998 4.52281 5.12574 3.13188 6.7998 3.02856V3.00024C6.7998 1.78522 7.78497 0.800049 9 0.800049H15ZM9.2002 5.4231H7C6.55817 5.4231 6.2002 5.78107 6.2002 6.2229V20.0002C6.2003 20.442 6.55824 20.8 7 20.8H17L17.082 20.7961C17.4582 20.7577 17.7575 20.4585 17.7959 20.0823L17.7998 20.0002V6.2229C17.7998 5.78114 17.4417 5.4232 17 5.4231H14.7998V3.20044H9.2002V5.4231ZM12.0967 8.21021C12.533 7.71151 13.2913 7.6607 13.79 8.09692C14.2885 8.53331 14.3395 9.29159 13.9033 9.79028L12.1445 11.8H14.5C14.9707 11.8001 15.3982 12.0755 15.5928 12.5042C15.7872 12.9328 15.7132 13.436 15.4033 13.7903L11.9033 17.7903C11.467 18.2889 10.7087 18.3396 10.21 17.9036C9.71127 17.4672 9.66047 16.709 10.0967 16.2102L11.8555 14.2004H9.5C9.0293 14.2004 8.60188 13.9249 8.40723 13.4963C8.2127 13.0677 8.28678 12.5645 8.59668 12.2102L12.0967 8.21021Z" fill="#F3F6F8"/>
</g>
<defs>
<clipPath id="clip0_24452_69142">
<rect width="24" height="24" fill="white"/>
</clipPath>
</defs>
</svg>
