<svg width="24" height="24" viewBox="0 0 24 24" fill="none" xmlns="http://www.w3.org/2000/svg">
<path d="M2.5 16.2998C3.16274 16.2998 3.7002 16.8373 3.7002 17.5C3.7002 19.0464 4.9536 20.2998 6.5 20.2998C7.16274 20.2998 7.7002 20.8373 7.7002 21.5C7.7002 22.1627 7.16274 22.7002 6.5 22.7002C3.62812 22.7002 1.2998 20.3719 1.2998 17.5C1.2998 16.8373 1.83726 16.2998 2.5 16.2998ZM21.5 16.2998C22.1627 16.2998 22.7002 16.8373 22.7002 17.5C22.7002 20.3719 20.3719 22.7002 17.5 22.7002C16.8373 22.7002 16.2998 22.1627 16.2998 21.5C16.2998 20.8373 16.8373 20.2998 17.5 20.2998C19.0464 20.2998 20.2998 19.0464 20.2998 17.5C20.2998 16.8373 20.8373 16.2998 21.5 16.2998ZM12 8.5C13.9328 8.50017 15.5 10.0671 15.5 12C15.5 13.9329 13.9328 15.4998 12 15.5C10.067 15.5 8.5 13.933 8.5 12C8.50004 10.067 10.067 8.5 12 8.5ZM6.5 1.2998C7.16265 1.29991 7.7002 1.83732 7.7002 2.5C7.70009 3.16259 7.16259 3.70009 6.5 3.7002C4.9536 3.7002 3.7002 4.9536 3.7002 6.5C3.70009 7.16259 3.16259 7.70009 2.5 7.7002C1.83732 7.7002 1.29991 7.16265 1.2998 6.5C1.2998 3.62812 3.62812 1.2998 6.5 1.2998ZM17.5 1.2998C20.3719 1.2998 22.7002 3.62812 22.7002 6.5C22.7002 7.16274 22.1627 7.7002 21.5 7.7002C20.8373 7.7002 20.2998 7.16274 20.2998 6.5C20.2998 4.9536 19.0464 3.7002 17.5 3.7002C16.8373 3.7002 16.2998 3.16274 16.2998 2.5C16.2998 1.83726 16.8373 1.2998 17.5 1.2998Z" fill="#F3F6F8"/>
</svg>
