<svg width="24" height="24" viewBox="0 0 24 24" fill="none" xmlns="http://www.w3.org/2000/svg">
<path d="M13.7998 5.02441C13.7999 3.9464 15.103 3.40674 15.8652 4.16895L18.8486 7.15137C19.3172 7.61997 19.3172 8.38 18.8486 8.84863C18.38 9.31726 17.62 9.31725 17.1514 8.84863L16.2002 7.89746V19C16.2002 19.6627 15.6627 20.2001 15 20.2002C14.3373 20.2002 13.7998 19.6627 13.7998 19V5.02441ZM9 3.7998C9.6627 3.79985 10.2002 4.33729 10.2002 5V18.9756C10.2002 20.0536 8.89699 20.5932 8.13477 19.8311L5.15137 16.8486C4.68274 16.38 4.68274 15.62 5.15137 15.1514C5.62 14.6828 6.38002 14.6828 6.84863 15.1514L7.7998 16.1025V5C7.7998 4.33726 8.33726 3.7998 9 3.7998Z" fill="#F3F6F8"/>
</svg>
