<svg width="24" height="24" viewBox="0 0 24 24" fill="none" xmlns="http://www.w3.org/2000/svg">
<path d="M16.5996 2C18.8398 2 19.9608 1.99957 20.8164 2.43555C21.5689 2.81902 22.181 3.43109 22.5645 4.18359C23.0004 5.03924 23 6.16018 23 8.40039V14.1846C23 15.5799 23.0003 16.278 22.8281 16.8457C22.4403 18.124 21.4394 19.1239 20.1611 19.5117C19.5933 19.684 18.8956 19.6846 17.5 19.6846V20.167C17.5 21.0939 17.5 21.558 17.3057 21.8223C17.1363 22.0524 16.8764 22.1994 16.5918 22.2256C16.2651 22.2556 15.868 22.0156 15.0742 21.5371L13.5244 20.6035C12.9571 20.2615 12.6731 20.0897 12.3701 19.9688C12.1014 19.8615 11.8216 19.7842 11.5361 19.7373C11.2142 19.6844 10.8822 19.6846 10.2197 19.6846H7.40039C5.16018 19.6846 4.03924 19.684 3.18359 19.248C2.43114 18.8645 1.81897 18.2525 1.43555 17.5C0.99973 16.6444 1 15.5241 1 13.2842V8.40039C1 6.16018 0.999573 5.03924 1.43555 4.18359C1.81902 3.43109 2.43109 2.81902 3.18359 2.43555C4.03924 1.99957 5.16018 2 7.40039 2H16.5996ZM8 7.97754C7.44772 7.97754 7 8.42525 7 8.97754V10.9775C7 11.5298 7.44772 11.9775 8 11.9775H9L8.50977 13.2041C8.26585 13.8139 8.71439 14.4773 9.37109 14.4775C9.75067 14.4775 10.0924 14.246 10.2334 13.8936L10.9287 12.1562C10.9759 12.0383 11 11.9122 11 11.7852V8.97754C11 8.42532 10.5522 7.97765 10 7.97754H8ZM14 7.97754C13.4477 7.97754 13 8.42525 13 8.97754V10.9775C13 11.5298 13.4477 11.9775 14 11.9775H15L14.5098 13.2041C14.2658 13.8139 14.7144 14.4773 15.3711 14.4775C15.7507 14.4775 16.0924 14.246 16.2334 13.8936L16.9287 12.1562C16.9759 12.0383 17 11.9122 17 11.7852V8.97754C17 8.42532 16.5522 7.97765 16 7.97754H14Z" fill="#F3F6F8"/>
</svg>
