<svg width="24" height="24" viewBox="0 0 24 24" fill="none" xmlns="http://www.w3.org/2000/svg">
<path d="M14.2002 8.98926C17.0718 8.98953 19.4004 11.3177 19.4004 14.1895C19.4003 15.1903 19.1161 16.1247 18.626 16.918L20.877 19.1689C21.345 19.6375 21.3452 20.3977 20.877 20.8662C20.4085 21.3346 19.6483 21.3344 19.1797 20.8662L16.9287 18.6152C16.1355 19.1052 15.2009 19.3896 14.2002 19.3896C11.3285 19.3896 9.00026 17.0611 9 14.1895C9 11.3176 11.3283 8.98926 14.2002 8.98926ZM10.3379 1.7998C10.7007 1.80295 11.051 1.82128 11.3896 1.91406C11.7574 2.01487 12.1046 2.18049 12.4141 2.40332C12.7941 2.67705 13.0834 3.05109 13.3945 3.43652L14.0732 4.27734H15.5996C16.6998 4.27734 17.598 4.27653 18.3252 4.33594C19.0662 4.39651 19.7353 4.5263 20.3604 4.84473C21.3387 5.34327 22.1343 6.1388 22.6328 7.11719C22.9512 7.74223 23.081 8.41133 23.1416 9.15234C23.201 9.87955 23.2002 10.7776 23.2002 11.8779V13.4893C23.1999 14.1517 22.6625 14.6884 22 14.6885C21.3374 14.6885 20.8001 14.1518 20.7998 13.4893V11.8779C20.7998 10.738 20.7986 9.95446 20.749 9.34766C20.7006 8.75521 20.6125 8.43645 20.4951 8.20605C20.2267 7.67935 19.7982 7.25085 19.2715 6.98242C19.0411 6.86504 18.7223 6.77696 18.1299 6.72852C17.5231 6.67894 16.7394 6.67773 15.5996 6.67773H13.5C13.1374 6.67773 12.7942 6.5135 12.5664 6.23145L11.5273 4.94336C11.1331 4.45503 11.0683 4.39138 11.0117 4.35059C10.9345 4.29498 10.8476 4.25372 10.7559 4.22852C10.6885 4.21007 10.5986 4.2002 9.9707 4.2002H8.40039C7.26061 4.2002 6.4769 4.20141 5.87012 4.25098C5.27773 4.29941 4.95891 4.38753 4.72852 4.50488C4.20179 4.7733 3.77331 5.2018 3.50488 5.72852C3.38749 5.95892 3.29942 6.27761 3.25098 6.87012C3.2014 7.47693 3.2002 8.26048 3.2002 9.40039V13.5996C3.2002 14.7395 3.2014 15.5231 3.25098 16.1299C3.29942 16.7224 3.38749 17.0411 3.50488 17.2715C3.77331 17.7982 4.20179 18.2267 4.72852 18.4951C4.95891 18.6125 5.27774 18.7006 5.87012 18.749C6.4769 18.7986 7.26061 18.7998 8.40039 18.7998H9C9.66265 18.7999 10.2002 19.3373 10.2002 20C10.2002 20.6627 9.66265 21.2001 9 21.2002H8.40039C7.30018 21.2002 6.40198 21.201 5.6748 21.1416C4.93382 21.081 4.26467 20.9512 3.63965 20.6328C2.66123 20.1343 1.86573 19.3388 1.36719 18.3604C1.04874 17.7353 0.918964 17.0662 0.858398 16.3252C0.798983 15.598 0.799805 14.6999 0.799805 13.5996V9.40039C0.799805 8.30009 0.798983 7.40201 0.858398 6.6748C0.918964 5.93376 1.04874 5.26471 1.36719 4.63965C1.86573 3.66124 2.66123 2.86572 3.63965 2.36719C4.26467 2.04879 4.93382 1.91896 5.6748 1.8584C6.40198 1.799 7.30018 1.7998 8.40039 1.7998H10.3379ZM14.2002 11.3896C12.6538 11.3896 11.4004 12.6431 11.4004 14.1895C11.4007 15.7356 12.654 16.9893 14.2002 16.9893C15.7462 16.989 16.9997 15.7355 17 14.1895C17 12.6432 15.7464 11.3899 14.2002 11.3896ZM9 7.17773C9.44154 7.178 9.7997 7.53596 9.7998 7.97754C9.7998 8.4192 9.4416 8.77708 9 8.77734H7C6.55826 8.77724 6.2002 8.4193 6.2002 7.97754C6.2003 7.53587 6.55833 7.17784 7 7.17773H9Z" fill="#F3F6F8"/>
</svg>
