<svg width="24" height="24" viewBox="0 0 24 24" fill="none" xmlns="http://www.w3.org/2000/svg">
<path d="M10.1357 5.89453C9.47004 5.84928 8.66534 6.37114 7.05664 7.41602L4.13184 9.31641C2.75531 10.2105 2.06669 10.6577 1.82812 11.2246C1.61979 11.7203 1.61979 12.2797 1.82812 12.7754C2.06667 13.3424 2.75525 13.7895 4.13184 14.6836L7.05664 16.584C8.66534 17.6289 9.47004 18.1507 10.1357 18.1055C10.7158 18.066 11.2505 17.7765 11.5996 17.3115C11.9981 16.7809 12 15.829 12 13.9316C12.3103 14.1474 12.6841 14.3928 13.1318 14.6836L16.0566 16.584C17.6653 17.6289 18.47 18.1507 19.1357 18.1055C19.7158 18.066 20.2505 17.7765 20.5996 17.3115C21.0002 16.778 21 15.8186 21 13.9004V10.0996C21 8.18148 21.0002 7.22204 20.5996 6.68848C20.2505 6.22356 19.7158 5.93404 19.1357 5.89453C18.47 5.84928 17.6653 6.37114 16.0566 7.41602L13.1318 9.31641C12.6843 9.60707 12.3102 9.85172 12 10.0674C12 8.17072 11.998 7.21904 11.5996 6.68848C11.2505 6.22356 10.7158 5.93404 10.1357 5.89453Z" fill="#F3F6F8"/>
</svg>
