<svg width="24" height="24" viewBox="0 0 24 24" fill="none" xmlns="http://www.w3.org/2000/svg">
<rect width="24" height="24" fill="#222324"/>
<path d="M10.7446 6.24219C11.0921 6.24219 11.2667 6.24214 11.4272 6.28613C11.5693 6.32512 11.7032 6.38948 11.8228 6.47559C11.9578 6.57286 12.0674 6.70817 12.2856 6.97852L12.9282 7.77441H14.2271C15.6123 7.77441 16.3053 7.77451 16.8345 8.04395C17.3 8.28115 17.6793 8.66043 17.9165 9.12598C18.1859 9.65517 18.186 10.3481 18.186 11.7334V12.7988C18.186 14.1841 18.1859 14.8771 17.9165 15.4062C17.6793 15.8718 17.3 16.2511 16.8345 16.4883C16.3053 16.7577 15.6123 16.7578 14.2271 16.7578H9.77393C8.38825 16.7578 7.69478 16.758 7.16553 16.4883C6.70003 16.2511 6.32166 15.8718 6.08447 15.4062C5.81498 14.877 5.81494 14.1842 5.81494 12.7988V10.2012C5.81494 8.8155 5.8148 8.12203 6.08447 7.59277C6.32165 7.1274 6.70015 6.7489 7.16553 6.51172C7.69478 6.24205 8.38825 6.24219 9.77393 6.24219H10.7446ZM11.2173 9.78711C10.9919 9.8108 10.7871 9.92903 10.6538 10.1123C10.501 10.3226 10.5005 10.6866 10.5005 11.4141V12.1758C10.5005 12.9033 10.5011 13.2672 10.6538 13.4775C10.7871 13.661 10.9918 13.779 11.2173 13.8027C11.4757 13.8298 11.7907 13.6487 12.4204 13.2852L13.0806 12.9033C13.7106 12.5396 14.0256 12.3576 14.1313 12.1201C14.2234 11.9131 14.2235 11.6768 14.1313 11.4697C14.0256 11.2323 13.7105 11.0502 13.0806 10.6865L12.4204 10.3057C11.7906 9.94205 11.4757 9.76004 11.2173 9.78711Z" fill="white"/>
</svg>
