<svg width="24" height="24" viewBox="0 0 24 24" fill="none" xmlns="http://www.w3.org/2000/svg">
<path d="M15.2505 19.0515C15.768 18.6375 16.524 18.7215 16.938 19.239C17.3519 19.7565 17.2679 20.5125 16.7505 20.9265C16.7494 20.9274 16.7483 20.9279 16.7476 20.9285C14.849 22.4461 12.152 22.446 10.2534 20.9285C10.2527 20.9279 10.2515 20.9273 10.2505 20.9265C9.733 20.5125 9.64906 19.7565 10.063 19.239C10.477 18.7215 11.233 18.6375 11.7505 19.0515C11.7516 19.0524 11.7521 19.0532 11.7524 19.0535C12.7747 19.8704 14.2263 19.8705 15.2485 19.0535C15.2489 19.0532 15.2493 19.0525 15.2505 19.0515ZM9.3374 2.17261C12.8033 1.42966 16.2807 3.52842 17.2085 6.99097L17.6587 8.67065C18.9654 9.09334 20.0418 10.1458 20.4253 11.5759L20.4761 11.7859C20.942 13.9586 19.6262 16.1388 17.4556 16.7205L8.76221 19.0496C6.59157 19.6312 4.36211 18.4015 3.6792 16.2869L3.61768 16.0798C3.21755 14.5859 3.67754 13.0671 4.68896 12.0417L4.26416 10.4597C3.30645 6.88549 5.42822 3.21137 9.00244 2.25366L9.3374 2.17261ZM14.8892 7.61206C14.2744 5.31836 11.9173 3.95744 9.62354 4.57202C7.32978 5.18663 5.96817 7.54389 6.58252 9.83765L7.43213 13.0066L6.69775 13.4812C6.05791 13.8945 5.73028 14.6867 5.93701 15.4587C6.19443 16.4188 7.18097 16.9885 8.14111 16.7312L16.8345 14.4021C17.7945 14.1448 18.3639 13.158 18.1069 12.198C17.9097 11.4623 17.281 10.9532 16.5591 10.8757L15.7407 10.7878L14.8892 7.61206Z" fill="#F3F6F8"/>
</svg>
