<svg width="24" height="24" viewBox="0 0 24 24" fill="none" xmlns="http://www.w3.org/2000/svg">
<g clip-path="url(#clip0_24452_69141)">
<path d="M7.31982 0.856934C10.6776 0.498427 13.3298 1.8792 16.1978 3.57666C17.7127 4.47334 19.1803 5.69124 20.3315 6.82861C20.9095 7.39966 21.4213 7.96358 21.8286 8.47217C22.2202 8.96127 22.5678 9.46472 22.7612 9.90576C23.3455 11.2389 23.3454 12.7601 22.7612 14.0933C22.5679 14.5344 22.2204 15.0376 21.8286 15.5269C21.4213 16.0356 20.9097 16.5992 20.3315 17.1704C19.1803 18.3079 17.7129 19.5256 16.1978 20.4224C13.3296 22.1199 10.6778 23.5006 7.31982 23.1421C5.87566 22.9878 4.56899 22.2187 3.72217 21.0347C1.98365 18.6033 1.56048 15.4615 1.59912 11.9858C1.63518 8.74743 1.97666 5.40511 3.72217 2.96436C4.56901 1.78034 5.87566 1.01124 7.31982 0.856934ZM14.9761 5.64209C12.1105 3.94604 10.0729 2.97694 7.57471 3.24365C6.81977 3.32436 6.12733 3.72666 5.67432 4.35986C4.4033 6.13703 4.03539 8.7892 3.99951 12.0132C3.9623 15.3627 4.39673 17.8525 5.67432 19.6392C6.12731 20.2724 6.81977 20.6746 7.57471 20.7554C10.073 21.0221 12.1103 20.0531 14.9761 18.3569C16.279 17.5857 17.5923 16.5026 18.645 15.4624C19.1687 14.945 19.615 14.45 19.9546 14.0259C20.3096 13.5825 20.4984 13.2776 20.563 13.1304C20.8781 12.4112 20.8782 11.5878 20.563 10.8687C20.4982 10.7212 20.3092 10.416 19.9546 9.97314C19.615 9.5491 19.1685 9.05388 18.645 8.53662C17.5923 7.49658 16.2788 6.4132 14.9761 5.64209ZM11.9995 7.79932C12.6621 7.79932 13.1995 8.33698 13.1997 8.99951V12.9995C13.1997 13.4133 12.9861 13.7978 12.6353 14.0171L8.63525 16.5171C8.07328 16.8681 7.33313 16.6972 6.98193 16.1353C6.63127 15.5734 6.80207 14.8331 7.36377 14.4819L10.7993 12.3345V8.99951C10.7996 8.33712 11.3371 7.79954 11.9995 7.79932Z" fill="#F3F6F8"/>
</g>
<defs>
<clipPath id="clip0_24452_69141">
<rect width="24" height="24" fill="white"/>
</clipPath>
</defs>
</svg>
