<svg width="24" height="24" viewBox="0 0 24 24" fill="none" xmlns="http://www.w3.org/2000/svg">
<path d="M19.5 14C21.9853 14 24 16.0147 24 18.5C24 20.9853 21.9853 23 19.5 23C17.0147 23 15 20.9853 15 18.5C15 16.0147 17.0147 14 19.5 14ZM18.5029 20.791C18.8086 20.9242 19.1453 21 19.5 21C20.8807 21 22 19.8807 22 18.5C22 18.1453 21.9242 17.8086 21.791 17.5029L18.5029 20.791ZM17.7998 3.7998C18.3399 3.7998 18.8173 3.79892 19.2109 3.83105C19.6186 3.86437 20.0419 3.93889 20.4531 4.14844C21.0551 4.45521 21.5448 4.94488 21.8516 5.54688C22.0611 5.95814 22.1356 6.38135 22.1689 6.78906C22.2011 7.18269 22.2002 7.66013 22.2002 8.2002V12.9258C21.4873 12.4752 20.6736 12.1711 19.7998 12.0547V8.2002C19.7998 7.62051 19.7987 7.25765 19.7764 6.98438C19.7552 6.72509 19.7213 6.65327 19.7129 6.63672C19.6362 6.48622 19.5138 6.3638 19.3633 6.28711C19.3467 6.27866 19.2748 6.24481 19.0156 6.22363C18.7423 6.20132 18.3795 6.2002 17.7998 6.2002H6.2002C5.62051 6.2002 5.25765 6.20132 4.98438 6.22363C4.72509 6.24482 4.65327 6.27868 4.63672 6.28711C4.48622 6.3638 4.3638 6.48622 4.28711 6.63672C4.27868 6.65327 4.24482 6.72509 4.22363 6.98438C4.20132 7.25765 4.2002 7.62051 4.2002 8.2002V15.7998C4.2002 16.3795 4.20132 16.7423 4.22363 17.0156C4.24481 17.2748 4.27866 17.3467 4.28711 17.3633C4.3638 17.5138 4.48622 17.6362 4.63672 17.7129C4.65327 17.7213 4.72509 17.7552 4.98438 17.7764C5.25765 17.7987 5.62051 17.7998 6.2002 17.7998H13.0049C13.0027 17.8663 13 17.933 13 18C13 18.7769 13.1492 19.5188 13.418 20.2002H6.2002C5.66013 20.2002 5.18269 20.2011 4.78906 20.1689C4.38135 20.1356 3.95814 20.0611 3.54688 19.8516C2.94488 19.5448 2.45521 19.0551 2.14844 18.4531C1.93889 18.0419 1.86437 17.6186 1.83105 17.2109C1.79892 16.8173 1.7998 16.3399 1.7998 15.7998V8.2002C1.7998 7.66013 1.79892 7.18269 1.83105 6.78906C1.86437 6.38135 1.93889 5.95814 2.14844 5.54688C2.45521 4.94487 2.94487 4.45521 3.54688 4.14844C3.95814 3.93889 4.38135 3.86437 4.78906 3.83105C5.18269 3.79892 5.66013 3.7998 6.2002 3.7998H17.7998ZM19.5 16C18.1193 16 17 17.1193 17 18.5C17 18.7891 17.0513 19.0659 17.1416 19.3242L20.3242 16.1416C20.0659 16.0513 19.7891 16 19.5 16ZM10.8955 9.27344C11.2186 9.23949 11.6128 9.46717 12.4004 9.92188L13.5996 10.6143C14.3872 11.069 14.7809 11.2969 14.9131 11.5938C15.0283 11.8526 15.0283 12.1484 14.9131 12.4072C14.7807 12.7038 14.3867 12.9313 13.5996 13.3857L12.4004 14.0781C11.6128 14.5328 11.2186 14.7605 10.8955 14.7266C10.6139 14.697 10.358 14.5493 10.1914 14.3203C10.0004 14.0574 10 13.6018 10 12.6924V11.3076C10 10.3982 10.0004 9.94255 10.1914 9.67969C10.358 9.4507 10.6139 9.30304 10.8955 9.27344Z" fill="#F3F6F8"/>
</svg>
