<svg width="24" height="24" viewBox="0 0 24 24" fill="none" xmlns="http://www.w3.org/2000/svg">
<g clip-path="url(#clip0_24452_69147)">
<path d="M15 0.800049C18.9764 0.800154 22.2002 4.02386 22.2002 8.00024V13.012C23.3147 14.1788 24 15.7593 24 17.5002C23.9999 21.09 21.0898 24.0002 17.5 24.0002C16.3675 24.0002 15.3031 23.7096 14.376 23.2004H8C4.02361 23.2004 0.79991 19.9766 0.799805 16.0002V8.00024C0.799805 4.02379 4.02355 0.800049 8 0.800049H15ZM17.5 13.0002C15.0147 13.0002 13 15.015 13 17.5002C13.0001 19.9854 15.0148 22.0002 17.5 22.0002C19.9852 22.0002 21.9999 19.9854 22 17.5002C22 15.015 19.9853 13.0002 17.5 13.0002ZM8 3.20044C5.34903 3.20044 3.2002 5.34928 3.2002 8.00024V16.0002C3.2003 18.6511 5.3491 20.8 8 20.8H11.9004C11.3291 19.8327 11 18.7051 11 17.5002C11 13.9104 13.9101 11.0002 17.5 11.0002C18.3099 11.0002 19.0847 11.1495 19.7998 11.4202V8.00024C19.7998 5.34934 17.6509 3.20055 15 3.20044H8ZM9 10.8C9.66274 10.8 10.2002 11.3375 10.2002 12.0002C10.2001 12.6629 9.66268 13.2004 9 13.2004H6.5C5.83732 13.2004 5.29991 12.6629 5.2998 12.0002C5.2998 11.3375 5.83726 10.8 6.5 10.8H9ZM16.5 6.30005C17.1627 6.30005 17.7002 6.8375 17.7002 7.50024C17.7001 8.16289 17.1627 8.70044 16.5 8.70044H6.5C5.83732 8.70044 5.29991 8.16289 5.2998 7.50024C5.2998 6.8375 5.83726 6.30005 6.5 6.30005H16.5Z" fill="#F3F6F8"/>
<path d="M15.5 18L16.6128 19.1128C16.8207 19.3207 17.1623 19.3053 17.3505 19.0794L19.5 16.5" stroke="#F3F6F8" stroke-width="2" stroke-linecap="round"/>
</g>
<defs>
<clipPath id="clip0_24452_69147">
<rect width="24" height="24" fill="white"/>
</clipPath>
</defs>
</svg>
