<svg width="24" height="24" viewBox="0 0 24 24" fill="none" xmlns="http://www.w3.org/2000/svg">
<g clip-path="url(#clip0_24512_6251)">
<path d="M12 0.800049C18.1856 0.800049 23.2002 5.81465 23.2002 12.0002C23.2 18.1856 18.1855 23.2004 12 23.2004C9.95205 23.2004 8.02966 22.6487 6.37598 21.6868L3.66016 22.428C2.39127 22.774 1.2265 21.609 1.57227 20.3401L2.3125 17.6233C1.35098 15.9699 0.799876 14.0476 0.799805 12.0002C0.799805 5.81465 5.81441 0.800049 12 0.800049ZM12 3.20044C7.13989 3.20044 3.2002 7.14014 3.2002 12.0002C3.20027 13.6964 3.67863 15.2777 4.50781 16.6194C4.74989 17.0112 4.83476 17.5 4.70605 17.9719L4.20996 19.7893L6.02832 19.2942L6.20605 19.2561C6.56185 19.1988 6.91879 19.257 7.22949 19.4084L7.38086 19.4915L7.63477 19.6428C8.92039 20.3789 10.4094 20.8 12 20.8C16.86 20.8 20.7996 16.8602 20.7998 12.0002C20.7998 7.14014 16.8601 3.20044 12 3.20044ZM7.86133 7.32642C8.16683 6.98194 8.51397 6.97515 8.98828 7.01978C9.1406 7.01972 9.34347 6.95391 9.54102 7.47485C9.74692 7.99793 10.239 9.30976 10.3008 9.4436C10.3616 9.57639 10.4034 9.72335 10.3213 9.9104C9.8618 10.8528 9.35736 10.9178 9.59863 11.3694C9.74386 11.6376 10.2342 12.5071 10.9648 13.2161C11.9036 14.1263 12.6973 14.4074 12.9443 14.5413C13.1886 14.6615 13.3316 14.6485 13.4756 14.4749C13.618 14.2982 14.0906 13.7011 14.2529 13.4377C14.4868 13.0576 14.6844 13.1208 16.4951 14.0989C16.7418 14.2191 16.9029 14.2862 16.9639 14.4065C17.0256 14.527 17.0253 15.049 16.8154 15.678C16.6104 16.3071 15.6279 16.8702 15.1553 16.9514C14.7313 17.0174 14.1951 17.0455 13.6074 16.843C11.4304 16.0328 10.2396 15.4491 8.00488 12.2795C6.86774 10.543 6.53246 8.9095 7.86133 7.32642Z" fill="#F3F6F8"/>
</g>
<defs>
<clipPath id="clip0_24512_6251">
<rect width="24" height="24" fill="white"/>
</clipPath>
</defs>
</svg>
