<svg width="24" height="24" viewBox="0 0 24 24" fill="none" xmlns="http://www.w3.org/2000/svg">
<path d="M18.0742 2.53223C18.462 2.49147 18.9348 2.76395 19.8799 3.30957L21.6201 4.31445C22.5651 4.86004 23.0377 5.13309 23.1963 5.48926C23.3346 5.79993 23.3346 6.15515 23.1963 6.46582C23.0376 6.82192 22.565 7.09508 21.6201 7.64062L19.8799 8.64453C18.9348 9.19019 18.462 9.46361 18.0742 9.42285C17.736 9.38729 17.4284 9.20969 17.2285 8.93457C17.0148 8.64028 17.001 8.14538 17 7.19434C16.121 7.2882 15.3302 7.79286 14.8789 8.56641L12.8887 11.9775L14.8789 15.3887C15.3303 16.162 16.1211 16.6659 17 16.7598C17.001 15.8094 17.015 15.3147 17.2285 15.0205C17.4284 14.7454 17.736 14.5678 18.0742 14.5322C18.462 14.4915 18.9348 14.764 19.8799 15.3096L21.6201 16.3145C22.5651 16.86 23.0377 17.1331 23.1963 17.4893C23.3346 17.7999 23.3346 18.1552 23.1963 18.4658C23.0376 18.8219 22.565 19.0951 21.6201 19.6406L19.8799 20.6445C18.9348 21.1902 18.462 21.4636 18.0742 21.4229C17.736 21.3873 17.4284 21.2097 17.2285 20.9346C17.0127 20.6375 17.0007 20.1359 17 19.167C15.2663 19.0677 13.6873 18.1088 12.8057 16.5977L11.5 14.3584L10.1943 16.5977C9.26245 18.195 7.55148 19.1777 5.70215 19.1777H3C2.33737 19.1777 1.79999 18.6401 1.7998 17.9775C1.7998 17.3148 2.33726 16.7773 3 16.7773H5.70215C6.69779 16.7773 7.61929 16.2486 8.12109 15.3887L10.1104 11.9775L8.12109 8.56641C7.61931 7.70638 6.69786 7.1778 5.70215 7.17773H3C2.33737 7.17773 1.79999 6.64013 1.7998 5.97754C1.7998 5.3148 2.33726 4.77734 3 4.77734H5.70215C7.55154 4.77741 9.26248 5.75995 10.1943 7.35742L11.5 9.5957L12.8057 7.35742C13.6873 5.84605 15.2662 4.88636 17 4.78711C17.0007 3.81883 17.0129 3.31756 17.2285 3.02051C17.4284 2.74539 17.736 2.5678 18.0742 2.53223Z" fill="#F3F6F8"/>
</svg>
