<svg width="24" height="24" viewBox="0 0 24 24" fill="none" xmlns="http://www.w3.org/2000/svg">
<g clip-path="url(#clip0_24452_69309)">
<path d="M12.335 1.00879C15.7691 1.18317 18.5 4.02252 18.5 7.5V11H15.5V7.5C15.5 5.62726 14.0291 4.09748 12.1797 4.00391L12 4C10.067 4 8.5 5.567 8.5 7.5V11H5.5V7.5C5.5 3.91015 8.41015 1 12 1L12.335 1.00879Z" fill="#F3F6F8" stroke="black"/>
<mask id="path-2-outside-1_24452_69309" maskUnits="userSpaceOnUse" x="2.5" y="9" width="19" height="15" fill="black">
<rect fill="white" x="2.5" y="9" width="19" height="15"/>
<path d="M18 10C19.3807 10 20.5 11.1193 20.5 12.5V20.5C20.5 21.8807 19.3807 23 18 23H6C4.61929 23 3.5 21.8807 3.5 20.5V12.5C3.5 11.1193 4.61929 10 6 10H18ZM12 13.5C10.8954 13.5 10 14.3954 10 15.5C10 16.2397 10.4029 16.8835 11 17.2295V18.5C11 19.0523 11.4477 19.5 12 19.5C12.5523 19.5 13 19.0523 13 18.5V17.2295C13.5971 16.8835 14 16.2398 14 15.5C14 14.3954 13.1046 13.5 12 13.5Z"/>
</mask>
<path d="M18 10C19.3807 10 20.5 11.1193 20.5 12.5V20.5C20.5 21.8807 19.3807 23 18 23H6C4.61929 23 3.5 21.8807 3.5 20.5V12.5C3.5 11.1193 4.61929 10 6 10H18ZM12 13.5C10.8954 13.5 10 14.3954 10 15.5C10 16.2397 10.4029 16.8835 11 17.2295V18.5C11 19.0523 11.4477 19.5 12 19.5C12.5523 19.5 13 19.0523 13 18.5V17.2295C13.5971 16.8835 14 16.2398 14 15.5C14 14.3954 13.1046 13.5 12 13.5Z" fill="#FFDD57"/>
<path d="M20.5 20.5H21.5H20.5ZM3.5 12.5H2.5H3.5ZM12 13.5V12.5H12L12 13.5ZM11 17.2295H12V16.6532L11.5014 16.3643L11 17.2295ZM13 17.2295L12.4986 16.3642L12 16.6532V17.2295H13ZM18 10V11C18.8284 11 19.5 11.6716 19.5 12.5H20.5H21.5C21.5 10.567 19.933 9 18 9V10ZM20.5 12.5H19.5V20.5H20.5H21.5V12.5H20.5ZM20.5 20.5H19.5C19.5 21.3284 18.8284 22 18 22V23V24C19.933 24 21.5 22.433 21.5 20.5H20.5ZM18 23V22H6V23V24H18V23ZM6 23V22C5.17157 22 4.5 21.3284 4.5 20.5H3.5H2.5C2.5 22.433 4.067 24 6 24V23ZM3.5 20.5H4.5V12.5H3.5H2.5V20.5H3.5ZM3.5 12.5H4.5C4.5 11.6716 5.17157 11 6 11V10V9C4.067 9 2.5 10.567 2.5 12.5H3.5ZM6 10V11H18V10V9H6V10ZM12 13.5L12 12.5C10.3432 12.5 9 13.8431 9 15.5H10H11C11 14.9477 11.4477 14.5 12 14.5L12 13.5ZM10 15.5H9C9 16.6133 9.6078 17.5785 10.4986 18.0947L11 17.2295L11.5014 16.3643C11.198 16.1885 11 15.8662 11 15.5H10ZM11 17.2295H10V18.5H11H12V17.2295H11ZM11 18.5H10C10 19.6046 10.8954 20.5 12 20.5V19.5V18.5H11ZM12 19.5V20.5C13.1046 20.5 14 19.6046 14 18.5H13H12V19.5ZM13 18.5H14V17.2295H13H12V18.5H13ZM13 17.2295L13.5014 18.0947C14.3922 17.5785 15 16.6133 15 15.5H14H13C13 15.8662 12.802 16.1885 12.4986 16.3642L13 17.2295ZM14 15.5H15C15 13.8431 13.6569 12.5 12 12.5V13.5V14.5C12.5523 14.5 13 14.9477 13 15.5H14Z" fill="black" mask="url(#path-2-outside-1_24452_69309)"/>
</g>
<defs>
<clipPath id="clip0_24452_69309">
<rect width="24" height="24" fill="white"/>
</clipPath>
</defs>
</svg>
