<svg width="24" height="24" viewBox="0 0 24 24" fill="none" xmlns="http://www.w3.org/2000/svg">
<path fill-rule="evenodd" clip-rule="evenodd" d="M12 22C17.5228 22 22 17.5228 22 12C22 6.47715 17.5228 2 12 2C6.47715 2 2 6.47715 2 12C2 17.5228 6.47715 22 12 22Z" fill="#FFFC00"/>
<path fill-rule="evenodd" clip-rule="evenodd" d="M9.85866 17.5878L9.84357 17.5773L9.83389 17.5704C9.50183 17.3347 9.37121 17.2595 9.25369 17.2397L9.25122 17.2393C9.13855 17.2199 9.02438 17.2105 8.91005 17.2112L8.90501 17.2113C8.70323 17.2113 8.54095 17.2409 8.39519 17.2704L8.38544 17.2724L8.37563 17.2741C8.36915 17.2752 8.36107 17.2767 8.35161 17.2785C8.27815 17.2921 8.12137 17.3211 7.98221 17.3211C7.88598 17.3211 7.68944 17.3102 7.48378 17.1957C7.25277 17.0671 7.09703 16.8571 7.02482 16.6171C7.00647 16.5578 6.99125 16.5003 6.97856 16.4477C6.68795 16.3882 6.42637 16.3169 6.20327 16.2314C6.03644 16.1676 5.86623 16.0865 5.71503 15.9796C5.5691 15.8765 5.38927 15.7128 5.28368 15.4664L5.26841 15.4308L5.25665 15.3938C5.25569 15.3908 5.25532 15.3897 5.25532 15.3897C5.25532 15.3897 5.25439 15.3869 5.25116 15.3769C5.24802 15.3672 5.24227 15.3492 5.23631 15.3279C5.23042 15.3069 5.22213 15.2752 5.21514 15.2369C5.20973 15.2073 5.20362 15.166 5.20133 15.1165C5.1711 14.585 5.56842 14.2149 5.97863 14.1395L5.9924 14.1369C6.49116 14.0542 6.96778 13.7882 7.40162 13.2875C7.64767 13.0037 7.7984 12.7303 7.86142 12.6056C7.82169 12.5921 7.78007 12.579 7.73285 12.5643C7.65261 12.5418 7.56966 12.5124 7.54091 12.5022C7.53619 12.5005 7.53138 12.4988 7.53138 12.4988C7.51807 12.4943 7.50488 12.4895 7.49183 12.4843C7.46781 12.4748 7.45818 12.4716 7.44186 12.4664C7.42296 12.4602 7.39508 12.4512 7.32547 12.4259C7.2424 12.3958 7.10849 12.3438 6.97462 12.2582C6.83657 12.17 6.66408 12.0243 6.5498 11.7924C6.43093 11.5511 6.41354 11.2948 6.4579 11.0582C6.58747 10.3672 7.18479 10.172 7.45509 10.127C7.60444 10.1021 7.73792 10.1026 7.82697 10.1071C7.87349 10.1095 7.91305 10.1132 7.94305 10.1167C7.95816 10.1185 7.97114 10.1202 7.98169 10.1217L7.98402 10.1221C7.9707 9.85186 7.96251 9.5669 7.96919 9.28989C7.98009 8.83783 8.03081 8.3057 8.22749 7.86362L8.22792 7.86264C9.20201 5.68108 11.2775 5.50666 11.8702 5.50482L12.0844 5.5H12.1234C12.7006 5.5 14.7944 5.65982 15.7743 7.85628C15.9737 8.30006 16.0241 8.83447 16.0346 9.28633C16.0408 9.55365 16.0331 9.82837 16.0203 10.0896C16.0919 10.0766 16.1647 10.0697 16.2378 10.0691L16.3129 10.0684L16.6775 10.1341L16.7451 10.1595C17.0487 10.2732 17.5518 10.5997 17.5613 11.2149C17.5805 11.8753 17.0263 12.2618 16.5129 12.4693L16.5035 12.4731L16.494 12.4767C16.4908 12.4779 16.4871 12.4793 16.4827 12.481C16.4438 12.4958 16.3578 12.5285 16.256 12.5546C16.2149 12.5673 16.177 12.5794 16.1407 12.5919C16.2083 12.723 16.3568 12.9854 16.5908 13.2602C16.9316 13.6606 17.3997 14.0257 18.0082 14.1269L18.0098 14.1272C18.2356 14.1652 18.4399 14.2837 18.5851 14.4607C18.7276 14.6345 18.8036 14.8532 18.7998 15.0776C18.7984 15.1965 18.7751 15.3414 18.7033 15.4883C18.5972 15.7172 18.4277 15.8719 18.2867 15.9719C18.1348 16.0795 17.9641 16.1604 17.7975 16.2239C17.5743 16.3089 17.3122 16.3799 17.0207 16.4395C17.008 16.4908 16.9945 16.542 16.9802 16.5929L16.9766 16.6059C16.9306 16.7596 16.8348 16.9549 16.64 17.1075C16.4402 17.2639 16.2165 17.3127 16.0313 17.3127H16.0175C15.8915 17.3127 15.7554 17.297 15.6092 17.2682L15.5969 17.2658C15.4325 17.2308 15.2648 17.2132 15.0967 17.2137L15.0947 17.2137C14.9825 17.2137 14.8628 17.2236 14.7435 17.2432L14.742 17.2435C14.632 17.2614 14.5033 17.3342 14.1704 17.5701L14.1445 17.5885C14.1281 17.5997 14.1113 17.6111 14.0941 17.6229C13.6758 17.9098 13.022 18.3585 12.0748 18.3585H11.9224C10.9609 18.3585 10.3082 17.9022 9.88896 17.609C9.87873 17.6018 9.86862 17.5948 9.85866 17.5878Z" fill="black"/>
<path d="M11.9225 17.5583C11.2085 17.5583 10.7321 17.2217 10.3067 16.9247C10.0049 16.7105 9.72108 16.5071 9.38688 16.4507C9.22776 16.4233 9.06653 16.4101 8.90507 16.4111C8.62187 16.4111 8.39687 16.4537 8.23667 16.4861C8.13467 16.5041 8.04947 16.5209 7.98227 16.5209C7.91267 16.5209 7.82447 16.5017 7.79027 16.3841C7.76027 16.2881 7.74167 16.1969 7.72307 16.1087C7.67507 15.8867 7.63487 15.7505 7.55147 15.7367C6.65806 15.6005 6.12346 15.3947 6.01906 15.1511C6.01066 15.1247 6.00045 15.0971 6.00045 15.0761C5.99445 15.0011 6.04846 14.9399 6.12346 14.9261C6.83206 14.8085 7.46866 14.4317 8.00627 13.8113C8.42387 13.3295 8.62727 12.8638 8.64587 12.8134C8.64587 12.8074 8.65127 12.8074 8.65127 12.8074C8.75327 12.5968 8.77427 12.4174 8.71247 12.2704C8.59787 11.9944 8.21747 11.8768 7.95827 11.7964C7.89167 11.7784 7.83527 11.7568 7.78727 11.7406C7.56527 11.6524 7.19566 11.4646 7.24426 11.2054C7.27906 11.0182 7.52746 10.8844 7.73087 10.8844C7.78727 10.8844 7.83527 10.8928 7.87487 10.9144C8.10287 11.0182 8.30867 11.0716 8.48507 11.0716C8.70467 11.0716 8.80907 10.9888 8.83547 10.9624C8.82989 10.8438 8.82289 10.7251 8.81447 10.6066C8.76047 9.78763 8.69927 8.77122 8.95847 8.18862C9.73728 6.44441 11.3903 6.3046 11.8799 6.3046L12.0935 6.2998H12.1235C12.6125 6.2998 14.2655 6.43601 15.0443 8.18322C15.3065 8.76582 15.2423 9.78523 15.1883 10.6012L15.1835 10.6414C15.1775 10.7506 15.1697 10.855 15.1643 10.9624C15.1913 10.9834 15.2873 11.0638 15.4853 11.0662C15.6569 11.0614 15.8441 11.005 16.0577 10.9084C16.1168 10.8829 16.1805 10.8694 16.2449 10.8688C16.3199 10.8688 16.3949 10.8868 16.4591 10.9084H16.4645C16.6439 10.9756 16.7615 11.101 16.7615 11.2324C16.7669 11.3554 16.6703 11.5426 16.2131 11.7274C16.1651 11.7454 16.1087 11.7676 16.0421 11.7832C15.7877 11.8612 15.4079 11.9842 15.2873 12.2572C15.2207 12.4012 15.2477 12.586 15.3491 12.7942C15.3491 12.8002 15.3545 12.8002 15.3545 12.8002C15.3839 12.8746 16.1567 14.6297 17.8769 14.9159C17.9121 14.9218 17.9439 14.9402 17.9665 14.9678C17.9891 14.9954 18.001 15.0302 17.9999 15.0659C17.9999 15.0923 17.9945 15.1193 17.9813 15.1433C17.8769 15.3893 17.3471 15.5897 16.4483 15.7289C16.3655 15.7421 16.3253 15.8789 16.2773 16.1009C16.2581 16.1934 16.2357 16.2853 16.2101 16.3763C16.1837 16.4645 16.1273 16.5125 16.0313 16.5125H16.0175C15.9563 16.5125 15.8735 16.5047 15.7637 16.4831C15.5438 16.4362 15.3196 16.4129 15.0947 16.4135C14.9369 16.4135 14.7737 16.4273 14.6135 16.4537C14.2817 16.5077 13.9955 16.7135 13.6931 16.9277C13.2629 17.2217 12.7841 17.5583 12.0749 17.5583H11.9225Z" fill="white"/>
</svg>
