<svg width="24" height="24" viewBox="0 0 24 24" fill="none" xmlns="http://www.w3.org/2000/svg">
<path d="M18.3958 1.28227L9.26042 4.1407C8.15364 4.46363 7.25655 5.64434 7.25655 6.77628V16.4953C7.25655 16.4953 7.25655 16.6282 7.25655 16.6315C7.25655 16.6315 6.59462 16.1749 5.12029 16.3885C2.95525 16.703 1.19971 18.4026 1.19971 20.1854C1.19971 21.9683 2.95525 23.0607 5.12029 22.7462C7.28697 22.4333 8.87477 20.7859 8.87477 19.0022C8.87477 19.0022 8.87477 11.378 8.87477 10.5875C8.87477 9.79702 9.80394 9.45811 9.80394 9.45811L17.8811 6.86878C17.8811 6.86878 18.7749 6.56183 18.7749 7.40784C18.7749 8.25385 18.7749 14.1616 18.7749 14.1616C18.7749 14.1616 18.7749 14.1633 18.7749 14.1667C18.7749 14.1667 17.9518 13.6823 16.4775 13.8656C14.3124 14.1339 12.5569 15.7981 12.5569 17.5801C12.5569 19.3638 14.3124 20.4924 16.4775 20.2233C18.6442 19.955 20.3997 18.2916 20.3997 16.5079V2.74722C20.3997 1.61529 19.5018 0.959335 18.3958 1.28227Z" fill="#F3F6F8"/>
</svg>
