<svg width="24" height="24" viewBox="0 0 24 24" fill="none" xmlns="http://www.w3.org/2000/svg">
<path d="M3.44531 13.7661C3.44531 14.4411 2.89767 14.9888 2.22266 14.9888C1.54763 14.9888 0.999999 14.4411 0.999999 13.7661L1 10.2114C1 9.5364 1.54763 8.98877 2.22266 8.98877C2.89767 8.98878 3.44531 9.5364 3.44531 10.2114L3.44531 13.7661ZM8.33398 17.7661C8.33398 18.4411 7.78635 18.9888 7.11133 18.9888C6.43634 18.9887 5.88867 18.4411 5.88867 17.7661L5.88867 6.21143C5.88867 5.53642 6.43634 4.98881 7.11133 4.98877C7.78635 4.98877 8.33398 5.5364 8.33398 6.21143L8.33398 17.7661ZM13.2227 21.7661C13.2227 22.4411 12.675 22.9888 12 22.9888C11.3251 22.9886 10.7783 22.441 10.7783 21.7661L10.7783 2.21143C10.7783 1.5365 11.3251 0.98893 12 0.988769C12.675 0.988769 13.2227 1.5364 13.2227 2.21143L13.2227 21.7661ZM18.1113 17.7661C18.1113 18.441 17.5645 18.9885 16.8896 18.9888C16.2146 18.9888 15.667 18.4411 15.667 17.7661L15.667 5.21143C15.667 4.5364 16.2146 3.98877 16.8896 3.98877C17.5645 3.98899 18.1113 4.53654 18.1113 5.21143L18.1113 17.7661ZM23 13.7661C23 14.4411 22.4524 14.9888 21.7773 14.9888C21.1025 14.9885 20.5557 14.441 20.5557 13.7661L20.5557 10.2114C20.5557 9.53654 21.1025 8.98899 21.7773 8.98877C22.4524 8.98877 23 9.5364 23 10.2114L23 13.7661Z" fill="#F3F6F8"/>
</svg>
