<svg width="24" height="24" viewBox="0 0 24 24" fill="none" xmlns="http://www.w3.org/2000/svg">
<path d="M13.8643 5.89453C14.53 5.84928 15.3347 6.37114 16.9434 7.41602L19.8682 9.31641C21.2447 10.2105 21.9333 10.6577 22.1719 11.2246C22.3802 11.7203 22.3802 12.2797 22.1719 12.7754C21.9333 13.3424 21.2447 13.7895 19.8682 14.6836L16.9434 16.584C15.3347 17.6289 14.53 18.1507 13.8643 18.1055C13.2842 18.066 12.7495 17.7765 12.4004 17.3115C12.0019 16.7809 12 15.829 12 13.9316C11.6897 14.1474 11.3159 14.3928 10.8682 14.6836L7.94336 16.584C6.33466 17.6289 5.52996 18.1507 4.86426 18.1055C4.28417 18.066 3.74952 17.7765 3.40039 17.3115C2.99976 16.778 3 15.8186 3 13.9004V10.0996C3 8.18148 2.99976 7.22204 3.40039 6.68848C3.74952 6.22356 4.28419 5.93404 4.86426 5.89453C5.52996 5.84928 6.33466 6.37114 7.94336 7.41602L10.8682 9.31641C11.3157 9.60707 11.6898 9.85172 12 10.0674C12 8.17072 12.002 7.21904 12.4004 6.68848C12.7495 6.22356 13.2842 5.93404 13.8643 5.89453Z" fill="#F3F6F8"/>
</svg>
