<svg width="24" height="24" viewBox="0 0 24 24" fill="none" xmlns="http://www.w3.org/2000/svg">
<path d="M12 1.98877C17.5228 1.98877 22 6.46592 22 11.9888C22 17.5116 17.5228 21.9888 12 21.9888C6.47715 21.9888 2 17.5116 2 11.9888C2 6.46592 6.47715 1.98877 12 1.98877ZM12 3.98877C7.58172 3.98877 4 7.57049 4 11.9888C4 16.407 7.58172 19.9888 12 19.9888C16.4183 19.9888 20 16.407 20 11.9888C20 7.57049 16.4183 3.98877 12 3.98877ZM13 11.563L16.2441 14.8071L14.8301 16.2212L11.293 12.6841C11.1056 12.4966 11 12.2421 11 11.9771V6.97705H13V11.563Z" fill="#F3F6F8"/>
</svg>
