<svg width="24" height="24" viewBox="0 0 24 24" fill="none" xmlns="http://www.w3.org/2000/svg">
<g clip-path="url(#clip0_25660_37898)">
<path d="M18.7998 4.77734C19.3398 4.77734 19.8174 4.77646 20.2109 4.80859C20.6186 4.84191 21.0419 4.91645 21.4531 5.12598C22.0551 5.43275 22.5448 5.92245 22.8516 6.52441C23.0611 6.93566 23.1356 7.35891 23.1689 7.7666C23.2011 8.16021 23.2002 8.6377 23.2002 9.17773V18.7773C23.2002 19.3174 23.2011 19.7949 23.1689 20.1885C23.1356 20.5961 23.0611 21.0194 22.8516 21.4307C22.5448 22.0326 22.055 22.5223 21.4531 22.8291C21.0419 23.0386 20.6186 23.1132 20.2109 23.1465C19.8174 23.1786 19.3398 23.1777 18.7998 23.1777H15.2002C14.6602 23.1777 14.1827 23.1786 13.7891 23.1465C13.3814 23.1132 12.9581 23.0386 12.5469 22.8291C11.9449 22.5223 11.4552 22.0327 11.1484 21.4307C10.9389 21.0194 10.8644 20.5962 10.8311 20.1885C10.7989 19.7949 10.7998 19.3174 10.7998 18.7773L10.7998 9.17773C10.7998 8.6377 10.7989 8.16021 10.8311 7.7666C10.8644 7.35892 10.9389 6.93565 11.1484 6.52441C11.4552 5.92248 11.9449 5.43272 12.5469 5.12598C12.9581 4.9165 13.3814 4.8419 13.7891 4.80859C14.1827 4.77647 14.6602 4.77734 15.2002 4.77734H18.7998ZM9 12.1777H5.2002C4.62062 12.1777 4.25763 12.1789 3.98437 12.2012C3.72546 12.2223 3.65341 12.2562 3.63672 12.2646C3.48622 12.3413 3.3638 12.4638 3.28711 12.6143C3.27861 12.631 3.24479 12.703 3.22363 12.9619C3.20133 13.2352 3.2002 13.5982 3.2002 14.1777V17.7773C3.2002 18.3569 3.20132 18.7199 3.22363 18.9932C3.24482 19.2523 3.27868 19.3243 3.28711 19.3408C3.36381 19.4912 3.48629 19.6138 3.63672 19.6904C3.6537 19.6991 3.72626 19.7328 3.98437 19.7539C4.25763 19.7762 4.62064 19.7773 5.2002 19.7773H9V22.1777H5.2002C4.66022 22.1777 4.18265 22.1786 3.78906 22.1465C3.38143 22.1132 2.95808 22.0386 2.54687 21.8291C1.94495 21.5224 1.45522 21.0326 1.14844 20.4307C0.938919 20.0195 0.864375 19.5961 0.831055 19.1885C0.798924 18.7949 0.799804 18.3173 0.799805 17.7773L0.799805 14.1777C0.799805 13.6377 0.798935 13.1602 0.831055 12.7666C0.864364 12.3589 0.938913 11.9357 1.14844 11.5244C1.45521 10.9224 1.94487 10.4328 2.54687 10.126C2.95813 9.91645 3.38137 9.8419 3.78906 9.80859C4.18266 9.77647 4.6602 9.77734 5.2002 9.77734H9V12.1777ZM15.2002 7.17773C14.6206 7.17773 14.2576 7.17887 13.9844 7.20117C13.726 7.22228 13.6536 7.25606 13.6367 7.26465C13.4863 7.34132 13.3638 7.46383 13.2871 7.61426C13.2787 7.63081 13.2448 7.70271 13.2236 7.96191C13.2013 8.23518 13.2002 8.5981 13.2002 9.17773L13.2002 18.7773C13.2002 19.357 13.2013 19.7199 13.2236 19.9932C13.2448 20.2524 13.2787 20.3243 13.2871 20.3408C13.3638 20.4913 13.4862 20.6137 13.6367 20.6904C13.6535 20.6989 13.7256 20.7328 13.9844 20.7539C14.2576 20.7762 14.6206 20.7773 15.2002 20.7773H18.7998C19.3794 20.7773 19.7424 20.7762 20.0156 20.7539C20.2748 20.7327 20.3467 20.6989 20.3633 20.6904C20.5137 20.6137 20.6362 20.4913 20.7129 20.3408C20.7215 20.324 20.7552 20.2517 20.7764 19.9932C20.7987 19.7199 20.7998 19.357 20.7998 18.7773V9.17773C20.7998 8.5981 20.7987 8.23518 20.7764 7.96191C20.7552 7.70269 20.7213 7.63081 20.7129 7.61426C20.6362 7.46379 20.5137 7.34134 20.3633 7.26465C20.3467 7.25622 20.2748 7.22236 20.0156 7.20117C19.7424 7.17886 19.3794 7.17773 18.7998 7.17773H15.2002ZM13 0.177734C13.4416 0.17784 13.7996 0.535955 13.7998 0.977539C13.7998 1.41926 13.4417 1.77724 13 1.77734L10 1.77734C8.58214 1.77734 7.38011 2.70024 6.95996 3.97754H7.24707C7.9745 3.97754 8.33855 3.97809 8.54883 4.13086C8.73202 4.26413 8.85034 4.46902 8.87402 4.69434C8.901 4.95275 8.719 5.26781 8.35547 5.89746L7.1084 8.05762C6.74468 8.68759 6.56262 9.00265 6.3252 9.1084C6.11817 9.20056 5.88185 9.20048 5.6748 9.1084C5.43736 9.00268 5.25533 8.68762 4.8916 8.05762L3.64453 5.89746C3.28092 5.26767 3.09898 4.95278 3.12598 4.69434C3.14967 4.46892 3.26785 4.26413 3.45117 4.13086C3.66146 3.97807 4.02538 3.97754 4.75293 3.97754L5.30566 3.97754C5.76594 1.80691 7.69219 0.177734 10 0.177734L13 0.177734Z" fill="#F3F6F8"/>
</g>
<defs>
<clipPath id="clip0_25660_37898">
<rect width="24" height="24" fill="white"/>
</clipPath>
</defs>
</svg>
